<svg xmlns="http://www.w3.org/2000/svg" width="402.915" height="424.802" viewBox="0 0 402.915 424.802">
  <g id="Group_960" data-name="Group 960" transform="matrix(1, 0.017, -0.017, 1, 1489.58, -1441.819)" opacity="0.582">
    <path id="Path_17709" data-name="Path 17709" d="M100,0H470.467V4.45H100Z" transform="translate(-1531.564 1478.353) rotate(-1)" fill="#e8b491"/>
    <path id="Path_17701" data-name="Path 17701" d="M-1293.225,1542.2c-13.33-8.536-39.632-22.806-67.475-23.673v-23.835c0-2.571-1.251-7.51-5.984-7.8a6.722,6.722,0,0,1-4.731-2.429,7.659,7.659,0,0,1-1.908-5.329c.468-5.066,3.833-8.213,8.784-8.213,2.268,0,3.752,1.553,4.723,3.481h3.96c-2.214-5.877-5.927-7.138-8.683-7.138-6.9,0-11.779,4.527-12.425,11.533a11.3,11.3,0,0,0,2.773,8.045,10.4,10.4,0,0,0,7.286,3.7c2.488.151,2.547,3.991,2.549,4.147v23.794c-26.64.335-52.722,13.906-66.1,22.1a6.884,6.884,0,0,0-3.052,7.809,6.907,6.907,0,0,0,6.7,5.079h130.276a6.081,6.081,0,0,0,5.879-4.4A6.08,6.08,0,0,0-1293.225,1542.2Zm-2.755,5.315a.512.512,0,0,1-.548.408H-1426.8a1.347,1.347,0,0,1-1.359-1.032,1.308,1.308,0,0,1,.608-1.565c13.057-8,38.622-21.3,64.277-21.3.344,0,.691,0,1.035.007,27,.381,52.956,14.474,66.021,22.841A.51.51,0,0,1-1295.98,1547.518Z" transform="translate(-11.702)" fill="#ce8d6a"/>
    <path id="Path_17702" data-name="Path 17702" d="M-1210.729,1542.2c-13.33-8.536-39.632-22.806-67.475-23.673v-23.835c0-2.571-1.251-7.51-5.985-7.8a6.722,6.722,0,0,1-4.731-2.429,7.658,7.658,0,0,1-1.908-5.329c.468-5.066,3.833-8.213,8.784-8.213,2.268,0,3.753,1.553,4.723,3.481h3.961c-2.214-5.877-5.928-7.138-8.685-7.138-6.9,0-11.778,4.527-12.424,11.533a11.3,11.3,0,0,0,2.773,8.045,10.4,10.4,0,0,0,7.286,3.7c2.488.151,2.547,3.991,2.549,4.147v23.794c-26.639.335-52.722,13.906-66.1,22.1a6.884,6.884,0,0,0-3.052,7.809,6.907,6.907,0,0,0,6.7,5.079h130.276a6.08,6.08,0,0,0,5.879-4.4A6.079,6.079,0,0,0-1210.729,1542.2Zm-2.755,5.315a.512.512,0,0,1-.548.408h-130.276a1.345,1.345,0,0,1-1.358-1.032,1.307,1.307,0,0,1,.608-1.565c13.057-8,38.622-21.3,64.277-21.3.344,0,.691,0,1.035.007,27,.381,52.956,14.474,66.022,22.841A.51.51,0,0,1-1213.484,1547.518Z" transform="translate(-52.387)" fill="#ce8d6a"/>
    <path id="Path_17703" data-name="Path 17703" d="M-1418.927,1587.4s20.294,18.1,49.548,17,43.148-15.723,43.148-15.723,23.037,11.7,27.79,18.283,6.948,73.864,6.948,73.864-11.335,4.39-23.037,4.024l-4.754-14.262,14.407,239.2s-17.819.732-28.547-5.419c-10.336-5.927-25.906,1.967-39.8,3.835s-21.874-8.711-35.526-4.323c-21.29,6.843-37.785,2.925-37.785,2.925l21.922-236.908-5.939,13.858s-20.37-.006-26.952-6.954c0,0,7.8-71.548,12.189-75.936S-1418.927,1587.4-1418.927,1587.4Z" transform="translate(0 -59.244)" fill="#80bdcc"/>
    <path id="Path_17704" data-name="Path 17704" d="M-1336.431,1586.4s20.294,18.1,49.548,17,43.148-15.723,43.148-15.723,23.037,11.7,27.79,18.283,6.948,73.864,6.948,73.864-11.335,4.39-23.036,4.024l-4.754-14.262,15.191,272.993s-18.6,2.42-29.33-3.732c-10.337-5.927-25.906,1.967-39.8,3.836s-21.874-3.643-35.526.746c-21.29,6.843-37.785,2.925-37.785,2.925l21.921-277.454-5.939,13.858s-20.37-.005-26.952-6.954c0,0,7.8-71.548,12.189-75.936S-1336.431,1586.4-1336.431,1586.4Z" transform="translate(-40.685 -58.751)" fill="#233862"/>
    <path id="Path_17705" data-name="Path 17705" d="M-1268.139,1551.969a6.915,6.915,0,0,0,6.706,5.076h130.279a6.087,6.087,0,0,0,5.88-4.4,6.082,6.082,0,0,0-2.581-6.875,177.607,177.607,0,0,0-24.346-13.055,145.832,145.832,0,0,0-14.509-5.47,106.21,106.21,0,0,0-28.617-5.155h0v-23.828c0-2.571-1.25-7.51-5.984-7.8a6.72,6.72,0,0,1-4.732-2.429,7.663,7.663,0,0,1-1.908-5.329c.468-5.066,3.834-8.213,8.784-8.213a4.59,4.59,0,0,1,3.532,1.675h4.362c-2.238-4.342-5.444-5.331-7.894-5.331-6.9,0-11.778,4.527-12.425,11.533a11.3,11.3,0,0,0,2.773,8.046,10.4,10.4,0,0,0,7.286,3.7c2.488.152,2.547,3.991,2.549,4.147v23.79a105.4,105.4,0,0,0-31.857,5.88c-4.615,1.551-9.025,3.3-13.149,5.128a182.808,182.808,0,0,0-21.092,11.1A6.886,6.886,0,0,0-1268.139,1551.969Zm137.5-1.514a1.347,1.347,0,0,1-1.36,1.038h-130.28a.516.516,0,0,1-.549-.409.51.51,0,0,1,.242-.637,174.52,174.52,0,0,1,21.807-11.862,143.708,143.708,0,0,1,15.863-6.1,100.016,100.016,0,0,1,28.354-4.879c.343-.008.687-.008,1.03-.008a98.725,98.725,0,0,1,30.731,5.448c4.57,1.514,8.951,3.247,13.039,5.061a175.863,175.863,0,0,1,20.507,10.78A1.315,1.315,0,0,1-1130.635,1550.455Z" transform="translate(-93.259 -1.758)" fill="#ce8d6a"/>
    <path id="Path_17706" data-name="Path 17706" d="M-1276.454,1833.042a21.326,21.326,0,0,0,21.815,4.965c13.164-4.388,26.9-.054,29.734,1.713,15.586,9.707,32.626,10.71,39.736-1.706,4.743-8.285,19.746,8.775,50.843,2.342,0,0-31.593-131.593-32.323-150.2s21.1-40.569,10.866-77.5c0,0-.045-.255-.11-.724-.138-1.024-.387-3.057-.548-5.551a46.816,46.816,0,0,1,.717-13.383,12.117,12.117,0,0,1,2.318-5.053c-4.125-1.829-8.535-3.576-13.149-5.128-.571,1.354-1.316,3.1-2.208,5.12-2.238,5.053-5.42,11.81-9.106,18.443-1.037,1.872-2.12,3.737-3.239,5.551-5.814,9.485-12.469,17.552-18.554,18.276,0,0-8-1.075-18.108-18.276-.994-1.69-2-3.533-3.035-5.551a163.155,163.155,0,0,1-8.074-19.006c-.6-1.682-1.206-3.43-1.806-5.245a145.882,145.882,0,0,0-14.509,5.47,7.418,7.418,0,0,0-.542.922s.5,1.916.994,4.951a72.508,72.508,0,0,1,.981,12.908,51.286,51.286,0,0,1-.409,5.551c-.03.241-.066.482-.1.724,0,0-4.774,9.255-3.312,26.076s8.3,33.989,7.811,51.426C-1240.431,1713.587-1275.723,1804.521-1276.454,1833.042Zm117.664-218.47c1.185-.746,2.055-1.3,2.546-1.615C-1156.735,1613.286-1157.605,1613.848-1158.79,1614.572Z" transform="translate(-89.29 -56.646)" fill="#4d8693"/>
  </g>
</svg>
