<svg xmlns="http://www.w3.org/2000/svg" width="279.87" height="461.63" viewBox="0 0 279.87 461.63">
  <g id="Group_953" data-name="Group 953" transform="translate(-1094.561 -3391.995)">
    <g id="Group_859" data-name="Group 859" transform="translate(1094.561 3497.994)">
      <path id="Path_17566" data-name="Path 17566" d="M1337.585,3773.052s-.652.7-1.863,2c-4.427,4.8-16.446,17.844-29.678,32.846-3.121,3.541-6.336,7.222-9.55,10.9-4.8,5.546-9.5,11.089-13.885,16.448l-.046.045c-1.352,1.584-2.609,3.122-3.867,4.659-2.609,3.215-5.032,6.29-7.268,9.179-6.709,8.759-11.414,15.84-12.3,19.427-5.357,22.41,5.078,85.492,7.781,100.913H1120.524c4.426-32.054,10.575-77.338,11.368-84.234,1.212-10.856-36.667-57.445-37.319-91.457-.606-33.964,21.85-58.283,25.392-91.735,1.723-15.748-.234-36.247-2.749-53.718-1.3-9.271-2.842-17.564-4.053-23.855a8.734,8.734,0,0,1,2.33-7.873,7.679,7.679,0,0,1,1.677-1.352,8.584,8.584,0,0,1,8.245-.652c8.387,3.588,17.7,13.093,20.128,36.806,0,0,7.035,4.425,18.4,11.647,4.612,2.889,9.924,6.243,15.795,9.971,4.519,2.841,9.365,5.917,14.442,9.132.326.186.653.419.979.606,2.05,1.3,4.053,2.608,6.2,3.959h.046c.745.465,1.491.979,2.283,1.445q2.027,1.327,4.193,2.656a5.608,5.608,0,0,0,.886.512c9.225,5.87,18.868,12.021,28.606,18.218h.047c1.584.93,3.168,1.955,4.752,2.981,1.211.792,2.47,1.537,3.728,2.33,1.537,1.025,3.121,2,4.705,2.981h.047c11.042,6.988,21.85,13.884,31.96,20.267,1.584,1.025,3.169,2,4.706,2.981,1.258.794,2.469,1.585,3.68,2.33,1.631,1.025,3.121,2,4.659,3.029h.047c19.288,12.159,34.2,21.663,39.648,25.158C1336.793,3772.541,1337.585,3773.007,1337.585,3773.052Z" transform="translate(-1094.561 -3613.844)" fill="#f2b9a0"/>
      <path id="Path_17567" data-name="Path 17567" d="M1143.59,3640.91a7.6,7.6,0,0,1-6.431,8.018l-1.016.151c-1.328-9.23-2.843-17.551-4.056-23.843-.6-3.076-1.516-6.031-1.256-9.18,6.37-3.116,8.821,4.418,9.6,7.475A97.08,97.08,0,0,1,1143.59,3640.91Z" transform="translate(-1113.478 -3614.613)" fill="#ffc197"/>
    </g>
    <path id="Path_17568" data-name="Path 17568" d="M1380.779,4010.274c-4.8,5.546-9.5,11.089-13.885,16.448l-.046.045c-1.352,1.584-2.609,3.122-3.867,4.659-2.609,3.215-5.032,6.29-7.268,9.179-6.709,8.759-11.414,15.84-12.3,19.427-5.357,22.41,5.078,85.493,7.781,100.913h-95.23c17.658-26.323,19.94-72.679,20.08-93.971.046-5.359,1.771-11.788,4.566-18.589,5.311-13.14,14.442-27.862,22.829-40.021,7.734-11.274,14.862-20.312,17.751-23.9v-.047c.932-1.072,1.4-1.678,1.4-1.678l52.647-2.236h.046l.7,3.727.559,3.168,2.422,13.139Z" transform="translate(-84.285 -307.321)" fill="#f2b9a0"/>
    <g id="Group_873" data-name="Group 873" transform="translate(1133.556 3391.995)">
      <g id="Group_862" data-name="Group 862" transform="translate(0)">
        <path id="Path_17569" data-name="Path 17569" d="M1376.26,3728.778,1218.7,3745.061a9.058,9.058,0,0,1-9.91-8.054l-32.563-315.09a9.056,9.056,0,0,1,8.053-9.91l157.563-16.284a9.056,9.056,0,0,1,9.91,8.054l32.564,315.09A9.056,9.056,0,0,1,1376.26,3728.778Z" transform="translate(-1176.175 -3393.917)" fill="#688a75"/>
        <path id="Path_17570" data-name="Path 17570" d="M1411.87,3725.1l-157.563,16.283a9.056,9.056,0,0,1-9.91-8.054l-32.564-315.09a9.056,9.056,0,0,1,8.053-9.91l157.563-16.284a9.057,9.057,0,0,1,9.91,8.054l32.564,315.09A9.057,9.057,0,0,1,1411.87,3725.1Z" transform="translate(-1194.771 -3391.995)" fill="#90ab9a"/>
        <g id="Group_860" data-name="Group 860" transform="translate(75.59 18.129)">
          <path id="Path_17571" data-name="Path 17571" d="M1400.531,3431.539a1.789,1.789,0,0,0-1.958-1.592l-45.628,4.715a1.785,1.785,0,1,0,.367,3.551l45.628-4.716A1.789,1.789,0,0,0,1400.531,3431.539Z" transform="translate(-1343.238 -3429.938)" fill="#4a706b"/>
          <path id="Path_17572" data-name="Path 17572" d="M1335.983,3441.57a1.785,1.785,0,1,0,1.958,1.591A1.79,1.79,0,0,0,1335.983,3441.57Z" transform="translate(-1334.381 -3436.007)" fill="#4a706b"/>
        </g>
        <path id="Path_17573" data-name="Path 17573" d="M1465.1,4053.447a11.511,11.511,0,1,0-10.266,12.633A11.51,11.51,0,0,0,1465.1,4053.447Z" transform="translate(-1315.064 -3732.013)" fill="#b9cbc0"/>
        <rect id="Rectangle_52" data-name="Rectangle 52" width="146.712" height="270.822" transform="translate(33.474 42.16) rotate(-5.9)" fill="#e1ffe7"/>
        <g id="Group_959" data-name="Group 959" transform="translate(1291.178 -1599.703) rotate(-8)">
          <path id="Path_17701" data-name="Path 17701" d="M-1368.815,1501.9c-6.161-3.946-18.318-10.541-31.187-10.942v-11.016c0-1.188-.578-3.471-2.766-3.6a3.107,3.107,0,0,1-2.187-1.123,3.541,3.541,0,0,1-.882-2.463,3.881,3.881,0,0,1,4.06-3.8,2.486,2.486,0,0,1,2.183,1.609h1.83c-1.023-2.716-2.74-3.3-4.013-3.3a5.529,5.529,0,0,0-5.743,5.331,5.224,5.224,0,0,0,1.281,3.719,4.8,4.8,0,0,0,3.367,1.71c1.15.07,1.177,1.845,1.178,1.917v11c-12.313.155-24.368,6.427-30.551,10.216a3.182,3.182,0,0,0-1.411,3.609,3.192,3.192,0,0,0,3.1,2.348h60.212a2.811,2.811,0,0,0,2.717-2.035A2.81,2.81,0,0,0-1368.815,1501.9Zm-1.273,2.456a.237.237,0,0,1-.253.189h-60.212a.622.622,0,0,1-.628-.477.6.6,0,0,1,.281-.723c6.035-3.7,17.851-9.843,29.708-9.843.159,0,.319,0,.479,0,12.481.176,24.476,6.69,30.515,10.557A.236.236,0,0,1-1370.089,1504.36Z" transform="translate(-18.169)" fill="#ce8d6a"/>
          <path id="Path_17702" data-name="Path 17702" d="M-1286.32,1501.9c-6.161-3.946-18.317-10.541-31.186-10.942v-11.016c0-1.188-.578-3.471-2.766-3.6a3.106,3.106,0,0,1-2.187-1.123,3.539,3.539,0,0,1-.882-2.463,3.88,3.88,0,0,1,4.06-3.8,2.486,2.486,0,0,1,2.183,1.609h1.831c-1.023-2.716-2.74-3.3-4.014-3.3a5.529,5.529,0,0,0-5.742,5.331,5.225,5.225,0,0,0,1.282,3.719,4.8,4.8,0,0,0,3.367,1.71c1.15.07,1.177,1.845,1.178,1.917v11c-12.312.155-24.367,6.427-30.551,10.216a3.182,3.182,0,0,0-1.41,3.609,3.192,3.192,0,0,0,3.1,2.348h60.212a2.81,2.81,0,0,0,2.717-2.035A2.81,2.81,0,0,0-1286.32,1501.9Zm-1.273,2.456a.237.237,0,0,1-.253.189h-60.212a.622.622,0,0,1-.628-.477.6.6,0,0,1,.281-.723c6.035-3.7,17.851-9.843,29.708-9.843.159,0,.319,0,.479,0,12.481.176,24.476,6.69,30.514,10.557A.236.236,0,0,1-1287.593,1504.36Z" transform="translate(-81.341)" fill="#ce8d6a"/>
          <path id="Path_17703" data-name="Path 17703" d="M-1439.675,1587.4a35.231,35.231,0,0,0,22.9,7.859c13.521-.507,19.943-7.267,19.943-7.267s10.648,5.408,12.844,8.45,3.211,34.139,3.211,34.139a30.964,30.964,0,0,1-10.647,1.86l-2.2-6.592,6.659,110.557s-8.236.338-13.194-2.5c-4.777-2.739-11.973.909-18.4,1.773s-10.11-4.026-16.42-2a35.458,35.458,0,0,1-17.464,1.352l10.132-109.5-2.745,6.405s-9.415,0-12.457-3.214c0,0,3.605-33.069,5.634-35.1S-1439.675,1587.4-1439.675,1587.4Z" transform="translate(0 -91.988)" fill="#80bdcc"/>
          <path id="Path_17704" data-name="Path 17704" d="M-1357.179,1586.4a35.231,35.231,0,0,0,22.9,7.858c13.521-.507,19.943-7.267,19.943-7.267s10.648,5.408,12.844,8.45,3.211,34.139,3.211,34.139a30.965,30.965,0,0,1-10.647,1.86l-2.2-6.592,7.021,126.174s-8.6,1.118-13.556-1.725c-4.777-2.739-11.974.909-18.4,1.773s-10.11-1.684-16.42.345a35.455,35.455,0,0,1-17.464,1.352l10.132-128.236-2.745,6.4s-9.415,0-12.457-3.214c0,0,3.605-33.069,5.633-35.1S-1357.179,1586.4-1357.179,1586.4Z" transform="translate(-63.171 -91.222)" fill="#233862"/>
          <path id="Path_17705" data-name="Path 17705" d="M-1268.283,1508.334a3.2,3.2,0,0,0,3.1,2.346h60.214a2.814,2.814,0,0,0,2.718-2.035,2.811,2.811,0,0,0-1.193-3.177,82.1,82.1,0,0,0-11.253-6.034,67.4,67.4,0,0,0-6.706-2.528,49.089,49.089,0,0,0-13.227-2.383h0V1483.51c0-1.188-.578-3.471-2.766-3.6a3.106,3.106,0,0,1-2.187-1.123,3.542,3.542,0,0,1-.882-2.463,3.881,3.881,0,0,1,4.06-3.8,2.121,2.121,0,0,1,1.633.774h2.016a3.983,3.983,0,0,0-3.649-2.464,5.529,5.529,0,0,0-5.743,5.33,5.225,5.225,0,0,0,1.282,3.719,4.8,4.8,0,0,0,3.367,1.709c1.15.07,1.177,1.845,1.178,1.917v11a48.712,48.712,0,0,0-14.724,2.718c-2.133.717-4.171,1.525-6.078,2.37a84.524,84.524,0,0,0-9.749,5.131A3.182,3.182,0,0,0-1268.283,1508.334Zm63.553-.7a.623.623,0,0,1-.629.48h-60.214a.238.238,0,0,1-.254-.189.235.235,0,0,1,.112-.294,80.647,80.647,0,0,1,10.079-5.483,66.429,66.429,0,0,1,7.332-2.818,46.223,46.223,0,0,1,13.1-2.255c.158,0,.318,0,.476,0a45.627,45.627,0,0,1,14.2,2.518c2.112.7,4.137,1.5,6.026,2.339a81.276,81.276,0,0,1,9.478,4.983A.608.608,0,0,1-1204.729,1507.635Z" transform="translate(-144.803 -2.73)" fill="#ce8d6a"/>
          <path id="Path_17706" data-name="Path 17706" d="M-1276.454,1698.1a9.857,9.857,0,0,0,10.083,2.295c6.084-2.028,12.431-.025,13.743.792,7.2,4.486,15.08,4.95,18.365-.789,2.192-3.829,9.126,4.056,23.5,1.083,0,0-14.6-60.821-14.939-69.42s9.755-18.75,5.022-35.82c0,0-.021-.118-.051-.335-.064-.474-.179-1.413-.254-2.566a21.639,21.639,0,0,1,.331-6.186,5.6,5.6,0,0,1,1.071-2.336c-1.906-.845-3.945-1.653-6.077-2.37-.264.626-.608,1.433-1.021,2.367-1.035,2.335-2.505,5.458-4.209,8.524-.479.865-.98,1.727-1.5,2.566-2.687,4.384-5.763,8.112-8.576,8.447,0,0-3.7-.5-8.369-8.447-.459-.781-.926-1.633-1.4-2.566a75.418,75.418,0,0,1-3.732-8.785q-.416-1.166-.835-2.424a67.411,67.411,0,0,0-6.706,2.528,3.434,3.434,0,0,0-.25.426s.23.885.46,2.288a33.516,33.516,0,0,1,.453,5.966,23.678,23.678,0,0,1-.189,2.566c-.014.112-.03.223-.048.335,0,0-2.207,4.277-1.531,12.052s3.835,15.709,3.61,23.769C-1259.8,1642.888-1276.116,1684.917-1276.454,1698.1Zm54.383-100.975c.548-.345.95-.6,1.177-.747C-1221.121,1596.53-1221.523,1596.79-1222.071,1597.125Z" transform="translate(-138.64 -87.954)" fill="#4d8693"/>
        </g>
        <path id="Path_17712" data-name="Path 17712" d="M100,0H229.316V1.86H100Z" transform="matrix(0.995, -0.105, 0.105, 0.995, -47.449, 69.202)" fill="#e8b491"/>
      </g>
    </g>
    <g id="Group_874" data-name="Group 874" transform="translate(1302.184 3431.585)">
      <path id="Path_17588" data-name="Path 17588" d="M1588.67,3487.184s22.869-20.32,37.87-8.788-33.747,48.68-33.747,48.68Z" transform="translate(-1560.209 -3474.854)" fill="#f2b9a0"/>
      <path id="Path_17589" data-name="Path 17589" d="M1584.3,3633.842l-26.576,14.7a16.055,16.055,0,0,1-21.757-6.259l-4.341-7.847a16.055,16.055,0,0,1,6.259-21.756l26.576-14.7a16.055,16.055,0,0,1,21.757,6.259l4.34,7.847A16.055,16.055,0,0,1,1584.3,3633.842Z" transform="translate(-1529.385 -3538.112)" fill="#f2b9a0"/>
      <path id="Path_17590" data-name="Path 17590" d="M1593.936,3727.033l-26.575,14.7a16.055,16.055,0,0,1-21.757-6.259l-4.34-7.847a16.055,16.055,0,0,1,6.259-21.756l26.575-14.7a16.055,16.055,0,0,1,21.756,6.259l4.34,7.847A16.054,16.054,0,0,1,1593.936,3727.033Z" transform="translate(-1534.415 -3586.777)" fill="#f2b9a0"/>
      <path id="Path_17591" data-name="Path 17591" d="M1603.306,3817.707l-26.575,14.7a16.056,16.056,0,0,1-21.756-6.259l-4.34-7.847a16.054,16.054,0,0,1,6.259-21.756l26.576-14.7a16.055,16.055,0,0,1,21.756,6.259l4.34,7.847A16.054,16.054,0,0,1,1603.306,3817.707Z" transform="translate(-1539.308 -3634.127)" fill="#f2b9a0"/>
      <path id="Path_17592" data-name="Path 17592" d="M1532.6,3643.3a95.228,95.228,0,0,1,14.9-9.466,7.615,7.615,0,0,1,9.855,2.908l5.827,9.738a7.2,7.2,0,0,1-2.371,9.829,128.863,128.863,0,0,1-15.824,8.41,8.865,8.865,0,0,1-11.214-3.81l-3.538-6.269A8.779,8.779,0,0,1,1532.6,3643.3Z" transform="translate(-1529.104 -3557.473)" fill="#ffc197"/>
      <path id="Path_17593" data-name="Path 17593" d="M1542.5,3739.055a95.122,95.122,0,0,1,14.9-9.465,7.614,7.614,0,0,1,9.855,2.908l5.827,9.738a7.2,7.2,0,0,1-2.371,9.828,128.751,128.751,0,0,1-15.824,8.41,8.864,8.864,0,0,1-11.214-3.809l-3.538-6.269A8.778,8.778,0,0,1,1542.5,3739.055Z" transform="translate(-1534.272 -3607.479)" fill="#ffc197"/>
      <path id="Path_17594" data-name="Path 17594" d="M1553.54,3828.806a95.2,95.2,0,0,1,14.9-9.464,7.615,7.615,0,0,1,9.856,2.908l5.827,9.738a7.2,7.2,0,0,1-2.371,9.829,128.89,128.89,0,0,1-15.824,8.41,8.866,8.866,0,0,1-11.215-3.81l-3.537-6.27A8.778,8.778,0,0,1,1553.54,3828.806Z" transform="translate(-1540.036 -3654.348)" fill="#ffc197"/>
    </g>
  </g>
</svg>
