<svg xmlns="http://www.w3.org/2000/svg" xmlns:xlink="http://www.w3.org/1999/xlink" width="1168.985" height="424.426" viewBox="0 0 1168.985 424.426">
  <defs>
    <linearGradient id="linear-gradient" x1="0.618" y1="0.5" x2="0.056" gradientUnits="objectBoundingBox">
      <stop offset="0" stop-color="#f4ff6f"/>
      <stop offset="1" stop-color="#fff"/>
    </linearGradient>
  </defs>
  <g id="Group_962" data-name="Group 962" transform="translate(-4938.307 -3060.361)">
    <g id="Group_875" data-name="Group 875" transform="translate(5470.664 3167.096)">
      <path id="Path_17595" data-name="Path 17595" d="M6103.842,3300.617v21.926a12.277,12.277,0,0,1-12.284,12.284h-3.931a12.324,12.324,0,0,1-12.284-12.284v-21.926a12.105,12.105,0,0,1,1.783-6.309v-.032a12.319,12.319,0,0,1,10.5-5.944h3.931A12.325,12.325,0,0,1,6103.842,3300.617Z" transform="translate(-6075.344 -3288.333)" fill="#688a75"/>
      <path id="Path_17596" data-name="Path 17596" d="M6102.554,3334.813a12.32,12.32,0,0,1-11,6.8h-3.931a12.324,12.324,0,0,1-12.284-12.284v-21.926a12.105,12.105,0,0,1,1.783-6.309C6077.359,3302.453,6082.577,3332.535,6102.554,3334.813Z" transform="translate(-6075.344 -3295.121)" fill="#688a75"/>
    </g>
    <path id="Path_17597" data-name="Path 17597" d="M5717.275,3587.733H5778v-61.285H5714.65Z" transform="translate(-412.862 -247.867)" fill="#4a706b"/>
    <path id="Path_17598" data-name="Path 17598" d="M5790.359,3210.319l-298.324,7.356V3060.361h195.9a49.767,49.767,0,0,1,44.293,27.074l12.82,25.021Z" transform="translate(-294.475 0)" fill="#688a75"/>
    <g id="Group_876" data-name="Group 876" transform="translate(5311.883 3294.91)">
      <path id="Path_17599" data-name="Path 17599" d="M5766.493,3596.31c0,16.638,8.583,34.985,8.583,34.985H5789.6c12.763,0,23.109-15.663,23.109-34.985s-24.874-34.985-37.636-34.985S5766.493,3576.988,5766.493,3596.31Z" transform="translate(-5751.966 -3561.325)" fill="#243029"/>
      <path id="Path_17600" data-name="Path 17600" d="M5736.21,3596.31c0,19.322,10.346,34.985,23.108,34.985s23.109-15.663,23.109-34.985-10.346-34.985-23.109-34.985S5736.21,3576.988,5736.21,3596.31Z" transform="translate(-5736.21 -3561.325)" fill="#688a75"/>
      <ellipse id="Ellipse_31" data-name="Ellipse 31" cx="17.407" cy="26.352" rx="17.407" ry="26.352" transform="translate(5.994 8.632)" fill="#243029"/>
    </g>
    <g id="Group_877" data-name="Group 877" transform="translate(5478.919 3294.91)">
      <path id="Path_17601" data-name="Path 17601" d="M6123.26,3596.31c0,16.638,8.582,34.985,8.582,34.985h14.526c12.764,0,23.11-15.663,23.11-34.985s-24.875-34.985-37.637-34.985S6123.26,3576.988,6123.26,3596.31Z" transform="translate(-6108.732 -3561.325)" fill="#243029"/>
      <path id="Path_17602" data-name="Path 17602" d="M6092.976,3596.31c0,19.322,10.346,34.985,23.108,34.985s23.109-15.663,23.109-34.985-10.346-34.985-23.109-34.985S6092.976,3576.988,6092.976,3596.31Z" transform="translate(-6092.976 -3561.325)" fill="#688a75"/>
      <path id="Path_17603" data-name="Path 17603" d="M6105.776,3606.115c0,14.554,7.793,26.352,17.407,26.352s17.407-11.8,17.407-26.352-7.794-26.353-17.407-26.353S6105.776,3591.561,6105.776,3606.115Z" transform="translate(-6099.783 -3571.13)" fill="#243029"/>
    </g>
    <g id="Group_878" data-name="Group 878" transform="translate(5095.336 3294.91)">
      <path id="Path_17604" data-name="Path 17604" d="M5303.984,3596.31c0,16.638,8.582,34.985,8.582,34.985h14.527c12.763,0,23.108-15.663,23.108-34.985s-24.874-34.985-37.635-34.985S5303.984,3576.988,5303.984,3596.31Z" transform="translate(-5289.456 -3561.325)" fill="#243029"/>
      <path id="Path_17605" data-name="Path 17605" d="M5273.7,3596.31c0,19.322,10.346,34.985,23.108,34.985s23.108-15.663,23.108-34.985-10.347-34.985-23.108-34.985S5273.7,3576.988,5273.7,3596.31Z" transform="translate(-5273.699 -3561.325)" fill="#688a75"/>
      <path id="Path_17606" data-name="Path 17606" d="M5286.5,3606.115c0,14.554,7.792,26.352,17.406,26.352s17.407-11.8,17.407-26.352-7.793-26.353-17.407-26.353S5286.5,3591.561,5286.5,3606.115Z" transform="translate(-5280.507 -3571.13)" fill="#243029"/>
    </g>
    <path id="Path_17607" data-name="Path 17607" d="M5861.9,3476.742a26.424,26.424,0,0,1-26.417,26.483H5664.364a52.4,52.4,0,0,0,.759-8.916c0-22.621-13.572-40.981-30.281-40.981-16.742,0-30.314,18.36-30.314,40.981a52.327,52.327,0,0,0,.727,8.916h-99.99s-4.029-44.646-3.533-67.034c.4-19.482.4-57.657-.76-66.967,0-1.388,96.424-1.554,120.761-1.652,3.3-.034,5.284-.034,5.482-.034l.33.231.364.265c4.491,3.137,29.653,20.771,45.273,31.106,13.771,9.082,115.412,12.78,155.27,13.9,9.905.264,16.015.363,16.015.363a71.918,71.918,0,0,1,10.27,14.4c3.7,6.835,7,15.619,7.066,25.229.033,5.977.066,13.176.066,20.242C5861.9,3474.43,5861.9,3475.585,5861.9,3476.742Z" transform="translate(-299.227 -163.358)" fill="#749681"/>
    <path id="Path_17608" data-name="Path 17608" d="M5879.31,3272.568H5745.241a7.924,7.924,0,0,1-7.2-4.623l-33.187-73.837a3.659,3.659,0,0,1,3.335-5.152h141.433a7.875,7.875,0,0,1,7.2,4.722L5880.6,3248l5.944,13.573A7.872,7.872,0,0,1,5879.31,3272.568Z" transform="translate(-407.48 -68.388)" fill="#f1f5f2"/>
    <path id="Path_17609" data-name="Path 17609" d="M5703.85,3309.927c-.033,2.312-.132,4.492-.265,6.44-.957,12.845-13.869,23.51-13.869,23.51H5659.6a53.39,53.39,0,0,0-3.533-29.951c-5.315-11.953-14.958-19.945-25.987-19.945-11.063,0-20.7,7.992-26.022,19.945a54.085,54.085,0,0,0-3.565,29.951H5492.015v-279.5h87.078v55.476s26.121,61.355,37.876,88.367c2.906,6.736,4.954,11.327,5.481,12.317,2.61,4.986,63.3,35.7,73.342,44.744C5701.373,3266.305,5704.146,3292.393,5703.85,3309.927Z" transform="translate(-294.464 -0.011)" fill="#749681"/>
    <path id="Path_17610" data-name="Path 17610" d="M5642.421,3203.966l28.558,70.339h-49s-10.052-1.682-11.341-22.224c-1.375-21.93-1.373-59.776-1.373-59.776l21.507-.1C5638.971,3193.439,5640.254,3197.942,5642.421,3203.966Z" transform="translate(-356.818 -70.113)" fill="#d5e0d9"/>
    <path id="Path_17611" data-name="Path 17611" d="M5987.859,3413.406h-158.9l-58.019-45.637-.33-.231H5930.9l45.636,36.721Z" transform="translate(-442.621 -163.358)" fill="#749681"/>
    <path id="Path_17612" data-name="Path 17612" d="M6224.041,3469.512a5.355,5.355,0,0,1-3.4,2.741l-22.29,4.128c-1.883.363-3.335-2.906-2.84-6.274l2.179-14.992.068-.363.428-3.072c.4-2.642,1.551-4.656,2.973-5.218l1.287-.495,11.327,9.147A71.908,71.908,0,0,1,6224.041,3469.512Z" transform="translate(-668.533 -205.067)" fill="#f1f5f2"/>
    <path id="Path_17613" data-name="Path 17613" d="M5907.69,3489.093l-14.364-1.421a11.254,11.254,0,0,1-9.973-9.213l-3.3-18.162a2.5,2.5,0,0,1-.066-.858c10.236,5.877,18.854,11.128,22.124,14.066C5904.488,3475.653,5906.369,3481.6,5907.69,3489.093Z" transform="translate(-500.781 -212.231)" fill="#00af8d"/>
    <path id="Path_17614" data-name="Path 17614" d="M5934.966,3484.645l-27.243-2.707h-.033l-14.364-1.421a11.253,11.253,0,0,1-9.973-9.213l-3.3-18.162a2.5,2.5,0,0,1-.066-.858v-.034a6.043,6.043,0,0,1,7.264-6.142l42.433,8.619a7.308,7.308,0,0,1,5.581,5.217l4.987,18.426A4.972,4.972,0,0,1,5934.966,3484.645Z" transform="translate(-500.781 -205.076)" fill="#f1f5f2"/>
    <path id="Path_17615" data-name="Path 17615" d="M5814.821,3112.458H5649.28a95.735,95.735,0,0,0-4.793-22.69c-3.7-10.684-10.089-22.6-21.274-29.4h135.271c22.051,0,41.591,11.778,49.352,29.4a22.977,22.977,0,0,1,.959,2.191A138.479,138.479,0,0,1,5814.821,3112.458Z" transform="translate(-364.235 -0.004)" fill="#749681"/>
    <path id="Path_17616" data-name="Path 17616" d="M5907.723,3489.055l-14.4-1.421a11.253,11.253,0,0,1-9.973-9.213l-3.3-18.162a2.7,2.7,0,0,1-.066-.891c10.236,5.91,18.854,11.162,22.124,14.1C5904.488,3475.615,5906.369,3481.559,5907.723,3489.055Z" transform="translate(-500.781 -212.193)" fill="#d5e0d9"/>
    <path id="Path_17617" data-name="Path 17617" d="M6043.476,3596.842c.034,14.627-12.382,26.483-27.7,26.483H5845.94a53.391,53.391,0,0,0-3.533-29.951h201.037C6043.476,3594.53,6043.476,3595.686,6043.476,3596.842Z" transform="translate(-480.803 -283.458)" fill="#688a75"/>
    <path id="Path_17618" data-name="Path 17618" d="M5599.765,3614.41a52.317,52.317,0,0,0,.727,8.915H5492.015v-29.951h112.042A52.358,52.358,0,0,0,5599.765,3614.41Z" transform="translate(-294.464 -283.458)" fill="#688a75"/>
    <path id="Path_17619" data-name="Path 17619" d="M6029.015,3468.263h64.98c2.076,0,3.663,2.8,3.346,5.9l-2.307,22.583c-.338,3.322-2.229,5.772-4.451,5.772h-53.535c-3.431,0-6.46-3.4-7.459-8.364l-3.855-19.2C6025.065,3471.625,6026.713,3468.263,6029.015,3468.263Z" transform="translate(-578.218 -216.924)" fill="#688a75"/>
    <path id="Path_17620" data-name="Path 17620" d="M5916.863,3248c-76.644-3.929-128.488-44.941-144.14-59.042H5885.89a7.874,7.874,0,0,1,7.2,4.722Z" transform="translate(-443.746 -68.388)" fill="#d5e0d9"/>
    <rect id="Rectangle_54" data-name="Rectangle 54" width="289.9" height="279.526" transform="translate(4938.307 3060.361)" fill="#688a75"/>
    <path id="Path_17621" data-name="Path 17621" d="M5696.91,3290.422s2.479,28.428-11.556,36.213h26.22Z" transform="translate(-397.282 -122.347)" fill="#688a75"/>
    <path id="Path_17622" data-name="Path 17622" d="M5710.961,3322.3s-5.921-4.213-6.429-7.706v19.883h7.746Z" transform="translate(-407.481 -135.204)" fill="#688a75"/>
    <g id="Group_879" data-name="Group 879" transform="translate(5268.547 3167.096)">
      <path id="Path_17623" data-name="Path 17623" d="M5672.152,3300.617v21.926a12.277,12.277,0,0,1-12.284,12.284h-3.93a12.324,12.324,0,0,1-12.284-12.284v-21.926a12.092,12.092,0,0,1,1.783-6.309v-.032a12.316,12.316,0,0,1,10.5-5.944h3.93A12.325,12.325,0,0,1,5672.152,3300.617Z" transform="translate(-5643.654 -3288.333)" fill="#688a75"/>
      <path id="Path_17624" data-name="Path 17624" d="M5670.864,3334.813a12.32,12.32,0,0,1-11,6.8h-3.93a12.324,12.324,0,0,1-12.284-12.284v-21.926a12.092,12.092,0,0,1,1.783-6.309C5645.668,3302.453,5650.885,3332.535,5670.864,3334.813Z" transform="translate(-5643.654 -3295.121)" fill="#688a75"/>
    </g>
    <path id="Path_17625" data-name="Path 17625" d="M5058.457,3598.012h-71.311c-1.506-6.437-6.042-52.272,33.921-52.273C5057.384,3545.737,5060.054,3587.558,5058.457,3598.012Z" transform="translate(-25.464 -258.126)" fill="#09594d"/>
    <g id="Group_880" data-name="Group 880" transform="translate(4969.477 3294.91)">
      <path id="Path_17626" data-name="Path 17626" d="M5035.166,3596.31c0,16.638,8.581,34.985,8.581,34.985h14.527c12.763,0,23.109-15.663,23.109-34.985s-24.874-34.985-37.636-34.985S5035.166,3576.988,5035.166,3596.31Z" transform="translate(-5020.638 -3561.325)" fill="#243029"/>
      <path id="Path_17627" data-name="Path 17627" d="M5004.881,3596.31c0,19.322,10.347,34.985,23.108,34.985s23.11-15.663,23.11-34.985-10.347-34.985-23.11-34.985S5004.881,3576.988,5004.881,3596.31Z" transform="translate(-5004.881 -3561.325)" fill="#688a75"/>
      <ellipse id="Ellipse_32" data-name="Ellipse 32" cx="17.407" cy="26.352" rx="17.407" ry="26.352" transform="translate(5.994 8.632)" fill="#243029"/>
    </g>
    <path id="Path_17628" data-name="Path 17628" d="M5838.985,3145.853H5673.445a95.71,95.71,0,0,0-4.793-22.689H5832a23.326,23.326,0,0,1,.959,2.191A138.428,138.428,0,0,1,5838.985,3145.853Z" transform="translate(-388.4 -33.398)" fill="#688a75"/>
    <path id="Path_17699" data-name="Path 17699" d="M8953.917-20301.809Z" transform="translate(-3195.387 23636.596)" fill="#fcffaa"/>
    <path id="Path_17710" data-name="Path 17710" d="M10568.336-20236.746l282.32,97.84h121.988l-352.031-97.84Z" transform="translate(-5184.317 23503.057)" opacity="0.362" fill="url(#linear-gradient)"/>
    <path id="Path_17711" data-name="Path 17711" d="M10568.336-20236.746l352.6,107.184h160.672l-461-107.184Z" transform="translate(-5064.317 23503.057)" opacity="0.406" fill="url(#linear-gradient)"/>
    <g id="indyra_Logo_2-01" data-name="indyra Logo_2-01" transform="translate(4973.258 3093.5)">
      <rect id="Rectangle_55" data-name="Rectangle 55" width="222.358" height="157.223" fill="none"/>
      <g id="Group_886" data-name="Group 886" transform="translate(44.472 57.955)">
        <path id="Path_17631" data-name="Path 17631" d="M330.667,289.079a9.576,9.576,0,0,1-7.3-2.973,10.449,10.449,0,0,1-2.87-7.62,10.089,10.089,0,0,1,2.905-7.585,10.486,10.486,0,0,1,7.32-2.853c-2.537,1.227-3.818,4.859-3.818,10.834a16.859,16.859,0,0,0,1.422,7.624,5.445,5.445,0,0,0,2.471,2.572Z" transform="translate(-280.323 -255.207)" fill="#496052"/>
        <path id="Path_17632" data-name="Path 17632" d="M229.814,288.343l-.224-19.966a18.5,18.5,0,0,1-6.122,1.987,1.492,1.492,0,0,1,.491.773c.093.271.146,1.048.146,5.224v11.8l-.2.855-.029.071a1.67,1.67,0,0,1-.112.2c.844-.017,1.688-.041,2.518-.063,1.021-.037,2.307-.055,3.815-.055a2.225,2.225,0,0,1-.277-.759Z" transform="translate(-208.918 -255.449)" fill="#496052"/>
        <path id="Path_17633" data-name="Path 17633" d="M269.231,289.39h6.27a4.487,4.487,0,0,1-.309-2.088V280.13c0-3.154-.039-5.635-.128-6.636a7.215,7.215,0,0,0-.659-2.5c-.809-1.7-2.561-2.523-5.367-2.523a9.133,9.133,0,0,0-3.032.483,3.19,3.19,0,0,1,2.595,1.209c.413.582.889,2.255.889,7.184v9.6A6.575,6.575,0,0,1,269.231,289.39Z" transform="translate(-240.221 -255.518)" fill="#496052"/>
        <path id="Path_17634" data-name="Path 17634" d="M171.6,289.39h6.27a4.486,4.486,0,0,1-.309-2.088V280.13c0-3.154-.039-5.635-.128-6.636a7.218,7.218,0,0,0-.659-2.5c-.809-1.7-2.56-2.523-5.367-2.523a9.13,9.13,0,0,0-3.031.483,3.19,3.19,0,0,1,2.595,1.209c.413.582.889,2.255.889,7.184v9.6A6.585,6.585,0,0,1,171.6,289.39Z" transform="translate(-168.379 -255.518)" fill="#496052"/>
        <path id="Path_17635" data-name="Path 17635" d="M386.005,253.3h-6.27a4.486,4.486,0,0,0,.309-2.088v-20.5c0-3.154.039-5.261.128-6.262a7.215,7.215,0,0,1,.659-2.5c.809-1.7,2.56-2.522,5.367-2.522a9.134,9.134,0,0,1,3.032.483,3.19,3.19,0,0,0-2.595,1.209c-.413.582-.889,1.881-.889,6.81v22.922A6.583,6.583,0,0,0,386.005,253.3Z" transform="translate(-323.912 -219.428)" fill="#496052"/>
        <g id="Group_883" data-name="Group 883" transform="translate(114.874 12.889)">
          <path id="Path_17636" data-name="Path 17636" d="M608.207,310.906a6.591,6.591,0,0,1,2.165-5.214c-4.689,1.163-7.059,3.387-7.059,6.635a4.351,4.351,0,0,0,1.19,3.2,4.244,4.244,0,0,0,3.233,1.251,5.867,5.867,0,0,0,3.644-1.185C610.107,315.529,608.207,314.773,608.207,310.906Z" transform="translate(-603.313 -295.797)" fill="#496052"/>
          <path id="Path_17637" data-name="Path 17637" d="M647.936,285.991c-.03-.212-.059-.736-.059-2.972v-8.457c0-2.288-.512-3.885-1.5-4.74-1.078-.885-2.9-1.416-5.42-1.593a4.3,4.3,0,0,1,1.31,2.064l.048.212c.176.561.4,1.857.4,6.286v4.1a26.522,26.522,0,0,0,.152,4.931,4.182,4.182,0,0,0,1.064,2.577,4.3,4.3,0,0,0,2.723.666,8.889,8.889,0,0,0,2.9-.448C648.886,288.375,648.161,287.7,647.936,285.991Z" transform="translate(-631.012 -268.229)" fill="#496052"/>
          <path id="Path_17638" data-name="Path 17638" d="M639.524,278.008c.036.089.059.16.089.23a.006.006,0,0,0,.006.007Z" transform="translate(-629.96 -275.425)" fill="#496052"/>
          <path id="Path_17639" data-name="Path 17639" d="M610.837,268.934c-2.229,0-4.847,0-4.953-.034a1.031,1.031,0,0,1-.271-.114l.578,1.487a4.082,4.082,0,0,0,3.823,2.448c1.609.129,4.474-.119,5.218.577-.271-.708-.248-.7-.573-1.54A4.119,4.119,0,0,0,610.837,268.934Z" transform="translate(-605.006 -268.64)" fill="#496052"/>
        </g>
        <g id="Group_884" data-name="Group 884" transform="translate(92.322 12.889)">
          <path id="Path_17640" data-name="Path 17640" d="M524.732,279.157c0-4.878-.218-9.565-.218-9.565a9.738,9.738,0,0,0-.082-1.274,30.847,30.847,0,0,1-6.5,1.285,2.218,2.218,0,0,1,.359.342,4.492,4.492,0,0,1,.684,2.8l.053,14.014a4.641,4.641,0,0,1-.46,2.477H525.2a2.186,2.186,0,0,1-.466-1.445v-8.636Z" transform="translate(-517.927 -268.294)" fill="#496052"/>
          <path id="Path_17641" data-name="Path 17641" d="M549.608,278.848c0-.005.006-.005.006-.005.028-.071.052-.141.087-.23Z" transform="translate(-541.24 -275.87)" fill="#496052"/>
          <path id="Path_17642" data-name="Path 17642" d="M556.81,268.346c-.106.025-2.724.037-4.953.037a4.121,4.121,0,0,0-3.821,2.818c-.325.843-.3.832-.573,1.54.743-.7,3.609-.449,5.22-.578a4.094,4.094,0,0,0,3.821-2.447l.578-1.487A.994.994,0,0,1,556.81,268.346Z" transform="translate(-539.662 -268.229)" fill="#496052"/>
        </g>
        <g id="Group_885" data-name="Group 885" transform="translate(67.13 12.889)">
          <path id="Path_17643" data-name="Path 17643" d="M431.724,272.28l-.034-.106c-.02-.053-.1-.319-.607-1.51a5.035,5.035,0,0,1-.5-1.829,1.22,1.22,0,0,1,.148-.607h-6.664a7.779,7.779,0,0,1,1.178,2.064c1.5,3.3,2.481,5.478,2.918,6.48,1.812,4.058,3.273,7.374,4.337,9.837.637,1.386,1.113,2.4,1.426,3.024q1.115-2.732,2.518-6.291l-.373-.772C434.956,280.223,433.489,276.761,431.724,272.28Z" transform="translate(-423.668 -268.228)" fill="#496052"/>
          <path id="Path_17644" data-name="Path 17644" d="M475.74,296.342h0Z" transform="translate(-461.505 -288.917)" fill="#496052"/>
          <path id="Path_17645" data-name="Path 17645" d="M475.456,268.653a4.094,4.094,0,0,0-3.7,2.642c-.719,1.445-1.551,4.2-2.476,4.629.76.012.736.03,1.646.042a4.131,4.131,0,0,0,4.038-2.5c.827-2.07,1.812-4.5,1.876-4.581a1.014,1.014,0,0,1,.207-.213Z" transform="translate(-456.938 -268.54)" fill="#496052"/>
          <path id="Path_17646" data-name="Path 17646" d="M456.744,365.18a0,0,0,0,1-.005.005c-.029.07-.059.141-.094.23Z" transform="translate(-447.64 -339.573)" fill="#496052"/>
          <path id="Path_17647" data-name="Path 17647" d="M427.016,359.883a4.08,4.08,0,0,0-3.861,2.377l-.609,1.48a1.011,1.011,0,0,1,.277-.111c.106-.025,2.718.012,4.953.053a4.126,4.126,0,0,0,3.869-2.754c.343-.844.319-.826.6-1.533C431.494,360.078,428.633,359.782,427.016,359.883Z" transform="translate(-422.547 -335.315)" fill="#496052"/>
        </g>
        <circle id="Ellipse_33" data-name="Ellipse 33" cx="2.839" cy="2.839" r="2.839" transform="translate(1.908 2.246)" fill="#496052"/>
      </g>
    </g>
  </g>
</svg>
