<svg xmlns="http://www.w3.org/2000/svg" width="240.234" height="608" viewBox="0 0 240.234 608">
  <g id="Group_723" data-name="Group 723" transform="translate(-1506.67 -1333.643)">
    <g id="Group_675" data-name="Group 675" transform="translate(1506.67 1333.643)">
      <g id="Group_662" data-name="Group 662" transform="translate(49.542 12.363)">
        <g id="Group_660" data-name="Group 660" transform="translate(11.327)">
          <path id="Path_1034" data-name="Path 1034" d="M1571.971,1357.287s4.181-5.747.215-11.849c0,0-4.188,2.014-4.657,3.6,0,0,3.124,5.9-2.786,12.235C1564.743,1361.274,1570.312,1359.229,1571.971,1357.287Z" transform="translate(-1564.743 -1345.438)" fill="#d6654e"/>
        </g>
        <g id="Group_661" data-name="Group 661" transform="translate(0 11.849)">
          <path id="Path_1035" data-name="Path 1035" d="M1553.962,1367.68s10.507,1.3,18.529-10.937c0,0-9.414,6.4-15.4,3.368C1557.09,1360.111,1553.6,1363.561,1553.962,1367.68Z" transform="translate(-1553.936 -1356.743)" fill="#ef8062"/>
        </g>
      </g>
      <g id="Group_665" data-name="Group 665" transform="translate(9.073 135.788)">
        <g id="Group_663" data-name="Group 663" transform="translate(6.342 7.907)">
          <path id="Path_1036" data-name="Path 1036" d="M1525.092,1475.759a8.182,8.182,0,0,0,8.907-1.024s-1.93-2.94-3.167-3.133c0,0-4.114,2.934-9.454-.865C1521.377,1470.737,1523.469,1474.708,1525.092,1475.759Z" transform="translate(-1521.377 -1470.737)" fill="#d6654e"/>
        </g>
        <g id="Group_664" data-name="Group 664">
          <path id="Path_1037" data-name="Path 1037" d="M1515.326,1463.321s.081,8.01,10.057,12.8c0,0-5.742-6.419-4.068-11.213C1521.315,1464.909,1518.379,1462.64,1515.326,1463.321Z" transform="translate(-1515.326 -1463.193)" fill="#ef8062"/>
        </g>
      </g>
      <g id="Group_666" data-name="Group 666" transform="translate(138.825)">
        <path id="Path_1038" data-name="Path 1038" d="M1644.946,1343.771s2.4-1.411,3.488-6.3a11.337,11.337,0,0,0-2.669-2.7c-1.169-.612-3.167-1.579-3.5-.9a19.975,19.975,0,0,1-2.716,4.882c-1.49,1.734,1.247,1.612,2.344,3.29S1643.976,1344.647,1644.946,1343.771Z" transform="translate(-1639.118 -1333.643)" fill="#ef8062"/>
      </g>
      <g id="Group_667" data-name="Group 667" transform="translate(97.973 35.157)">
        <path id="Path_1039" data-name="Path 1039" d="M1608.923,1374.4s.76-2.674-1.822-6.968a11.345,11.345,0,0,0-3.793-.112c-1.268.363-3.382,1.042-3.149,1.765a19.97,19.97,0,0,1,1.4,5.409c.118,2.282,2.015.306,3.966.764S1608.826,1375.7,1608.923,1374.4Z" transform="translate(-1600.142 -1367.185)" fill="#fff"/>
      </g>
      <g id="Group_668" data-name="Group 668" transform="translate(41.701 94.585)">
        <path id="Path_1040" data-name="Path 1040" d="M1547.179,1430.688s2.222,1.438,6.851.286a10.8,10.8,0,0,0,1.159-3.421c.024-1.256,0-3.37-.727-3.359a18.979,18.979,0,0,1-5.314-.233c-2.11-.529-.841,1.748-1.8,3.4S1546.021,1430.236,1547.179,1430.688Z" transform="translate(-1546.455 -1423.884)" fill="#ef8062"/>
      </g>
      <g id="Group_671" data-name="Group 671" transform="translate(174.602 63.793)">
        <g id="Group_669" data-name="Group 669" transform="translate(8.581 10.698)">
          <path id="Path_1041" data-name="Path 1041" d="M1686.464,1411.506s6.4,3.464,12.051-1.386c0,0-2.611-3.978-4.285-4.239,0,0-5.568,3.969-12.792-1.17C1681.439,1404.712,1684.268,1410.086,1686.464,1411.506Z" transform="translate(-1681.439 -1404.712)" fill="#d6654e"/>
        </g>
        <g id="Group_670" data-name="Group 670">
          <path id="Path_1042" data-name="Path 1042" d="M1673.252,1394.678s.108,10.837,13.606,17.319c0,0-7.769-8.685-5.5-15.171C1681.355,1396.827,1677.383,1393.756,1673.252,1394.678Z" transform="translate(-1673.252 -1394.505)" fill="#ef8062"/>
        </g>
      </g>
      <g id="Group_672" data-name="Group 672" transform="translate(205.853 131.097)">
        <path id="Path_1043" data-name="Path 1043" d="M1704.047,1467.925s3.006,1.947,9.269.388c0,0,1.539-2.931,1.57-4.63s-.007-4.559-.985-4.544a25.732,25.732,0,0,1-7.189-.315c-2.855-.717-1.138,2.366-2.439,4.6S1702.48,1467.314,1704.047,1467.925Z" transform="translate(-1703.067 -1458.718)" fill="#ef8062"/>
      </g>
      <g id="Group_673" data-name="Group 673" transform="translate(178.127 107.804)">
        <path id="Path_1044" data-name="Path 1044" d="M1680.63,1446.571s2.667-.5,5.288-4.633a11.056,11.056,0,0,0-1.559-3.361c-.871-.948-2.388-2.5-2.917-1.978a19.458,19.458,0,0,1-4.109,3.586c-1.941,1.1.612,1.893,1.065,3.8S1679.451,1447.055,1680.63,1446.571Z" transform="translate(-1676.615 -1436.495)" fill="#fff"/>
      </g>
      <g id="Group_674" data-name="Group 674" transform="translate(0 102.964)">
        <path id="Path_1045" data-name="Path 1045" d="M1510.586,1441.7s2.6-.492,5.157-4.519a10.782,10.782,0,0,0-1.521-3.278c-.849-.925-2.328-2.436-2.844-1.929a19.043,19.043,0,0,1-4.008,3.5c-1.892,1.072.6,1.846,1.039,3.7S1509.436,1442.175,1510.586,1441.7Z" transform="translate(-1506.67 -1431.877)" fill="#fff"/>
      </g>
    </g>
    <g id="Group_722" data-name="Group 722" transform="translate(1515.743 1406.781)">
      <g id="Group_676" data-name="Group 676" transform="translate(107.214 505.886)">
        <path id="Path_1046" data-name="Path 1046" d="M1639.947,1886.071s.272,10.852,7.615,13.913,28.619,5.824,20.668,12.8c-4.562,4-26.06,1.416-32.129,1.416s-11.768,2.646-16.279-1.417c-4.963-4.469,0-26.712,0-26.712s5.238,2.728,9.948,2.605C1636.558,1888.5,1639.947,1886.071,1639.947,1886.071Z" transform="translate(-1617.616 -1886.071)" fill="#331832"/>
      </g>
      <g id="Group_677" data-name="Group 677" transform="translate(89.469 208.405)">
        <path id="Path_1047" data-name="Path 1047" d="M1695.337,1602.254s-.522,50.014-4.547,138.258c-3.155,69.185-2.505,133.3-8.568,163.689-2.169,10.871-82.384,5.329-81.529-6.636l18.989-213.736,3.626-67.67Z" transform="translate(-1600.686 -1602.254)" fill="#90ab9a"/>
      </g>
      <g id="Group_678" data-name="Group 678" transform="translate(50.975 69.728)">
        <path id="Path_1048" data-name="Path 1048" d="M1576.886,1498.872s10.754-30.257,49.064-28.881,68.972,51.755,76.138,159.953c0,0-64.115-13.438-137.6,18.652C1564.486,1648.6,1560.06,1542.972,1576.886,1498.872Z" transform="translate(-1563.96 -1469.946)" fill="#b9cbc0"/>
      </g>
      <g id="Group_679" data-name="Group 679" transform="translate(36.997 69.557)">
        <path id="Path_1049" data-name="Path 1049" d="M1550.624,1497.059l27.141,17.371s69.762,6.979,88.281,3.62,9.007-13.146,9.007-13.146-5.223-28-38.748-34a91.3,91.3,0,0,0-9.711-.9,95.447,95.447,0,0,0-16.946.37C1576.525,1473.947,1550.624,1497.059,1550.624,1497.059Z" transform="translate(-1550.624 -1469.783)" fill="#b9cbc0"/>
      </g>
      <g id="Group_680" data-name="Group 680" transform="translate(36.526 95.758)">
        <path id="Path_1050" data-name="Path 1050" d="M1550.259,1496.455c-.941,2.732,6.157,7.847,15.854,11.424s18.322,4.262,19.263,1.531-6.157-7.848-15.854-11.425S1551.2,1493.722,1550.259,1496.455Z" transform="translate(-1550.175 -1494.781)" fill="#331832"/>
      </g>
      <g id="Group_681" data-name="Group 681" transform="translate(22.889 505.884)">
        <path id="Path_1051" data-name="Path 1051" d="M1559.495,1886.069s.271,10.852,7.614,13.913,28.618,5.823,20.668,12.8c-4.562,4-26.059,1.416-32.129,1.416s-11.768,2.646-16.279-1.417c-4.962-4.469,0-26.712,0-26.712s5.237,2.728,9.947,2.606C1556.106,1888.5,1559.495,1886.069,1559.495,1886.069Z" transform="translate(-1537.164 -1886.069)" fill="#331832"/>
      </g>
      <g id="Group_682" data-name="Group 682" transform="translate(51.49 225.121)">
        <path id="Path_1052" data-name="Path 1052" d="M1564.462,1641.459c.669,5.529,31.928,4.857,70.2.013s68.066-13.136,67.4-18.664-31.544-6.2-69.819-1.356S1563.794,1635.931,1564.462,1641.459Z" transform="translate(-1564.452 -1618.202)" fill="#331832"/>
      </g>
      <g id="Group_683" data-name="Group 683" transform="translate(0 236.591)">
        <path id="Path_1053" data-name="Path 1053" d="M1655.5,1633.4l-71.24,269.441c-3.421,10.988-71,9.517-68.888-2.151l55.276-254.844a8.116,8.116,0,0,1,5.64-6.078C1591.617,1635.352,1657.009,1622.547,1655.5,1633.4Z" transform="translate(-1515.327 -1629.145)" fill="#90ab9a"/>
      </g>
      <g id="Group_684" data-name="Group 684" transform="translate(98.155 275.327)">
        <path id="Path_1054" data-name="Path 1054" d="M1610.311,1788.185l-1.339-.315,21.753-92.716a52.047,52.047,0,0,1,23.525-29.052l.683,1.193a50.65,50.65,0,0,0-22.886,28.231Z" transform="translate(-1608.973 -1666.102)" stroke="#000" stroke-miterlimit="10" stroke-width="1"/>
      </g>
      <g id="Group_685" data-name="Group 685" transform="translate(82.274 232.833)">
        <path id="Path_1055" data-name="Path 1055" d="M1593.822,1635.114s76.389-14.592,101.156-7.709l-11.877,17.6-44.153,2.5Z" transform="translate(-1593.822 -1625.56)" fill="#90ab9a"/>
      </g>
      <g id="Group_686" data-name="Group 686" transform="translate(108.668 38.19)">
        <path id="Path_1056" data-name="Path 1056" d="M1635.922,1473.759s-8.694-3.477-10.059-8.32-4.6-3.353-6.458-4.6,3.353-14.406,3.353-14.406l18.007-6.581-1.862,23.1Z" transform="translate(-1619.003 -1439.857)" fill="#366f90"/>
      </g>
      <g id="Group_687" data-name="Group 687" transform="translate(87.875 31.477)">
        <path id="Path_1057" data-name="Path 1057" d="M1599.165,1473.4c3.613-.819,7.221-3.045,8.762-6.622l4.767-11.07,1.392-3.236,8.19-19.023-1.419,19.714L1620,1465l-.241,3.333c-.2,2.76,1.367,2.9,4.09,3.391,0,0,3.523,10.656-4.421,10.656C1608.913,1482.379,1599.165,1473.4,1599.165,1473.4Z" transform="translate(-1599.165 -1433.452)" fill="#f9ad9f"/>
      </g>
      <g id="Group_688" data-name="Group 688" transform="translate(101.377 50.128)">
        <path id="Path_1058" data-name="Path 1058" d="M1612.052,1454.526c0,.109.01.218.021.327.469,6.355,7.268,9.323,7.268,9.323l.041-.035.854-11.833c-2.078-.762-5.038-1.545-6.771-.692A2.777,2.777,0,0,0,1612.052,1454.526Z" transform="translate(-1612.048 -1451.247)" fill="#331832"/>
      </g>
      <g id="Group_689" data-name="Group 689" transform="translate(93.358 11.778)">
        <ellipse id="Ellipse_21" data-name="Ellipse 21" cx="18.522" cy="22.851" rx="18.522" ry="22.851" fill="#f9ad9f"/>
      </g>
      <g id="Group_690" data-name="Group 690" transform="translate(109.192 47.34)">
        <path id="Path_1059" data-name="Path 1059" d="M1632.167,1450.663a40.209,40.209,0,0,1-12.654-2.076s-.526,6.236,6.327,6.654C1629.824,1455.484,1632.167,1450.663,1632.167,1450.663Z" transform="translate(-1619.503 -1448.587)" fill="#fff"/>
      </g>
      <g id="Group_692" data-name="Group 692" transform="translate(108.15 33.617)">
        <g id="Group_691" data-name="Group 691">
          <path id="Path_1060" data-name="Path 1060" d="M1624.031,1436.727a.421.421,0,0,0,.048-.8,4.56,4.56,0,0,0-5.455,1.216.424.424,0,0,0,.015.6.463.463,0,0,0,.6-.015,7.211,7.211,0,0,1,4.529-1.015A.423.423,0,0,0,1624.031,1436.727Z" transform="translate(-1618.509 -1435.494)" fill="#080435"/>
        </g>
      </g>
      <g id="Group_693" data-name="Group 693" transform="translate(109.446 37.487)">
        <path id="Path_1061" data-name="Path 1061" d="M1619.747,1440.965c-.032,1.005.533,1.838,1.262,1.861s1.347-.772,1.378-1.778-.533-1.838-1.262-1.862S1619.778,1439.961,1619.747,1440.965Z" transform="translate(-1619.746 -1439.186)" fill="#080435"/>
      </g>
      <g id="Group_694" data-name="Group 694" transform="translate(121.425 38.369)">
        <path id="Path_1062" data-name="Path 1062" d="M1631.185,1441.718c-.1,1,.415,1.869,1.14,1.938s1.393-.684,1.49-1.685-.415-1.869-1.141-1.938S1631.281,1440.717,1631.185,1441.718Z" transform="translate(-1631.174 -1440.027)" fill="#080435"/>
      </g>
      <g id="Group_695" data-name="Group 695" transform="translate(91.862)">
        <path id="Path_1063" data-name="Path 1063" d="M1614,1423.418a32.463,32.463,0,0,1,24.672,30.638q.041,1.269.04,2.608s-14.426.645-12.309,9.816c1.61,6.974,10.975,13.128,14.206,13.128,4.882,0,13.058-16.567,10.42-38.118s-11-37.384-30.788-38.044-17.153,12.535-17.153,12.535A18.546,18.546,0,0,0,1614,1423.418Z" transform="translate(-1602.969 -1403.421)" fill="#000100"/>
      </g>
      <g id="Group_696" data-name="Group 696" transform="translate(79.25 11.129)">
        <path id="Path_1064" data-name="Path 1064" d="M1617.355,1422.946s-.335.217-.879.637c-2.094,1.622-7.275,6.275-8.192,13.217-1.154,8.742,7.257,14.184,4.948,20.946s-8.411-.825-13.36.33-8.576-1.155-8.906-11.051,1.979-32.987,13.689-32.987Z" transform="translate(-1590.937 -1414.039)" fill="#000100"/>
      </g>
      <g id="Group_697" data-name="Group 697" transform="translate(91.767 30.091)">
        <path id="Path_1065" data-name="Path 1065" d="M1604.817,1440.115c2.1,2,5.032,2.209,6.553.459s1.052-4.793-1.045-6.8-5.032-2.209-6.553-.459S1602.719,1438.112,1604.817,1440.115Z" transform="translate(-1602.878 -1432.13)" fill="#f9ad9f"/>
      </g>
      <g id="Group_698" data-name="Group 698" transform="translate(104.338 15.875)">
        <path id="Path_1066" data-name="Path 1066" d="M1641.412,1475.886l-.021,0a.137.137,0,0,1-.115-.156c4.236-27.508-4.18-41.984-8-46.932-8.788-11.395-18.154-9.9-18.247-9.883a.137.137,0,1,1-.047-.27c.1-.018,9.624-1.539,18.511,9.986,3.836,4.974,12.3,19.527,8.05,47.141A.136.136,0,0,1,1641.412,1475.886Z" transform="translate(-1614.872 -1418.567)" fill="#331832"/>
      </g>
      <g id="Group_699" data-name="Group 699" transform="translate(85.233 14.57)">
        <path id="Path_1067" data-name="Path 1067" d="M1608.433,1458.031a.132.132,0,0,1-.063-.016c-5.652-2.917-9.441-8.079-10.959-14.926-2.138-9.646.65-19.484,2.812-22.282,3.75-4.854,10.392-3.227,10.458-3.211a.137.137,0,0,1-.067.266c-.065-.017-6.535-1.6-10.174,3.113-2.074,2.685-4.851,12.625-2.761,22.054,1.521,6.861,5.16,11.821,10.817,14.741a.138.138,0,0,1-.063.26Z" transform="translate(-1596.644 -1417.322)" fill="#331832"/>
      </g>
      <g id="Group_700" data-name="Group 700" transform="translate(102.398 10.457)">
        <path id="Path_1068" data-name="Path 1068" d="M1644.166,1449.74a.138.138,0,0,1-.137-.13c-.015-.3-1.658-29.672-12.232-34.2a19.426,19.426,0,0,0-18.555,1.3.137.137,0,0,1-.166-.219,19.722,19.722,0,0,1,18.83-1.336c4.511,1.934,7.97,8.323,10.278,18.99a110.226,110.226,0,0,1,2.119,15.453.137.137,0,0,1-.13.144Z" transform="translate(-1613.021 -1413.398)" fill="#331832"/>
      </g>
      <g id="Group_701" data-name="Group 701" transform="translate(126.657 44.393)">
        <path id="Path_1069" data-name="Path 1069" d="M1638.076,1462.807h0a.137.137,0,0,1-.135-.14,58.821,58.821,0,0,0-1.766-16.716.137.137,0,0,1,.262-.081,59.046,59.046,0,0,1,1.78,16.8A.139.139,0,0,1,1638.076,1462.807Z" transform="translate(-1636.166 -1445.775)" fill="#331832"/>
      </g>
      <g id="Group_710" data-name="Group 710" transform="translate(73.883 102.919)">
        <g id="Group_704" data-name="Group 704">
          <g id="Group_703" data-name="Group 703" transform="translate(39.072)">
            <path id="Path_1071" data-name="Path 1071" d="M1717.329,1501.619,1630,1505.3a7.2,7.2,0,0,0-6.9,7.447l3.02,87.645a7.206,7.206,0,0,0,7.8,6.933l97.075-8.147a7.205,7.205,0,0,0,6.52-8.273l-12.759-83.177A7.206,7.206,0,0,0,1717.329,1501.619Z" transform="translate(-1623.093 -1501.613)" fill="#749681"/>
          </g>
        </g>
      </g>
      <g id="Group_716" data-name="Group 716" transform="translate(93.71 145.505)">
        <g id="Group_712" data-name="Group 712">
          <g id="Group_711" data-name="Group 711">
            <path id="Path_1075" data-name="Path 1075" d="M1604.732,1562.437s4.828-14.613,13.1-18.192,21.533-1.9,16.879,1.409a59.388,59.388,0,0,1-11.767,5.887s15.457-4.8,15.015-.7-13.926,8.147-13.926,8.147,18.848-4.248,17.175-.509-16.013,6.864-16.013,6.864,17.694-3.251,15.65,1.046-14.639,2.592-15.083,6.693-3.588,20.241-15.138,20.4Z" transform="translate(-1604.732 -1542.243)" fill="#f9ad9f"/>
          </g>
        </g>
        <g id="Group_713" data-name="Group 713" transform="translate(12.097 8.97)">
          <path id="Path_1076" data-name="Path 1076" d="M1616.873,1554.526l-.6-.286c1.273-2.676,5.865-3.409,6.061-3.439l.1.657C1622.39,1551.465,1617.994,1552.168,1616.873,1554.526Z" transform="translate(-1616.273 -1550.801)" fill="#e9845c"/>
        </g>
        <g id="Group_714" data-name="Group 714" transform="translate(12.091 16.416)">
          <path id="Path_1077" data-name="Path 1077" d="M1616.8,1562.319l-.532-.4c2.508-3.355,6.971-3.99,7.16-4.015l.089.659C1623.474,1558.571,1619.139,1559.191,1616.8,1562.319Z" transform="translate(-1616.268 -1557.905)" fill="#e9845c"/>
        </g>
        <g id="Group_715" data-name="Group 715" transform="translate(13.63 22.772)">
          <path id="Path_1078" data-name="Path 1078" d="M1618.359,1568.063l-.622-.234c1.114-2.966,6.547-3.824,6.777-3.86l.1.658C1624.562,1564.636,1619.337,1565.46,1618.359,1568.063Z" transform="translate(-1617.736 -1563.969)" fill="#e9845c"/>
        </g>
      </g>
      <g id="Group_718" data-name="Group 718" transform="translate(199.626 121.49)">
        <g id="Group_717" data-name="Group 717">
          <path id="Path_1079" data-name="Path 1079" d="M1736.97,1530.243s1.795-8.992-6.425-10.573c-10.473-2.014-25.451,5.52-18.832,6.886,5.867,1.213,14.614.937,14.614.937s-22.23,1.009-20.442,5.553,20.891,3.417,20.891,3.417-21.549,3.024-18.47,6.77,20.431,2.829,20.431,2.829-21.219,1.822-17.541,6.089,14.46,1.1,19.334.8c4.607-.281,5.917-3.342,5.327-7.765,0,0,1.974-4.746.858-7.538-.428-1.071.545-2.22.591-3.03A28.757,28.757,0,0,0,1736.97,1530.243Z" transform="translate(-1705.783 -1519.331)" fill="#f9ad9f"/>
        </g>
      </g>
      <g id="Group_720" data-name="Group 720" transform="translate(34.178 98.865)">
        <g id="Group_719" data-name="Group 719">
          <path id="Path_1080" data-name="Path 1080" d="M1616.934,1590.844l.325-19.832a5.109,5.109,0,0,0-4.745-5.176c-13.747-.983-23.371-5.248-28.644-12.7-7.321-10.354-6.549-26.435-4.509-37.586,1.044-5.707-.84-9.524-7.733-13.183a47.17,47.17,0,0,0-13.244-4.508c-2.93-.5-5.837.678-6.593,3.552a120.807,120.807,0,0,0-3.445,19.729c-1.735,19.557,2.038,36.569,10.909,49.2,10.888,15.5,28.44,24.073,52.222,25.53A5.126,5.126,0,0,0,1616.934,1590.844Z" transform="translate(-1547.934 -1497.745)" fill="#f9ad9f"/>
        </g>
      </g>
      <g id="Group_721" data-name="Group 721" transform="translate(44.778 153.547)" opacity="0.5">
        <path id="Path_1081" data-name="Path 1081" d="M1565.9,1562.64a7.933,7.933,0,0,1-5.838-3.2,8.792,8.792,0,0,1-1.995-4.7,4.135,4.135,0,0,1,5.668-4.565,8.8,8.8,0,0,1,4.168,2.952c2.45,3.042,2.684,6.933.523,8.674A3.959,3.959,0,0,1,1565.9,1562.64Z" transform="translate(-1558.048 -1549.915)" fill="#f9ad9f"/>
      </g>
      <g id="noun-pound-3675540" transform="translate(-574.851 -323.617)">
        <path id="Path_17694" data-name="Path 17694" d="M140.144,33.234h-3.96V36.2H121.233a11.973,11.973,0,0,0,3.069-7.921V26.3h7.921v-3.96H124.3v-3.96a5.958,5.958,0,0,1,5.941-5.941,5.3,5.3,0,0,1,3.96,1.485l2.673-2.97a8.845,8.845,0,0,0-6.634-2.475,9.93,9.93,0,0,0-9.9,9.9v3.96H114.4V26.3h5.941v1.98a7.944,7.944,0,0,1-7.921,7.921v3.96h27.723Z" transform="translate(614.186 464.18) rotate(-5)" fill="#fff"/>
      </g>
    </g>
  </g>
</svg>
