<svg id="Group_760" data-name="Group 760" xmlns="http://www.w3.org/2000/svg" width="289.309" height="472.43" viewBox="0 0 289.309 472.43">
  <path id="Path_1167" data-name="Path 1167" d="M2085.168,1966.259q.149.735.357,1.452c.156.536,1.767,6.389,1.627,6.384l-.6-.022-12.159,5.508s.053-1.463.159-3.662l-1.824-.386-.123-.674-2.989.462a6.179,6.179,0,0,1-.284.573l-1.42-.309-1.355.209.089-.485-1.163-.254s-8.839-19.329,1.335-23.391c.976-2.819,5.488-1.336,5.49-1.336.834-1.99,5.066-2.036,5.768.012.833-1.992,3.752-1.685,5.1-.474,1.621,1.456,1.794,4.179,1.693,6.156A41.666,41.666,0,0,0,2085.168,1966.259Z" transform="translate(-1995.629 -1922.989)" fill="#f9ad9f"/>
  <g id="Group_759" data-name="Group 759">
    <g id="Group_739" data-name="Group 739" transform="translate(64.333 46.537)">
      <path id="Path_1168" data-name="Path 1168" d="M2135.9,2048.3s-17.82.65-33.967-2.37c-9.3-1.751-18.065-4.712-22.521-9.721a36.3,36.3,0,0,1-5.021-7.719c-9.018-17.76-13.89-49.827-14.063-58.458-.037-2.994,25.235-5.785,27.379-3.538s14.884,35.092,21.762,36.056,29.511-.91,29.511-.91" transform="translate(-2060.326 -1965.681)" fill="#b9cbc0"/>
      <path id="Path_1169" data-name="Path 1169" d="M2082.621,1966.346c2.144,2.249,14.883,35.092,21.761,36.056s28.163-2.257,28.163-2.257" transform="translate(-2055.242 -1965.53)" fill="none" stroke="#000" stroke-miterlimit="10" stroke-width="0.93"/>
      <path id="Path_1170" data-name="Path 1170" d="M2099.32,2034.938c-9.3-1.75-18.065-4.711-22.521-9.72a36.3,36.3,0,0,1-5.021-7.719,15.562,15.562,0,0,1,1.611-1.114,17.4,17.4,0,0,1,25.931,18.553Z" transform="translate(-2057.715 -1954.685)" fill="#72373a"/>
      <g id="Group_738" data-name="Group 738" transform="translate(18.32 56.625)">
        <path id="Path_1171" data-name="Path 1171" d="M2075.244,2012.35a13.28,13.28,0,0,1,1.469,5.8" transform="translate(-2075.244 -2011.665)" fill="none" stroke="#592c26" stroke-miterlimit="10" stroke-width="0.465"/>
        <path id="Path_1172" data-name="Path 1172" d="M2082.133,2011.792a6.814,6.814,0,0,1-.661,5.317" transform="translate(-2073.824 -2011.792)" fill="none" stroke="#592c26" stroke-miterlimit="10" stroke-width="0.465"/>
        <path id="Path_1173" data-name="Path 1173" d="M2088.794,2013.438a6.782,6.782,0,0,1-2.134,5.484" transform="translate(-2072.641 -2011.417)" fill="none" stroke="#592c26" stroke-miterlimit="10" stroke-width="0.465"/>
        <path id="Path_1174" data-name="Path 1174" d="M2094.819,2019.085s-2.264,3.2-4.432,3.2" transform="translate(-2071.791 -2010.129)" fill="none" stroke="#592c26" stroke-miterlimit="10" stroke-width="0.465"/>
        <path id="Path_1175" data-name="Path 1175" d="M2097.424,2026.05s-2.931,2.424-5.313.65" transform="translate(-2071.398 -2008.541)" fill="none" stroke="#592c26" stroke-miterlimit="10" stroke-width="0.465"/>
      </g>
      <path id="Path_1176" data-name="Path 1176" d="M2135.9,2047.5s-17.82.65-33.967-2.37c-9.3-1.751-18.065-4.712-22.521-9.721a36.3,36.3,0,0,1-5.021-7.719c-9.018-17.759-13.89-49.827-14.063-58.458" transform="translate(-2060.326 -1964.872)" fill="none" stroke="#000" stroke-miterlimit="10" stroke-width="0.93"/>
    </g>
    <g id="Group_740" data-name="Group 740" transform="translate(0 32.145)">
      <path id="Path_1177" data-name="Path 1177" d="M2039.082,1990.47a104.029,104.029,0,0,1,29.416-19.7,4.265,4.265,0,0,1,2.262-.528,4.607,4.607,0,0,1,2.292,1.406l26.813,24.775a309.59,309.59,0,0,1-64.514-1.32,4.981,4.981,0,0,1,3.085-4.438" transform="translate(-2001.688 -1950.254)" fill="none" stroke="#232323" stroke-miterlimit="10" stroke-width="1.05"/>
      <path id="Path_1178" data-name="Path 1178" d="M2054.028,1979.091c-1.7,1.053-3.442,2.042-5.179,3.031a40.5,40.5,0,0,0-11.557,9.453c-4.6,5.613-7.89,12.343-11.664,18.657-3.292,5.508-6.98,10.744-9.86,16.523-3.992,8.009-6.345,16.9-7.831,25.877a75.665,75.665,0,0,0,24.176,6.989c-1.827-.207-6.185,58.015-6.427,63.385a3.291,3.291,0,0,0,.2,1.6,2.685,2.685,0,0,0,1.762,1.172c11.823,3.706,24.139,4.249,36.262,6.275s24.412,4.092,36.695,2.575a2.3,2.3,0,0,0,1.45-.547,2.919,2.919,0,0,0,.565-1.789l3.256-36.826c.481-5.449.688-10.924,1.229-16.371a97.073,97.073,0,0,0,.074-18.68,70.157,70.157,0,0,0,15.353.726,143.954,143.954,0,0,0-.975-20.685,84.744,84.744,0,0,1-.859-9.172c-.044-4.309.219-8.538-.194-12.821-.469-4.868-1.951-9.792-3.052-14.52-.963-4.138-2-8.443-4.563-11.644a26.561,26.561,0,0,0-7.175-6.25c-4.224-2.412-7.969-4.719-12.279-6.939-1.336,5.154-7.28,8.306-12.1,8.986a34.458,34.458,0,0,1-13.865-1.087,51.367,51.367,0,0,1-7.071-2.512c-2.616-1.157-3.776-3.693-4.9-6.333Q2054.765,1978.638,2054.028,1979.091Z" transform="translate(-2007.938 -1948.443)" fill="#587995"/>
      <path id="Path_1179" data-name="Path 1179" d="M2047.052,1982.616a51.279,51.279,0,0,1-4.474,27.318c-.437.926-.889,2.11-.307,2.927a2.236,2.236,0,0,0,1.334.746c5.323,1.412,11.367.869,15.734,4.5" transform="translate(-2000.172 -1947.428)" fill="none" stroke="#38617e" stroke-miterlimit="10" stroke-width="1"/>
      <path id="Path_1180" data-name="Path 1180" d="M2050.028,1984.312a96.844,96.844,0,0,1,6.185,17.347c1.315,5.2,2.214,10.637,1.6,16" transform="translate(-1998.341 -1947.041)" fill="none" stroke="#38617e" stroke-miterlimit="10" stroke-width="1"/>
      <path id="Path_1181" data-name="Path 1181" d="M2058.344,2015.862a59.138,59.138,0,0,1,5.9-5.683,57.582,57.582,0,0,0,16.038-26.573" transform="translate(-1996.444 -1947.202)" fill="none" stroke="#38617e" stroke-miterlimit="10" stroke-width="1"/>
      <path id="Path_1182" data-name="Path 1182" d="M2082.5,1983.015a273.331,273.331,0,0,1-2.316,34.355,2.42,2.42,0,0,1-.367,1.173,1.932,1.932,0,0,1-1.771.472l-14.74-1.18c-1.674-.134-3.572-.183-4.776,1.113" transform="translate(-1996.403 -1947.337)" fill="none" stroke="#38617e" stroke-miterlimit="10" stroke-width="1"/>
      <path id="Path_1183" data-name="Path 1183" d="M2059.343,2013.27c-2.9,9.8-.6,20.491-1.815,30.7-.42,3.531-1.259,6.983-1.9,10.474-1.786,9.782-1.981,19.813-2.17,29.781l-.658,34.748" transform="translate(-1997.708 -1940.438)" fill="none" stroke="#38617e" stroke-miterlimit="10" stroke-width="1"/>
      <path id="Path_1184" data-name="Path 1184" d="M2038.75,1985.847" transform="translate(-2000.912 -1946.691)" fill="none" stroke="#38617e" stroke-miterlimit="10" stroke-width="1"/>
      <path id="Path_1185" data-name="Path 1185" d="M2064,1974.293a13.741,13.741,0,0,1,1.626-6.812,25.831,25.831,0,0,0,2.472-6.575c.373-2.344-.191-5.055-1.988-6.365s-4.807-.308-5.1,2.048" transform="translate(-1995.839 -1953.962)" fill="none" stroke="#232323" stroke-miterlimit="10" stroke-width="1.05"/>
      <path id="Path_1186" data-name="Path 1186" d="M2027.65,2052.016l2.485-21.081c.8-6.75,1.6-13.542,3.474-20.034" transform="translate(-2003.443 -1940.978)" fill="none" stroke="#38617e" stroke-miterlimit="10" stroke-width="1"/>
      <path id="Path_1187" data-name="Path 1187" d="M2088.6,2051.769c-.873-11.893-1.069-23.837-1.266-35.771" transform="translate(-1989.833 -1939.816)" fill="none" stroke="#38617e" stroke-miterlimit="10" stroke-width="1"/>
      <path id="Path_1188" data-name="Path 1188" d="M2060.906,2028.776c.1.408-.534.707-.729.344s.35-.835.624-.54a.789.789,0,0,0,.216,1.285" transform="translate(-1996.036 -1936.968)" fill="none" stroke="#38617e" stroke-miterlimit="10" stroke-width="1"/>
      <path id="Path_1189" data-name="Path 1189" d="M2060.24,2041.629c-.379.182-.285.938.123,1a2.245,2.245,0,0,0-.42-3.019,1.261,1.261,0,0,0,.323,1.6" transform="translate(-1996.116 -1934.432)" fill="none" stroke="#38617e" stroke-miterlimit="10" stroke-width="1"/>
      <path id="Path_1190" data-name="Path 1190" d="M2058.123,2052.962c-.258-.422-.869.433-.436.61-.166.225.123.614.356.481s.112-.619-.15-.6" transform="translate(-1996.629 -1931.414)" fill="none" stroke="#38617e" stroke-miterlimit="10" stroke-width="1"/>
      <path id="Path_1191" data-name="Path 1191" d="M2057.506,2067.114a1.981,1.981,0,0,0,.126,2.369" transform="translate(-1996.711 -1928.161)" fill="none" stroke="#38617e" stroke-miterlimit="10" stroke-width="1"/>
      <path id="Path_1192" data-name="Path 1192" d="M2058.128,2079.164l-.37-.618" transform="translate(-1996.578 -1925.554)" fill="none" stroke="#38617e" stroke-miterlimit="10" stroke-width="1"/>
      <path id="Path_1193" data-name="Path 1193" d="M2057.17,2090.848c.368-.247.11-1.026-.315-.951a1.573,1.573,0,0,0,.123,1.78" transform="translate(-1996.834 -1922.966)" fill="none" stroke="#38617e" stroke-miterlimit="10" stroke-width="1"/>
    </g>
    <path id="Path_1194" data-name="Path 1194" d="M2062.432,2046.015c-2.568-5.8-5.117-1.682-3.118,5.558-5-4.351-9.349-7.006-11.281-9.421-1.814-2.267-5.54.79,2.007,10.367a48.264,48.264,0,0,1-7.319-6.5c-2.113-2.689-4.523,2.117,1.756,10.517a31.223,31.223,0,0,1-4.451-3.84c-2.027-2.33-3.791,1.663.979,8.461-.357-.234-.693-.465-.973-.686-3.327-2.637-3.989,6.376,12.392,15.085l15.65,7.255.483-17.958,2.173-7.719S2065,2051.81,2062.432,2046.015Z" transform="translate(-2001.093 -1901.87)" fill="#f9ad9f"/>
    <path id="Path_1195" data-name="Path 1195" d="M2097.1,1966.555s-6.037-21.611,9.9-23.784c4.226-5.04,12.5-5.954,15.645-6.054,10.9-.346,20.8,5.663,23.761,16.549,2.734,10.051-.362,22.592-10.25,27.535a3.432,3.432,0,0,1-4.708-2.9c0-2.354-15.754-9.054-15.754-9.054Z" transform="translate(-1987.864 -1925.752)" fill="#000100"/>
    <path id="Path_1196" data-name="Path 1196" d="M2096.891,1963.175s1.69,26.56,18.833,25.11c10.971-3.224,13.522-9.417,15.514-13.762,3.441-.544,8.691-4.89,7.244-10.5s-7.425-1.812-7.787,1.81c-1.329,1.147-6.882-1.508-12.886-5.794a22.9,22.9,0,0,1-7.4-8.511S2106.367,1960.881,2096.891,1963.175Z" transform="translate(-1987.655 -1922.372)" fill="#f9ad9f"/>
    <g id="Group_744" data-name="Group 744" transform="translate(80.751 445.48)">
      <path id="Path_1197" data-name="Path 1197" d="M2087.846,2293.39v5.851l17.868,1.207,2.656-9.9Z" transform="translate(-2070.468 -2290.548)" fill="#f9ad9f"/>
      <g id="Group_743" data-name="Group 743" transform="translate(0 7.478)">
        <g id="Group_742" data-name="Group 742">
          <path id="Path_1198" data-name="Path 1198" d="M2112.951,2297.327s-2.473,12.024-3.639,18.782H2073.7s1.5-6.26,12.316-7.259c1.165-14.979,1.207-11.964,1.207-11.964Z" transform="translate(-2073.695 -2296.638)" fill="#f9d5b6"/>
          <g id="Group_741" data-name="Group 741" transform="translate(10.764 10.875)">
            <path id="Path_1199" data-name="Path 1199" d="M2085.539,2309.49a.621.621,0,0,0,.191-.03.663.663,0,0,0,.445-.829,5.945,5.945,0,0,0-2.744-3.062.666.666,0,0,0-.616,1.182,4.645,4.645,0,0,1,2.086,2.264A.669.669,0,0,0,2085.539,2309.49Z" transform="translate(-2082.46 -2305.494)" fill="#72373a"/>
          </g>
        </g>
      </g>
    </g>
    <g id="Group_748" data-name="Group 748" transform="translate(251.376 407.797)">
      <path id="Path_1200" data-name="Path 1200" d="M2212.638,2273.933l12.8,7.95,10.452-14.542-7.009-7.479Z" transform="translate(-2212.638 -2259.862)" fill="#f9ad9f"/>
      <g id="Group_747" data-name="Group 747" transform="translate(9.716 3.158)">
        <g id="Group_746" data-name="Group 746">
          <path id="Path_1201" data-name="Path 1201" d="M2234.731,2262.434s8.909,8.445,14.036,13l-18.792,30.257s-4.527-4.575.333-14.293c-12.111-8.892-9.527-7.338-9.527-7.338Z" transform="translate(-2220.55 -2262.434)" fill="#f9d5b6"/>
          <g id="Group_745" data-name="Group 745" transform="translate(8.054 27.945)">
            <path id="Path_1202" data-name="Path 1202" d="M2231.875,2286.317a.63.63,0,0,0,.077-.179.664.664,0,0,0-.47-.815,5.954,5.954,0,0,0-4.048.716.666.666,0,0,0,.678,1.147,4.656,4.656,0,0,1,3.025-.577A.665.665,0,0,0,2231.875,2286.317Z" transform="translate(-2227.108 -2285.19)" fill="#72373a"/>
          </g>
        </g>
      </g>
    </g>
    <path id="Path_1203" data-name="Path 1203" d="M2102.473,1942.927s-8.163,4.4-8.028,15.4c.362,6.474,2.022,6.731,3,6.807s8.726-2.586,12.232-9.315" transform="translate(-1988.213 -1924.333)" fill="#000100"/>
    <path id="Path_1204" data-name="Path 1204" d="M2119.432,1938.766s5.036-12.613,18.618-10.8,10.322,12.315,20.644,14.669,23,.724,29.7,14.306.544,37.3-23.179,38.39-21.731-15.574-21.731-21.911-9.236-20.644-15.394-20.825" transform="translate(-1982.515 -1927.785)" fill="#000100"/>
    <path id="Path_1205" data-name="Path 1205" d="M2092.5,2103.418s-7.727,31.388-12.073,76.3-13.772,114.449-18.958,128.453-3.22,15.887-3.22,15.887,22.525,26.126,72.091,15.5,71.78-16.129,100.271-15.549,41.531-26.946,40.082-45.3c-16.9-17.385-47.808-42.32-54.086-61.966s-27.526-115.111-38.634-130.624S2092.5,2103.418,2092.5,2103.418Z" transform="translate(-1996.548 -1892.631)" fill="#90ab9a"/>
    <path id="Path_1206" data-name="Path 1206" d="M2128.274,1970.253s.544,11.148,3.8,15.443c-8.874,5.019-18.29,5.926-22.093,5.563,0-1.267,1.629-3.8,0-9.417S2128.274,1970.253,2128.274,1970.253Z" transform="translate(-1984.691 -1918.102)" fill="#f9ad9f"/>
    <path id="Path_1207" data-name="Path 1207" d="M2114.2,1986.422s17.234-4.9,23.3-6.359a3.713,3.713,0,0,1,2.752.383c2.656,1.561,2.547,4.674,3.011,6.609,4.8,4.889,20.735,25.9,31.6,78.049,5.433,27.526,9.417,64.469,9.417,64.469s-40.806,19.92-83.784,9.416c-10.746-2.9-19.437-9.778-19.437-11.951s10.5-61.934,12.677-79.68,16.57-50.524,17.837-52.427C2111.214,1993.3,2110.213,1987.393,2114.2,1986.422Z" transform="translate(-1991.264 -1915.89)" fill="#749681"/>
    <path id="Path_1208" data-name="Path 1208" d="M2136.531,1985.737s-13.793,6.1-25.926,7.063" transform="translate(-1984.528 -1914.571)" fill="none" stroke="#000" stroke-miterlimit="10" stroke-width="0.75"/>
    <g id="Group_749" data-name="Group 749" transform="translate(72.296 217.685)" style="mix-blend-mode: screen;isolation: isolate">
      <path id="Path_1209" data-name="Path 1209" d="M2157.037,2105.05s16.685,91.132,26.344,112.38,61.439,75.656,61.439,75.656" transform="translate(-2046.236 -2105.05)" fill="none" stroke="#72373a" stroke-miterlimit="10" stroke-width="0.75"/>
      <path id="Path_1210" data-name="Path 1210" d="M2148.543,2107.709s13.112,94.145,20.354,118.773,57.073,88.586,57.073,88.586" transform="translate(-2048.174 -2104.444)" fill="none" stroke="#72373a" stroke-miterlimit="10" stroke-width="0.75"/>
      <path id="Path_1211" data-name="Path 1211" d="M2138,2110.107s10.128,100.858,17.371,123.555,37.138,84.553,37.138,84.553" transform="translate(-2050.579 -2103.897)" fill="none" stroke="#72373a" stroke-miterlimit="10" stroke-width="0.75"/>
      <path id="Path_1212" data-name="Path 1212" d="M2127.117,2111.562s2.721,87.964,10.448,118.871,23.3,92.574,23.3,92.574" transform="translate(-2053.059 -2103.565)" fill="none" stroke="#72373a" stroke-miterlimit="10" stroke-width="0.75"/>
      <path id="Path_1213" data-name="Path 1213" d="M2116.891,2111.951s1.709,86.832,4.631,117.1,14.923,99.457,14.923,99.457" transform="translate(-2055.391 -2103.477)" fill="none" stroke="#72373a" stroke-miterlimit="10" stroke-width="0.75"/>
      <path id="Path_1214" data-name="Path 1214" d="M2107.134,2111.276s-1.811,100.871-.906,125.018,5.433,97.975,5.433,97.975" transform="translate(-2057.88 -2103.631)" fill="none" stroke="#72373a" stroke-miterlimit="10" stroke-width="0.75"/>
      <path id="Path_1215" data-name="Path 1215" d="M2099.221,2109.46s-6.1,108.413-7.037,128.7-5.846,96.468-5.5,96.527" transform="translate(-2062.281 -2104.044)" fill="none" stroke="#72373a" stroke-miterlimit="10" stroke-width="0.75"/>
      <path id="Path_1216" data-name="Path 1216" d="M2094.892,2106.679s-12.753,119.676-13.478,135.974-8.566,65.092-14.6,83.976" transform="translate(-2066.81 -2104.679)" fill="none" stroke="#72373a" stroke-miterlimit="10" stroke-width="0.75"/>
    </g>
    <path id="Path_1217" data-name="Path 1217" d="M2110.6,1983.484s11.348.307,15.333-10.651" transform="translate(-1984.528 -1917.513)" fill="none" stroke="#d36751" stroke-miterlimit="10" stroke-width="0.5"/>
    <g id="Group_757" data-name="Group 757" transform="translate(111.16 35.755)">
      <path id="Path_1218" data-name="Path 1218" d="M2105.975,1974.635c-.077.62,1.928,4.772,4.483,4.858,2.143.074,4.594-3.59,3.761-5.558C2113.723,1973.216,2106.052,1974.016,2105.975,1974.635Z" transform="translate(-2096.743 -1953.082)" fill="#fff"/>
      <g id="Group_750" data-name="Group 750" transform="translate(9.497 12.966)">
        <path id="Path_1219" data-name="Path 1219" d="M2107.921,1967.527c-.21,1.093-1.744,1.337-1.73,2.593a1.965,1.965,0,0,0,1.954,1.835c.165,0,.342-.216.186-.359a9.787,9.787,0,0,0-.91-.65c-.739-.542-.592-1.239-.1-1.849a2.671,2.671,0,0,0,.757-1.557.076.076,0,0,0-.152-.013Z" transform="translate(-2106.191 -1967.46)" fill="#663024"/>
      </g>
      <g id="Group_755" data-name="Group 755">
        <path id="Path_1220" data-name="Path 1220" d="M2100.012,1962.3c.42-1.035,1.29-1.418,2.448.259.728,1.055,1.336,3.295-.232,3.911C2099.833,1967.416,2099.325,1963.99,2100.012,1962.3Z" transform="translate(-2098.167 -1955.872)" fill="#3f2c25"/>
        <path id="Path_1221" data-name="Path 1221" d="M2100.024,1963.1c.187-.459.573-.629,1.086.115.323.468.592,1.461-.1,1.734C2099.945,1965.371,2099.719,1963.852,2100.024,1963.1Z" transform="translate(-2098.129 -1955.577)" fill="#fff"/>
        <g id="Group_752" data-name="Group 752" transform="translate(0 0.759)">
          <g id="Group_751" data-name="Group 751">
            <path id="Path_1222" data-name="Path 1222" d="M2104.434,1958.622c-1.331-1.3-5.417-1.836-5.971.6a.178.178,0,0,0,.312.162,3.062,3.062,0,0,1,2.71-1.363,7.549,7.549,0,0,1,2.854.733.086.086,0,0,0,.095-.135Z" transform="translate(-2098.458 -1957.519)" fill="#32221d"/>
          </g>
        </g>
        <g id="Group_754" data-name="Group 754" transform="translate(13.235)">
          <g id="Group_753" data-name="Group 753">
            <path id="Path_1223" data-name="Path 1223" d="M2115.212,1958c-1.331-1.305-5.417-1.836-5.971.6a.178.178,0,0,0,.312.162,3.063,3.063,0,0,1,2.71-1.363,7.531,7.531,0,0,1,2.854.733c.076.033.155-.076.095-.135Z" transform="translate(-2109.235 -1956.901)" fill="#32221d"/>
          </g>
        </g>
      </g>
      <g id="Group_756" data-name="Group 756" transform="translate(16.19 5.485)">
        <path id="Path_1224" data-name="Path 1224" d="M2111.976,1962.321c.484-1.1,1.46-1.519,2.731.244.8,1.11,1.45,3.477-.307,4.15C2111.712,1967.744,2111.189,1964.12,2111.976,1962.321Z" transform="translate(-2111.642 -1961.368)" fill="#3f2c25"/>
        <path id="Path_1225" data-name="Path 1225" d="M2111.978,1963.169c.214-.489.647-.674,1.211.108.355.493.643,1.541-.136,1.84C2111.86,1965.574,2111.628,1963.966,2111.978,1963.169Z" transform="translate(-2111.599 -1961.053)" fill="#fff"/>
      </g>
    </g>
    <path id="Path_1226" data-name="Path 1226" d="M2121.161,1936.873s21.456.29,20.2,27.3" transform="translate(-1982.121 -1925.713)" fill="none" stroke="#32221d" stroke-miterlimit="10" stroke-width="0.5"/>
    <path id="Path_1227" data-name="Path 1227" d="M2101.156,2003.81s9.008,96.383,17.157,149.262,57.163,29.741,71.048,16.138-10.973-62.672-12.676-74.269-4.373-23.189-4.373-23.189-.867,14.679-2.533,21.559-25.1,20.9-36.743,17.875-20.5-35.621-23.5-72.2c-4.083-30.062-6.481-39.783-6.481-39.783Z" transform="translate(-1986.682 -1911.501)" fill="#587995"/>
    <g id="Group_758" data-name="Group 758" transform="translate(58.222 114.084)">
      <path id="Path_1228" data-name="Path 1228" d="M2169.793,2060.526s-9.3,16.761-21.049,29.944c-6.78,7.592-14.372,14.009-21.456,15.328a39.05,39.05,0,0,1-9.9.333c-21.354-1.565-53.573-14.893-61.614-19.528-2.777-1.631,8.692-26.439,11.951-27.164s40.565,5.8,45.274,0,17.92-38.753,17.92-38.753" transform="translate(-2055.349 -2020.686)" fill="#b9cbc0"/>
      <path id="Path_1229" data-name="Path 1229" d="M2065.431,2059.439c3.26-.724,40.565,5.8,45.274,0s17.92-38.753,17.92-38.753" transform="translate(-2053.05 -2020.686)" fill="none" stroke="#000" stroke-miterlimit="10" stroke-width="1"/>
      <path id="Path_1230" data-name="Path 1230" d="M2169.713,2053.129s-9.3,16.761-21.049,29.944c-6.78,7.592-14.372,14.009-21.456,15.328a39.025,39.025,0,0,1-9.9.333c-21.354-1.565-53.573-14.892-61.614-19.528" transform="translate(-2055.269 -2013.288)" fill="none" stroke="#000" stroke-miterlimit="10" stroke-width="1"/>
    </g>
    <path id="Path_1231" data-name="Path 1231" d="M2164.863,2105.243c-8.852-4.2-14.26,6.375-14.26,6.375s-9.526-7.1-15.608.584,7.617,17.524,20.865,21.979C2165.775,2124.33,2173.716,2109.447,2164.863,2105.243Z" transform="translate(-1979.306 -1887.547)" fill="#f9d5b6"/>
    <line id="Line_12" data-name="Line 12" x2="35.376" transform="translate(81.303 471.169)" fill="none" stroke="#72373a" stroke-miterlimit="10" stroke-width="0.5"/>
    <path id="Path_1232" data-name="Path 1232" d="M2105.714,2304.566s-8.233,0-8.233,8.476" transform="translate(-1987.52 -1841.872)" fill="none" stroke="#72373a" stroke-miterlimit="10" stroke-width="0.5"/>
    <line id="Line_13" data-name="Line 13" x1="18.458" y2="30.114" transform="translate(269.734 422.956)" fill="none" stroke="#72373a" stroke-miterlimit="10" stroke-width="0.5"/>
    <path id="Path_1233" data-name="Path 1233" d="M2237.862,2267.7s-3.147,7,2.751,10.891" transform="translate(-1955.702 -1850.279)" fill="none" stroke="#72373a" stroke-miterlimit="10" stroke-width="0.5"/>
  </g>
  <path id="Path_1234" data-name="Path 1234" d="M2079.947,1958.777c.111.608.073,1.454-.532,1.575-.714.144-1.348-.99-1.981-.634a4.989,4.989,0,0,1-.619,3.441c-.083.139-.192.286-.351.306a.571.571,0,0,1-.4-.169l-2.831-2.209a7.509,7.509,0,0,1-.938,2.534,1.256,1.256,0,0,1-.375.442c-.484.312-1.116-.078-1.5-.507s-.776-.964-1.351-1a1.984,1.984,0,0,1-1.7,1.3,3.4,3.4,0,0,1-2.147-.59,5.417,5.417,0,0,1-2.375-3.4c-.281-1.307-.808-2.751-.208-3.946,1.153-2.3,3.854-3.677,6.3-4.025" transform="translate(-1995.528 -1922.287)" fill="#f9ad9f"/>
  <path id="Path_1235" data-name="Path 1235" d="M2063.38,1957.192a6.581,6.581,0,0,0,2.5,5.672.982.982,0,0,0,.616.264.964.964,0,0,0,.512-.232,4.675,4.675,0,0,0,1.825-3.65,5.978,5.978,0,0,0,.714,2.021,2.025,2.025,0,0,0,1.792,1,2.547,2.547,0,0,0,1.568-.995,3.514,3.514,0,0,0,1.039-2.532,5.52,5.52,0,0,0,1.615,2.477,1.776,1.776,0,0,0,.824.462,1.451,1.451,0,0,0,1.465-.911,4.234,4.234,0,0,0,.248-1.826,3.262,3.262,0,0,0,.84,1.65,1.442,1.442,0,0,0,1.723.242,1.79,1.79,0,0,0,.576-.762,5.078,5.078,0,0,0,.411-2.893" transform="translate(-1995.301 -1921.084)" fill="none" stroke="#d36751" stroke-miterlimit="10" stroke-width="1"/>
  <path id="Path_1236" data-name="Path 1236" d="M2080.8,1964.812a35.174,35.174,0,0,1,2.769-6.306,11.731,11.731,0,0,0,1.459-3.2,3.267,3.267,0,0,0-.91-3.225,2.844,2.844,0,0,0-2.921-.244,4.506,4.506,0,0,0-2.068,2.209" transform="translate(-1991.706 -1922.367)" fill="#f9ad9f"/>
</svg>
