<svg xmlns="http://www.w3.org/2000/svg" width="324.231" height="368.555" viewBox="0 0 324.231 368.555">
  <g id="Group_737" data-name="Group 737" transform="translate(0 0.528)">
    <path id="Path_1082" data-name="Path 1082" d="M1809.112,1982.406c24.538.917,49.8-.562,74.338.355,10.769.4,21.73-.517,32.506-.355,74.261,1.116,140.2-2.512,214.411.362" transform="translate(-1806.233 -1975.597)" fill="none" stroke="#fff" stroke-miterlimit="10" stroke-width="5.02"/>
    <g id="Group_725" data-name="Group 725" transform="translate(182.91)">
      <g id="Group_724" data-name="Group 724" transform="translate(18.495)">
        <path id="Path_1083" data-name="Path 1083" d="M1974.4,2010.473A104.685,104.685,0,0,1,2003.355,1992a4.621,4.621,0,0,1,2.248-.527,4.734,4.734,0,0,1,2.323,1.228L2035.3,2014.6a341.217,341.217,0,0,1-64.529.151,4.538,4.538,0,0,1,2.981-4.089" transform="translate(-1970.776 -1973.357)" fill="none" stroke="#232323" stroke-miterlimit="10" stroke-width="1"/>
        <path id="Path_1084" data-name="Path 1084" d="M1999.03,1995.16a11.5,11.5,0,0,1,1.469-6.211,22.022,22.022,0,0,0,2.32-6.014c.319-2.133-.308-4.579-2.133-5.729s-4.812-.181-5.057,1.964" transform="translate(-1965.109 -1976.718)" fill="none" stroke="#232323" stroke-miterlimit="10" stroke-width="1"/>
      </g>
      <path id="Path_1085" data-name="Path 1085" d="M2038.9,2003.929c.564-.037,1.127-.056,1.693-.055,1.108,10.465,4.183,21.027,5.631,31.605,3.287,24,3.074,48.623,3.728,73.043.658,24.6,2.206,49.131,4.125,73.6,1.521,19.41,2.909,38.858,5.127,58.146,1.094,9.517,2.256,19.129,4.012,28.46,1.549,8.222-.427,7.321-5.834,8.108q-7.818,1.137-15.671,1.736c-2.552.194-30.653,1.231-30.644.258.039-5.032.156-9.931.183-15,.042-8.272-.178-16.565-.267-24.838l-.532-49.7c-.355-33.118-1.066-66.271-1.066-99.394.976,63.064-6.292,126.769-1.844,189.844l-26.994,1.615a41.492,41.492,0,0,1-5.7.078c-3.426-.269-15.344.082-17.8-2.95-3.058-3.78.014-17.238.444-22.181l5.051-57.983c1.089-12.5,2.18-25.023,2.378-37.612.174-11.069-.342-22.134-.565-33.2a621.126,621.126,0,0,1,10.081-124.922c.122-.656,30.723,3.247,33.628,3.385a156.672,156.672,0,0,0,17.19-.051C2029.832,2005.644,2034.334,2004.225,2038.9,2003.929Z" transform="translate(-1955.715 -1970.834)" fill="#ff9985"/>
      <path id="Path_1086" data-name="Path 1086" d="M1960.089,2206.425c2.117,1.389,4.722,1.77,7.239,2.034a115.572,115.572,0,0,0,34.806-1.647" transform="translate(-1954.717 -1924.34)" fill="none" stroke="#e28071" stroke-miterlimit="10" stroke-width="1"/>
      <path id="Path_1087" data-name="Path 1087" d="M2002.877,2205l11.146.513c3.951.183,7.906.365,11.857.205a68.724,68.724,0,0,0,20.686-4.079" transform="translate(-1944.961 -1925.43)" fill="none" stroke="#e28071" stroke-miterlimit="10" stroke-width="1"/>
      <path id="Path_1088" data-name="Path 1088" d="M2022.352,2193.611c-4.237-10.761-1.163-22.858,1.956-33.994s6.218-23.22,2.024-34" transform="translate(-1940.993 -1942.765)" fill="none" stroke="#e28071" stroke-miterlimit="10" stroke-width="1"/>
      <path id="Path_1089" data-name="Path 1089" d="M2023.774,2152.25a23.682,23.682,0,0,1-9.014-16.233c-.457-4.625.438-9.5-1.324-13.8l3.558,6.528a62.421,62.421,0,0,1,5.355,11.663,20.973,20.973,0,0,1,.235,12.65" transform="translate(-1942.553 -1943.541)" fill="none" stroke="#e28071" stroke-miterlimit="10" stroke-width="1"/>
      <path id="Path_1090" data-name="Path 1090" d="M2027.374,2143.464a42.635,42.635,0,0,1-7.958-40.138c-.5,1.081.124,2.321.72,3.353,6.071,10.514,10.8,22.46,9.481,34.53" transform="translate(-1941.641 -1947.849)" fill="none" stroke="#e28071" stroke-miterlimit="10" stroke-width="1"/>
      <path id="Path_1091" data-name="Path 1091" d="M2025.351,2162.33c-.158-3.172,1.474-6.125,3.054-8.88l5.387-9.386a41.544,41.544,0,0,1-1.064,11.187,10.584,10.584,0,0,1-1.244,3.325c-1.471,2.3-4.256,3.308-6.844,4.171" transform="translate(-1939.999 -1938.559)" fill="none" stroke="#e28071" stroke-miterlimit="10" stroke-width="1"/>
      <path id="Path_1092" data-name="Path 1092" d="M2018.636,2163.7a19.37,19.37,0,0,1-3.1-4.133,37.755,37.755,0,0,1-3.948-7.611,12.675,12.675,0,0,1-.185-8.424,27.946,27.946,0,0,1,8.149,20" transform="translate(-1943.163 -1938.682)" fill="none" stroke="#e28071" stroke-miterlimit="10" stroke-width="1"/>
      <path id="Path_1093" data-name="Path 1093" d="M2023.606,2173.058a3.237,3.237,0,0,1,.551-2.915,34.5,34.5,0,0,1,6.651-8.225,13.972,13.972,0,0,1-4.017,10.291c-.687.689-1.88,1.293-2.532.571" transform="translate(-1940.275 -1934.489)" fill="none" stroke="#e28071" stroke-miterlimit="10" stroke-width="1"/>
      <path id="Path_1094" data-name="Path 1094" d="M1999.424,2096.222q-.4-10.621-.515-21.253" transform="translate(-1945.866 -1954.314)" fill="none" stroke="#e28071" stroke-miterlimit="10" stroke-width="1"/>
      <path id="Path_1095" data-name="Path 1095" d="M1992.433,2009.621a65.794,65.794,0,0,0,36.611.107" transform="translate(-1947.342 -1969.215)" fill="none" stroke="#e28071" stroke-miterlimit="10" stroke-width="1"/>
      <path id="Path_1096" data-name="Path 1096" d="M1976.227,2007.685c1.73-.038,3.381.657,5.069,1.038,3.384.764,6.91.26,10.344-.247" transform="translate(-1951.038 -1969.657)" fill="none" stroke="#e28071" stroke-miterlimit="10" stroke-width="1"/>
      <path id="Path_1097" data-name="Path 1097" d="M1962.482,2204.115c5.266,1.54,10.773,2.023,16.24,2.5,5.16.448,10.567.86,15.327-1.181" transform="translate(-1954.172 -1924.866)" fill="none" stroke="#e28071" stroke-miterlimit="10" stroke-width="1"/>
      <path id="Path_1098" data-name="Path 1098" d="M2005.138,2202.2l25.109-.48a53.016,53.016,0,0,0,9.351-.733,26.478,26.478,0,0,0,6.269-2.089" transform="translate(-1944.445 -1926.056)" fill="none" stroke="#e28071" stroke-miterlimit="10" stroke-width="1"/>
    </g>
    <g id="Group_726" data-name="Group 726" transform="translate(125.729 0.724)">
      <path id="Path_1099" data-name="Path 1099" d="M1939.066,2014.426a104.074,104.074,0,0,1,28.954-20.319,4.281,4.281,0,0,1,2.25-.578,4.607,4.607,0,0,1,2.323,1.349l27.377,24.088a310.417,310.417,0,0,1-64.528.167,4.971,4.971,0,0,1,2.982-4.5" transform="translate(-1903.156 -1973.612)" fill="none" stroke="#232323" stroke-miterlimit="10" stroke-width="1.049"/>
      <path id="Path_1100" data-name="Path 1100" d="M1953.534,2002.791c-1.68,1.088-3.394,2.114-5.107,3.14a40.512,40.512,0,0,0-11.336,9.691c-4.467,5.7-7.6,12.489-11.231,18.872-3.163,5.568-6.73,10.874-9.477,16.7-3.806,8.078-5.953,17-7.232,25.983a75.89,75.89,0,0,0,24.331,6.414c-1.832-.166-4.847,57.991-4.965,63.351a3.269,3.269,0,0,0,.232,1.593,2.683,2.683,0,0,0,1.788,1.128c11.906,3.424,24.231,3.683,36.4,5.424s24.5,3.518,36.745,1.724a2.3,2.3,0,0,0,1.437-.58,2.917,2.917,0,0,0,.525-1.8l2.406-36.8c.355-5.443.436-10.907.851-16.351a96.519,96.519,0,0,0-.357-18.629,70.443,70.443,0,0,0,15.366.371,143.192,143.192,0,0,0-1.452-20.6,84.3,84.3,0,0,1-1.071-9.126c-.142-4.3.022-8.517-.49-12.779-.581-4.843-2.176-9.72-3.384-14.408-1.058-4.105-2.2-8.374-4.83-11.507a23.99,23.99,0,0,0-7.323-5.31q-6.418-3.461-12.96-6.635c-1.218,5.169-6.557,7.691-11.361,8.478a34.5,34.5,0,0,1-13.886-.765,44.521,44.521,0,0,1-6.564-2.4c-2.641-1.094-4.423-3.539-5.609-6.146Q1954.259,2002.321,1953.534,2002.791Z" transform="translate(-1909.151 -1971.715)" fill="#899b5d"/>
      <path id="Path_1101" data-name="Path 1101" d="M1946.834,2006.284a51.025,51.025,0,0,1-3.842,27.343c-.416.933-.84,2.125-.239,2.927a2.242,2.242,0,0,0,1.35.713c5.355,1.285,11.385.6,15.834,4.125" transform="translate(-1901.557 -1970.7)" fill="none" stroke="#6e7d43" stroke-miterlimit="10" stroke-width="1"/>
      <path id="Path_1102" data-name="Path 1102" d="M1949.974,2007.885a96.425,96.425,0,0,1,6.583,17.155c1.436,5.155,2.46,10.556,1.967,15.92" transform="translate(-1899.843 -1970.335)" fill="none" stroke="#6e7d43" stroke-miterlimit="10" stroke-width="1"/>
      <path id="Path_1103" data-name="Path 1103" d="M1958.877,2039.248a59.279,59.279,0,0,1,5.769-5.8,57.4,57.4,0,0,0,15.422-26.867" transform="translate(-1897.813 -1970.633)" fill="none" stroke="#6e7d43" stroke-miterlimit="10" stroke-width="1"/>
      <path id="Path_1104" data-name="Path 1104" d="M1982.249,2005.948a271.846,271.846,0,0,1-1.523,34.311,2.412,2.412,0,0,1-.34,1.178,1.939,1.939,0,0,1-1.76.511l-14.763-.839c-1.676-.094-3.575-.1-4.749,1.219" transform="translate(-1897.759 -1970.777)" fill="none" stroke="#6e7d43" stroke-miterlimit="10" stroke-width="1"/>
      <path id="Path_1105" data-name="Path 1105" d="M1959.532,2036.574c-2.675,9.836-.128,20.447-1.108,30.656-.339,3.53-1.1,6.991-1.656,10.487-1.561,9.795-1.524,19.8-1.483,29.745l.142,34.665" transform="translate(-1898.634 -1963.793)" fill="none" stroke="#6e7d43" stroke-miterlimit="10" stroke-width="1"/>
      <path id="Path_1106" data-name="Path 1106" d="M1938.734,2009.676" transform="translate(-1902.406 -1969.927)" fill="none" stroke="#6e7d43" stroke-miterlimit="10" stroke-width="1"/>
      <path id="Path_1107" data-name="Path 1107" d="M1963.7,1997.588a13.672,13.672,0,0,1,1.469-6.83,25.7,25.7,0,0,0,2.318-6.612c.32-2.346-.307-5.036-2.133-6.3s-4.813-.2-5.056,2.16" transform="translate(-1897.489 -1977.307)" fill="none" stroke="#232323" stroke-miterlimit="10" stroke-width="1.049"/>
      <path id="Path_1108" data-name="Path 1108" d="M1928.986,2075.936l2-21.078c.641-6.749,1.288-13.541,3.012-20.057" transform="translate(-1904.628 -1964.198)" fill="none" stroke="#6e7d43" stroke-miterlimit="10" stroke-width="1"/>
      <path id="Path_1109" data-name="Path 1109" d="M1990.094,2074.263c-1.147-11.84-1.619-23.744-2.089-35.64" transform="translate(-1891.171 -1963.326)" fill="none" stroke="#6e7d43" stroke-miterlimit="10" stroke-width="1"/>
      <path id="Path_1110" data-name="Path 1110" d="M1961.872,2051.974c.111.4-.518.717-.721.359s.331-.84.612-.553a.786.786,0,0,0,.245,1.276" transform="translate(-1897.304 -1960.346)" fill="none" stroke="#6e7d43" stroke-miterlimit="10" stroke-width="1"/>
      <path id="Path_1111" data-name="Path 1111" d="M1961.5,2064.8c-.372.19-.263.943.146.995a2.235,2.235,0,0,0-.489-3,1.256,1.256,0,0,0,.359,1.588" transform="translate(-1897.325 -1957.814)" fill="none" stroke="#6e7d43" stroke-miterlimit="10" stroke-width="1"/>
      <path id="Path_1112" data-name="Path 1112" d="M1959.646,2076.155c-.267-.416-.858.452-.421.617-.16.229.136.611.367.472s.1-.619-.163-.593" transform="translate(-1897.769 -1954.794)" fill="none" stroke="#6e7d43" stroke-miterlimit="10" stroke-width="1"/>
      <path id="Path_1113" data-name="Path 1113" d="M1959.354,2090.28a1.969,1.969,0,0,0,.18,2.359" transform="translate(-1897.774 -1951.547)" fill="none" stroke="#6e7d43" stroke-miterlimit="10" stroke-width="1"/>
      <path id="Path_1114" data-name="Path 1114" d="M1960.257,2102.28l-.383-.608" transform="translate(-1897.585 -1948.95)" fill="none" stroke="#6e7d43" stroke-miterlimit="10" stroke-width="1"/>
      <path id="Path_1115" data-name="Path 1115" d="M1959.566,2113.955c.362-.254.087-1.027-.336-.942a1.564,1.564,0,0,0,.165,1.771" transform="translate(-1897.778 -1946.365)" fill="none" stroke="#6e7d43" stroke-miterlimit="10" stroke-width="1"/>
    </g>
    <g id="Group_728" data-name="Group 728" transform="translate(91.864 2.656)">
      <g id="Group_727" data-name="Group 727" transform="translate(22.267)">
        <path id="Path_1116" data-name="Path 1116" d="M1903.331,2012.636a104.689,104.689,0,0,1,28.953-18.478,4.622,4.622,0,0,1,2.25-.527,4.728,4.728,0,0,1,2.323,1.228l27.376,21.906a341.2,341.2,0,0,1-64.527.151,4.536,4.536,0,0,1,2.982-4.089" transform="translate(-1899.706 -1975.52)" fill="none" stroke="#3a6380" stroke-miterlimit="10" stroke-width="1"/>
        <path id="Path_1117" data-name="Path 1117" d="M1927.96,1997.324a11.5,11.5,0,0,1,1.469-6.211,22.056,22.056,0,0,0,2.32-6.014c.319-2.133-.308-4.579-2.134-5.73s-4.813-.179-5.056,1.965" transform="translate(-1894.04 -1978.88)" fill="none" stroke="#3a6380" stroke-miterlimit="10" stroke-width="1"/>
      </g>
      <path id="Path_1118" data-name="Path 1118" d="M1906.309,2005.735c-.562-.038-1.127-.058-1.692-.055-1.108,10.735-4.184,21.573-5.632,32.425-3.286,24.626-3.073,49.886-3.727,74.939-.658,25.234-2.207,50.408-4.125,75.51-1.293,16.906-2.486,33.822-4.178,50.692-.7,7-1.628,14.169-3,21.1-1.488,7.517-3.426,15.3-1.708,22.951,5.718-2.086,12.1-.984,17.9.88s11.4,4.467,17.41,5.412c8.8,1.381,17.7-.894,26.494-2.28a133.341,133.341,0,0,1,31.816-1.163c4.615.385,9.334,1,13.818-.156-.632-3.725-.176-6.983-.561-10.653-.374-3.565-1.11-7.094-1.41-10.666l-5.051-59.489c-1.089-12.823-2.178-25.673-2.377-38.588-.175-11.355.343-22.707.566-34.063a653.37,653.37,0,0,0-10.082-128.164c-.122-.673-30.723,3.332-33.628,3.473a152.634,152.634,0,0,1-17.189-.053C1915.378,2007.495,1910.876,2006.04,1906.309,2005.735Z" transform="translate(-1881.574 -1973.086)" fill="#834348"/>
      <path id="Path_1119" data-name="Path 1119" d="M1910.743,2007.347c-6.591,8.493-3.405,20.571-2.942,31.309.3,6.984-.7,13.947-1.47,20.894-3.227,29.258-2.27,58.816-.339,88.186.694,10.577,1.515,21.159,1.445,31.759-.12,18.419-2.926,36.7-5.725,54.908-1,6.48-2.018,13.047-4.648,19.053-1.873,4.278-4.529,8.188-6.273,12.521s-2.494,9.39-.464,13.6" transform="translate(-1879.855 -1972.39)" fill="none" stroke="#6c3136" stroke-miterlimit="10" stroke-width="1"/>
      <path id="Path_1120" data-name="Path 1120" d="M1913.735,2007.892c-5.212,14.243.029,29.957.113,45.123.045,8.069-1.393,16.062-2.387,24.069-6.8,54.716,7.012,110.351.974,165.155-.814,7.385-1.988,14.741-2.32,22.164a98.22,98.22,0,0,0,1.135,19.871" transform="translate(-1875.199 -1972.265)" fill="none" stroke="#6c3136" stroke-miterlimit="10" stroke-width="1"/>
      <path id="Path_1121" data-name="Path 1121" d="M1924.078,2009.831c-6.375,30.081,5.325,61.114,3.617,91.815-.6,10.8-2.858,21.427-4.171,32.16-4.628,37.833,2.513,76,4.089,114.078.5,12.1.44,24.224.262,36.336" transform="translate(-1872.359 -1971.823)" fill="none" stroke="#6c3136" stroke-miterlimit="10" stroke-width="1"/>
      <path id="Path_1122" data-name="Path 1122" d="M1933.718,2010.842c-1.4,44.195,10.464,88.434,5.166,132.332-.836,6.921-2.1,13.807-2.347,20.773-.273,7.622.671,15.23,1.61,22.8q5.83,46.915,11.659,93.83" transform="translate(-1869.71 -1971.593)" fill="none" stroke="#6c3136" stroke-miterlimit="10" stroke-width="1"/>
      <path id="Path_1123" data-name="Path 1123" d="M1945.631,2006.144q6.926,80.537,7.555,161.452c.085,10.976.083,21.978,1.3,32.885,3.161,28.321,14.488,55.714,13.645,84.2" transform="translate(-1866.967 -1972.664)" fill="none" stroke="#6c3136" stroke-miterlimit="10" stroke-width="1"/>
      <path id="Path_1124" data-name="Path 1124" d="M1895.741,2106.569c4.641,23.335,1.509,47.433-1.635,71.016l-1.665,12.5c-2.292,17.189-4.584,34.389-7.746,51.44" transform="translate(-1880.862 -1949.765)" fill="none" stroke="#6c3136" stroke-miterlimit="10" stroke-width="1"/>
    </g>
    <g id="Group_729" data-name="Group 729" transform="translate(58.303 0.189)">
      <path id="Path_1125" data-name="Path 1125" d="M1881.787,2015.379a104.027,104.027,0,0,1,28.036-21.618,4.26,4.26,0,0,1,2.221-.677,4.6,4.6,0,0,1,2.38,1.25l28.407,22.931a309.588,309.588,0,0,1-64.459,2.988,4.98,4.98,0,0,1,2.781-4.634" transform="translate(-1848.744 -1973.176)" fill="none" stroke="#232323" stroke-miterlimit="10" stroke-width="1.05"/>
      <path id="Path_1126" data-name="Path 1126" d="M1895.326,2003.476c-1.631,1.164-3.3,2.268-4.964,3.37a40.5,40.5,0,0,0-10.9,10.2c-4.213,5.908-7.049,12.841-10.394,19.394-2.917,5.714-6.247,11.185-8.735,17.143-3.448,8.258-5.2,17.283-6.087,26.343a75.727,75.727,0,0,0,24.59,5.36c-1.838-.085-2.3,58.3-2.185,63.673a3.276,3.276,0,0,0,.3,1.585,2.685,2.685,0,0,0,1.836,1.053c12.044,2.909,24.369,2.629,36.6,3.842s24.632,2.452,36.786.121a2.305,2.305,0,0,0,1.41-.644,2.935,2.935,0,0,0,.444-1.823l.791-36.961c.117-5.469-.043-10.944.134-16.415a97.044,97.044,0,0,0-1.173-18.644,70.255,70.255,0,0,0,15.368-.3,143.955,143.955,0,0,0-2.353-20.574,84.687,84.687,0,0,1-1.47-9.094c-.332-4.3-.351-8.533-1.049-12.778-.793-4.826-2.6-9.641-4.013-14.286-1.237-4.063-2.563-8.29-5.331-11.312a26.529,26.529,0,0,0-7.577-5.757c-4.376-2.125-8.265-4.177-12.714-6.106-.99,5.231-6.709,8.774-11.473,9.774a34.458,34.458,0,0,1-13.907-.16,51.3,51.3,0,0,1-7.223-2.035c-2.687-.98-4.013-3.433-5.312-5.991Q1896.03,2002.975,1895.326,2003.476Z" transform="translate(-1854.245 -1971.4)" fill="#ffab00"/>
      <path id="Path_1127" data-name="Path 1127" d="M1889.161,2006.638a51.273,51.273,0,0,1-2.641,27.556c-.374.953-.747,2.165-.112,2.942a2.235,2.235,0,0,0,1.38.655c5.407,1.054,11.4.109,16,3.441" transform="translate(-1846.989 -1970.084)" fill="none" stroke="#e28200" stroke-miterlimit="10" stroke-width="1.05"/>
      <path id="Path_1128" data-name="Path 1128" d="M1892.606,2008.069a96.9,96.9,0,0,1,7.329,16.9c1.659,5.1,2.919,10.465,2.662,15.86" transform="translate(-1845.498 -1969.758)" fill="none" stroke="#e28200" stroke-miterlimit="10" stroke-width="1.05"/>
      <path id="Path_1129" data-name="Path 1129" d="M1902.609,2039.266a59.123,59.123,0,0,1,5.509-6.064,57.569,57.569,0,0,0,14.229-27.584" transform="translate(-1843.217 -1970.317)" fill="none" stroke="#e28200" stroke-miterlimit="10" stroke-width="1.05"/>
      <path id="Path_1130" data-name="Path 1130" d="M1924.468,2004.906a273.012,273.012,0,0,1-.018,34.432,2.381,2.381,0,0,1-.289,1.2,1.932,1.932,0,0,1-1.734.589l-14.787-.2c-1.679-.022-3.576.057-4.69,1.429" transform="translate(-1843.139 -1970.479)" fill="none" stroke="#e28200" stroke-miterlimit="10" stroke-width="1.05"/>
      <path id="Path_1131" data-name="Path 1131" d="M1902.928,2036.422c-2.241,9.97.769,20.485.238,30.754-.184,3.55-.792,7.052-1.195,10.577-1.13,9.879-.655,19.9-.178,29.859l1.661,34.714" transform="translate(-1843.521 -1963.293)" fill="none" stroke="#e28200" stroke-miterlimit="10" stroke-width="1.05"/>
      <path id="Path_1132" data-name="Path 1132" d="M1881.455,2010.354" transform="translate(-1848.041 -1969.237)" fill="none" stroke="#e28200" stroke-miterlimit="10" stroke-width="1.05"/>
      <path id="Path_1133" data-name="Path 1133" d="M1905.841,1997.182a13.727,13.727,0,0,1,1.168-6.905,25.85,25.85,0,0,0,2.027-6.725c.216-2.365-.529-5.031-2.408-6.218s-4.816.012-4.956,2.384" transform="translate(-1843.431 -1976.871)" fill="none" stroke="#232323" stroke-miterlimit="10" stroke-width="1.05"/>
      <path id="Path_1134" data-name="Path 1134" d="M1874.285,2077.189l1.074-21.2c.344-6.789.693-13.62,2.129-20.222" transform="translate(-1849.676 -1963.442)" fill="none" stroke="#e28200" stroke-miterlimit="10" stroke-width="1.05"/>
      <path id="Path_1135" data-name="Path 1135" d="M1935.6,2072.8c-1.665-11.809-2.657-23.712-3.65-35.606" transform="translate(-1836.527 -1963.116)" fill="none" stroke="#e28200" stroke-miterlimit="10" stroke-width="1.05"/>
      <path id="Path_1136" data-name="Path 1136" d="M1906.421,2051.714c.129.4-.486.741-.7.392s.295-.856.587-.581a.789.789,0,0,0,.3,1.267" transform="translate(-1842.521 -1959.867)" fill="none" stroke="#e28200" stroke-miterlimit="10" stroke-width="1.05"/>
      <path id="Path_1137" data-name="Path 1137" d="M1906.612,2064.578c-.365.206-.221.955.189.99a2.242,2.242,0,0,0-.62-2.983,1.262,1.262,0,0,0,.428,1.574" transform="translate(-1842.43 -1957.327)" fill="none" stroke="#e28200" stroke-miterlimit="10" stroke-width="1.05"/>
      <path id="Path_1138" data-name="Path 1138" d="M1905.257,2076.03c-.286-.4-.839.491-.394.639-.15.236.163.605.387.457s.071-.625-.189-.588" transform="translate(-1842.741 -1954.285)" fill="none" stroke="#e28200" stroke-miterlimit="10" stroke-width="1.05"/>
      <path id="Path_1139" data-name="Path 1139" d="M1905.579,2090.192a1.978,1.978,0,0,0,.284,2.354" transform="translate(-1842.6 -1951.032)" fill="none" stroke="#e28200" stroke-miterlimit="10" stroke-width="1.05"/>
      <path id="Path_1140" data-name="Path 1140" d="M1907.016,2102.169l-.41-.591" transform="translate(-1842.306 -1948.436)" fill="none" stroke="#e28200" stroke-miterlimit="10" stroke-width="1.05"/>
      <path id="Path_1141" data-name="Path 1141" d="M1906.83,2113.9c.351-.27.043-1.031-.377-.928a1.572,1.572,0,0,0,.242,1.767" transform="translate(-1842.379 -1945.841)" fill="none" stroke="#e28200" stroke-miterlimit="10" stroke-width="1.05"/>
    </g>
    <path id="Path_1142" data-name="Path 1142" d="M2052.083,1983.148c-.918,24.539,1.069,88.578.151,113.116-.4,10.769.518,21.73.356,32.506-1.117,74.26,2.513,140.2-.362,214.411" transform="translate(-1750.887 -1975.251)" fill="none" stroke="#fff" stroke-miterlimit="10" stroke-width="5.02"/>
    <g id="Group_736" data-name="Group 736" transform="translate(0 0.675)">
      <g id="Group_730" data-name="Group 730" transform="translate(50.705)">
        <path id="Path_1143" data-name="Path 1143" d="M1851.681,2014.506a104.059,104.059,0,0,1,28.954-20.385,4.265,4.265,0,0,1,2.25-.58,4.6,4.6,0,0,1,2.323,1.353l27.376,24.166a309.308,309.308,0,0,1-64.527.167,4.984,4.984,0,0,1,2.981-4.51" transform="translate(-1848.057 -1973.56)" fill="none" stroke="#232323" stroke-miterlimit="10" stroke-width="1.05"/>
        <path id="Path_1144" data-name="Path 1144" d="M1876.311,1997.613a13.748,13.748,0,0,1,1.469-6.852,25.907,25.907,0,0,0,2.32-6.634c.319-2.354-.308-5.053-2.135-6.321s-4.812-.2-5.056,2.166" transform="translate(-1842.39 -1977.267)" fill="none" stroke="#232323" stroke-miterlimit="10" stroke-width="1.05"/>
      </g>
      <path id="Path_1145" data-name="Path 1145" d="M1890.885,2119.55c-1.3,1.294,2.023,69.746,0,80.974-19.406,3.984-47.023,5.071-57.474.363-3.206-21.731-.571-86.592-.571-86.592l-.221-41.966,37.41,10.124Z" transform="translate(-1801.054 -1955.591)" fill="#f6dfc4"/>
      <path id="Path_1146" data-name="Path 1146" d="M1924.647,2119.55c-1.3,1.294,2.023,69.746,0,80.974-19.406,3.984-45.59,4.708-56.041,0-3.206-21.731-2.005-86.229-2.005-86.229l-.22-41.966,37.41,10.124Z" transform="translate(-1793.174 -1955.591)" fill="#f6dfc4"/>
      <path id="Path_1147" data-name="Path 1147" d="M1880.8,2085.839a100.252,100.252,0,0,1-27.914-.846" transform="translate(-1796.251 -1952.704)" fill="none" stroke="#e9ba98" stroke-miterlimit="10" stroke-width="1"/>
      <path id="Path_1148" data-name="Path 1148" d="M1892.327,2101.223s-25.785,9.957-43.652-3.563c-10.752-8.137-11.362-37.449-10.142-59.5.891-16.087,12.052-24.09,23.008-33.973a86.75,86.75,0,0,0,7.836,4.315,24.612,24.612,0,0,0,7.04,2.456c6.92,1.023,13.465-3.023,19.291-6.9,1.336,10.851-.13,21.856.1,32.777l.4,19.125Z" transform="translate(-1799.627 -1971.158)" fill="#f6dfc4"/>
      <path id="Path_1149" data-name="Path 1149" d="M1882.043,2015s-8.5,28.613-8.5,39.841,2.677,33.682,2.606,49.256,1.016,53.26,3.188,60.857,20.782,4.7,36.106-2.546,3.07-56.137,3.07-56.137l-13.1-87.033c-.282-1.874-3-5.55-4.092-7.177-2.662-3.96-7.268-7.405-10.625-10.81-.313-.318-5.928,6.916-6.307,7.693C1883.477,2010.829,1882.922,2013.035,1882.043,2015Z" transform="translate(-1791.541 -1971.801)" fill="#587995"/>
      <g id="Group_731" data-name="Group 731" transform="translate(0 33.178)">
        <path id="Path_1150" data-name="Path 1150" d="M1868.35,2004.284s-31.542,13.821-39.028,38.6-16.232,65.528-20.813,80.255.206,25.647,10.539,31.923,23.539,3.144,23.539,3.144,19.646-8.914,18.765-24.376-2.544-60.89-.958-73.676" transform="translate(-1806.767 -2004.284)" fill="#587995"/>
        <path id="Path_1151" data-name="Path 1151" d="M1816.767,2144.688c10.333,6.276,23.539,3.144,23.539,3.144s19.646-8.914,18.765-24.376-2.544-60.89-.958-73.676" transform="translate(-1804.487 -1993.91)" fill="none" stroke="#595245" stroke-miterlimit="10" stroke-width="0.75"/>
        <path id="Path_1152" data-name="Path 1152" d="M1815.312,2126.082s-2.256,5.757,8.354,7.54,16.195.643,17.017-3.189C1837.5,2130.945,1823.072,2132.105,1815.312,2126.082Z" transform="translate(-1804.865 -1976.512)" fill="#3c6580"/>
      </g>
      <path id="Path_1153" data-name="Path 1153" d="M1835.741,2040.628s-3.9,41.206-6.882,58.789-7.605,57.949-8.692,62.295,38.391,4.728,43.462,2.546-3.557-44.2-2.5-64.116,4.113-92.227,4.113-92.227l.062-3.631S1836.465,2033.229,1835.741,2040.628Z" transform="translate(-1803.717 -1971.107)" fill="#587995"/>
      <g id="Group_732" data-name="Group 732" transform="translate(16.45 69.522)">
        <path id="Path_1154" data-name="Path 1154" d="M1835.737,2033.88l-1.255,15.214-1.488,15.194c-1.067,10.12-2.257,20.24-3.9,30.3-1.643,10.027-2.94,20.122-4.353,30.2-1.444,10.069-2.677,20.18-4.577,30.182.849-5.015,1.324-10.086,1.93-15.135l1.818-15.155c1.241-10.1,2.547-20.193,4.111-30.263,1.728-10.016,2.9-20.118,4.143-30.215Z" transform="translate(-1820.163 -2033.88)" fill="#3c6580"/>
      </g>
      <g id="Group_733" data-name="Group 733" transform="translate(83.307 46.077)">
        <path id="Path_1155" data-name="Path 1155" d="M1886.862,2163.887a6.806,6.806,0,0,1-6.722-6.1c-.371-3.58-2.188-36.437-2.188-43.861,0-7.21-1.252-31.66-1.745-35.608-.414-3.293-2.107-21.462-1.451-29.418.631-7.657,7.4-33.034,7.682-34.111l1.049.28c-.07.263-7.026,26.36-7.648,33.92-.65,7.873,1.036,25.92,1.447,29.194.495,3.968,1.753,28.51,1.753,35.743,0,7.406,1.811,40.177,2.171,43.646a5.736,5.736,0,0,0,5.8,5.228c8.6-.222,20.573-2.386,27.923-6.726l.551.937c-7.516,4.437-19.7,6.651-28.446,6.876Z" transform="translate(-1874.605 -2014.788)" fill="#3c6580"/>
      </g>
      <path id="Path_1156" data-name="Path 1156" d="M1879.209,2029.076c-.12.459.723,1.078,1.885,1.381s2.2.176,2.32-.284-.724-1.078-1.885-1.381S1879.328,2028.617,1879.209,2029.076Z" transform="translate(-1790.252 -1965.556)" fill="#3c6580"/>
      <ellipse id="Ellipse_22" data-name="Ellipse 22" cx="0.86" cy="2.173" rx="0.86" ry="2.173" transform="translate(86.113 84.887) rotate(-86.748)" fill="#3c6580"/>
      <path id="Path_1157" data-name="Path 1157" d="M1877.893,2064.719c-.027.474.924.914,2.121.981s2.192-.26,2.219-.734-.922-.915-2.121-.982S1877.92,2064.245,1877.893,2064.719Z" transform="translate(-1790.55 -1957.496)" fill="#3c6580"/>
      <path id="Path_1158" data-name="Path 1158" d="M1879.152,2087.05c.027.474,1.022.8,2.219.733s2.148-.51,2.12-.984-1.021-.8-2.219-.733S1879.125,2086.576,1879.152,2087.05Z" transform="translate(-1790.262 -1952.46)" fill="#3c6580"/>
      <path id="Path_1159" data-name="Path 1159" d="M1880.408,2108.793c.027.474,1.02.8,2.219.733s2.147-.51,2.12-.984-1.021-.8-2.219-.733S1880.38,2108.319,1880.408,2108.793Z" transform="translate(-1789.976 -1947.503)" fill="#3c6580"/>
      <g id="Group_734" data-name="Group 734" transform="translate(16.515 38.856)">
        <path id="Path_1160" data-name="Path 1160" d="M1848.845,2162.636c-9.588,0-21.39-.619-28.629-2.4l.26-1.056c10.656,2.624,31.35,2.695,39.944,2a2.434,2.434,0,0,0,2.241-2.106c.356-3.07.129-8.364-.675-15.736l-.27-2.468c-1.258-11.462-3.875-35.313-3.553-40.781.074-1.251.283-4.583.565-9.1,1-15.937,3.073-49.1,3.073-52.928,0-4.845,1.077-28.91,1.087-29.152l1.087.048c-.011.243-1.087,24.283-1.087,29.1,0,3.861-2,35.824-3.077,53-.281,4.511-.49,7.841-.564,9.094-.316,5.376,2.294,29.166,3.549,40.6l.27,2.467c.813,7.454,1.039,12.831.673,15.981a3.52,3.52,0,0,1-3.232,3.064C1857.671,2162.489,1853.521,2162.636,1848.845,2162.636Z" transform="translate(-1820.216 -2008.908)" fill="#3c6580"/>
      </g>
      <g id="Group_735" data-name="Group 735" transform="translate(96.101 29.448)">
        <path id="Path_1161" data-name="Path 1161" d="M1888,2001.247s27.634,12.06,33.912,37.172,13.038,66.237,16.9,81.167-1.448,25.607-12.073,31.376-23.663,2-23.663,2-19.191-9.855-17.563-25.256,5.491-60.7,4.526-73.543" transform="translate(-1884.935 -2001.247)" fill="#587995"/>
        <path id="Path_1162" data-name="Path 1162" d="M1926.824,2141.136a26.724,26.724,0,0,1-5.618,2.284,31,31,0,0,1-6,1.04,38.518,38.518,0,0,1-12.14-1l-.031-.009-.031-.016a44.83,44.83,0,0,1-10.706-8,25.543,25.543,0,0,1-6.782-11.526,9.992,9.992,0,0,1-.295-1.678c-.064-.564-.182-1.126-.2-1.694.044-1.127,0-2.3.126-3.393l.634-6.606,1.207-13.221c.765-8.818,1.444-17.643,2.089-26.471.319-4.413.561-8.832.805-13.25.226-4.417.426-8.844.238-13.268.333,4.417.276,8.856.2,13.284s-.3,8.855-.517,13.279c-.438,8.849-1.083,17.683-1.8,26.511l-1.145,13.238-.674,6.612c-.135,1.107-.086,2.156-.142,3.238.015.536.125,1.067.182,1.6a9.244,9.244,0,0,0,.269,1.589,24.61,24.61,0,0,0,6.473,11.119,44.272,44.272,0,0,0,10.353,8.027l-.061-.024a37.586,37.586,0,0,0,5.907,1.069,41.483,41.483,0,0,0,6.021.189,30.747,30.747,0,0,0,5.972-.839A26.6,26.6,0,0,0,1926.824,2141.136Z" transform="translate(-1885.024 -1991.421)" fill="#3c6580"/>
        <path id="Path_1163" data-name="Path 1163" d="M1925.345,2122.254s1.975,5.859-8.709,7.126-16.207-.143-16.842-4.009C1902.948,2126.036,1917.3,2127.894,1925.345,2122.254Z" transform="translate(-1881.656 -1973.655)" fill="#3c6580"/>
      </g>
      <path id="Path_1164" data-name="Path 1164" d="M1866.373,2087.361a21.246,21.246,0,0,1,2.5-6.4,7.188,7.188,0,0,1,5.665-3.448,7.674,7.674,0,0,1-2.409,7.027,13.571,13.571,0,0,1-6.945,3.236,15.274,15.274,0,0,0-7.481-13.224c-1.334,2.508-.524,5.722,1.225,7.96s4.272,3.712,6.732,5.132c-.759,7.065,2.21,13.915,4.5,20.643s3.856,14.419.544,20.705" transform="translate(-1795.305 -1955.085)" fill="none" stroke="#e9ba98" stroke-miterlimit="10" stroke-width="1"/>
      <path id="Path_1165" data-name="Path 1165" d="M1865.461,2086.461c-4.089,5.857-3.918,13.613-3.149,20.715s1.943,14.525-.589,21.2" transform="translate(-1794.236 -1952.369)" fill="none" stroke="#e9ba98" stroke-miterlimit="10" stroke-width="1"/>
    </g>
    <path id="Path_1166" data-name="Path 1166" d="M1827.149,1983.148c-.917,24.539,1.068,88.578.151,113.116-.4,10.769.517,21.73.355,32.506-1.116,74.26,2.514,140.2-.362,214.411" transform="translate(-1802.177 -1975.251)" fill="none" stroke="#fff" stroke-miterlimit="10" stroke-width="5.02"/>
  </g>
</svg>
