<svg id="back" xmlns="http://www.w3.org/2000/svg" width="30" height="22" viewBox="0 0 30 22">
  <path id="Path_239" data-name="Path 239" d="M21.849,11.081,19,13.858a.5.5,0,0,1-.7,0L13.5,9.152V29.5a.5.5,0,0,1-.5.5H9a.5.5,0,0,1-.5-.5V9.152L3.7,13.857a.5.5,0,0,1-.7,0L.152,11.081a.5.5,0,0,1,0-.716L10.652.142a.5.5,0,0,1,.7,0l10.5,10.224a.5.5,0,0,1,0,.716ZM11,1.2,1.217,10.723,3.35,12.8l5.3-5.2a.5.5,0,0,1,.85.357V29h3V7.961a.5.5,0,0,1,.85-.357l5.3,5.2,2.134-2.077Z" transform="translate(0 22) rotate(-90)"/>
</svg>
