<svg xmlns="http://www.w3.org/2000/svg" width="549.078" height="823.011" viewBox="0 0 549.078 823.011">
  <g id="Group_930" data-name="Group 930" transform="translate(-2141.22 -3473.211)">
    <g id="Group_894" data-name="Group 894" transform="translate(2141.22 3473.211)">
      <path id="Path_17667" data-name="Path 17667" d="M2153.642,3473.725l508.67,8.151,17.16,814.861-537.679-49.064Z" transform="translate(-2141.792 -3473.725)" fill="#4a706b"/>
    </g>
    <g id="Group_895" data-name="Group 895" transform="translate(2141.22 3643.974)">
      <path id="Path_17668" data-name="Path 17668" d="M2141.792,3647.205H2410v21.106l-268.2,9.454Z" transform="translate(-2141.792 -3647.205)" fill="#496052"/>
    </g>
    <g id="Group_897" data-name="Group 897" transform="translate(2141.22 3860.063)">
      <path id="Path_17670" data-name="Path 17670" d="M2141.792,3866.733H2410v21.106l-268.2,9.454Z" transform="translate(-2141.792 -3866.733)" fill="#496052"/>
    </g>
    <g id="Group_898" data-name="Group 898" transform="translate(2141.22 4072.509)">
      <path id="Path_17671" data-name="Path 17671" d="M2141.792,4082.56h258.186v21.106l-258.186,9.454Z" transform="translate(-2141.792 -4082.56)" fill="#496052"/>
    </g>
    <g id="Group_899" data-name="Group 899" transform="translate(2366.062 3473.211)">
      <path id="Path_17672" data-name="Path 17672" d="M2416.013,3473.725l-35.219,800.382h22.54l29.5-800.382Z" transform="translate(-2380.795 -3473.725)" fill="#496052"/>
    </g>
    <g id="Group_904" data-name="Group 904" transform="translate(2163.593 3619.088)">
      <path id="Path_17676" data-name="Path 17676" d="M2164.521,3646.809s2.261-23.043,14.131-24.755,39.567,14.138,70.092,8.464,38.436,5.856,38.436,16.292Z" transform="translate(-2164.521 -3621.924)" fill="#424f4f"/>
    </g>
    <g id="Group_905" data-name="Group 905" transform="translate(2168.448 3599.7)">
      <path id="Path_17677" data-name="Path 17677" d="M2231.3,3609.754s-27.132.25-41.97-5.966-22.469,7.574-19.078,15.963,38.862,12.972,55.677,12.463,34.542.16,46.917.039,16.11-14.676,5.936-18.82S2231.3,3609.754,2231.3,3609.754Z" transform="translate(-2169.453 -3602.227)" fill="#f4f4f4"/>
    </g>
    <g id="Group_906" data-name="Group 906" transform="translate(2168.448 3581.034)">
      <path id="Path_17678" data-name="Path 17678" d="M2231.3,3590.79s-27.132.25-41.97-5.965-22.469,7.574-19.078,15.962,38.862,12.973,55.677,12.463,34.542.16,46.917.038,16.11-14.676,5.936-18.819S2231.3,3590.79,2231.3,3590.79Z" transform="translate(-2169.453 -3583.264)" fill="#8a4d27"/>
    </g>
    <g id="Group_907" data-name="Group 907" transform="translate(2285.989 3619.088)">
      <path id="Path_17679" data-name="Path 17679" d="M2296.821,3646.809s1.874-23.043,11.713-24.755,32.8,14.138,58.1,8.464,31.858,5.856,31.858,16.292Z" transform="translate(-2296.821 -3621.924)" fill="#424f4f"/>
    </g>
    <g id="Group_908" data-name="Group 908" transform="translate(2289.927 3599.7)">
      <path id="Path_17680" data-name="Path 17680" d="M2352.169,3609.754s-22.489.25-34.788-5.966-18.623,7.574-15.811,15.963,32.209,12.972,46.147,12.463,28.63.16,38.886.039,13.353-14.676,4.92-18.82S2352.169,3609.754,2352.169,3609.754Z" transform="translate(-2300.91 -3602.227)" fill="#496052"/>
    </g>
    <g id="Group_909" data-name="Group 909" transform="translate(2289.927 3581.034)">
      <path id="Path_17681" data-name="Path 17681" d="M2352.169,3590.79s-22.489.25-34.788-5.965-18.623,7.574-15.811,15.962,32.209,12.973,46.147,12.463,28.63.16,38.886.038,13.353-14.676,4.92-18.819S2352.169,3590.79,2352.169,3590.79Z" transform="translate(-2300.91 -3583.264)" fill="#ffc655"/>
    </g>
    <g id="Group_910" data-name="Group 910" transform="translate(2163.054 4040.6)">
      <path id="Path_17682" data-name="Path 17682" d="M2163.973,4082.052s3.9-29.547,24.376-31.742,68.252,18.128,120.9,10.852,66.3,7.509,66.3,20.89Z" transform="translate(-2163.973 -4050.144)" fill="#2e5546"/>
    </g>
    <g id="Group_911" data-name="Group 911" transform="translate(2171.429 4015.74)">
      <path id="Path_17683" data-name="Path 17683" d="M2279.16,4034.539s-46.8.322-72.4-7.648-38.758,9.712-32.907,20.467,67.033,16.633,96.041,15.979,59.581.2,80.927.049,27.788-18.816,10.238-24.13S2279.16,4034.539,2279.16,4034.539Z" transform="translate(-2172.482 -4024.888)" fill="#f4f4f4"/>
    </g>
    <g id="Group_912" data-name="Group 912" transform="translate(2171.429 3991.806)">
      <path id="Path_17684" data-name="Path 17684" d="M2279.16,4010.223s-46.8.321-72.4-7.648-38.758,9.711-32.907,20.466,67.033,16.635,96.041,15.981,59.581.2,80.927.049,27.788-18.818,10.238-24.13S2279.16,4010.223,2279.16,4010.223Z" transform="translate(-2172.482 -4000.573)" fill="#8a4d27"/>
    </g>
    <g id="Group_913" data-name="Group 913" transform="translate(2209.221 3835.368)">
      <path id="Path_17685" data-name="Path 17685" d="M2301.46,3846.56s-37.595,1.7-58.4-3.713-30.849,8.772-25.824,16.972,54.362,10.882,77.649,9.472,47.88-1.69,65.026-2.475,21.762-15.527,7.5-19.123S2301.46,3846.56,2301.46,3846.56Z" transform="translate(-2215.958 -3841.646)" fill="#561c17"/>
    </g>
    <g id="Group_914" data-name="Group 914" transform="translate(2208.674 3816.789)">
      <path id="Path_17686" data-name="Path 17686" d="M2292.106,3827.946s-33.813,1.556-52.549-3.94-27.716,8.651-23.165,16.87,48.943,11.091,69.886,9.772,43.064-1.5,58.485-2.222,19.514-15.44,6.672-19.091S2292.106,3827.946,2292.106,3827.946Z" transform="translate(-2215.226 -3822.771)" fill="#46513c"/>
    </g>
    <g id="Group_915" data-name="Group 915" transform="translate(2214.566 3796.502)">
      <path id="Path_17687" data-name="Path 17687" d="M2291.657,3807.536s-30.917,1.445-48.07-4.113-25.319,8.559-21.129,16.791,44.8,11.251,63.945,10,39.377-1.361,53.478-2.029,17.8-15.374,6.039-19.066S2291.657,3807.536,2291.657,3807.536Z" transform="translate(-2221.376 -3802.161)" fill="#496052"/>
    </g>
    <g id="Group_916" data-name="Group 916" transform="translate(2214.568 3779.057)">
      <path id="Path_17688" data-name="Path 17688" d="M2286.61,3789.963s-28.738,1.36-44.7-4.243-23.515,8.488-19.6,16.731,41.676,11.372,59.474,10.175,36.6-1.255,49.711-1.883,16.5-15.324,5.562-19.048S2286.61,3789.963,2286.61,3789.963Z" transform="translate(-2221.294 -3784.439)" fill="#f4f4f4"/>
    </g>
    <g id="indyra_Logo_1-01" data-name="indyra Logo_1-01" transform="translate(2312.792 3571.927)">
      <g id="Group_812" data-name="Group 812" transform="translate(168.379 -50.572)">
        <path id="Path_1323" data-name="Path 1323" d="M328.562,284.723a7.593,7.593,0,0,1-5.785-2.357,8.285,8.285,0,0,1-2.276-6.042,8,8,0,0,1,2.3-6.014,8.314,8.314,0,0,1,5.8-2.262c-2.012.973-3.027,3.853-3.027,8.59a13.367,13.367,0,0,0,1.127,6.045,4.317,4.317,0,0,0,1.96,2.039Z" transform="translate(-288.644 -257.866)" fill="#fff"/>
        <path id="Path_1324" data-name="Path 1324" d="M228.5,284.208l-.177-15.831a14.667,14.667,0,0,1-4.854,1.576,1.182,1.182,0,0,1,.389.613,24.545,24.545,0,0,1,.116,4.143v9.359l-.159.678-.023.056a1.31,1.31,0,0,1-.089.158c.669-.014,1.338-.032,2-.05.809-.03,1.829-.043,3.025-.043a1.764,1.764,0,0,1-.22-.6Z" transform="translate(-211.931 -258.126)" fill="#fff"/>
        <path id="Path_1325" data-name="Path 1325" d="M268.563,285.058h4.972a3.557,3.557,0,0,1-.245-1.656v-5.686c0-2.5-.031-4.468-.1-5.262a5.718,5.718,0,0,0-.523-1.983c-.642-1.346-2.03-2-4.256-2a7.244,7.244,0,0,0-2.4.383,2.53,2.53,0,0,1,2.058.959c.328.462.705,1.788.705,5.7v7.608A5.215,5.215,0,0,1,268.563,285.058Z" transform="translate(-245.561 -258.2)" fill="#fff"/>
        <path id="Path_1326" data-name="Path 1326" d="M170.936,285.058h4.972a3.557,3.557,0,0,1-.245-1.656v-5.686c0-2.5-.031-4.468-.1-5.262a5.723,5.723,0,0,0-.523-1.983c-.641-1.346-2.03-2-4.256-2a7.242,7.242,0,0,0-2.4.383,2.529,2.529,0,0,1,2.057.959c.328.462.705,1.788.705,5.7v7.608A5.221,5.221,0,0,1,170.936,285.058Z" transform="translate(-168.379 -258.2)" fill="#fff"/>
        <path id="Path_1327" data-name="Path 1327" d="M384.707,246.285h-4.972a3.557,3.557,0,0,0,.245-1.656V228.376c0-2.5.031-4.171.1-4.965a5.722,5.722,0,0,1,.523-1.983c.641-1.346,2.03-2,4.256-2a7.243,7.243,0,0,1,2.4.383,2.53,2.53,0,0,0-2.058.959c-.328.462-.705,1.492-.705,5.4v18.175A5.22,5.22,0,0,0,384.707,246.285Z" transform="translate(-335.473 -219.428)" fill="#fff"/>
        <g id="Group_809" data-name="Group 809" transform="translate(91.084 10.22)">
          <path id="Path_1328" data-name="Path 1328" d="M607.194,309.826a5.227,5.227,0,0,1,1.716-4.134c-3.718.922-5.6,2.685-5.6,5.261a3.449,3.449,0,0,0,.943,2.539,3.366,3.366,0,0,0,2.564.992,4.652,4.652,0,0,0,2.889-.94C608.7,313.492,607.194,312.893,607.194,309.826Z" transform="translate(-603.313 -297.847)" fill="#fff"/>
          <path id="Path_1329" data-name="Path 1329" d="M646.49,282.312c-.024-.168-.047-.584-.047-2.356v-6.705c0-1.814-.406-3.08-1.192-3.758a7.74,7.74,0,0,0-4.3-1.263,3.414,3.414,0,0,1,1.039,1.637l.038.168c.139.445.318,1.473.318,4.984v3.25a21.016,21.016,0,0,0,.121,3.909,3.315,3.315,0,0,0,.844,2.044,3.4,3.4,0,0,0,2.159.528,7.048,7.048,0,0,0,2.3-.355C647.244,284.2,646.668,283.668,646.49,282.312Z" transform="translate(-633.071 -268.229)" fill="#fff"/>
          <path id="Path_1330" data-name="Path 1330" d="M639.524,278.008c.029.07.047.126.07.182a.005.005,0,0,0,.005.005Z" transform="translate(-631.941 -275.96)" fill="#fff"/>
          <path id="Path_1331" data-name="Path 1331" d="M609.755,268.9c-1.767,0-3.843,0-3.927-.027a.819.819,0,0,1-.215-.09l.458,1.179a3.236,3.236,0,0,0,3.031,1.941c1.275.1,3.547-.094,4.137.458-.215-.561-.2-.552-.454-1.221A3.266,3.266,0,0,0,609.755,268.9Z" transform="translate(-605.131 -268.67)" fill="#fff"/>
        </g>
        <g id="Group_810" data-name="Group 810" transform="translate(73.202 10.22)">
          <path id="Path_1332" data-name="Path 1332" d="M523.323,276.912c0-3.867-.173-7.584-.173-7.584a7.679,7.679,0,0,0-.065-1.01,24.454,24.454,0,0,1-5.158,1.019,1.754,1.754,0,0,1,.285.271,3.561,3.561,0,0,1,.543,2.222l.042,11.112a3.68,3.68,0,0,1-.365,1.964h5.26a1.733,1.733,0,0,1-.37-1.145v-6.848Z" transform="translate(-517.927 -268.299)" fill="#fff"/>
          <path id="Path_1333" data-name="Path 1333" d="M549.608,278.8s0,0,0,0c.022-.056.042-.112.069-.182Z" transform="translate(-542.973 -276.438)" fill="#fff"/>
          <path id="Path_1334" data-name="Path 1334" d="M554.875,268.322c-.084.02-2.16.029-3.927.029a3.268,3.268,0,0,0-3.03,2.234c-.258.668-.238.66-.454,1.221.589-.553,2.862-.356,4.139-.458a3.246,3.246,0,0,0,3.03-1.94l.458-1.179A.792.792,0,0,1,554.875,268.322Z" transform="translate(-541.278 -268.229)" fill="#fff"/>
        </g>
        <g id="Group_811" data-name="Group 811" transform="translate(53.228 10.22)">
          <path id="Path_1335" data-name="Path 1335" d="M430.139,271.441l-.027-.084c-.016-.042-.081-.253-.482-1.2a3.993,3.993,0,0,1-.393-1.45.967.967,0,0,1,.117-.481h-5.284a6.169,6.169,0,0,1,.934,1.637c1.187,2.613,1.967,4.344,2.314,5.138,1.437,3.218,2.6,5.847,3.438,7.8.505,1.1.882,1.9,1.131,2.4q.884-2.166,2-4.988l-.3-.612C432.7,277.739,431.538,274.994,430.139,271.441Z" transform="translate(-423.752 -268.228)" fill="#fff"/>
          <path id="Path_1336" data-name="Path 1336" d="M475.688,296.342h0Z" transform="translate(-464.4 -290.454)" fill="#fff"/>
          <path id="Path_1337" data-name="Path 1337" d="M474.177,268.653a3.246,3.246,0,0,0-2.932,2.095c-.57,1.146-1.23,3.329-1.964,3.67.6.009.584.024,1.305.033a3.276,3.276,0,0,0,3.2-1.983c.656-1.641,1.437-3.567,1.487-3.633a.8.8,0,0,1,.164-.169Z" transform="translate(-459.494 -268.564)" fill="#fff"/>
          <path id="Path_1338" data-name="Path 1338" d="M456.724,365.18a0,0,0,0,1,0,0c-.023.056-.047.112-.074.182Z" transform="translate(-449.505 -344.876)" fill="#fff"/>
          <path id="Path_1339" data-name="Path 1339" d="M426.091,359.781a3.235,3.235,0,0,0-3.061,1.885l-.483,1.174a.8.8,0,0,1,.22-.088c.084-.02,2.155.009,3.928.042a3.272,3.272,0,0,0,3.068-2.183c.272-.669.253-.655.477-1.216C429.641,359.936,427.373,359.7,426.091,359.781Z" transform="translate(-422.547 -340.302)" fill="#fff"/>
        </g>
        <circle id="Ellipse_23" data-name="Ellipse 23" cx="2.251" cy="2.251" r="2.251" transform="translate(1.513 1.781)" fill="#fff"/>
      </g>
    </g>
    <path id="side" d="M2428.5,3596.487h292.186v21.106l-292.186,9.454Z" transform="translate(-30.391 -2.438)" fill="#496052"/>
    <path id="Path_17673" data-name="Path 17673" d="M2460.8,3729.494l-1.075-2.559c.507-.214,51.2-21.189,90.745-8.766l-.832,2.648C2511.076,3708.7,2461.3,3729.284,2460.8,3729.494Z" transform="translate(-27.512 0.635)" fill="#561c17"/>
    <path id="Path_17675" data-name="Path 17675" d="M2468.535,3723.43s19.975,26.264,51.24,18.384,27.791-26.207,27.791-26.207,29.528,3.545,39.081,27.683c0,0-14.548,9.853-10.638,23.153s17.586,240.405,17.586,240.405-25.4,21.882-56.015,11.539-41.035,19.767-66.438,10.623-45.594-7.668-45.594-7.668,35.173-234.211,29.311-245.293-23.448-26.6-23.448-26.6S2445.955,3720.316,2468.535,3723.43Z" transform="translate(-27.434 0.614)" fill="#ffc655"/>
    <path id="Path_17689" data-name="Path 17689" d="M2533.74,3729.493l-1.075-2.558c.507-.214,51.2-21.189,90.745-8.766l-.832,2.648C2583.994,3708.694,2534.238,3729.284,2533.74,3729.493Z" transform="translate(-8.146 -3.827)" fill="#561c17"/>
    <path id="Path_17690" data-name="Path 17690" d="M2582.25,3713.589l-2.775-.054,1.224-62.4a9.637,9.637,0,0,0-3.532-7.89c-6.242-4.782-16.822-14.7-17.549-27.393-.471-8.242,3.283-16.281,11.16-23.892,6.73-6.5,17.185-8.146,23.4-5.978,8.784,3.063,7.638,9.515,7.634,9.992h-2.879c0-.094,1.231-4.966-5.668-7.372-5.429-1.893-14.6-.406-20.562,5.353-7.271,7.024-10.742,14.338-10.318,21.738.664,11.589,10.6,20.856,16.466,25.348a12.42,12.42,0,0,1,4.618,10.148Z" transform="translate(-8.568 -1.805)" fill="#561c17"/>
    <path id="Path_17691" data-name="Path 17691" d="M2564.272,3715.6s13.291,14.477,32.73,12.629a34.96,34.96,0,0,0,23.5-12.629s29.527,3.545,39.08,27.683c0,0-14.546,9.853-10.638,23.153s7.816,329.981,7.816,329.981-25.511,18.225-56.125,7.882-27.031,33.772-52.433,24.626-49.72,7.882-49.72,7.882,35.172-349.683,29.311-360.766-23.449-26.6-23.449-26.6S2523.328,3712.219,2564.272,3715.6Z" transform="translate(-8.258 -3.846)" fill="#f4f4f4"/>
    <path id="Path_17700" data-name="Path 17700" d="M2509.309,3713.589l-2.775-.054,1.225-62.4a9.637,9.637,0,0,0-3.532-7.89c-6.242-4.782-16.821-14.7-17.548-27.393-.473-8.242,3.283-16.281,11.159-23.892,6.73-6.5,17.185-8.146,23.4-5.978,8.784,3.063,7.744,4.979,7.74,5.456h-3.122c0-.094,1.368-.43-5.531-2.836-5.427-1.891-14.6-.407-20.562,5.353-7.271,7.024-10.741,14.338-10.318,21.738.666,11.589,10.6,20.856,16.466,25.348a12.42,12.42,0,0,1,4.619,10.148Z" transform="translate(-27.934 2.658)" fill="#561c17"/>
  </g>
</svg>
