<?xml version="1.0" encoding="utf-8"?>
<!-- Generator: Adobe Illustrator 26.0.2, SVG Export Plug-In . SVG Version: 6.00 Build 0)  -->
<svg version="1.1" id="Layer_1" xmlns="http://www.w3.org/2000/svg" xmlns:xlink="http://www.w3.org/1999/xlink" x="0px" y="0px"
	 viewBox="0 0 88.2 179.1" style="enable-background:new 0 0 88.2 179.1;" xml:space="preserve">
<style type="text/css">
	.st0{fill:#284D43;}
	.st1{fill:#65A7AD;}
</style>
<g id="Group_770" transform="translate(0 0)">
	<path id="Path_1249" class="st0" d="M43.9,0c-99,132.8,0.4,179.1,0.4,179.1S143.4,132.4,43.9,0z"/>
	<path id="Path_1250" class="st1" d="M73.8,118c-2.7,3.1-5.3,6.2-8,9.3c-2.6,3.1-5.3,6.2-7.9,9.4c-2.6,3.1-5.4,6.1-7.7,9.5
		c-1.1,1.7-2.3,3.4-3.3,5.2c-0.4,0.7-0.9,1.5-1.3,2.3c0.1-3.4,0.2-6.9,0.2-10.3c0.2-8.1,0-16.3-0.2-24.4c0.9-0.8,1.7-1.5,2.6-2.4
		c1.2-1.2,2.4-2.5,3.6-3.8c2.2-2.7,4.2-5.6,6.1-8.5c2-2.9,4-5.7,5.9-8.6c1.9-2.9,3.9-5.8,5.8-8.7l-0.3-0.2c-2.3,2.6-4.6,5.2-6.9,7.9
		c-2.3,2.6-4.5,5.3-6.8,8c-2.4,2.6-4.6,5.3-6.6,8.1c-1,1.4-1.9,2.9-2.8,4.5c-0.2,0.4-0.5,0.8-0.7,1.2c-0.1-2.9-0.1-5.9-0.2-8.8
		l-0.6-35.8L44.1,36l-0.3,0l-0.6,35.8l-0.2,19.3c-0.2-0.3-0.3-0.7-0.5-1c-0.7-1.3-1.4-2.5-2.2-3.7c-0.8-1.2-1.7-2.3-2.6-3.4
		c-1-1.1-2-2.1-2.9-3.2c-1.9-2.2-3.8-4.3-5.7-6.5c-1.9-2.1-3.8-4.3-5.8-6.4l-0.3,0.2c1.5,2.4,3.1,4.8,4.7,7.2
		c1.6,2.4,3.2,4.8,4.8,7.1c0.8,1.2,1.6,2.4,2.4,3.6c0.8,1.2,1.7,2.3,2.6,3.4c1,1.1,2,2.1,3,3.1c0.8,0.7,1.6,1.4,2.4,2l-0.2,13.9
		c-0.1,10.1-0.4,20.2-0.4,30.3c-0.3-0.6-0.6-1.1-1-1.7c-1-1.8-2.2-3.5-3.3-5.2c-2.3-3.4-5.1-6.3-7.8-9.5c-2.6-3.1-5.2-6.3-7.9-9.4
		c-2.7-3.1-5.3-6.2-8-9.3l-0.3,0.2c2.3,3.4,4.6,6.7,6.9,10.1c2.3,3.4,4.7,6.7,7.1,10c2.4,3.3,4.5,6.8,7.2,9.9
		c1.3,1.5,2.7,3.1,4.1,4.5c0.9,1,1.9,1.9,2.9,2.8c0,1,0,1.9,0,2.9c0.1,6,0.3,11.9,0.5,17.9c0.2,6,0.6,11.9,1.1,17.9l0.3,0
		c0.5-6,0.8-11.9,1-17.9c0.1-1.7,0.1-3.5,0.2-5.2c1.2-1,2.2-2.1,3.3-3.2c1.4-1.5,2.8-3,4.1-4.5c2.7-3.1,4.8-6.6,7.2-9.9
		s4.7-6.7,7-10c2.3-3.4,4.6-6.7,6.9-10.1L73.8,118z"/>
</g>
</svg>
