<?xml version="1.0" encoding="utf-8"?>
<!-- Generator: Adobe Illustrator 26.0.2, SVG Export Plug-In . SVG Version: 6.00 Build 0)  -->
<svg version="1.1" id="Layer_1" xmlns="http://www.w3.org/2000/svg" xmlns:xlink="http://www.w3.org/1999/xlink" x="0px" y="0px"
	 viewBox="0 0 90 182.8" style="enable-background:new 0 0 90 182.8;" xml:space="preserve">
<style type="text/css">
	.st0{fill:#284D43;}
	.st1{fill:#52999A;}
</style>
<g id="Group_779" transform="translate(0 0)">
	<path id="Path_1267" class="st0" d="M46.3,0c-102.9,134.2-2.1,182.8-2.1,182.8S146,136.6,46.3,0z"/>
	<path id="Path_1268" class="st1" d="M75.2,120.9c-2.8,3.1-5.5,6.3-8.3,9.4c-2.7,3.1-5.5,6.3-8.1,9.5c-2.7,3.2-5.6,6.2-8,9.6
		c-1.2,1.7-2.4,3.4-3.5,5.2c-0.5,0.8-0.9,1.5-1.3,2.3c0.1-3.5,0.3-7,0.4-10.5c0.3-8.3,0.2-16.6,0.1-24.9c0.9-0.8,1.8-1.5,2.6-2.4
		c1.3-1.2,2.5-2.5,3.7-3.9c2.3-2.7,4.4-5.6,6.3-8.6c2.1-2.9,4.1-5.8,6.2-8.7c2-2.9,4.1-5.8,6-8.8l-0.3-0.2c-2.4,2.6-4.8,5.3-7.2,7.9
		c-2.4,2.7-4.7,5.3-7,8c-2.4,2.6-4.7,5.3-6.9,8.2c-1,1.5-2,3-2.9,4.5c-0.2,0.4-0.5,0.8-0.7,1.2c0-3,0-6,0-9l-0.1-36.5L46,36.7
		l-0.4,0l-1.1,36.5L44,93c-0.2-0.3-0.3-0.7-0.5-1c-0.7-1.3-1.4-2.6-2.2-3.8c-0.8-1.2-1.7-2.4-2.7-3.5c-1-1.1-2-2.2-2.9-3.3
		c-1.9-2.3-3.8-4.5-5.7-6.7c-1.9-2.2-3.9-4.4-5.8-6.6l-0.3,0.2c1.5,2.5,3.1,5,4.7,7.4c1.6,2.5,3.2,4.9,4.9,7.3
		c0.8,1.2,1.6,2.5,2.4,3.7c0.8,1.2,1.7,2.4,2.6,3.5c1,1.1,2,2.2,3.1,3.2c0.8,0.7,1.6,1.4,2.4,2.1l-0.4,14.2
		c-0.2,10.3-0.7,20.6-0.8,30.9c-0.3-0.6-0.6-1.2-1-1.7c-1-1.8-2.2-3.6-3.3-5.3c-2.3-3.5-5.2-6.5-7.8-9.8s-5.3-6.5-7.9-9.7
		c-2.7-3.2-5.3-6.4-8.1-9.6l-0.3,0.2c2.3,3.5,4.6,6.9,6.9,10.4c2.3,3.5,4.7,6.9,7.1,10.3c2.4,3.4,4.5,7,7.2,10.2
		c1.3,1.6,2.7,3.2,4.2,4.7c0.9,1,1.9,2,3,2.9c0,1,0,1.9,0,2.9c0.1,6.1,0.1,12.2,0.3,18.3c0.2,6.1,0.4,12.2,0.9,18.3l0.4,0
		c0.6-6.1,1-12.2,1.3-18.2c0.1-1.8,0.2-3.5,0.2-5.3c1.2-1,2.3-2.1,3.4-3.2c1.5-1.5,2.9-3,4.3-4.6c2.8-3.1,5-6.7,7.5-10
		s4.9-6.7,7.3-10.1c2.4-3.4,4.8-6.8,7.2-10.3L75.2,120.9z"/>
</g>
</svg>
