<?xml version="1.0" encoding="utf-8"?>
<!-- Generator: Adobe Illustrator 26.0.2, SVG Export Plug-In . SVG Version: 6.00 Build 0)  -->
<svg version="1.1" id="Group_777" xmlns="http://www.w3.org/2000/svg" xmlns:xlink="http://www.w3.org/1999/xlink" x="0px" y="0px"
	 viewBox="0 0 90.1 182.8" style="enable-background:new 0 0 90.1 182.8;" xml:space="preserve">
<style type="text/css">
	.st0{fill:#53BFAB;}
	.st1{fill:#52999A;}
</style>
<g>
	<path id="Path_1263" class="st0" d="M43.2,0c-99,137.1,3,182.8,3,182.8S146.8,133.7,43.2,0z"/>
	<path id="Path_1264" class="st1" d="M75.6,120c-2.7,3.2-5.3,6.4-8,9.6c-2.7,3.2-5.3,6.5-7.9,9.7c-2.6,3.3-5.5,6.3-7.7,9.8
		c-1.1,1.7-2.3,3.5-3.3,5.3c-0.4,0.8-0.9,1.5-1.3,2.3c0-3.5,0.1-7,0.1-10.5c0-8.3-0.3-16.6-0.6-24.9c0.9-0.8,1.8-1.6,2.6-2.4
		c1.3-1.3,2.5-2.6,3.6-4c2.2-2.8,4.2-5.7,6.1-8.8c2-2.9,4-5.9,5.9-8.9c1.9-3,3.9-6,5.8-9l-0.3-0.2c-2.3,2.7-4.6,5.4-6.9,8.1
		c-2.3,2.7-4.5,5.5-6.8,8.2c-2.4,2.7-4.6,5.4-6.6,8.3c-1,1.5-1.9,3-2.8,4.6c-0.2,0.4-0.5,0.8-0.7,1.3c-0.1-3-0.2-6-0.3-9l-1.1-36.5
		L44,36.7l-0.4,0l-0.1,36.5l0,19.7c-0.2-0.3-0.4-0.7-0.5-1c-0.7-1.3-1.5-2.5-2.3-3.8C39.9,87,39,85.9,38,84.8c-1-1.1-2-2.1-3-3.2
		c-1.9-2.2-3.9-4.4-5.9-6.5c-2-2.1-4-4.3-6-6.4l-0.3,0.2c1.6,2.5,3.3,4.9,4.9,7.3c1.7,2.4,3.3,4.8,5.1,7.2c0.9,1.2,1.7,2.4,2.5,3.6
		c0.8,1.2,1.7,2.4,2.7,3.4c1,1.1,2,2.1,3.1,3.1c0.8,0.7,1.6,1.4,2.5,2l0,14.2c0,10.3-0.1,20.6,0.1,30.9c-0.3-0.6-0.7-1.1-1-1.7
		c-1.1-1.8-2.3-3.5-3.5-5.2c-2.4-3.4-5.3-6.4-8.1-9.6c-2.7-3.2-5.4-6.3-8.2-9.4c-2.8-3.1-5.5-6.3-8.3-9.3l-0.3,0.2
		c2.4,3.4,4.8,6.8,7.2,10.2c2.4,3.4,4.9,6.8,7.4,10.1c2.5,3.4,4.7,6.9,7.5,10c1.4,1.6,2.8,3.1,4.3,4.6c1,1,2,1.9,3,2.8
		c0,1,0.1,1.9,0.1,2.9c0.2,6.1,0.5,12.2,0.8,18.3c0.3,6.1,0.8,12.2,1.4,18.2l0.4,0c0.4-6.1,0.6-12.2,0.8-18.3c0-1.8,0.1-3.5,0.1-5.3
		c1.2-1.1,2.3-2.2,3.3-3.3c1.5-1.5,2.8-3.1,4.2-4.7c2.7-3.2,4.8-6.8,7.2-10.2c2.4-3.4,4.7-6.9,7-10.3c2.3-3.5,4.6-6.9,6.9-10.5
		L75.6,120z"/>
</g>
</svg>
