<?xml version="1.0" encoding="utf-8"?>
<!-- Generator: Adobe Illustrator 26.0.2, SVG Export Plug-In . SVG Version: 6.00 Build 0)  -->
<svg version="1.1" id="Group_786" xmlns="http://www.w3.org/2000/svg" xmlns:xlink="http://www.w3.org/1999/xlink" x="0px" y="0px"
	 viewBox="0 0 123.1 249.9" style="enable-background:new 0 0 123.1 249.9;" xml:space="preserve">
<style type="text/css">
	.st0{fill:#284D43;}
	.st1{fill:#52999A;}
</style>
<g>
	<path id="Path_1281" class="st0" d="M62.7,0c-140,183.9-2,249.9-2,249.9S199.7,186.2,62.7,0z"/>
	<path id="Path_1282" class="st1" d="M102.8,165.1c-3.8,4.2-7.5,8.6-11.3,12.9c-3.7,4.3-7.4,8.6-11.1,13c-3.7,4.4-7.7,8.5-10.9,13.2
		c-1.6,2.3-3.2,4.7-4.7,7.2c-0.6,1-1.2,2.1-1.8,3.1c0.2-4.8,0.3-9.6,0.5-14.4c0.3-11.3,0.2-22.7,0.1-34c1.3-1,2.4-2.1,3.6-3.2
		c1.8-1.7,3.4-3.5,5.1-5.3c3.3-3.6,5.8-7.8,8.6-11.8s5.6-7.9,8.4-11.9c2.7-4,5.5-8,8.2-12.1l-0.4-0.3c-3.3,3.6-6.5,7.3-9.7,10.9
		c-3.2,3.7-6.4,7.3-9.5,11c-3.2,3.7-6.6,7.1-9.4,11.2c-1.4,2-2.7,4.1-3.9,6.2c-0.3,0.6-0.6,1.1-1,1.7c-0.1-4.1-0.1-8.2-0.1-12.3
		l-0.3-49.9l-0.6-49.9l-0.5,0l-1.4,49.9l-0.6,27c-0.2-0.5-0.5-0.9-0.7-1.4c-0.9-1.8-1.9-3.5-3-5.2c-1.1-1.7-2.3-3.3-3.6-4.8
		c-1.3-1.5-2.7-3-4-4.5c-2.6-3.1-5.2-6.1-7.8-9.1c-2.7-3-5.3-6-8-9l-0.4,0.3c2.1,3.4,4.3,6.8,6.5,10.2c2.2,3.4,4.4,6.7,6.7,10
		c1.1,1.7,2.2,3.4,3.3,5.1c1.1,1.7,2.3,3.3,3.6,4.8c1.3,1.5,2.7,3,4.2,4.4c1.1,1,2.2,2,3.3,2.9L59.6,150
		c-0.3,14.1-0.9,28.2-0.9,42.3c-0.4-0.8-0.9-1.6-1.3-2.3c-1.4-2.5-3-4.9-4.6-7.2c-3.2-4.8-7.1-8.9-10.7-13.3
		c-3.6-4.4-7.2-8.8-10.9-13.2c-3.7-4.3-7.3-8.7-11.1-13l-0.4,0.3c3.1,4.8,6.4,9.5,9.5,14.2c3.2,4.7,6.5,9.4,9.7,14.1
		c3.3,4.7,6.2,9.6,9.9,13.9c1.9,2.2,3.7,4.3,5.7,6.4c1.3,1.4,2.6,2.7,4,4c0,1.3,0,2.7,0,4c0.1,8.3,0.2,16.6,0.5,25
		c0.2,8.3,0.7,16.6,1.3,25l0.5,0c0.7-8.3,1.3-16.6,1.7-24.9c0.1-2.4,0.2-4.8,0.3-7.2c1.6-1.4,3.2-2.9,4.6-4.4c2-2,3.9-4.1,5.8-6.3
		c3.8-4.3,6.8-9.1,10.1-13.7c3.3-4.6,6.7-9.2,10-13.9c3.3-4.7,6.6-9.3,9.8-14L102.8,165.1z"/>
</g>
</svg>
