<?xml version="1.0" encoding="utf-8"?>
<!-- Generator: Adobe Illustrator 26.0.2, SVG Export Plug-In . SVG Version: 6.00 Build 0)  -->
<svg version="1.1" id="Layer_1" xmlns="http://www.w3.org/2000/svg" xmlns:xlink="http://www.w3.org/1999/xlink" x="0px" y="0px"
	 viewBox="0 0 90.1 182.9" style="enable-background:new 0 0 90.1 182.9;" xml:space="preserve">
<style type="text/css">
	.st0{fill:#468984;}
	.st1{fill:#65A7AD;}
</style>
<g id="Group_798" transform="matrix(0.407, 0.914, -0.914, 0.407, 115.794, 0)">
	<path id="Path_1305" class="st0" d="M-29.2,65.5c83.8,146.9,167.7,72.9,167.7,72.9S135.4,26.5-29.2,65.5z"/>
	<path id="Path_1306" class="st1" d="M93.5,85.7c1.8,3.8,3.6,7.5,5.4,11.3c1.8,3.7,3.7,7.5,5.6,11.2c1.9,3.7,3.5,7.6,5.7,11.1
		c1.1,1.8,2.2,3.5,3.5,5.2c0.5,0.7,1,1.4,1.6,2.1c-3.2-1.5-6.4-3-9.6-4.4c-7.5-3.5-15.2-6.6-22.9-9.8c-0.3-1.1-0.7-2.3-1.2-3.4
		c-0.6-1.7-1.3-3.3-2.1-4.9c-1.6-3.2-3.5-6.2-5.5-9.2c-1.8-3-3.7-6.1-5.6-9.1c-1.9-3-3.8-6-5.8-9l-0.3,0.2c1.5,3.2,3,6.4,4.5,9.7
		c1.5,3.2,3.1,6.4,4.7,9.6c1.4,3.3,3.1,6.4,4.9,9.5c0.9,1.5,2,3,3,4.4c0.3,0.4,0.6,0.8,0.9,1.1c-2.8-1.1-5.5-2.3-8.3-3.4L38.4,93.9
		L4.6,80l-0.1,0.3l33.2,15.2l18,8.1c-0.4,0-0.8,0-1.1,0.1c-1.5,0.1-2.9,0.3-4.4,0.6c-1.4,0.3-2.9,0.6-4.3,1.1
		c-1.4,0.5-2.8,1-4.2,1.4c-2.8,0.9-5.6,1.7-8.4,2.7c-2.8,0.9-5.6,1.8-8.3,2.8l0.1,0.3c2.9-0.4,5.8-1,8.7-1.5
		c2.9-0.5,5.8-1.1,8.6-1.6c1.4-0.3,2.9-0.5,4.3-0.7c1.4-0.2,2.9-0.6,4.3-1.1c1.4-0.5,2.8-1,4.1-1.6c1-0.4,1.9-0.9,2.9-1.4l13,5.9
		c9.4,4.2,18.7,8.7,28.2,12.7c-0.7,0.1-1.3,0.1-2,0.2c-2.1,0.3-4.1,0.6-6.2,1c-4.1,0.8-8,2.2-12,3.4s-8,2.3-12,3.6
		c-4,1.2-8,2.4-11.9,3.7l0.1,0.3c4.1-0.7,8.2-1.6,12.3-2.4c4.1-0.8,8.2-1.7,12.2-2.5c4.1-0.9,8.2-1.4,12.2-2.7c2-0.6,4-1.3,5.9-2
		c1.3-0.5,2.6-1,3.8-1.6c0.9,0.4,1.8,0.8,2.7,1.1c5.6,2.3,11.3,4.6,17,6.8c5.7,2.2,11.4,4.3,17.2,6.3l0.1-0.3
		c-5.4-2.9-10.8-5.6-16.3-8.3c-1.6-0.8-3.2-1.5-4.8-2.3c-0.5-1.5-1-2.9-1.6-4.4c-0.8-1.9-1.7-3.8-2.6-5.7c-1.8-3.8-4.2-7.2-6.4-10.8
		c-2.2-3.6-4.3-7.1-6.5-10.7c-2.2-3.5-4.4-7.1-6.7-10.6L93.5,85.7z"/>
</g>
</svg>
