<?xml version="1.0" encoding="utf-8"?>
<!-- Generator: Adobe Illustrator 26.0.2, SVG Export Plug-In . SVG Version: 6.00 Build 0)  -->
<svg version="1.1" id="Group_794" xmlns="http://www.w3.org/2000/svg" xmlns:xlink="http://www.w3.org/1999/xlink" x="0px" y="0px"
	 viewBox="0 0 109.5 221.7" style="enable-background:new 0 0 109.5 221.7;" xml:space="preserve">
<style type="text/css">
	.st0{fill:#499393;}
	.st1{fill:#65A7AD;}
</style>
<g>
	<path id="Path_1297" class="st0" d="M56,0c-124.6,162.9-2.3,221.7-2.3,221.7S177.1,165.5,56,0z"/>
	<path id="Path_1298" class="st1" d="M91.2,146.5c-3.4,3.8-6.7,7.6-10,11.4c-3.3,3.8-6.6,7.7-9.9,11.5c-3.3,3.9-6.8,7.5-9.7,11.6
		c-1.4,2.1-2.9,4.2-4.2,6.3c-0.6,0.9-1.1,1.8-1.6,2.8c0.2-4.3,0.3-8.5,0.4-12.8c0.3-10.1,0.2-20.1,0.1-30.2c1.1-0.9,2.2-1.9,3.2-2.9
		c1.6-1.5,3.1-3.1,4.5-4.7c2.9-3.2,5.1-6.9,7.7-10.4c2.5-3.5,5-7,7.5-10.6c2.4-3.6,4.9-7.1,7.3-10.7l-0.3-0.3
		c-2.9,3.2-5.8,6.4-8.7,9.6c-2.9,3.2-5.7,6.5-8.5,9.8c-2.8,3.3-5.9,6.3-8.3,9.9c-1.2,1.8-2.4,3.6-3.5,5.5c-0.3,0.5-0.6,1-0.9,1.5
		c0-3.6-0.1-7.3-0.1-10.9l-0.2-44.3l-0.4-44.3l-0.4,0L54,88.8l-0.6,23.9c-0.2-0.4-0.4-0.8-0.6-1.2c-0.8-1.6-1.7-3.1-2.7-4.6
		c-1-1.5-2-2.9-3.2-4.2c-1.2-1.3-2.4-2.6-3.5-4c-2.3-2.7-4.6-5.4-6.9-8.1c-2.4-2.7-4.7-5.4-7.1-8L29,82.7c1.9,3,3.8,6,5.7,9
		c1.9,3,3.9,6,5.9,8.9c1,1.5,1.9,3,2.9,4.5c1,1.5,2,2.9,3.2,4.3c1.2,1.4,2.4,2.6,3.7,3.9c0.9,0.9,1.9,1.8,3,2.5l-0.4,17.2
		c-0.3,12.5-0.8,25-0.9,37.5c-0.4-0.7-0.8-1.4-1.2-2.1c-1.3-2.2-2.6-4.3-4-6.4c-2.8-4.2-6.3-7.9-9.5-11.8c-3.2-3.9-6.4-7.8-9.6-11.7
		c-3.3-3.9-6.5-7.8-9.8-11.6l-0.3,0.3c2.8,4.2,5.6,8.4,8.4,12.6c2.8,4.2,5.7,8.4,8.6,12.5c2.9,4.1,5.5,8.5,8.8,12.4
		c1.6,1.9,3.3,3.8,5.1,5.7c1.2,1.2,2.3,2.4,3.6,3.5c0,1.2,0,2.4,0,3.5c0.1,7.4,0.2,14.8,0.4,22.2c0.2,7.4,0.6,14.8,1.1,22.2l0.4,0
		c0.7-7.4,1.2-14.8,1.5-22.1c0.1-2.1,0.2-4.3,0.3-6.4c1.4-1.2,2.8-2.5,4.1-3.9c1.8-1.8,3.5-3.7,5.2-5.6c3.4-3.8,6-8.1,9-12.2
		c3-4.1,5.9-8.2,8.9-12.3c2.9-4.1,5.8-8.3,8.7-12.4L91.2,146.5z"/>
</g>
</svg>
