<?xml version="1.0" encoding="utf-8"?>
<!-- Generator: Adobe Illustrator 26.0.2, SVG Export Plug-In . SVG Version: 6.00 Build 0)  -->
<svg version="1.1" id="Layer_1" xmlns="http://www.w3.org/2000/svg" xmlns:xlink="http://www.w3.org/1999/xlink" x="0px" y="0px"
	 viewBox="0 0 88.3 179" style="enable-background:new 0 0 88.3 179;" xml:space="preserve">
<style type="text/css">
	.st0{fill:#56928D;}
	.st1{fill:#284D43;}
</style>
<g id="Group_772" transform="translate(0 0)">
	<path id="Path_1253" class="st0" d="M40.5,0c-94.6,136,6.1,179,6.1,179S144.2,129.2,40.5,0z"/>
	<path id="Path_1254" class="st1" d="M74.3,117c-2.6,3.2-5.1,6.4-7.7,9.5c-2.5,3.2-5.1,6.4-7.5,9.6c-2.5,3.2-5.2,6.3-7.4,9.7
		c-1.1,1.7-2.2,3.5-3.1,5.3c-0.4,0.8-0.8,1.5-1.2,2.3c0-3.4-0.1-6.9-0.1-10.3c-0.1-8.1-0.5-16.2-1-24.4c0.9-0.8,1.7-1.6,2.5-2.4
		c1.2-1.3,2.4-2.6,3.5-3.9c2.1-2.8,4-5.7,5.8-8.7c1.9-2.9,3.8-5.8,5.7-8.8c1.8-3,3.7-5.9,5.5-8.9l-0.3-0.2c-2.2,2.7-4.4,5.4-6.6,8.1
		c-2.2,2.7-4.4,5.4-6.5,8.2c-2.3,2.6-4.4,5.4-6.4,8.3c-0.9,1.5-1.8,3-2.6,4.5c-0.2,0.4-0.4,0.8-0.6,1.3c-0.2-2.9-0.3-5.9-0.5-8.8
		l-1.7-35.7L41.9,36l-0.3,0l0.5,35.8l0.4,19.3c-0.2-0.3-0.4-0.7-0.5-1c-0.7-1.3-1.5-2.5-2.3-3.6c-0.8-1.2-1.8-2.3-2.8-3.3
		c-1-1-2-2.1-3-3.1c-1.9-2.1-3.9-4.2-5.9-6.3c-2-2.1-4-4.2-6-6.2l-0.3,0.2c1.6,2.4,3.3,4.7,4.9,7.1c1.7,2.3,3.4,4.7,5.1,7
		c0.9,1.2,1.7,2.3,2.5,3.5c0.8,1.2,1.7,2.3,2.7,3.3c1,1,2,2,3.1,3c0.8,0.7,1.6,1.3,2.5,1.9l0.3,13.9c0.2,10.1,0.2,20.2,0.6,30.3
		c-0.3-0.6-0.7-1.1-1-1.6c-1.1-1.7-2.3-3.4-3.5-5c-2.4-3.3-5.3-6.2-8.1-9.2s-5.4-6.1-8.2-9.1c-2.8-3-5.5-6-8.3-9l-0.3,0.2
		c2.4,3.3,4.8,6.6,7.3,9.9c2.4,3.3,4.9,6.5,7.4,9.8c2.5,3.2,4.7,6.7,7.5,9.7c1.4,1.5,2.8,3,4.3,4.4c1,0.9,2,1.8,3,2.7
		c0,1,0.1,1.9,0.1,2.9c0.3,6,0.7,11.9,1.1,17.9c0.4,6,1,11.9,1.7,17.8l0.3,0c0.3-6,0.4-11.9,0.4-17.9c0-1.7,0-3.5,0-5.2
		c1.1-1,2.2-2.1,3.2-3.3c1.4-1.5,2.7-3.1,4-4.7c2.6-3.2,4.6-6.7,6.8-10.2c2.3-3.4,4.5-6.8,6.7-10.3c2.2-3.5,4.4-6.9,6.6-10.4
		L74.3,117z"/>
</g>
</svg>
