<?xml version="1.0" encoding="utf-8"?>
<!-- Generator: Adobe Illustrator 26.0.2, SVG Export Plug-In . SVG Version: 6.00 Build 0)  -->
<svg version="1.1" id="Group_775" xmlns="http://www.w3.org/2000/svg" xmlns:xlink="http://www.w3.org/1999/xlink" x="0px" y="0px"
	 viewBox="0 0 79.3 161" style="enable-background:new 0 0 79.3 161;" xml:space="preserve">
<style type="text/css">
	.st0{fill:#499393;}
	.st1{fill:#65A7AD;}
</style>
<g>
	<path id="Path_1259" class="st0" d="M39.7,0c-89.3,119.2-0.1,161-0.1,161S128.8,119.3,39.7,0z"/>
	<path id="Path_1260" class="st1" d="M66.3,106.2c-2.4,2.8-4.8,5.6-7.2,8.3c-2.4,2.8-4.7,5.6-7.1,8.4c-2.3,2.8-4.9,5.5-7,8.5
		c-1,1.5-2.1,3-3,4.6c-0.4,0.7-0.8,1.3-1.2,2c0.1-3.1,0.2-6.2,0.2-9.3c0.2-7.3,0-14.6-0.1-21.9c0.8-0.7,1.6-1.4,2.3-2.1
		c1.1-1.1,2.2-2.3,3.2-3.4c2-2.4,3.8-5,5.5-7.6c1.8-2.6,3.6-5.1,5.4-7.7c1.7-2.6,3.5-5.2,5.2-7.8L62.4,78c-2.1,2.3-4.1,4.7-6.2,7.1
		c-2.1,2.4-4.1,4.8-6.1,7.2c-2.1,2.3-4.1,4.7-6,7.2c-0.9,1.3-1.7,2.6-2.5,4c-0.2,0.4-0.4,0.7-0.6,1.1c-0.1-2.6-0.1-5.3-0.1-7.9
		l-0.4-32.2l-0.6-32.2l-0.3,0l-0.6,32.2l-0.3,17.4c-0.1-0.3-0.3-0.6-0.5-0.9c-0.6-1.2-1.3-2.3-2-3.4c-0.7-1.1-1.5-2.1-2.4-3.1
		c-0.9-1-1.8-1.9-2.6-2.9c-1.7-2-3.4-3.9-5.1-5.9c-1.7-1.9-3.4-3.9-5.2-5.8l-0.2,0.2c1.4,2.2,2.8,4.3,4.2,6.5
		c1.4,2.2,2.9,4.3,4.3,6.4c0.7,1.1,1.4,2.2,2.1,3.2c0.7,1.1,1.5,2.1,2.3,3.1c0.9,1,1.8,1.9,2.7,2.8c0.7,0.6,1.4,1.3,2.2,1.8
		l-0.2,12.5c-0.1,9.1-0.4,18.2-0.4,27.2c-0.3-0.5-0.6-1-0.9-1.5c-0.9-1.6-2-3.1-3-4.6c-2.1-3-4.6-5.7-6.9-8.5s-4.7-5.6-7.1-8.4
		c-2.4-2.8-4.8-5.6-7.2-8.3l-0.2,0.2c2,3.1,4.1,6.1,6.2,9.1c2.1,3,4.2,6,6.3,9c2.1,3,4,6.1,6.5,8.9c1.2,1.4,2.4,2.8,3.7,4.1
		c0.8,0.9,1.7,1.7,2.6,2.5c0,0.9,0,1.7,0,2.6c0.1,5.4,0.2,10.7,0.4,16.1c0.2,5.4,0.5,10.7,0.9,16.1l0.3,0c0.4-5.4,0.7-10.7,1-16.1
		c0.1-1.5,0.1-3.1,0.2-4.7c1-0.9,2-1.9,3-2.8c1.3-1.3,2.5-2.7,3.7-4.1c2.4-2.8,4.3-5.9,6.5-8.9c2.1-3,4.3-6,6.3-9
		c2.1-3,4.2-6,6.2-9.1L66.3,106.2z"/>
</g>
</svg>
