<?xml version="1.0" encoding="utf-8"?>
<!-- Generator: Adobe Illustrator 26.0.2, SVG Export Plug-In . SVG Version: 6.00 Build 0)  -->
<svg version="1.1" id="Group_778" xmlns="http://www.w3.org/2000/svg" xmlns:xlink="http://www.w3.org/1999/xlink" x="0px" y="0px"
	 viewBox="0 0 90.1 182.8" style="enable-background:new 0 0 90.1 182.8;" xml:space="preserve">
<style type="text/css">
	.st0{fill:#60B7BA;}
	.st1{fill:#62A2A7;}
</style>
<g>
	<path id="Path_1265" class="st0" d="M41.8,0c-97.2,138.4,5.4,182.8,5.4,182.8S147.1,132.3,41.8,0z"/>
	<path id="Path_1266" class="st1" d="M75.8,119.6c-2.7,3.2-5.3,6.5-7.9,9.7c-2.6,3.3-5.2,6.5-7.7,9.8c-2.6,3.3-5.4,6.4-7.6,9.9
		c-1.1,1.8-2.2,3.5-3.2,5.4c-0.4,0.8-0.8,1.5-1.2,2.3c0-3.5,0-7-0.1-10.5c-0.1-8.3-0.5-16.6-0.9-24.9c0.9-0.8,1.7-1.6,2.5-2.5
		c1.2-1.3,2.4-2.6,3.5-4c2.2-2.8,4.1-5.8,6-8.8c2-3,3.9-5.9,5.8-9c1.9-3,3.8-6,5.7-9.1l-0.3-0.2c-2.3,2.7-4.5,5.5-6.8,8.2
		c-2.2,2.8-4.5,5.5-6.7,8.3c-2.3,2.7-4.5,5.5-6.5,8.4c-1,1.5-1.9,3-2.7,4.6c-0.2,0.4-0.4,0.8-0.7,1.3c-0.1-3-0.3-6-0.4-9l-1.6-36.5
		l-1.8-36.5l-0.4,0l0.4,36.5L43.4,93c-0.2-0.3-0.4-0.7-0.5-1c-0.7-1.3-1.5-2.5-2.4-3.7c-0.8-1.2-1.8-2.3-2.8-3.4
		c-1-1.1-2.1-2.1-3-3.2c-2-2.2-4-4.3-6-6.5c-2-2.1-4-4.3-6.1-6.4l-0.3,0.2c1.6,2.4,3.3,4.8,5,7.2c1.7,2.4,3.4,4.8,5.2,7.1
		c0.9,1.2,1.7,2.4,2.5,3.6c0.8,1.2,1.8,2.3,2.8,3.4c1,1.1,2.1,2.1,3.2,3.1c0.8,0.7,1.6,1.4,2.5,2l0.2,14.2
		c0.2,10.3,0.1,20.6,0.5,30.9c-0.3-0.6-0.7-1.1-1-1.7c-1.1-1.8-2.3-3.5-3.5-5.2c-2.4-3.4-5.4-6.3-8.2-9.4c-2.8-3.1-5.5-6.2-8.3-9.3
		c-2.8-3.1-5.6-6.2-8.5-9.2l-0.3,0.2c2.4,3.4,4.9,6.7,7.4,10.1c2.5,3.4,5,6.7,7.5,10c2.5,3.3,4.8,6.8,7.6,9.9
		c1.4,1.5,2.8,3.1,4.4,4.5c1,1,2,1.9,3.1,2.8c0,1,0.1,1.9,0.1,2.9c0.3,6.1,0.6,12.2,1.1,18.2c0.4,6.1,0.9,12.2,1.6,18.2l0.4,0
		c0.3-6.1,0.5-12.2,0.5-18.3c0-1.8,0-3.5,0-5.3c1.1-1.1,2.2-2.2,3.3-3.3c1.4-1.5,2.8-3.1,4.1-4.8c2.6-3.2,4.7-6.9,7-10.3
		c2.3-3.5,4.6-6.9,6.9-10.4c2.2-3.5,4.5-7,6.7-10.5L75.8,119.6z"/>
</g>
</svg>
