<?xml version="1.0" encoding="utf-8"?>
<!-- Generator: Adobe Illustrator 26.0.2, SVG Export Plug-In . SVG Version: 6.00 Build 0)  -->
<svg version="1.1" id="Group_768" xmlns="http://www.w3.org/2000/svg" xmlns:xlink="http://www.w3.org/1999/xlink" x="0px" y="0px"
	 viewBox="0 0 82.9 168.4" style="enable-background:new 0 0 82.9 168.4;" xml:space="preserve">
<style type="text/css">
	.st0{fill:#284D43;}
	.st1{fill:#52999A;}
</style>
<g>
	<path id="Path_1245" class="st0" d="M41.7,0c-93.5,124.5-0.3,168.4-0.3,168.4S134.7,124.9,41.7,0z"/>
	<path id="Path_1246" class="st1" d="M69.4,111.1c-2.5,2.9-5,5.8-7.5,8.7c-2.5,2.9-5,5.9-7.4,8.8c-2.5,3-5.1,5.7-7.3,8.9
		c-1.1,1.6-2.2,3.2-3.1,4.8c-0.4,0.7-0.8,1.4-1.2,2.1c0.1-3.2,0.2-6.5,0.3-9.7c0.2-7.6,0-15.3-0.1-22.9c0.8-0.7,1.6-1.4,2.4-2.2
		c1.2-1.2,2.3-2.4,3.4-3.6c2.1-2.5,4-5.2,5.7-8c1.9-2.7,3.8-5.4,5.6-8.1c1.8-2.7,3.7-5.4,5.5-8.2l-0.3-0.2c-2.2,2.4-4.3,4.9-6.5,7.4
		c-2.2,2.5-4.3,5-6.4,7.5c-2.2,2.4-4.3,4.9-6.3,7.6c-0.9,1.4-1.8,2.7-2.6,4.2c-0.2,0.4-0.4,0.8-0.6,1.2c0-2.8-0.1-5.5-0.1-8.3
		l-0.4-33.6l-0.6-33.6l-0.3,0l-0.7,33.6l-0.3,18.2c-0.2-0.3-0.3-0.6-0.5-0.9c-0.6-1.2-1.3-2.4-2.1-3.5c-0.7-1.1-1.6-2.2-2.5-3.2
		c-0.9-1-1.8-2-2.7-3c-1.7-2.1-3.5-4.1-5.3-6.1c-1.8-2-3.6-4-5.4-6L21.7,63c1.4,2.3,2.9,4.5,4.4,6.8c1.5,2.3,3,4.5,4.5,6.7
		c0.8,1.1,1.5,2.3,2.2,3.4c0.7,1.1,1.6,2.2,2.4,3.2c0.9,1,1.8,2,2.8,2.9c0.7,0.7,1.5,1.3,2.3,1.9l-0.2,13.1
		c-0.1,9.5-0.5,19-0.4,28.5c-0.3-0.5-0.6-1.1-0.9-1.6c-1-1.7-2-3.3-3.1-4.9c-2.1-3.2-4.8-6-7.3-8.9s-4.9-5.9-7.4-8.8
		c-2.5-2.9-5-5.9-7.5-8.7l-0.3,0.2c2.1,3.2,4.3,6.4,6.5,9.5c2.2,3.2,4.4,6.3,6.6,9.4c2.2,3.1,4.2,6.4,6.7,9.3
		c1.3,1.5,2.5,2.9,3.9,4.3c0.9,0.9,1.8,1.8,2.7,2.7c0,0.9,0,1.8,0,2.7c0.1,5.6,0.2,11.2,0.5,16.8c0.2,5.6,0.5,11.2,1,16.8l0.3,0
		c0.5-5.6,0.8-11.2,1-16.8c0.1-1.6,0.1-3.2,0.2-4.9c1.1-0.9,2.1-1.9,3.1-3c1.4-1.4,2.6-2.8,3.9-4.3c2.5-2.9,4.5-6.2,6.8-9.3
		c2.2-3.1,4.5-6.3,6.6-9.4c2.2-3.2,4.4-6.3,6.5-9.5L69.4,111.1z"/>
</g>
</svg>
