<?xml version="1.0" encoding="utf-8"?>
<!-- Generator: Adobe Illustrator 16.0.0, SVG Export Plug-In . SVG Version: 6.00 Build 0)  -->
<!DOCTYPE svg PUBLIC "-//W3C//DTD SVG 1.1//EN" "http://www.w3.org/Graphics/SVG/1.1/DTD/svg11.dtd">
<svg version="1.1" id="Layer_1" xmlns="http://www.w3.org/2000/svg" xmlns:xlink="http://www.w3.org/1999/xlink" x="0px" y="0px"
	 width="841.89px" height="595.275px" viewBox="0 0 841.89 595.275" enable-background="new 0 0 841.89 595.275"
	 xml:space="preserve">
<rect x="0" fill="none" width="841.89" height="595.275"/>
<g>
	<path fill="#496052" d="M358.993,347.674c-11.323,0-20.347-3.666-27.624-11.256c-7.326-7.613-10.868-17.057-10.868-28.85
		c0-12.01,3.591-21.412,11-28.717c7.01-6.869,16.323-10.486,27.716-10.803c-9.607,4.646-14.454,18.396-14.454,41.02
		c0,12.279,1.812,21.994,5.382,28.867c2.435,4.734,5.585,7.971,9.357,9.738C359.328,347.674,359.141,347.674,358.993,347.674z"/>
	<path fill="#496052" d="M247.494,343.971l-0.847-75.594c-6.339,3.551-14.105,6.07-23.179,7.525c1.093,0.912,1.615,2.01,1.858,2.928
		c0.354,1.025,0.552,3.969,0.552,19.781v44.688l-0.758,3.238l-0.11,0.268c-0.132,0.268-0.263,0.516-0.425,0.756
		c3.196-0.066,6.39-0.154,9.535-0.24c3.864-0.141,8.735-0.207,14.446-0.207c-0.446-0.732-0.825-1.67-1.049-2.875L247.494,343.971z"
		/>
	<path fill="#496052" d="M278.216,347.674h23.74c-0.722-1.293-1.168-3.482-1.168-7.906v-27.152c0-11.943-0.148-21.334-0.486-25.125
		c-0.311-3.484-1.142-6.654-2.496-9.469c-3.064-6.426-9.695-9.551-20.322-9.551c-4.151,0-7.973,0.604-11.478,1.828
		c4.511,0.223,7.811,1.764,9.825,4.578c1.565,2.205,3.367,8.539,3.367,27.201v36.33
		C279.199,343.857,278.844,346.287,278.216,347.674z"/>
	<path fill="#496052" d="M180.589,347.674h23.74c-0.722-1.293-1.169-3.482-1.169-7.906v-27.152c0-11.943-0.148-21.334-0.485-25.125
		c-0.312-3.484-1.143-6.654-2.497-9.469c-3.063-6.426-9.694-9.551-20.322-9.551c-4.151,0-7.973,0.604-11.477,1.828
		c4.511,0.223,7.81,1.764,9.824,4.578c1.565,2.205,3.367,8.539,3.367,27.201v36.33C181.571,343.857,181.216,346.287,180.589,347.674
		z"/>
	<path fill="#496052" d="M403.475,347.674h-23.74c0.722-1.293,1.169-3.482,1.169-7.906v-77.611c0-11.943,0.148-19.918,0.485-23.709
		c0.312-3.486,1.142-6.654,2.497-9.471c3.063-6.426,9.694-9.549,20.321-9.549c4.151,0,7.973,0.604,11.478,1.828
		c-4.511,0.223-7.811,1.764-9.825,4.578c-1.565,2.205-3.367,7.123-3.367,25.785v86.789
		C402.493,343.857,402.847,346.287,403.475,347.674z"/>
	<g>
		<path fill="#496052" d="M621.844,325.432c0-6.537,1.697-14.219,8.196-19.74c-17.754,4.402-26.727,12.822-26.727,25.123
			c0,5.045,1.472,9.021,4.505,12.123c3.081,3.195,7.083,4.736,12.242,4.736c5.22,0,9.801-1.473,13.795-4.488
			C629.035,342.938,621.844,340.076,621.844,325.432z"/>
		<path fill="#496052" d="M667.391,335.479c-0.113-0.803-0.225-2.787-0.225-11.252v-32.018c0-8.664-1.938-14.709-5.692-17.947
			c-4.083-3.35-10.963-5.361-20.52-6.033c2.658,2.234,4.132,5.137,4.959,7.816l0.18,0.803c0.665,2.125,1.517,7.031,1.517,23.799
			v15.52c-0.517,12.082,0.576,18.668,0.576,18.668c0.722,4.82,2.077,8.104,4.029,9.758c1.981,1.67,5.443,2.521,10.309,2.521
			c4.021,0,7.663-0.559,10.987-1.697C670.988,344.506,668.241,341.953,667.391,335.479z"/>
		<path fill="#496052" d="M639.524,278.008c0.138,0.336,0.225,0.604,0.336,0.871c0,0.025,0.024,0.025,0.024,0.025L639.524,278.008z"
			/>
		<path fill="#496052" d="M625.392,269.344c-8.438,0-18.352-0.018-18.754-0.127c-0.354-0.096-0.69-0.227-1.025-0.43
			c0,0,0,0,2.188,5.629c2.453,6.381,8.308,8.773,14.474,9.268c6.09,0.49,16.939-0.449,19.755,2.186
			c-1.025-2.68-0.938-2.635-2.169-5.83C637.318,273.451,631.825,269.344,625.392,269.344z"/>
	</g>
	<g>
		<path fill="#496052" d="M543.691,309.355c0-18.467-0.825-36.213-0.825-36.213c0-1.723-0.113-3.324-0.311-4.824
			c-8.576,2.613-16.817,4.24-24.628,4.865c0.515,0.381,0.963,0.83,1.36,1.293c1.739,2.197,2.591,5.65,2.591,10.609l0.2,53.061
			c0,4.598-0.535,7.549-1.741,9.377h25.119c-1.162-1.379-1.766-3.236-1.766-5.469V309.355z"/>
		<path fill="#496052" d="M549.608,279.504c0-0.021,0.024-0.021,0.024-0.021c0.105-0.268,0.199-0.535,0.33-0.871L549.608,279.504z"
			/>
		<path fill="#496052" d="M582.854,268.674c-0.403,0.094-10.314,0.139-18.754,0.139c-6.432,0-11.926,4.107-14.468,10.67
			c-1.23,3.191-1.137,3.15-2.169,5.83c2.815-2.639,13.665-1.701,19.763-2.189c6.165-0.518,11.993-2.883,14.468-9.264
			c2.188-5.631,2.188-5.631,2.188-5.631C583.543,268.432,583.208,268.586,582.854,268.674z"/>
	</g>
	<g>
		<path fill="#496052" d="M453.047,283.57l-0.13-0.402c-0.076-0.201-0.385-1.207-2.299-5.717c-1.281-3.035-1.877-5.246-1.877-6.924
			c0-0.666,0.111-1.518,0.56-2.299h-25.23c1.403,1.564,2.858,4.09,4.462,7.816c5.666,12.479,9.395,20.742,11.048,24.533
			c6.862,15.365,12.393,27.918,16.419,37.246c2.412,5.248,4.214,9.088,5.4,11.451c2.815-6.896,5.984-14.848,9.533-23.82
			l-1.411-2.924C465.284,313.645,459.729,300.537,453.047,283.57z"/>
		<path fill="#496052" d="M476.445,296.342c-0.354,0-0.646,0-0.932,0h-0.026H476.445z"/>
		<path fill="#496052" d="M492.659,268.654c-6.854-0.09-11.23,4.463-14.002,10.002c-2.721,5.473-5.872,15.896-9.376,17.527
			c2.877,0.045,2.788,0.113,6.232,0.158c7.029,0.068,12.9-3.504,15.288-9.471c3.131-7.838,6.86-17.033,7.102-17.346
			c0.205-0.291,0.467-0.559,0.784-0.807C498.687,268.719,498.687,268.719,492.659,268.654z"/>
		<path fill="#496052" d="M457.019,365.18c0,0.02-0.019,0.02-0.019,0.02c-0.111,0.266-0.225,0.533-0.354,0.869L457.019,365.18z"/>
		<path fill="#496052" d="M439.469,361.244c-6.158,0.381-12.056,2.68-14.617,9c-2.305,5.604-2.305,5.604-2.305,5.604
			c0.336-0.199,0.69-0.334,1.05-0.422c0.403-0.094,10.292,0.045,18.755,0.199c6.414,0.109,11.995-3.906,14.648-10.426
			c1.298-3.197,1.206-3.129,2.28-5.805C456.422,361.984,445.591,360.865,439.469,361.244z"/>
	</g>
	<circle fill="#496052" cx="186.354" cy="238.683" r="10.75"/>
</g>
</svg>
