<svg xmlns="http://www.w3.org/2000/svg" width="352.102" height="435.834" viewBox="0 0 352.102 435.834">
  <g id="Group_806" data-name="Group 806" transform="translate(-2027.812 -308.911)">
    <g id="Group_930" data-name="Group 930" transform="translate(2111.672 308.911)">
      <g id="Group_894" data-name="Group 894" transform="translate(0)">
        <path id="Path_17667" data-name="Path 17667" d="M2146.368,3473.725l196.422,3.147,6.626,314.657-207.624-18.946Z" transform="translate(-2141.792 -3473.725)" fill="#4a706b"/>
      </g>
      <g id="Group_895" data-name="Group 895" transform="translate(0 65.94)">
        <path id="Path_17668" data-name="Path 17668" d="M2141.792,3647.205h103.567v8.15l-103.567,3.651Z" transform="translate(-2141.792 -3647.205)" fill="#496052"/>
      </g>
      <g id="Group_896" data-name="Group 896" transform="translate(99.198 46.662)">
        <path id="Path_17669" data-name="Path 17669" d="M2428.5,3596.487h112.828v8.15l-112.828,3.651Z" transform="translate(-2428.503 -3596.487)" fill="#496052"/>
      </g>
      <g id="Group_897" data-name="Group 897" transform="translate(0 149.382)">
        <path id="Path_17670" data-name="Path 17670" d="M2141.792,3866.733h103.567v8.15l-103.567,3.651Z" transform="translate(-2141.792 -3866.733)" fill="#496052"/>
      </g>
      <g id="Group_898" data-name="Group 898" transform="translate(0 231.418)">
        <path id="Path_17671" data-name="Path 17671" d="M2141.792,4082.56h99.7v8.15l-99.7,3.651Z" transform="translate(-2141.792 -4082.56)" fill="#496052"/>
      </g>
      <g id="Group_899" data-name="Group 899" transform="translate(86.822)">
        <path id="Path_17672" data-name="Path 17672" d="M2394.395,3473.725l-13.6,309.066h8.7l11.393-309.066Z" transform="translate(-2380.795 -3473.725)" fill="#496052"/>
      </g>
      <g id="Group_902" data-name="Group 902" transform="translate(115.348 42.325)">
        <g id="Group_900" data-name="Group 900" transform="translate(0 49.094)">
          <path id="Path_17673" data-name="Path 17673" d="M2460.14,3720.13l-.415-.988c.2-.083,19.772-8.182,35.041-3.385l-.321,1.023C2479.554,3712.1,2460.333,3720.049,2460.14,3720.13Z" transform="translate(-2459.725 -3714.239)" fill="#561c17"/>
        </g>
        <g id="Group_901" data-name="Group 901" transform="translate(10.23)">
          <path id="Path_17674" data-name="Path 17674" d="M2495.394,3634.7l-1.072-.021.473-24.1a3.721,3.721,0,0,0-1.364-3.047c-2.41-1.847-6.5-5.676-6.776-10.578-.183-3.183,1.268-6.287,4.309-9.226a9.622,9.622,0,0,1,9.037-2.308c3.392,1.183,3.4,5.52,3.4,5.7l-1.071-.008c0-.036-.016-3.756-2.68-4.685a8.467,8.467,0,0,0-7.94,2.067c-2.807,2.712-4.148,5.536-3.984,8.394.257,4.475,4.094,8.053,6.358,9.788a4.8,4.8,0,0,1,1.783,3.918Z" transform="translate(-2486.64 -3585.077)" fill="#561c17"/>
        </g>
      </g>
      <g id="Group_903" data-name="Group 903" transform="translate(102.18 91.939)">
        <path id="Path_17675" data-name="Path 17675" d="M2442.146,3718.628s7.714,10.142,19.786,7.1,10.731-10.12,10.731-10.12,11.4,1.368,15.091,10.689c0,0-5.617,3.8-4.108,8.94s6.791,92.832,6.791,92.832-9.809,8.45-21.63,4.456-15.846,7.633-25.655,4.1a47.125,47.125,0,0,0-17.606-2.961s13.582-90.44,11.318-94.72-9.054-10.271-9.054-10.271S2433.427,3717.425,2442.146,3718.628Z" transform="translate(-2425.546 -3715.607)" fill="#ffc655"/>
      </g>
      <g id="Group_904" data-name="Group 904" transform="translate(8.639 56.33)">
        <path id="Path_17676" data-name="Path 17676" d="M2164.521,3631.533s.873-8.9,5.457-9.559,15.279,5.459,27.066,3.268,14.842,2.261,14.842,6.291Z" transform="translate(-2164.521 -3621.924)" fill="#424f4f"/>
      </g>
      <g id="Group_905" data-name="Group 905" transform="translate(10.514 48.844)">
        <path id="Path_17677" data-name="Path 17677" d="M2193.334,3605.134s-10.477.1-16.207-2.3-8.676,2.925-7.366,6.164,15.006,5.009,21.5,4.812,13.338.062,18.117.015,6.221-5.667,2.292-7.267S2193.334,3605.134,2193.334,3605.134Z" transform="translate(-2169.453 -3602.227)" fill="#f4f4f4"/>
      </g>
      <g id="Group_906" data-name="Group 906" transform="translate(10.514 41.636)">
        <path id="Path_17678" data-name="Path 17678" d="M2193.334,3586.17s-10.477.1-16.207-2.3-8.676,2.925-7.366,6.164,15.006,5.01,21.5,4.813,13.338.062,18.117.015,6.221-5.667,2.292-7.267S2193.334,3586.17,2193.334,3586.17Z" transform="translate(-2169.453 -3583.264)" fill="#8a4d27"/>
      </g>
      <g id="Group_907" data-name="Group 907" transform="translate(55.902 56.33)">
        <path id="Path_17679" data-name="Path 17679" d="M2296.821,3631.533s.724-8.9,4.523-9.559,12.664,5.459,22.433,3.268,12.3,2.261,12.3,6.291Z" transform="translate(-2296.821 -3621.924)" fill="#424f4f"/>
      </g>
      <g id="Group_908" data-name="Group 908" transform="translate(57.423 48.844)">
        <path id="Path_17680" data-name="Path 17680" d="M2320.7,3605.134s-8.684.1-13.433-2.3-7.191,2.925-6.105,6.164,12.437,5.009,17.82,4.812,11.055.062,15.016.015,5.156-5.667,1.9-7.267S2320.7,3605.134,2320.7,3605.134Z" transform="translate(-2300.91 -3602.227)" fill="#496052"/>
      </g>
      <g id="Group_909" data-name="Group 909" transform="translate(57.423 41.636)">
        <path id="Path_17681" data-name="Path 17681" d="M2320.7,3586.17s-8.684.1-13.433-2.3-7.191,2.925-6.105,6.164,12.437,5.01,17.82,4.813,11.055.062,15.016.015,5.156-5.667,1.9-7.267S2320.7,3586.17,2320.7,3586.17Z" transform="translate(-2300.91 -3583.264)" fill="#ffc655"/>
      </g>
      <g id="Group_910" data-name="Group 910" transform="translate(8.431 219.097)">
        <path id="Path_17682" data-name="Path 17682" d="M2163.973,4062.465s1.506-11.409,9.413-12.257,26.355,7,46.687,4.191,25.6,2.9,25.6,8.066Z" transform="translate(-2163.973 -4050.143)" fill="#2e5546"/>
      </g>
      <g id="Group_911" data-name="Group 911" transform="translate(11.665 209.497)">
        <path id="Path_17683" data-name="Path 17683" d="M2213.676,4028.615s-18.073.124-27.956-2.954-14.967,3.751-12.707,7.9,25.885,6.423,37.086,6.17,23.007.079,31.25.019,10.73-7.266,3.954-9.318S2213.676,4028.615,2213.676,4028.615Z" transform="translate(-2172.482 -4024.888)" fill="#f4f4f4"/>
      </g>
      <g id="Group_912" data-name="Group 912" transform="translate(11.665 200.255)">
        <path id="Path_17684" data-name="Path 17684" d="M2213.676,4004.3s-18.073.124-27.956-2.954-14.967,3.75-12.707,7.9,25.885,6.423,37.086,6.171,23.007.079,31.25.019,10.73-7.267,3.954-9.318S2213.676,4004.3,2213.676,4004.3Z" transform="translate(-2172.482 -4000.573)" fill="#8a4d27"/>
      </g>
      <g id="Group_913" data-name="Group 913" transform="translate(26.258 139.847)">
        <path id="Path_17685" data-name="Path 17685" d="M2248.975,3843.543s-14.517.658-22.551-1.434-11.912,3.387-9.972,6.553,20.992,4.2,29.984,3.658,18.489-.653,25.11-.956,8.4-6,2.9-7.384S2248.975,3843.543,2248.975,3843.543Z" transform="translate(-2215.958 -3841.646)" fill="#561c17"/>
      </g>
      <g id="Group_914" data-name="Group 914" transform="translate(26.047 132.672)">
        <path id="Path_17686" data-name="Path 17686" d="M2244.913,3824.769s-13.057.6-20.292-1.521-10.7,3.341-8.945,6.514,18.9,4.283,26.987,3.773,16.629-.581,22.584-.858,7.535-5.962,2.576-7.372S2244.913,3824.769,2244.913,3824.769Z" transform="translate(-2215.226 -3822.771)" fill="#46513c"/>
      </g>
      <g id="Group_915" data-name="Group 915" transform="translate(28.322 124.839)">
        <path id="Path_17687" data-name="Path 17687" d="M2248.515,3804.236s-11.938.558-18.562-1.588-9.777,3.3-8.159,6.484,17.3,4.345,24.692,3.862,15.205-.526,20.65-.783,6.872-5.937,2.332-7.362S2248.515,3804.236,2248.515,3804.236Z" transform="translate(-2221.376 -3802.161)" fill="#496052"/>
      </g>
      <g id="Group_916" data-name="Group 916" transform="translate(28.323 118.102)">
        <path id="Path_17688" data-name="Path 17688" d="M2246.516,3786.572s-11.1.525-17.26-1.638-9.08,3.278-7.567,6.461,16.093,4.391,22.966,3.929,14.134-.485,19.2-.727,6.372-5.917,2.147-7.355S2246.516,3786.572,2246.516,3786.572Z" transform="translate(-2221.294 -3784.439)" fill="#f4f4f4"/>
      </g>
      <g id="Group_919" data-name="Group 919" transform="translate(141.941 42.325)">
        <g id="Group_917" data-name="Group 917" transform="translate(0 49.094)">
          <path id="Path_17689" data-name="Path 17689" d="M2533.08,3720.129l-.415-.988c.2-.083,19.772-8.182,35.041-3.385l-.321,1.023C2552.486,3712.1,2533.273,3720.049,2533.08,3720.129Z" transform="translate(-2532.665 -3714.239)" fill="#561c17"/>
        </g>
        <g id="Group_918" data-name="Group 918" transform="translate(10.23)">
          <path id="Path_17690" data-name="Path 17690" d="M2568.333,3634.7l-1.072-.021.473-24.1a3.72,3.72,0,0,0-1.364-3.047c-2.41-1.847-6.5-5.676-6.777-10.578-.182-3.183,1.268-6.287,4.31-9.226a9.622,9.622,0,0,1,9.037-2.308c3.392,1.183,3.4,5.52,3.4,5.7l-1.072-.008c0-.036-.016-3.756-2.68-4.685a8.466,8.466,0,0,0-7.94,2.067c-2.808,2.712-4.148,5.536-3.984,8.394.256,4.475,4.094,8.053,6.358,9.788a4.8,4.8,0,0,1,1.783,3.918Z" transform="translate(-2559.579 -3585.077)" fill="#561c17"/>
        </g>
      </g>
      <g id="indyra_Logo_1-01" data-name="indyra Logo_1-01" transform="translate(127.419 122.079)">
        <g id="Group_812" data-name="Group 812" transform="translate(0 0)">
          <path id="Path_1323" data-name="Path 1323" d="M322.224,271.613a1.623,1.623,0,0,1-1.237-.5,1.771,1.771,0,0,1-.487-1.292,1.71,1.71,0,0,1,.493-1.286,1.778,1.778,0,0,1,1.241-.484c-.43.208-.647.824-.647,1.837a2.858,2.858,0,0,0,.241,1.292.923.923,0,0,0,.419.436Z" transform="translate(-313.69 -265.871)" fill="#496052"/>
          <path id="Path_1324" data-name="Path 1324" d="M224.544,271.762l-.038-3.385a3.136,3.136,0,0,1-1.038.337.253.253,0,0,1,.083.131,5.249,5.249,0,0,1,.025.886v2l-.034.145,0,.012a.282.282,0,0,1-.019.034l.427-.011c.173-.006.391-.009.647-.009a.377.377,0,0,1-.047-.129Z" transform="translate(-221.002 -266.185)" fill="#496052"/>
          <path id="Path_1325" data-name="Path 1325" d="M266.553,272.017h1.063a.761.761,0,0,1-.052-.354v-1.216c0-.535-.007-.955-.022-1.125a1.222,1.222,0,0,0-.112-.424c-.137-.288-.434-.428-.91-.428a1.549,1.549,0,0,0-.514.082.541.541,0,0,1,.44.2,2.569,2.569,0,0,1,.151,1.218V271.6A1.115,1.115,0,0,1,266.553,272.017Z" transform="translate(-261.635 -266.275)" fill="#496052"/>
          <path id="Path_1326" data-name="Path 1326" d="M168.926,272.017h1.063a.76.76,0,0,1-.052-.354v-1.216c0-.535-.007-.955-.022-1.125a1.224,1.224,0,0,0-.112-.424c-.137-.288-.434-.428-.91-.428a1.548,1.548,0,0,0-.514.082.541.541,0,0,1,.44.2,2.569,2.569,0,0,1,.151,1.218V271.6A1.117,1.117,0,0,1,168.926,272.017Z" transform="translate(-168.379 -266.275)" fill="#496052"/>
          <path id="Path_1327" data-name="Path 1327" d="M380.8,225.17h-1.063a.761.761,0,0,0,.052-.354v-3.475c0-.535.007-.892.022-1.062a1.222,1.222,0,0,1,.112-.424c.137-.288.434-.428.91-.428a1.548,1.548,0,0,1,.514.082.541.541,0,0,0-.44.2c-.07.1-.151.319-.151,1.154v3.886A1.116,1.116,0,0,0,380.8,225.17Z" transform="translate(-370.272 -219.428)" fill="#496052"/>
          <g id="Group_809" data-name="Group 809" transform="translate(19.473 2.185)">
            <path id="Path_1328" data-name="Path 1328" d="M604.143,306.576a1.117,1.117,0,0,1,.367-.884c-.795.2-1.2.574-1.2,1.125a.737.737,0,0,0,.2.543.719.719,0,0,0,.548.212.994.994,0,0,0,.618-.2C604.465,307.36,604.143,307.232,604.143,306.576Z" transform="translate(-603.313 -304.015)" fill="#496052"/>
            <path id="Path_1329" data-name="Path 1329" d="M642.138,271.24c-.005-.036-.01-.125-.01-.5V269.3a1.034,1.034,0,0,0-.255-.8,1.655,1.655,0,0,0-.919-.27.73.73,0,0,1,.222.35l.008.036a4.217,4.217,0,0,1,.068,1.066v.695a4.494,4.494,0,0,0,.026.836.709.709,0,0,0,.18.437.728.728,0,0,0,.462.113,1.506,1.506,0,0,0,.492-.076C642.3,271.644,642.176,271.53,642.138,271.24Z" transform="translate(-639.269 -268.229)" fill="#496052"/>
            <path id="Path_1330" data-name="Path 1330" d="M639.524,278.008l.015.039a0,0,0,0,0,0,0Z" transform="translate(-637.903 -277.57)" fill="#496052"/>
            <path id="Path_1331" data-name="Path 1331" d="M606.5,268.812c-.378,0-.822,0-.84-.006a.174.174,0,0,1-.046-.019l.1.252a.692.692,0,0,0,.648.415c.273.022.758-.02.885.1-.046-.12-.042-.118-.1-.261A.7.7,0,0,0,606.5,268.812Z" transform="translate(-605.51 -268.762)" fill="#496052"/>
          </g>
          <g id="Group_810" data-name="Group 810" transform="translate(15.65 2.185)">
            <path id="Path_1332" data-name="Path 1332" d="M519.081,270.155c0-.827-.037-1.621-.037-1.621a1.637,1.637,0,0,0-.014-.216,5.231,5.231,0,0,1-1.1.218.371.371,0,0,1,.061.058.762.762,0,0,1,.116.475l.009,2.376a.787.787,0,0,1-.078.42h1.125a.37.37,0,0,1-.079-.245v-1.464Z" transform="translate(-517.927 -268.314)" fill="#496052"/>
            <path id="Path_1333" data-name="Path 1333" d="M549.608,278.652h0l.015-.039Z" transform="translate(-548.19 -278.147)" fill="#496052"/>
            <path id="Path_1334" data-name="Path 1334" d="M549.047,268.249c-.018,0-.462.006-.84.006a.7.7,0,0,0-.648.478c-.055.143-.051.141-.1.261.126-.118.612-.076.885-.1a.694.694,0,0,0,.648-.415l.1-.252A.169.169,0,0,1,549.047,268.249Z" transform="translate(-546.141 -268.229)" fill="#496052"/>
          </g>
          <g id="Group_811" data-name="Group 811" transform="translate(11.38 2.185)">
            <path id="Path_1335" data-name="Path 1335" d="M425.368,268.915l-.006-.018c0-.009-.017-.054-.1-.256a.853.853,0,0,1-.084-.31.207.207,0,0,1,.025-.1h-1.13a1.318,1.318,0,0,1,.2.35c.254.559.421.929.495,1.1.307.688.555,1.25.735,1.668.108.235.189.407.242.513q.189-.463.427-1.066l-.063-.131C425.916,270.261,425.667,269.675,425.368,268.915Z" transform="translate(-424.003 -268.228)" fill="#496052"/>
            <path id="Path_1336" data-name="Path 1336" d="M475.53,296.342h0Z" transform="translate(-473.117 -295.083)" fill="#496052"/>
            <path id="Path_1337" data-name="Path 1337" d="M470.328,268.653a.694.694,0,0,0-.627.448c-.122.245-.263.712-.42.785.129,0,.125.005.279.007a.7.7,0,0,0,.685-.424c.14-.351.307-.763.318-.777a.17.17,0,0,1,.035-.036Z" transform="translate(-467.189 -268.634)" fill="#496052"/>
            <path id="Path_1338" data-name="Path 1338" d="M456.663,365.18h0l-.016.039Z" transform="translate(-455.119 -360.839)" fill="#496052"/>
            <path id="Path_1339" data-name="Path 1339" d="M423.3,359.477a.692.692,0,0,0-.654.4l-.1.251a.171.171,0,0,1,.047-.019c.018,0,.461,0,.84.009a.7.7,0,0,0,.656-.467c.058-.143.054-.14.1-.26C424.064,359.51,423.579,359.46,423.3,359.477Z" transform="translate(-422.547 -355.312)" fill="#496052"/>
          </g>
          <circle id="Ellipse_23" data-name="Ellipse 23" cx="0.481" cy="0.481" r="0.481" transform="translate(0.323 0.381)" fill="#496052"/>
        </g>
      </g>
      <g id="Group_920" data-name="Group 920" transform="translate(128.7 91.855)">
        <path id="Path_17691" data-name="Path 17691" d="M2523.889,3715.47s5.132,5.59,12.639,4.877a13.5,13.5,0,0,0,9.075-4.877s11.4,1.369,15.091,10.689c0,0-5.617,3.8-4.108,8.94s3.018,127.422,3.018,127.422-9.851,7.038-21.672,3.044-10.438,13.041-20.247,9.509-19.2,3.043-19.2,3.043,13.582-135.03,11.318-139.309-9.054-10.271-9.054-10.271S2508.079,3714.163,2523.889,3715.47Z" transform="translate(-2498.486 -3715.386)" fill="#f4f4f4"/>
      </g>
      <g id="indyra_Logo_1-01-2" data-name="indyra Logo_1-01" transform="translate(152.133 122.079)">
        <g id="Group_812-2" data-name="Group 812" transform="translate(0 0)">
          <path id="Path_1323-2" data-name="Path 1323" d="M322.224,271.613a1.623,1.623,0,0,1-1.237-.5,1.771,1.771,0,0,1-.487-1.292,1.71,1.71,0,0,1,.493-1.286,1.778,1.778,0,0,1,1.241-.484c-.43.208-.647.824-.647,1.837a2.858,2.858,0,0,0,.241,1.292.923.923,0,0,0,.419.436Z" transform="translate(-313.69 -265.871)" fill="#496052"/>
          <path id="Path_1324-2" data-name="Path 1324" d="M224.544,271.762l-.038-3.385a3.136,3.136,0,0,1-1.038.337.253.253,0,0,1,.083.131,5.249,5.249,0,0,1,.025.886v2l-.034.145,0,.012a.282.282,0,0,1-.019.034l.427-.011c.173-.006.391-.009.647-.009a.377.377,0,0,1-.047-.129Z" transform="translate(-221.002 -266.185)" fill="#496052"/>
          <path id="Path_1325-2" data-name="Path 1325" d="M266.553,272.017h1.063a.761.761,0,0,1-.052-.354v-1.216c0-.535-.007-.955-.022-1.125a1.222,1.222,0,0,0-.112-.424c-.137-.288-.434-.428-.91-.428a1.549,1.549,0,0,0-.514.082.541.541,0,0,1,.44.2,2.569,2.569,0,0,1,.151,1.218V271.6A1.115,1.115,0,0,1,266.553,272.017Z" transform="translate(-261.635 -266.275)" fill="#496052"/>
          <path id="Path_1326-2" data-name="Path 1326" d="M168.926,272.017h1.063a.76.76,0,0,1-.052-.354v-1.216c0-.535-.007-.955-.022-1.125a1.224,1.224,0,0,0-.112-.424c-.137-.288-.434-.428-.91-.428a1.548,1.548,0,0,0-.514.082.541.541,0,0,1,.44.2,2.569,2.569,0,0,1,.151,1.218V271.6A1.117,1.117,0,0,1,168.926,272.017Z" transform="translate(-168.379 -266.275)" fill="#496052"/>
          <path id="Path_1327-2" data-name="Path 1327" d="M380.8,225.17h-1.063a.761.761,0,0,0,.052-.354v-3.475c0-.535.007-.892.022-1.062a1.222,1.222,0,0,1,.112-.424c.137-.288.434-.428.91-.428a1.548,1.548,0,0,1,.514.082.541.541,0,0,0-.44.2c-.07.1-.151.319-.151,1.154v3.886A1.116,1.116,0,0,0,380.8,225.17Z" transform="translate(-370.272 -219.428)" fill="#496052"/>
          <g id="Group_809-2" data-name="Group 809" transform="translate(19.473 2.185)">
            <path id="Path_1328-2" data-name="Path 1328" d="M604.143,306.576a1.117,1.117,0,0,1,.367-.884c-.795.2-1.2.574-1.2,1.125a.737.737,0,0,0,.2.543.719.719,0,0,0,.548.212.994.994,0,0,0,.618-.2C604.465,307.36,604.143,307.232,604.143,306.576Z" transform="translate(-603.313 -304.015)" fill="#496052"/>
            <path id="Path_1329-2" data-name="Path 1329" d="M642.138,271.24c-.005-.036-.01-.125-.01-.5V269.3a1.034,1.034,0,0,0-.255-.8,1.655,1.655,0,0,0-.919-.27.73.73,0,0,1,.222.35l.008.036a4.217,4.217,0,0,1,.068,1.066v.695a4.494,4.494,0,0,0,.026.836.709.709,0,0,0,.18.437.728.728,0,0,0,.462.113,1.506,1.506,0,0,0,.492-.076C642.3,271.644,642.176,271.53,642.138,271.24Z" transform="translate(-639.269 -268.229)" fill="#496052"/>
            <path id="Path_1330-2" data-name="Path 1330" d="M639.524,278.008l.015.039a0,0,0,0,0,0,0Z" transform="translate(-637.903 -277.57)" fill="#496052"/>
            <path id="Path_1331-2" data-name="Path 1331" d="M606.5,268.812c-.378,0-.822,0-.84-.006a.174.174,0,0,1-.046-.019l.1.252a.692.692,0,0,0,.648.415c.273.022.758-.02.885.1-.046-.12-.042-.118-.1-.261A.7.7,0,0,0,606.5,268.812Z" transform="translate(-605.51 -268.762)" fill="#496052"/>
          </g>
          <g id="Group_810-2" data-name="Group 810" transform="translate(15.65 2.185)">
            <path id="Path_1332-2" data-name="Path 1332" d="M519.081,270.155c0-.827-.037-1.621-.037-1.621a1.637,1.637,0,0,0-.014-.216,5.231,5.231,0,0,1-1.1.218.371.371,0,0,1,.061.058.762.762,0,0,1,.116.475l.009,2.376a.787.787,0,0,1-.078.42h1.125a.37.37,0,0,1-.079-.245v-1.464Z" transform="translate(-517.927 -268.314)" fill="#496052"/>
            <path id="Path_1333-2" data-name="Path 1333" d="M549.608,278.652h0l.015-.039Z" transform="translate(-548.19 -278.147)" fill="#496052"/>
            <path id="Path_1334-2" data-name="Path 1334" d="M549.047,268.249c-.018,0-.462.006-.84.006a.7.7,0,0,0-.648.478c-.055.143-.051.141-.1.261.126-.118.612-.076.885-.1a.694.694,0,0,0,.648-.415l.1-.252A.169.169,0,0,1,549.047,268.249Z" transform="translate(-546.141 -268.229)" fill="#496052"/>
          </g>
          <g id="Group_811-2" data-name="Group 811" transform="translate(11.38 2.185)">
            <path id="Path_1335-2" data-name="Path 1335" d="M425.368,268.915l-.006-.018c0-.009-.017-.054-.1-.256a.853.853,0,0,1-.084-.31.207.207,0,0,1,.025-.1h-1.13a1.318,1.318,0,0,1,.2.35c.254.559.421.929.495,1.1.307.688.555,1.25.735,1.668.108.235.189.407.242.513q.189-.463.427-1.066l-.063-.131C425.916,270.261,425.667,269.675,425.368,268.915Z" transform="translate(-424.003 -268.228)" fill="#496052"/>
            <path id="Path_1336-2" data-name="Path 1336" d="M475.53,296.342h0Z" transform="translate(-473.117 -295.083)" fill="#496052"/>
            <path id="Path_1337-2" data-name="Path 1337" d="M470.328,268.653a.694.694,0,0,0-.627.448c-.122.245-.263.712-.42.785.129,0,.125.005.279.007a.7.7,0,0,0,.685-.424c.14-.351.307-.763.318-.777a.17.17,0,0,1,.035-.036Z" transform="translate(-467.189 -268.634)" fill="#496052"/>
            <path id="Path_1338-2" data-name="Path 1338" d="M456.663,365.18h0l-.016.039Z" transform="translate(-455.119 -360.839)" fill="#496052"/>
            <path id="Path_1339-2" data-name="Path 1339" d="M423.3,359.477a.692.692,0,0,0-.654.4l-.1.251a.171.171,0,0,1,.047-.019c.018,0,.461,0,.84.009a.7.7,0,0,0,.656-.467c.058-.143.054-.14.1-.26C424.064,359.51,423.579,359.46,423.3,359.477Z" transform="translate(-422.547 -355.312)" fill="#496052"/>
          </g>
          <circle id="Ellipse_23-2" data-name="Ellipse 23" cx="0.481" cy="0.481" r="0.481" transform="translate(0.323 0.381)" fill="#496052"/>
        </g>
      </g>
    </g>
    <g id="Group_767" data-name="Group 767" transform="translate(2293.778 608.71)">
      <path id="Path_1243" data-name="Path 1243" d="M2610.866,349.444c-42.267,39.521-11,61.589-11,61.589S2636.844,401.15,2610.866,349.444Z" transform="translate(-2588.735 -349.444)" fill="#4a706b"/>
      <path id="Path_1244" data-name="Path 1244" d="M2623.719,414.13c-1.119.887-2.216,1.8-3.325,2.7s-2.2,1.821-3.284,2.743-2.249,1.763-3.243,2.788c-.5.511-.993,1.027-1.46,1.572q-.3.342-.581.7.368-1.766.721-3.535c.559-2.784,1-5.589,1.448-8.394.354-.2.693-.422,1.025-.649q.759-.521,1.47-1.095a31.562,31.562,0,0,0,2.616-2.545q1.3-1.284,2.575-2.59c.845-.879,1.7-1.745,2.535-2.635l-.082-.09c-.965.747-1.907,1.519-2.861,2.277s-1.887,1.54-2.82,2.321a31.512,31.512,0,0,0-2.779,2.366q-.64.652-1.228,1.36-.157.189-.31.382.24-1.518.489-3.034l2.018-12.336,1.958-12.346-.119-.021-2.435,12.261-1.283,6.628q-.055-.187-.115-.372a14.939,14.939,0,0,0-.533-1.416,10.23,10.23,0,0,0-.7-1.331c-.267-.426-.541-.848-.795-1.281q-.76-1.3-1.546-2.583c-.534-.852-1.053-1.711-1.6-2.556l-.107.056c.376.934.781,1.852,1.171,2.779s.807,1.839,1.224,2.751c.208.457.4.924.591,1.387a10.173,10.173,0,0,0,.687,1.337,14.755,14.755,0,0,0,.852,1.251,10.39,10.39,0,0,0,.7.846l-.925,4.777c-.664,3.464-1.4,6.915-2,10.39q-.111-.319-.229-.635c-.25-.673-.535-1.328-.826-1.98-.578-1.306-1.375-2.5-2.078-3.738s-1.412-2.478-2.132-3.711-1.443-2.462-2.185-3.682l-.108.056c.571,1.309,1.171,2.6,1.756,3.906s1.2,2.59,1.809,3.878,1.128,2.626,1.863,3.849c.366.613.738,1.223,1.145,1.815.264.389.54.773.832,1.147-.054.329-.11.657-.162.987-.325,2.058-.642,4.117-.921,6.183s-.535,4.136-.739,6.216l.119.021q.792-3.033,1.458-6.088c.131-.589.253-1.179.378-1.769.459-.277.9-.575,1.329-.883.587-.414,1.147-.857,1.7-1.306,1.114-.894,2.062-1.969,3.08-2.967s2.033-2,3.04-3.012,2.01-2.026,3-3.057Z" transform="translate(-2598.62 -371.701)" fill="#65a7ad"/>
    </g>
    <g id="Group_768" data-name="Group 768" transform="translate(2144.791 565.465)">
      <path id="Path_1245" data-name="Path 1245" d="M2126.36,706.424c58.053,15.729,60.446-23.979,60.446-23.979S2157.842,655.176,2126.36,706.424Z" transform="translate(-2126.36 -675.197)" fill="#284d43"/>
      <path id="Path_1246" data-name="Path 1246" d="M2184.055,690.072c1.4.5,2.8.974,4.2,1.461s2.812.945,4.221,1.4,2.79,1.023,4.239,1.341c.724.161,1.45.316,2.188.43q.464.076.933.133-1.763.64-3.519,1.3c-2.767,1.03-5.489,2.17-8.21,3.313-.373-.2-.752-.381-1.135-.55-.584-.257-1.174-.492-1.772-.7a32.674,32.674,0,0,0-3.681-.92q-1.844-.445-3.7-.86c-1.239-.265-2.472-.549-3.715-.8l-.035.121c1.188.444,2.385.854,3.578,1.283s2.393.825,3.594,1.222a32.759,32.759,0,0,0,3.612,1.162c.617.139,1.242.251,1.874.341.168.024.337.045.507.065q-1.472.618-2.948,1.228l-12.005,4.966-11.983,5.024.047.117,12.168-4.557,6.56-2.493q-.136.151-.267.305a15.362,15.362,0,0,0-.96,1.246,10.644,10.644,0,0,0-.794,1.345c-.23.469-.454.942-.7,1.4q-.731,1.382-1.437,2.78c-.46.938-.937,1.867-1.383,2.813l.108.064c.62-.843,1.21-1.7,1.816-2.555s1.183-1.719,1.761-2.587c.29-.434.6-.855.9-1.281a10.652,10.652,0,0,0,.805-1.339,15.467,15.467,0,0,0,.639-1.437,10.732,10.732,0,0,0,.364-1.084l4.728-1.8c3.424-1.309,6.877-2.547,10.278-3.916-.147.182-.293.365-.436.551-.458.589-.881,1.2-1.3,1.813-.838,1.226-1.455,2.582-2.167,3.882s-1.417,2.6-2.113,3.914-1.387,2.622-2.059,3.946l.108.065c.845-1.221,1.66-2.46,2.491-3.689s1.633-2.475,2.437-3.721,1.7-2.434,2.383-3.753c.342-.658.677-1.321.977-2,.2-.446.388-.9.559-1.364.321-.131.641-.262.961-.4,2-.839,3.99-1.685,5.969-2.568s3.948-1.791,5.9-2.748l-.046-.117q-3.114.96-6.178,2.042c-.592.206-1.18.421-1.771.633-.5-.254-1-.48-1.507-.691-.687-.292-1.385-.544-2.085-.79-1.4-.495-2.868-.745-4.308-1.1s-2.88-.7-4.324-1.039-2.89-.668-4.342-.978Z" transform="translate(-2148.181 -684.682)" fill="#52999a"/>
    </g>
    <g id="Group_769" data-name="Group 769" transform="translate(2077.613 504.97)">
      <path id="Path_1247" data-name="Path 1247" d="M2330.841,525.913c-24.66,43.973,7.129,54.04,7.129,54.04S2366.061,561.986,2330.841,525.913Z" transform="translate(-2321.466 -525.913)" fill="#496052"/>
      <path id="Path_1248" data-name="Path 1248" d="M2352.479,579.892c-.695,1.032-1.364,2.079-2.048,3.118s-1.342,2.092-2,3.145-1.4,2.058-1.957,3.171c-.279.556-.553,1.114-.8,1.69q-.157.362-.3.731-.16-1.564-.334-3.126c-.271-2.46-.641-4.906-1.014-7.352.24-.262.464-.533.679-.81.329-.422.64-.854.931-1.3a27.429,27.429,0,0,0,1.5-2.8q.739-1.409,1.455-2.83c.469-.953.951-1.9,1.409-2.857l-.091-.053c-.6.875-1.182,1.764-1.774,2.645s-1.16,1.777-1.729,2.672a27.427,27.427,0,0,0-1.683,2.7c-.239.473-.458.959-.661,1.454q-.081.2-.157.4-.2-1.323-.4-2.648l-1.581-10.775L2340.3,556.3l-.1.014,1.215,10.823.685,5.842q-.1-.141-.194-.279a13.013,13.013,0,0,0-.817-1.035,8.916,8.916,0,0,0-.931-.921c-.334-.283-.673-.561-1-.854q-.973-.878-1.966-1.737c-.668-.566-1.326-1.143-2-1.7l-.074.075c.559.676,1.137,1.332,1.706,2s1.156,1.314,1.743,1.961c.293.324.573.662.857,1a8.887,8.887,0,0,0,.923.929,13,13,0,0,0,1.038.814,9.051,9.051,0,0,0,.806.518l.494,4.211c.363,3.051.663,6.111,1.081,9.155-.118-.157-.237-.313-.358-.466-.385-.493-.794-.962-1.208-1.426-.824-.931-1.8-1.711-2.712-2.555s-1.827-1.685-2.75-2.518-1.848-1.664-2.787-2.481l-.074.075c.819.936,1.659,1.852,2.489,2.779s1.678,1.834,2.526,2.742,1.63,1.883,2.563,2.7c.466.412.935.821,1.429,1.2.322.254.652.5.994.733.041.287.082.575.126.862.274,1.795.554,3.588.867,5.377s.648,3.576,1.027,5.356l.1-.014q-.143-2.727-.4-5.439c-.047-.524-.1-1.046-.153-1.569.308-.351.594-.714.87-1.084.378-.5.726-1.015,1.069-1.534.688-1.036,1.192-2.179,1.774-3.277s1.16-2.2,1.729-3.3,1.134-2.213,1.683-3.33Z" transform="translate(-2329.439 -545.446)" fill="#52999a"/>
    </g>
    <g id="Group_770" data-name="Group 770" transform="matrix(0.07, 0.998, -0.998, 0.07, 2280.526, 615.38)">
      <path id="Path_1249" data-name="Path 1249" d="M24.222,0C-22.253,43.947,12.448,68.146,12.448,68.146S53.257,56.993,24.222,0Z" transform="translate(0 0)" fill="#284d43"/>
      <path id="Path_1250" data-name="Path 1250" d="M21.727,33.2c-1.231.988-2.438,2-3.658,3s-2.416,2.027-3.613,3.053-2.475,1.963-3.568,3.1c-.548.568-1.091,1.141-1.6,1.746q-.326.379-.638.772.4-1.954.775-3.912c.6-3.081,1.076-6.184,1.548-9.287.389-.228.764-.471,1.129-.724q.836-.58,1.618-1.22a34.812,34.812,0,0,0,2.876-2.829q1.427-1.427,2.831-2.878c.928-.977,1.869-1.939,2.786-2.928l-.09-.1c-1.061.832-2.1,1.69-3.148,2.534s-2.076,1.714-3.1,2.583a34.878,34.878,0,0,0-3.057,2.633q-.7.725-1.349,1.511-.173.209-.341.424.256-1.679.521-3.357L13.8,13.682,15.884.023,15.753,0,13.137,13.568,11.76,20.9q-.062-.207-.129-.411a16.408,16.408,0,0,0-.6-1.562,11.3,11.3,0,0,0-.78-1.467c-.3-.469-.6-.934-.886-1.411q-.848-1.431-1.725-2.846c-.6-.938-1.174-1.885-1.785-2.816l-.118.063c.421,1.03.875,2.042,1.311,3.065s.9,2.027,1.371,3.033c.233.5.444,1.018.662,1.529a11.25,11.25,0,0,0,.768,1.473,16.385,16.385,0,0,0,.95,1.377,11.461,11.461,0,0,0,.781.931l-.992,5.286c-.712,3.833-1.5,7.653-2.148,11.5-.083-.235-.169-.469-.258-.7-.281-.742-.6-1.465-.925-2.183-.648-1.44-1.535-2.752-2.32-4.119S3.36,28.911,2.557,27.554.947,24.841.119,23.5L0,23.559C.639,25,1.311,26.43,1.965,27.865s1.34,2.855,2.024,4.275,1.263,2.9,2.083,4.244c.408.675.823,1.347,1.277,2,.294.429.6.851.927,1.263-.058.364-.118.728-.172,1.092-.346,2.277-.685,4.555-.981,6.841s-.565,4.576-.779,6.875l.132.023q.856-3.357,1.574-6.738c.141-.651.273-1.3.408-1.957.506-.309.99-.641,1.464-.984.646-.462,1.262-.955,1.873-1.454,1.225-.995,2.267-2.189,3.387-3.3s2.235-2.224,3.341-3.348,2.209-2.252,3.3-3.4Z" transform="translate(6.037 13.681)" fill="#65a7ad"/>
    </g>
    <g id="Group_771" data-name="Group 771" transform="translate(2251.178 574.156)">
      <path id="Path_1251" data-name="Path 1251" d="M2121.589,352.134c-52.992,35.821-22.679,65.331-22.679,65.331S2140.989,413.084,2121.589,352.134Z" transform="translate(-2090.28 -352.134)" fill="#284d43"/>
      <path id="Path_1252" data-name="Path 1252" d="M2130.656,422.558c-1.375.775-2.731,1.581-4.1,2.37s-2.713,1.608-4.061,2.426-2.761,1.535-4.024,2.482c-.633.471-1.262.949-1.866,1.462q-.383.322-.755.659.709-1.864,1.4-3.735c1.092-2.943,2.065-5.927,3.035-8.913.421-.161.829-.341,1.231-.531q.919-.437,1.794-.941a34.8,34.8,0,0,0,3.3-2.325q1.64-1.176,3.261-2.381c1.074-.813,2.158-1.61,3.224-2.437l-.073-.112c-1.182.649-2.344,1.327-3.518,1.99s-2.327,1.354-3.481,2.045a34.8,34.8,0,0,0-3.445,2.1q-.812.6-1.576,1.272-.2.178-.405.363.525-1.615,1.059-3.227L2126,402.011l4.278-13.139-.126-.044-4.783,12.964-2.549,7.013q-.027-.214-.061-.426a16.29,16.29,0,0,0-.337-1.639,11.281,11.281,0,0,0-.531-1.574c-.218-.511-.443-1.02-.646-1.536q-.6-1.55-1.24-3.088c-.436-1.022-.853-2.051-1.3-3.068l-.127.043c.249,1.084.532,2.157.8,3.237s.563,2.147.86,3.216c.148.534.272,1.077.4,1.616a11.268,11.268,0,0,0,.519,1.579,16.313,16.313,0,0,0,.713,1.513,11.417,11.417,0,0,0,.62,1.046l-1.837,5.055c-1.325,3.667-2.727,7.307-3.986,11-.044-.245-.091-.49-.141-.733-.156-.778-.354-1.542-.559-2.3-.405-1.526-1.068-2.965-1.621-4.441s-1.112-2.95-1.684-4.42-1.148-2.938-1.747-4.4l-.127.042c.4,1.529.828,3.045,1.24,4.568s.858,3.035,1.3,4.547.776,3.062,1.367,4.526c.293.733.594,1.463.936,2.179.221.471.455.937.709,1.4-.116.35-.234.7-.348,1.05-.711,2.191-1.415,4.383-2.078,6.591s-1.3,4.423-1.884,6.658l.126.044q1.39-3.174,2.647-6.393c.245-.62.481-1.244.72-1.866.549-.222,1.081-.472,1.6-.733.712-.351,1.4-.737,2.084-1.131,1.37-.782,2.592-1.792,3.877-2.705s2.566-1.832,3.84-2.761,2.545-1.864,3.8-2.817Z" transform="translate(-2103.46 -375.724)" fill="#52999a"/>
    </g>
    <g id="Group_772" data-name="Group 772" transform="translate(2303.322 633.966)">
      <path id="Path_1253" data-name="Path 1253" d="M2838.543,573.112c-63.924,2.221-53.9,43.322-53.9,43.322S2822.622,635.062,2838.543,573.112Z" transform="translate(-2784.068 -573.112)" fill="#496052"/>
      <path id="Path_1254" data-name="Path 1254" d="M2811.143,626.192c-1.577-.074-3.154-.11-4.73-.167s-3.153-.078-4.729-.1-3.155-.165-4.728-.033c-.786.063-1.573.134-2.358.249q-.5.069-.99.157,1.59-1.2,3.169-2.421c2.489-1.914,4.9-3.926,7.3-5.942.442.087.884.152,1.325.2.674.079,1.347.132,2.02.155a34.735,34.735,0,0,0,4.029-.219q2.014-.126,4.027-.286c1.342-.119,2.685-.218,4.026-.353l0-.134c-1.346-.078-2.691-.12-4.037-.182s-2.691-.088-4.036-.115a34.8,34.8,0,0,0-4.034-.048c-.671.052-1.342.134-2.011.241q-.268.043-.536.093,1.3-1.09,2.611-2.173l10.643-8.811,10.6-8.863-.084-.1-10.936,8.446-5.884,4.59q.091-.2.175-.394a16.416,16.416,0,0,0,.584-1.568,11.292,11.292,0,0,0,.385-1.616c.087-.549.166-1.1.268-1.645q.311-1.634.589-3.276c.174-1.1.366-2.19.524-3.292l-.13-.031c-.365,1.051-.695,2.111-1.043,3.166s-.663,2.119-.979,3.181c-.158.532-.341,1.057-.515,1.585a11.345,11.345,0,0,0-.4,1.613,16.483,16.483,0,0,0-.2,1.661,11.409,11.409,0,0,0-.03,1.215l-4.241,3.308c-3.07,2.4-6.19,4.744-9.216,7.2q.139-.347.27-.7c.281-.742.52-1.495.75-2.249.467-1.508.669-3.08.985-4.624s.624-3.091.92-4.64.587-3.1.855-4.656l-.13-.031c-.475,1.506-.916,3.02-1.375,4.529s-.884,3.027-1.31,4.545-.968,3.007-1.244,4.561c-.141.776-.274,1.555-.365,2.343-.063.516-.112,1.036-.14,1.561-.285.234-.57.468-.852.7-1.766,1.479-3.526,2.963-5.26,4.482s-3.45,3.057-5.132,4.642l.084.1q2.863-1.952,5.637-4.013c.537-.4,1.068-.8,1.6-1.2.583.1,1.167.174,1.749.23.79.081,1.578.119,2.367.148,1.577.065,3.148-.143,4.722-.234s3.147-.19,4.72-.3,3.146-.227,4.719-.368Z" transform="translate(-2785.02 -588.687)" fill="#284d43"/>
    </g>
    <g id="Group_773" data-name="Group 773" transform="translate(2127.058 461.204)">
      <path id="Path_1255" data-name="Path 1255" d="M2052.158,518.2c19.816,57.432,54.35,36.888,54.35,36.888S2112.848,515.413,2052.158,518.2Z" transform="translate(-2052.158 -518.064)" fill="#424f4f"/>
      <path id="Path_1256" data-name="Path 1256" d="M2128,556.859c.372,1.453.778,2.894,1.166,4.342s.807,2.885,1.226,4.322.729,2.911,1.286,4.3c.276.7.56,1.391.883,2.072q.2.431.418.855-1.536-1.109-3.081-2.2c-2.431-1.726-4.929-3.354-7.429-4.978-.045-.426-.108-.845-.184-1.26-.117-.634-.256-1.26-.422-1.878a33.033,33.033,0,0,0-1.321-3.6q-.675-1.794-1.381-3.577c-.481-1.186-.946-2.377-1.442-3.558l-.121.04c.3,1.244.64,2.478.959,3.717s.67,2.468,1.02,3.7a33.05,33.05,0,0,0,1.08,3.677c.234.595.5,1.181.779,1.76q.114.232.233.461-1.353-.879-2.7-1.766L2108,556.074l-11-7.159-.072.105,10.715,7.579,5.806,4.065c-.136-.018-.271-.035-.406-.049a15.63,15.63,0,0,0-1.587-.095,10.787,10.787,0,0,0-1.574.1c-.522.074-1.044.156-1.568.214q-1.57.173-3.138.378c-1.045.148-2.091.277-3.135.441l.008.127c1.055.039,2.11.043,3.165.066s2.108.012,3.162,0c.527,0,1.055.015,1.582.027a10.734,10.734,0,0,0,1.575-.087,15.59,15.59,0,0,0,1.564-.282,10.9,10.9,0,0,0,1.112-.311l4.185,2.93c3.038,2.118,6.032,4.3,9.106,6.364-.236-.02-.471-.038-.707-.051-.752-.048-1.5-.055-2.251-.055-1.5,0-2.983.25-4.473.393s-2.98.294-4.469.457-2.978.33-4.465.52l.007.127c1.5.012,3-.009,4.5-.013s3-.04,4.492-.076,3,.042,4.488-.14c.744-.088,1.488-.184,2.229-.321.486-.087.972-.187,1.456-.307.292.193.583.387.877.577,1.834,1.192,3.673,2.377,5.534,3.529s3.738,2.282,5.644,3.367l.071-.105q-2.569-2.057-5.214-4c-.508-.378-1.022-.747-1.534-1.12-.069-.559-.167-1.108-.278-1.652-.146-.739-.332-1.466-.524-2.191-.381-1.45-1.006-2.819-1.528-4.222s-1.049-2.805-1.588-4.2-1.083-2.794-1.648-4.183Z" transform="translate(-2086.047 -541.415)" fill="#65a7ad"/>
    </g>
    <g id="Group_774" data-name="Group 774" transform="translate(2066.527 576.847)">
      <path id="Path_1257" data-name="Path 1257" d="M2361.689,574.232c-34.3,82.4,23.674,93.548,23.674,93.548S2431.051,630.4,2361.689,574.232Z" transform="translate(-2350.839 -574.232)" fill="#46513c"/>
      <path id="Path_1258" data-name="Path 1258" d="M2408.447,665.774c-1.009,1.959-1.971,3.937-2.958,5.905q-1.458,2.962-2.872,5.942c-.946,1.986-2.041,3.907-2.787,5.979-.376,1.035-.743,2.073-1.053,3.136q-.2.669-.375,1.347-.6-2.717-1.232-5.427c-.984-4.268-2.139-8.493-3.3-12.717.367-.511.706-1.033,1.027-1.564.491-.81.95-1.633,1.371-2.473a48.567,48.567,0,0,0,2.061-5.239q1.009-2.629,1.975-5.276c.629-1.772,1.282-3.532,1.889-5.313l-.171-.074c-.881,1.663-1.715,3.345-2.575,5.017q-1.265,2.518-2.489,5.054a48.513,48.513,0,0,0-2.4,5.091c-.323.882-.609,1.78-.862,2.692q-.1.365-.193.734-.627-2.285-1.241-4.574l-5-18.619-5.091-18.6-.181.046,4.368,18.78,2.408,10.13q-.2-.229-.4-.45a22.76,22.76,0,0,0-1.65-1.652,15.8,15.8,0,0,0-1.826-1.427c-.646-.429-1.3-.848-1.931-1.3q-1.893-1.343-3.815-2.649c-1.292-.858-2.567-1.736-3.873-2.576l-.115.147c1.122,1.073,2.275,2.107,3.411,3.162s2.3,2.071,3.469,3.088c.582.51,1.143,1.046,1.711,1.574a15.792,15.792,0,0,0,1.815,1.442,22.951,22.951,0,0,0,1.992,1.217,16.138,16.138,0,0,0,1.525.744l1.736,7.3c1.268,5.29,2.426,10.608,3.788,15.875q-.359-.378-.726-.746c-.779-.787-1.6-1.527-2.418-2.257-1.643-1.468-3.519-2.637-5.3-3.934s-3.559-2.586-5.354-3.861-3.592-2.544-5.411-3.787l-.115.147c1.634,1.477,3.3,2.915,4.949,4.373s3.328,2.879,5.007,4.3,3.253,2.974,5.064,4.227c.9.629,1.813,1.25,2.761,1.822.619.38,1.25.744,1.9,1.084.132.5.263.994.4,1.49.851,3.1,1.713,6.195,2.633,9.276s1.876,6.153,2.91,9.206l.181-.046q-.814-4.766-1.819-9.482c-.19-.911-.393-1.818-.591-2.727.47-.681.9-1.379,1.307-2.085.561-.955,1.067-1.934,1.562-2.917,1-1.964,1.647-4.077,2.444-6.127s1.587-4.1,2.358-6.164,1.538-4.125,2.273-6.2Z" transform="translate(-2366.469 -608.026)" fill="#65a7ad"/>
    </g>
    <g id="Group_775" data-name="Group 775" transform="translate(2230.692 581.41)">
      <path id="Path_1259" data-name="Path 1259" d="M2683.32,803.9c-22.2-53.048-53.578-31.546-53.578-31.546S2626.162,810.215,2683.32,803.9Z" transform="translate(-2629.698 -768.039)" fill="#2e5546"/>
      <path id="Path_1260" data-name="Path 1260" d="M2642.789,799.65c-.44-1.35-.911-2.687-1.365-4.031s-.937-2.676-1.42-4.008-.865-2.705-1.476-3.986c-.3-.641-.613-1.28-.959-1.9q-.216-.394-.447-.782,1.518.955,3.044,1.895c2.4,1.484,4.859,2.869,7.32,4.252.068.4.154.791.251,1.179q.223.888.512,1.748a31.242,31.242,0,0,0,1.466,3.318q.747,1.654,1.522,3.3c.527,1.091,1.037,2.188,1.578,3.273l.111-.045c-.362-1.157-.755-2.3-1.131-3.453s-.782-2.291-1.187-3.43a31.276,31.276,0,0,0-1.243-3.408c-.257-.548-.54-1.086-.843-1.615q-.122-.211-.249-.421,1.331.748,2.658,1.5l10.794,6.147,10.825,6.095.061-.1-10.581-6.509-5.732-3.488q.194.014.387.022a14.746,14.746,0,0,0,1.5-.007,10.191,10.191,0,0,0,1.481-.19c.489-.1.977-.21,1.468-.3q1.473-.259,2.942-.547c.978-.2,1.958-.389,2.935-.607l-.015-.119c-1,.027-2,.087-2.994.129s-1.992.116-2.987.189c-.5.036-1,.05-1.5.071a10.1,10.1,0,0,0-1.483.178,14.8,14.8,0,0,0-1.46.361,10.293,10.293,0,0,0-1.031.362l-4.131-2.514c-3-1.816-5.958-3.7-8.988-5.458.224,0,.448.007.671.005.713,0,1.422-.039,2.13-.085,1.416-.087,2.8-.417,4.2-.643s2.8-.458,4.194-.7,2.793-.492,4.187-.762l-.015-.119c-1.417.079-2.83.191-4.246.285s-2.827.22-4.238.345-2.837.143-4.231.4c-.7.129-1.395.264-2.086.439-.454.111-.907.235-1.357.378-.288-.165-.575-.33-.864-.492-1.805-1.014-3.614-2.022-5.442-3s-3.669-1.929-5.535-2.838l-.061.1q2.552,1.786,5.167,3.464c.5.326,1.011.644,1.517.965.1.523.225,1.036.363,1.544.183.69.4,1.365.628,2.037.447,1.347,1.121,2.6,1.7,3.9s1.16,2.586,1.754,3.874,1.193,2.574,1.811,3.851Z" transform="translate(-2629.723 -775.704)" fill="#65a7ad"/>
    </g>
    <g id="Group_776" data-name="Group 776" transform="matrix(-0.788, -0.616, 0.616, -0.788, 2332.493, 703.025)">
      <path id="Path_1261" data-name="Path 1261" d="M51.26,51.463C42.109-13.192,1.464,1.415,1.464,1.415S-13.348,41.986,51.26,51.463Z" transform="translate(0 0)" fill="#4a706b"/>
      <path id="Path_1262" data-name="Path 1262" d="M8.711,25.361c-.1-1.609-.228-3.213-.341-4.82s-.261-3.21-.408-4.812-.173-3.221-.476-4.8c-.149-.792-.306-1.582-.507-2.367q-.124-.5-.266-.988,1.393,1.484,2.8,2.956c2.211,2.32,4.514,4.548,6.82,6.774-.041.458-.059.914-.064,1.367-.007.693.011,1.382.06,2.068a35.622,35.622,0,0,0,.657,4.066q.346,2.031.725,4.058c.265,1.35.511,2.7.793,4.049l.135-.017c-.066-1.375-.168-2.745-.251-4.118s-.2-2.741-.319-4.11a35.6,35.6,0,0,0-.387-4.1c-.125-.676-.281-1.348-.462-2.016q-.073-.267-.152-.534,1.247,1.2,2.487,2.416L29.65,30.283l10.141,9.806.1-.1L30.134,29.8l-5.294-5.478q.209.071.419.135a16.7,16.7,0,0,0,1.655.425,11.582,11.582,0,0,0,1.682.217c.567.029,1.134.049,1.7.095q1.693.139,3.389.244c1.133.058,2.263.136,3.4.176l.018-.135c-1.106-.257-2.217-.477-3.326-.718s-2.222-.445-3.335-.65c-.557-.1-1.11-.232-1.664-.352a11.527,11.527,0,0,0-1.68-.231,16.788,16.788,0,0,0-1.708-.023,11.672,11.672,0,0,0-1.237.1l-3.816-3.948c-2.772-2.857-5.484-5.772-8.306-8.579.245.069.49.136.735.2.784.2,1.574.366,2.364.519,1.581.311,3.2.347,4.8.5s3.2.3,4.81.433,3.21.261,4.818.365l.018-.136c-1.58-.32-3.165-.6-4.747-.906s-3.169-.571-4.756-.839-3.157-.659-4.764-.771c-.8-.059-1.608-.11-2.418-.117-.531-.008-1.064,0-1.6.026-.269-.264-.536-.527-.808-.788C8.789,7.932,7.091,6.3,5.362,4.709S1.886,1.536.1,0L0,.1q2.29,2.7,4.682,5.29c.459.5.926,1,1.39,1.5-.042.6-.051,1.2-.045,1.8,0,.81.05,1.615.1,2.418.1,1.608.484,3.181.747,4.768s.532,3.174.815,4.759.571,3.17.883,4.751Z" transform="translate(1.416 1.367)" fill="#52999a"/>
    </g>
    <g id="Group_777" data-name="Group 777" transform="translate(2231.593 588.451)">
      <path id="Path_1263" data-name="Path 1263" d="M2421.094,372.326c-57.69,30.593-30.132,63.848-30.132,63.848S2434.152,436.307,2421.094,372.326Z" transform="translate(-2384.383 -372.326)" fill="#46513c"/>
      <path id="Path_1264" data-name="Path 1264" d="M2423.552,442.46c-1.481.637-2.944,1.307-4.417,1.96s-2.929,1.337-4.386,2.02-2.97,1.258-4.355,2.081c-.694.409-1.384.826-2.053,1.282q-.424.285-.838.586.922-1.815,1.828-3.638c1.429-2.868,2.741-5.792,4.051-8.717.445-.117.879-.255,1.307-.4.654-.229,1.3-.481,1.924-.76a35.591,35.591,0,0,0,3.6-2q1.792-1.016,3.569-2.062c1.179-.709,2.366-1.4,3.538-2.123l-.062-.121c-1.271.53-2.525,1.092-3.787,1.637s-2.51,1.121-3.756,1.7a35.513,35.513,0,0,0-3.725,1.758c-.593.348-1.172.723-1.739,1.12q-.227.159-.451.324.709-1.582,1.427-3.161l5.834-12.842,5.772-12.872-.124-.058-6.266,12.638-3.351,6.842q0-.221-.015-.44a16.622,16.622,0,0,0-.163-1.7,11.564,11.564,0,0,0-.368-1.655c-.166-.543-.339-1.084-.488-1.63q-.445-1.639-.923-3.27c-.331-1.085-.642-2.175-.99-3.256l-.133.029c.134,1.128.3,2.248.456,3.372s.337,2.241.523,3.358c.092.559.159,1.122.235,1.685a11.536,11.536,0,0,0,.355,1.658,16.69,16.69,0,0,0,.559,1.614,11.871,11.871,0,0,0,.516,1.129l-2.415,4.931c-1.744,3.578-3.563,7.12-5.243,10.728-.018-.254-.039-.507-.063-.759-.074-.807-.191-1.6-.316-2.4-.245-1.593-.761-3.126-1.162-4.685s-.807-3.116-1.228-4.67-.846-3.107-1.295-4.656l-.134.029c.236,1.595.509,3.181.761,4.772s.541,3.174.828,4.757.455,3.193.9,4.743c.218.775.443,1.549.712,2.313.173.5.36,1,.569,1.5-.156.342-.314.684-.467,1.028-.961,2.146-1.913,4.3-2.826,6.464s-1.8,4.348-2.637,6.553l.124.059q1.756-3.071,3.382-6.2c.316-.6.623-1.21.934-1.815.582-.166,1.148-.361,1.708-.57.761-.278,1.5-.6,2.239-.921,1.477-.645,2.826-1.537,4.23-2.324s2.8-1.58,4.2-2.385,2.787-1.615,4.168-2.446Z" transform="translate(-2396.115 -395.366)" fill="#52999a"/>
    </g>
    <g id="Group_778" data-name="Group 778" transform="translate(2133.513 518.093)">
      <path id="Path_1265" data-name="Path 1265" d="M2281.667,807.04c65.3-.2,56.4-42.468,56.4-42.468S2299.909,744.34,2281.667,807.04Z" transform="translate(-2281.667 -761.459)" fill="#2e5546"/>
      <path id="Path_1266" data-name="Path 1266" d="M2332.132,775.189c1.607.126,3.214.214,4.821.323s3.215.181,4.822.255,3.214.27,4.823.186c.8-.039,1.609-.086,2.414-.178q.508-.054,1.015-.129-1.662,1.177-3.312,2.368c-2.6,1.873-5.124,3.849-7.645,5.827-.448-.1-.9-.184-1.346-.25-.685-.1-1.371-.178-2.056-.224a35.47,35.47,0,0,0-4.118.094q-2.059.064-4.119.162c-1.373.078-2.746.136-4.119.231v.137c1.371.123,2.742.209,4.114.315s2.743.176,4.115.248a35.581,35.581,0,0,0,4.115.179c.686-.031,1.373-.094,2.06-.181q.275-.035.55-.078-1.364,1.07-2.734,2.133l-11.144,8.647-11.1,8.7.082.109L2324.8,795.8l6.152-4.494q-.1.2-.191.4a16.967,16.967,0,0,0-.647,1.581,11.553,11.553,0,0,0-.445,1.636c-.106.557-.2,1.117-.327,1.67q-.37,1.657-.707,3.323c-.213,1.115-.444,2.223-.64,3.343l.132.036c.406-1.061.777-2.131,1.167-3.2s.745-2.14,1.1-3.215c.179-.537.382-1.068.577-1.6a11.554,11.554,0,0,0,.458-1.633,16.816,16.816,0,0,0,.256-1.689,11.8,11.8,0,0,0,.07-1.239l4.434-3.239c3.209-2.354,6.469-4.641,9.636-7.052q-.153.35-.3.7c-.31.748-.578,1.509-.837,2.271-.525,1.523-.782,3.121-1.154,4.687s-.736,3.133-1.088,4.7-.7,3.144-1.023,4.723l.132.036c.533-1.521,1.032-3.052,1.548-4.577s1-3.061,1.483-4.6,1.085-3.037,1.417-4.614c.168-.787.329-1.577.447-2.379.081-.525.148-1.054.193-1.588.3-.23.6-.459.892-.692,1.849-1.452,3.694-2.91,5.511-4.4s3.62-3.008,5.386-4.57l-.082-.109q-2.985,1.9-5.881,3.913c-.561.386-1.115.78-1.672,1.171-.592-.124-1.185-.215-1.777-.291-.8-.108-1.606-.172-2.41-.227-1.607-.117-3.217.044-4.826.087s-3.217.092-4.826.155-3.218.131-4.827.223Z" transform="translate(-2301.993 -766.964)" fill="#62a2a7"/>
    </g>
    <g id="Group_779" data-name="Group 779" transform="translate(2312.152 467.777)">
      <path id="Path_1267" data-name="Path 1267" d="M2703.61,298.631c13.135,63.965,52.8,46.871,52.8,46.871S2768.682,304.093,2703.61,298.631Z" transform="translate(-2703.61 -298.631)" fill="#4a706b"/>
      <path id="Path_1268" data-name="Path 1268" d="M2765.21,337.635c.2,1.6.427,3.193.638,4.79s.459,3.187.706,4.777.372,3.2.772,4.764c.2.781.4,1.56.652,2.331q.154.487.328.97-1.483-1.4-2.978-2.777c-2.351-2.178-4.787-4.26-7.225-6.339.012-.46,0-.916-.021-1.369-.036-.692-.1-1.379-.188-2.06a35.609,35.609,0,0,0-.908-4.018q-.471-2.005-.975-4c-.349-1.331-.677-2.665-1.042-3.992l-.135.026c.151,1.368.338,2.73.506,4.095s.37,2.723.573,4.082a35.424,35.424,0,0,0,.639,4.069c.167.667.364,1.328.586,1.984q.089.262.185.524-1.319-1.125-2.632-2.258l-10.684-9.21-10.729-9.159-.091.1,10.366,9.567,5.623,5.14c-.142-.039-.284-.075-.427-.109a16.682,16.682,0,0,0-1.677-.321,11.612,11.612,0,0,0-1.692-.112c-.568.006-1.135.021-1.7.01q-1.7-.034-3.4-.034c-1.135.012-2.267,0-3.4.034l-.009.136c1.12.188,2.243.339,3.364.511s2.245.306,3.369.443c.562.069,1.122.162,1.683.248a11.5,11.5,0,0,0,1.691.126,16.8,16.8,0,0,0,1.706-.083,11.688,11.688,0,0,0,1.229-.177l4.053,3.7c2.943,2.68,5.831,5.422,8.821,8.048q-.373-.081-.746-.153c-.795-.156-1.594-.268-2.392-.371-1.6-.213-3.214-.149-4.823-.2s-3.217-.1-4.827-.135-3.22-.062-4.832-.066l-.01.136c1.6.222,3.2.407,4.793.611s3.2.373,4.8.543,3.192.462,4.8.475c.805.009,1.612.01,2.421-.033.53-.025,1.062-.064,1.595-.125.284.246.568.494.854.737,1.79,1.525,3.584,3.044,5.408,4.531s3.666,2.952,5.547,4.374l.091-.1q-2.453-2.549-5-4.99c-.489-.473-.985-.939-1.479-1.407,0-.6-.024-1.2-.066-1.8-.054-.809-.15-1.609-.255-2.407-.2-1.6-.681-3.145-1.041-4.713s-.728-3.135-1.108-4.7-.766-3.128-1.175-4.687Z" transform="translate(-2722.625 -315.492)" fill="#52999a"/>
    </g>
    <g id="Group_780" data-name="Group 780" transform="translate(2091.172 412.095)">
      <path id="Path_1269" data-name="Path 1269" d="M2183,395.462c10.141,49.385,40.763,36.188,40.763,36.188S2233.238,399.679,2183,395.462Z" transform="translate(-2182.999 -395.462)" fill="#2e5546"/>
      <path id="Path_1270" data-name="Path 1270" d="M2230.558,425.576c.151,1.235.329,2.465.493,3.7s.354,2.461.545,3.688.287,2.473.6,3.678c.153.6.312,1.2.5,1.8q.119.376.252.749-1.145-1.078-2.3-2.144c-1.815-1.682-3.7-3.289-5.579-4.894.009-.355,0-.707-.017-1.057-.028-.534-.075-1.064-.145-1.59a27.4,27.4,0,0,0-.7-3.1q-.363-1.548-.752-3.092c-.269-1.027-.523-2.057-.8-3.082l-.1.02c.116,1.056.261,2.107.39,3.161s.286,2.1.442,3.151a27.489,27.489,0,0,0,.494,3.142c.129.515.281,1.025.452,1.532.046.135.094.27.143.4q-1.018-.868-2.032-1.743l-8.248-7.111-8.283-7.072-.07.079,8,7.387,4.341,3.968q-.164-.044-.329-.084a12.937,12.937,0,0,0-1.3-.248,8.932,8.932,0,0,0-1.306-.086c-.438,0-.876.016-1.313.008q-1.311-.026-2.624-.026c-.876.01-1.75,0-2.627.027l-.007.105c.865.145,1.732.262,2.6.394s1.733.237,2.6.342c.434.053.867.125,1.3.192a8.875,8.875,0,0,0,1.306.1,12.946,12.946,0,0,0,1.317-.064,9.127,9.127,0,0,0,.949-.137l3.129,2.86c2.272,2.069,4.5,4.186,6.81,6.214-.192-.041-.384-.081-.576-.118-.614-.12-1.23-.207-1.847-.287-1.233-.164-2.481-.115-3.723-.156s-2.484-.078-3.727-.1-2.487-.048-3.731-.051l-.007.105c1.233.171,2.467.314,3.7.472s2.469.288,3.7.42,2.464.356,3.708.367c.622.007,1.244.008,1.869-.025.41-.019.82-.049,1.231-.1.22.19.438.381.66.569,1.381,1.178,2.767,2.35,4.176,3.5s2.83,2.279,4.283,3.377l.07-.079q-1.894-1.968-3.861-3.853c-.378-.365-.761-.725-1.142-1.086,0-.467-.018-.929-.051-1.389-.041-.624-.116-1.242-.2-1.859-.158-1.234-.525-2.428-.8-3.638s-.562-2.421-.855-3.629-.591-2.415-.907-3.619Z" transform="translate(-2197.679 -408.48)" fill="#5e9da2"/>
    </g>
    <g id="Group_781" data-name="Group 781" transform="translate(2187.181 555.961)">
      <path id="Path_1271" data-name="Path 1271" d="M2579.711,329.926c-48.1,15.111-31.855,44.232-31.855,44.232S2580.625,380.333,2579.711,329.926Z" transform="translate(-2545.217 -329.926)" fill="#468984"/>
      <path id="Path_1272" data-name="Path 1272" d="M2570.723,380.315c-1.213.276-2.419.579-3.629.867s-2.412.6-3.614.917-2.431.537-3.6.967c-.584.213-1.166.432-1.739.684q-.361.156-.719.327.956-1.248,1.9-2.5c1.489-1.977,2.9-4.011,4.3-6.048.354-.027.7-.07,1.05-.124q.793-.123,1.568-.306a27.433,27.433,0,0,0,3.015-1.013q1.5-.519,3-1.063c1-.372,1.994-.729,2.985-1.114l-.03-.1c-1.039.223-2.07.474-3.105.71s-2.063.5-3.09.76a27.44,27.44,0,0,0-3.075.811c-.5.181-.991.384-1.478.606q-.194.089-.387.183.761-1.1,1.528-2.2l6.235-8.929,6.193-8.959-.086-.062-6.534,8.713-3.506,4.723q.028-.168.05-.336a12.939,12.939,0,0,0,.115-1.314,8.909,8.909,0,0,0-.046-1.309c-.05-.435-.105-.87-.142-1.306q-.107-1.307-.241-2.612c-.1-.871-.182-1.741-.293-2.611l-.105,0c-.057.875-.085,1.749-.128,2.624s-.059,1.749-.075,2.622c-.009.437-.037.875-.059,1.312a8.938,8.938,0,0,0,.036,1.309,12.935,12.935,0,0,0,.2,1.3,9.166,9.166,0,0,0,.233.93l-2.527,3.4c-1.827,2.471-3.707,4.9-5.489,7.407q.033-.293.059-.585c.058-.623.081-1.245.1-1.866.038-1.244-.138-2.48-.223-3.72s-.175-2.479-.276-3.718-.2-2.478-.328-3.716l-.105,0c-.045,1.244-.062,2.486-.094,3.73s-.036,2.485-.04,3.728-.1,2.488.012,3.726c.056.619.119,1.239.215,1.857.061.405.132.811.221,1.215-.167.238-.334.475-.5.715-1.031,1.494-2.056,2.992-3.055,4.509s-1.979,3.047-2.924,4.6l.086.062q1.765-2.084,3.44-4.232c.325-.413.644-.831.964-1.246.465-.044.923-.113,1.377-.193.617-.1,1.224-.241,1.829-.384,1.212-.283,2.362-.77,3.538-1.17s2.351-.8,3.523-1.22,2.343-.834,3.508-1.271Z" transform="translate(-2549.892 -345.869)" fill="#65a7ad"/>
    </g>
    <g id="Group_782" data-name="Group 782" transform="translate(2270.762 576.847)">
      <path id="Path_1273" data-name="Path 1273" d="M2296.549,390.891c-13.6,69.736,33.388,69.182,33.388,69.182S2359.605,423.63,2296.549,390.891Z" transform="translate(-2294.078 -390.891)" fill="#424f4f"/>
      <path id="Path_1274" data-name="Path 1274" d="M2342.307,455.927c-.474,1.689-.909,3.385-1.365,5.077s-.874,3.393-1.292,5.093-.968,3.373-1.22,5.108c-.129.867-.249,1.736-.321,2.614q-.049.553-.078,1.11-.9-2.022-1.827-4.036c-1.448-3.172-3.023-6.283-4.6-9.392.2-.457.385-.919.552-1.383.253-.71.48-1.425.674-2.147a38.681,38.681,0,0,0,.771-4.415q.367-2.211.7-4.43c.208-1.482.436-2.96.625-4.446l-.146-.03c-.421,1.437-.8,2.883-1.207,4.324s-.769,2.89-1.135,4.339a38.629,38.629,0,0,0-1.062,4.354c-.112.739-.19,1.486-.243,2.237q-.02.3-.033.6-.854-1.682-1.7-3.37l-6.871-13.723-6.938-13.692-.134.065,6.4,13.95,3.494,7.517q-.19-.147-.383-.288a18.265,18.265,0,0,0-1.55-1.025,12.617,12.617,0,0,0-1.652-.821c-.572-.231-1.148-.454-1.712-.7q-1.691-.745-3.4-1.457c-1.145-.463-2.279-.945-3.432-1.391l-.066.133c1.046.658,2.11,1.28,3.164,1.922s2.127,1.248,3.2,1.855c.536.3,1.059.633,1.586.954a12.516,12.516,0,0,0,1.645.835,18.315,18.315,0,0,0,1.748.631,12.794,12.794,0,0,0,1.308.336l2.519,5.418c1.833,3.924,3.585,7.886,5.487,11.777-.227-.158-.455-.314-.685-.466-.733-.49-1.488-.936-2.246-1.375-1.516-.882-3.165-1.5-4.758-2.223s-3.188-1.449-4.791-2.157-3.207-1.411-4.824-2.091l-.067.133c1.51.891,3.039,1.747,4.558,2.621s3.055,1.715,4.591,2.555,3.012,1.8,4.624,2.488c.805.347,1.614.686,2.445.981.543.2,1.093.381,1.654.542.182.366.364.734.549,1.1,1.158,2.281,2.324,4.558,3.533,6.815s2.446,4.5,3.739,6.715l.134-.065q-1.4-3.587-2.931-7.105c-.293-.68-.6-1.355-.9-2.032.257-.605.48-1.219.687-1.834.285-.834.524-1.679.753-2.524.464-1.691.633-3.443.928-5.169s.583-3.453.856-5.184.542-3.462.783-5.2Z" transform="translate(-2306.346 -415.855)" fill="#65a7ad"/>
    </g>
    <g id="Group_783" data-name="Group 783" transform="translate(2328.84 633.966)">
      <path id="Path_1275" data-name="Path 1275" d="M2486.92,484.329c10.653,62.8,49.9,47.47,49.9,47.47S2550.174,491.843,2486.92,484.329Z" transform="translate(-2486.92 -484.329)" fill="#424f4f"/>
      <path id="Path_1276" data-name="Path 1276" d="M2545.655,524.432c.136,1.566.308,3.127.461,4.691s.34,3.122.527,4.681.255,3.136.593,4.671c.167.768.34,1.535.557,2.295q.134.479.287.956-1.4-1.41-2.81-2.807c-2.218-2.2-4.523-4.314-6.831-6.423.027-.448.033-.893.025-1.335-.012-.675-.048-1.347-.114-2.015a34.637,34.637,0,0,0-.75-3.947q-.391-1.971-.815-3.937c-.295-1.309-.571-2.621-.882-3.927l-.132.02c.1,1.339.238,2.672.355,4.009s.27,2.668.421,4a34.622,34.622,0,0,0,.487,3.988c.14.655.31,1.306.5,1.953q.078.259.163.517-1.248-1.142-2.49-2.29l-10.105-9.338-10.151-9.29-.092.1,9.784,9.676,5.309,5.2q-.205-.064-.412-.121a16.324,16.324,0,0,0-1.625-.37,11.3,11.3,0,0,0-1.646-.166c-.553-.013-1.107-.018-1.659-.047q-1.654-.09-3.312-.147c-1.106-.026-2.21-.072-3.318-.081l-.014.132c1.086.221,2.175.407,3.263.611s2.178.374,3.27.545c.546.086,1.089.2,1.632.3a11.244,11.244,0,0,0,1.644.18,16.467,16.467,0,0,0,1.666-.024,11.537,11.537,0,0,0,1.2-.131l3.826,3.748c2.779,2.711,5.5,5.482,8.329,8.143-.24-.061-.481-.12-.722-.174-.77-.179-1.544-.315-2.32-.443-1.55-.261-3.128-.253-4.695-.36s-3.133-.207-4.7-.294-3.137-.169-4.708-.227l-.014.133c1.549.27,3.1.5,4.652.757s3.105.472,4.66.691,3.1.558,4.666.625c.784.036,1.571.065,2.361.05.518-.006,1.037-.026,1.559-.068.269.25.537.5.809.748,1.693,1.547,3.391,3.088,5.12,4.6s3.474,3,5.26,4.451l.092-.1q-2.3-2.567-4.707-5.033c-.461-.477-.929-.948-1.395-1.421.025-.59.017-1.174,0-1.756-.025-.79-.092-1.574-.167-2.356-.145-1.565-.558-3.089-.856-4.629s-.6-3.081-.922-4.619-.641-3.076-.988-4.609Z" transform="translate(-2504.884 -501.412)" fill="#65a7ad"/>
    </g>
    <g id="Group_784" data-name="Group 784" transform="translate(2239.657 610.74) rotate(-45)">
      <path id="Path_1277" data-name="Path 1277" d="M85.829,2.407C-2.173-12.474,0,46.517,0,46.517S46.7,82.626,85.829,2.407Z" transform="translate(0.038 0)" fill="#284d43"/>
      <path id="Path_1278" data-name="Path 1278" d="M36.6,36.922c-2.135-.542-4.28-1.035-6.419-1.554q-3.214-.754-6.436-1.462c-2.147-.475-4.266-1.11-6.453-1.37C16.2,32.4,15.106,32.278,14,32.215q-.7-.044-1.4-.063,2.511-1.2,5.01-2.421c3.938-1.919,7.794-3.994,11.649-6.074.58.243,1.166.456,1.755.65.9.3,1.8.558,2.718.779a48.633,48.633,0,0,0,5.568.829q2.788.392,5.585.737c1.868.214,3.73.455,5.6.645l.034-.184c-1.818-.484-3.646-.919-5.468-1.38q-2.738-.666-5.485-1.288a48.565,48.565,0,0,0-5.5-1.2c-.932-.117-1.872-.192-2.817-.234q-.379-.017-.759-.024,2.086-1.125,4.178-2.238l17.017-9.061L68.666,2.548l-.085-.166-17.316,8.48-9.329,4.625q.179-.243.35-.489a22.962,22.962,0,0,0,1.239-1.979,15.794,15.794,0,0,0,.979-2.1c.272-.726.535-1.456.828-2.173q.882-2.147,1.723-4.313C47.6,2.981,48.168,1.541,48.692.079L48.523,0c-.794,1.334-1.542,2.69-2.314,4.034Q45.073,6.062,43.98,8.109c-.365.682-.762,1.35-1.148,2.022a15.762,15.762,0,0,0-1,2.093,22.772,22.772,0,0,0-.737,2.215,16.074,16.074,0,0,0-.381,1.653l-6.725,3.333c-4.869,2.426-9.791,4.751-14.616,7.262q.288-.435.564-.876c.592-.936,1.129-1.9,1.656-2.864,1.061-1.93,1.778-4.022,2.642-6.045s1.719-4.049,2.558-6.084c.823-2.042,1.671-4.072,2.473-6.124l-.169-.08C28.027,6.539,27,8.485,25.95,10.42q-1.553,2.913-3.064,5.846c-1.01,1.954-2.166,3.839-2.98,5.886-.41,1.022-.809,2.048-1.155,3.1-.231.688-.443,1.385-.629,2.094-.455.241-.91.48-1.362.725-2.828,1.526-5.65,3.063-8.446,4.653S2.742,35.936,0,37.63l.085.166q4.46-1.865,8.83-3.9c.845-.39,1.683-.792,2.523-1.19.769.3,1.546.565,2.326.8,1.057.332,2.124.6,3.194.866,2.137.53,4.343.687,6.52,1s4.355.623,6.537.911c2.185.272,4.365.571,6.554.82Z" transform="translate(0 8.804)" fill="#52999a"/>
    </g>
    <g id="Group_785" data-name="Group 785" transform="translate(2309.47 639.51)">
      <path id="Path_1279" data-name="Path 1279" d="M2728.826,448.409c-73.071,51.248-30.071,91.692-30.071,91.692S2757.356,532.978,2728.826,448.409Z" transform="translate(-2686.187 -448.409)" fill="#284d43"/>
      <path id="Path_1280" data-name="Path 1280" d="M2742.186,546.96c-1.9,1.114-3.772,2.271-5.659,3.4s-3.747,2.308-5.607,3.482-3.815,2.208-5.554,3.559c-.872.672-1.737,1.354-2.568,2.086q-.527.458-1.038.937.944-2.618,1.864-5.244c1.453-4.132,2.739-8.319,4.02-12.507.583-.235,1.15-.5,1.705-.771q1.271-.632,2.481-1.356a48.628,48.628,0,0,0,4.545-3.323q2.259-1.681,4.492-3.4c1.479-1.16,2.973-2.3,4.439-3.477l-.1-.154c-1.634.933-3.24,1.908-4.86,2.86s-3.214,1.946-4.807,2.937a48.643,48.643,0,0,0-4.755,3.014q-1.118.858-2.169,1.813-.281.255-.556.516.693-2.266,1.4-4.528l5.741-18.4,5.653-18.434-.178-.058-6.362,18.2-3.388,9.846q-.044-.3-.1-.594a22.939,22.939,0,0,0-.509-2.278,15.877,15.877,0,0,0-.78-2.183c-.316-.708-.643-1.412-.938-2.127q-.881-2.148-1.8-4.279c-.632-1.416-1.239-2.841-1.893-4.249l-.176.062c.373,1.507.793,3,1.188,4.5q.617,2.24,1.277,4.465c.219.742.406,1.5.6,2.245a15.828,15.828,0,0,0,.761,2.19,22.92,22.92,0,0,0,1.032,2.094,16.03,16.03,0,0,0,.89,1.444l-2.442,7.1c-1.76,5.147-3.628,10.26-5.3,15.437q-.1-.512-.214-1.019c-.237-1.082-.53-2.144-.834-3.2-.6-2.119-1.561-4.111-2.368-6.157s-1.622-4.089-2.455-6.126c-.849-2.031-1.673-4.072-2.544-6.1l-.176.062c.59,2.123,1.228,4.228,1.84,6.343q.942,3.164,1.927,6.312c.654,2.1,1.156,4.254,2.016,6.281.426,1.015.863,2.026,1.357,3.017.32.652.658,1.3,1.024,1.932-.154.491-.31.981-.459,1.472-.94,3.073-1.869,6.15-2.741,9.245s-1.708,6.2-2.469,9.334l.177.058q1.864-4.461,3.539-8.983c.327-.871.641-1.746.96-2.62.761-.324,1.5-.684,2.22-1.061.985-.506,1.937-1.062,2.881-1.628,1.893-1.125,3.573-2.563,5.344-3.868s3.537-2.617,5.292-3.945,3.507-2.661,5.239-4.022Z" transform="translate(-2704.16 -481.52)" fill="#65a7ad"/>
    </g>
    <g id="Group_786" data-name="Group 786" transform="translate(2092.441 570.904)">
      <path id="Path_1281" data-name="Path 1281" d="M2386.471,838.991c21.5-86.624-37.49-88.917-37.49-88.917S2309.443,793.908,2386.471,838.991Z" transform="translate(-2338.836 -750.038)" fill="#284d43"/>
      <path id="Path_1282" data-name="Path 1282" d="M2361.383,786.523c.7-2.088,1.355-4.189,2.035-6.283q1-3.147,1.945-6.307c.636-2.105,1.429-4.17,1.855-6.331.216-1.08.422-2.162.569-3.26q.1-.69.168-1.388,1.006,2.595,2.035,5.18c1.615,4.072,3.393,8.074,5.176,12.076-.286.56-.542,1.128-.781,1.7q-.545,1.311-.981,2.651a48.391,48.391,0,0,0-1.249,5.49q-.6,2.75-1.158,5.513c-.354,1.846-.735,3.685-1.067,5.537l.18.048c.621-1.776,1.192-3.565,1.79-5.348q.872-2.679,1.7-5.371a48.513,48.513,0,0,0,1.609-5.4c.187-.92.333-1.851.447-2.791q.045-.376.081-.754.963,2.165,1.916,4.335l7.747,17.654,7.833,17.618.172-.073-7.146-17.908-3.906-9.653q.229.2.461.385a22.844,22.844,0,0,0,1.879,1.385,15.813,15.813,0,0,0,2.021,1.136c.7.326,1.412.643,2.1.99q2.073,1.043,4.17,2.044c1.407.654,2.8,1.33,4.217,1.963l.092-.162c-1.27-.892-2.566-1.741-3.848-2.613q-1.936-1.286-3.894-2.531c-.652-.416-1.288-.862-1.929-1.3a15.824,15.824,0,0,0-2.011-1.152,23.016,23.016,0,0,0-2.153-.9,16.105,16.105,0,0,0-1.619-.506l-2.815-6.957c-2.05-5.039-4-10.122-6.135-15.123q.412.32.83.628c.889.661,1.808,1.269,2.731,1.868,1.844,1.2,3.876,2.077,5.827,3.092s3.908,2.021,5.874,3.01,3.934,1.975,5.919,2.93l.092-.163c-1.838-1.214-3.7-2.385-5.551-3.578s-3.724-2.345-5.6-3.5-3.664-2.451-5.643-3.416c-.988-.486-1.981-.963-3-1.386-.669-.282-1.347-.547-2.041-.786-.206-.471-.41-.943-.62-1.413-1.308-2.936-2.626-5.866-4-8.774s-2.781-5.8-4.263-8.663l-.172.073q1.523,4.588,3.226,9.1c.325.872.662,1.738,1,2.607-.362.744-.68,1.5-.978,2.258-.411,1.029-.763,2.072-1.105,3.119-.69,2.091-1.014,4.279-1.493,6.425s-.951,4.3-1.4,6.449c-.437,2.158-.9,4.309-1.313,6.473Z" transform="translate(-2353.215 -749.973)" fill="#52999a"/>
    </g>
    <g id="Group_787" data-name="Group 787" transform="matrix(1, -0.017, 0.017, 1, 2336.074, 619.211)">
      <path id="Path_1283" data-name="Path 1283" d="M7.41,0C-16.507,59.323,25.125,66.848,25.125,66.848S57.566,39.694,7.41,0Z" transform="translate(0 0)" fill="#284d43"/>
      <path id="Path_1284" data-name="Path 1284" d="M24.018,27.719c-.707,1.412-1.381,2.837-2.072,4.256s-1.351,2.85-2.011,4.281-1.431,2.816-1.95,4.307c-.261.744-.516,1.492-.73,2.256q-.138.481-.258.969-.455-1.942-.927-3.879c-.739-3.051-1.6-6.069-2.465-9.087.259-.369.5-.746.724-1.129q.518-.876.962-1.783a34.806,34.806,0,0,0,1.435-3.771q.7-1.892,1.373-3.8c.436-1.275.89-2.542,1.311-3.823l-.124-.052c-.618,1.2-1.2,2.411-1.8,3.616s-1.173,2.423-1.743,3.642a34.864,34.864,0,0,0-1.681,3.668c-.225.635-.422,1.281-.6,1.936-.046.175-.09.351-.132.527q-.468-1.633-.926-3.268l-3.733-13.3L4.873,0,4.744.034l3.28,13.423L9.831,20.7q-.143-.162-.289-.32a16.339,16.339,0,0,0-1.2-1.171A11.342,11.342,0,0,0,7.027,18.2c-.466-.3-.938-.6-1.394-.912q-1.367-.947-2.755-1.868c-.932-.6-1.853-1.224-2.8-1.815L0,13.71c.812.76,1.647,1.491,2.469,2.238s1.667,1.466,2.511,2.186c.421.36.828.74,1.239,1.114a11.3,11.3,0,0,0,1.312,1.019,16.427,16.427,0,0,0,1.438.856,11.443,11.443,0,0,0,1.1.52l1.3,5.219c.951,3.781,1.823,7.583,2.841,11.346q-.26-.268-.526-.529c-.564-.558-1.155-1.081-1.751-1.6C10.745,35.042,9.39,34.219,8.107,33.3S5.536,31.48,4.24,30.581,1.645,28.786.332,27.91l-.081.106c1.183,1.045,2.388,2.062,3.582,3.094s2.408,2.037,3.622,3.042,2.355,2.106,3.663,2.989c.652.444,1.31.881,1.993,1.284.446.267.9.523,1.369.761.1.355.2.711.3,1.065.635,2.214,1.277,4.426,1.961,6.627s1.394,4.394,2.159,6.574l.13-.034q-.622-3.409-1.38-6.78c-.143-.651-.3-1.3-.446-1.949.331-.491.632-1,.92-1.5.395-.689.749-1.394,1.1-2.1.7-1.415,1.147-2.935,1.7-4.411s1.1-2.953,1.641-4.436,1.069-2.968,1.579-4.462Z" transform="translate(6.16 13.415)" fill="#52999a"/>
    </g>
    <g id="Group_788" data-name="Group 788" transform="translate(2062.713 440.703) rotate(19)">
      <path id="Path_1285" data-name="Path 1285" d="M0,0C16.1,61.9,54.032,43.163,54.032,43.163S63.931,2.031,0,0Z" fill="#2e5546"/>
      <path id="Path_1286" data-name="Path 1286" d="M31.969,10.873c.272,1.555.58,3.1.868,4.653s.611,3.094.933,4.637.527,3.115,1,4.621c.233.754.474,1.506.757,2.247q.176.468.369.932-1.521-1.29-3.054-2.565c-2.41-2.011-4.9-3.923-7.391-5.833-.012-.451-.045-.9-.09-1.338-.071-.675-.165-1.344-.289-2.006a34.768,34.768,0,0,0-1.092-3.884q-.562-1.938-1.157-3.868c-.408-1.284-.8-2.572-1.222-3.852l-.13.032c.218,1.331.47,2.653.7,3.98s.5,2.645.768,3.964a34.728,34.728,0,0,0,.833,3.948q.3.965.674,1.91.1.252.207.5-1.348-1.033-2.69-2.075L11.044,8.414.083,0,0,.1,10.627,8.936l5.762,4.742q-.211-.046-.423-.085a16.361,16.361,0,0,0-1.657-.229,11.356,11.356,0,0,0-1.661-.024c-.555.035-1.109.078-1.664.1q-1.662.053-3.325.14c-1.109.07-2.217.12-3.327.207l0,.134c1.105.127,2.211.218,3.317.329s2.212.185,3.318.261c.553.039,1.106.1,1.659.157a11.31,11.31,0,0,0,1.661.037,16.358,16.358,0,0,0,1.665-.168,11.5,11.5,0,0,0,1.193-.236L21.3,17.715c3.015,2.472,5.98,5.007,9.038,7.424-.246-.04-.492-.078-.738-.112-.786-.112-1.572-.181-2.359-.241-1.574-.127-3.151.018-4.728.047s-3.152.065-4.729.114-3.153.1-4.73.181l0,.134c1.573.136,3.147.235,4.72.354s3.147.2,4.721.287,3.146.29,4.722.22c.789-.032,1.577-.072,2.366-.155.518-.051,1.035-.116,1.554-.2.291.226.581.454.874.677,1.828,1.4,3.661,2.8,5.521,4.156s3.736,2.7,5.648,4l.084-.1q-2.529-2.368-5.145-4.627c-.5-.438-1.012-.868-1.519-1.3-.027-.592-.084-1.176-.157-1.757-.093-.788-.228-1.566-.371-2.342-.281-1.553-.826-3.041-1.258-4.557s-.871-3.03-1.323-4.541-.908-3.021-1.388-4.525Z" transform="translate(10.815 8.62)" fill="#52999a"/>
    </g>
    <g id="Group_789" data-name="Group 789" transform="translate(2118.616 595.197)">
      <path id="Path_1287" data-name="Path 1287" d="M2144.77,468.7c39.885,65.055,76.662,30.49,76.662,30.49S2218.439,448.81,2144.77,468.7Z" transform="translate(-2144.77 -464.054)" fill="#284d43"/>
      <path id="Path_1288" data-name="Path 1288" d="M2228.045,491.38c.851,1.681,1.739,3.338,2.607,5.009s1.772,3.319,2.676,4.968,1.684,3.372,2.745,4.927c.528.78,1.064,1.554,1.645,2.3q.363.474.745.935-2.184-.944-4.377-1.867c-3.449-1.458-6.955-2.776-10.461-4.089-.17-.51-.362-1.007-.568-1.5q-.472-1.119-1.026-2.189a41.487,41.487,0,0,0-2.6-4.053q-1.315-2.016-2.665-4.012c-.912-1.324-1.8-2.658-2.733-3.972l-.137.081c.71,1.444,1.458,2.865,2.185,4.3s1.491,2.845,2.253,4.257a41.541,41.541,0,0,0,2.322,4.216q.673,1,1.433,1.947.2.253.411.5-1.9-.711-3.791-1.433l-15.4-5.868-15.433-5.794-.059.148,15.2,6.388,8.224,3.41q-.257.021-.512.05a19.587,19.587,0,0,0-1.971.315,13.51,13.51,0,0,0-1.9.55c-.621.233-1.239.475-1.865.688q-1.879.639-3.747,1.315c-1.242.465-2.489.908-3.726,1.392l.044.153c1.306-.239,2.6-.52,3.9-.777s2.589-.557,3.878-.855c.645-.148,1.3-.268,1.948-.4a13.5,13.5,0,0,0,1.909-.534,19.614,19.614,0,0,0,1.841-.77,13.559,13.559,0,0,0,1.279-.684l5.927,2.458c4.3,1.773,8.564,3.637,12.895,5.333-.295.04-.588.082-.881.129-.936.145-1.857.34-2.776.544-1.84.4-3.59,1.115-5.379,1.7s-3.575,1.169-5.357,1.773-3.563,1.213-5.336,1.85l.044.154c1.843-.392,3.673-.825,5.51-1.236s3.662-.862,5.488-1.312,3.691-.763,5.466-1.389c.889-.31,1.775-.63,2.646-1,.573-.239,1.141-.493,1.7-.772.411.158.821.316,1.232.47,2.573.964,5.149,1.919,7.745,2.825s5.2,1.785,7.835,2.6l.059-.149q-3.709-1.825-7.479-3.493c-.726-.325-1.456-.639-2.185-.957-.236-.666-.505-1.313-.789-1.95-.38-.867-.8-1.708-1.237-2.544-.86-1.675-2-3.184-3.019-4.764s-2.047-3.156-3.088-4.723-2.086-3.132-3.156-4.683Z" transform="translate(-2172.444 -479.347)" fill="#52999a"/>
    </g>
    <g id="Group_790" data-name="Group 790" transform="translate(2102.764 558.924)">
      <path id="Path_1289" data-name="Path 1289" d="M2175.771,718.459c33.406,70.377,74.5,39.294,74.5,39.294S2252.717,706.286,2175.771,718.459Z" transform="translate(-2175.771 -716.596)" fill="#46513c"/>
      <path id="Path_1290" data-name="Path 1290" d="M2258.284,749.443c.681,1.8,1.4,3.578,2.1,5.368s1.438,3.562,2.176,5.334,1.342,3.606,2.25,5.3c.451.849.911,1.693,1.419,2.515q.317.52.655,1.03-2.115-1.2-4.24-2.371c-3.343-1.855-6.758-3.574-10.174-5.29-.117-.536-.258-1.061-.413-1.58-.239-.791-.5-1.57-.8-2.333a42.384,42.384,0,0,0-2.194-4.4q-1.116-2.19-2.269-4.363c-.782-1.442-1.542-2.895-2.342-4.329l-.148.068c.564,1.542,1.167,3.066,1.75,4.6s1.2,3.05,1.823,4.567a42.466,42.466,0,0,0,1.9,4.533q.575,1.087,1.243,2.132.177.279.363.554-1.849-.928-3.692-1.867l-15-7.633-15.035-7.562-.076.144L2232.31,752l7.977,4.356c-.176,0-.35-.006-.525-.005a19.924,19.924,0,0,0-2.035.1,13.783,13.783,0,0,0-1.992.351c-.656.169-1.309.347-1.968.5q-1.976.444-3.946.927c-1.311.337-2.626.65-3.933,1.008l.028.16c1.351-.1,2.7-.245,4.043-.365s2.688-.283,4.03-.445c.671-.08,1.346-.131,2.02-.191a13.76,13.76,0,0,0,2-.335,20.084,20.084,0,0,0,1.953-.581,13.928,13.928,0,0,0,1.373-.555l5.75,3.14c4.172,2.268,8.3,4.624,12.509,6.817-.3.008-.606.019-.908.035-.965.045-1.922.143-2.877.25-1.911.208-3.766.742-5.645,1.136s-3.757.8-5.631,1.217-3.749.844-5.617,1.3l.028.161c1.913-.2,3.818-.437,5.728-.655s3.812-.476,5.714-.735,3.83-.372,5.7-.815c.936-.218,1.871-.446,2.8-.726.607-.179,1.212-.376,1.812-.6.4.2.8.41,1.2.611,2.507,1.259,5.018,2.508,7.554,3.711s5.087,2.378,7.67,3.491l.076-.144q-3.566-2.256-7.212-4.359c-.7-.409-1.409-.807-2.114-1.209-.167-.7-.37-1.388-.589-2.066-.292-.922-.631-1.821-.979-2.717-.691-1.794-1.682-3.45-2.546-5.164s-1.734-3.426-2.62-5.131-1.777-3.407-2.694-5.1Z" transform="translate(-2202.648 -734.033)" fill="#65a7ad"/>
    </g>
    <g id="Group_791" data-name="Group 791" transform="translate(2255.044 586.358)">
      <path id="Path_1291" data-name="Path 1291" d="M2632.688,448.583c76.931-12.265,58.659-60.442,58.659-60.442S2642.645,371.319,2632.688,448.583Z" transform="translate(-2632.688 -386.593)" fill="#284d43"/>
      <path id="Path_1292" data-name="Path 1292" d="M2682.446,401.687c1.918-.147,3.828-.339,5.742-.507s3.823-.378,5.731-.588,3.838-.274,5.719-.669c.942-.194,1.881-.4,2.813-.654q.588-.158,1.173-.339-1.742,1.693-3.468,3.4c-2.72,2.686-5.331,5.479-7.938,8.276-.547-.039-1.091-.051-1.632-.047-.826.006-1.648.042-2.465.115a42.371,42.371,0,0,0-4.836.869q-2.416.455-4.825.95c-1.6.344-3.211.666-4.813,1.03l.023.161c1.638-.107,3.271-.258,4.907-.385s3.266-.3,4.9-.466a42.393,42.393,0,0,0,4.884-.547c.8-.164,1.6-.363,2.395-.593q.318-.092.634-.193-1.411,1.513-2.83,3.017l-11.543,12.245-11.485,12.3.117.114,11.953-11.848,6.424-6.429q-.08.251-.153.5a19.993,19.993,0,0,0-.472,1.982,13.8,13.8,0,0,0-.223,2.011c-.023.676-.035,1.354-.078,2.028q-.13,2.021-.22,4.047c-.045,1.353-.115,2.7-.139,4.058l.162.019c.284-1.325.523-2.655.787-3.983s.484-2.66.706-3.992c.112-.666.253-1.329.385-1.992a13.693,13.693,0,0,0,.24-2.009,19.847,19.847,0,0,0-.009-2.038,13.958,13.958,0,0,0-.146-1.474l4.63-4.634c3.35-3.366,6.771-6.662,10.06-10.086-.077.294-.152.587-.222.881-.228.939-.4,1.885-.57,2.831-.338,1.892-.347,3.822-.5,5.737s-.291,3.829-.416,5.745-.244,3.835-.335,5.755l.162.019c.349-1.891.654-3.787.982-5.681s.614-3.792.9-5.69.719-3.78.821-5.7c.054-.959.1-1.92.089-2.887,0-.634-.02-1.269-.064-1.907.308-.326.618-.651.924-.98,1.913-2.052,3.818-4.11,5.686-6.205s3.712-4.213,5.506-6.379l-.117-.114q-3.168,2.788-6.212,5.695c-.59.559-1.171,1.125-1.755,1.689-.721-.037-1.436-.035-2.148-.016-.967.021-1.926.093-2.883.176-1.916.159-3.784.644-5.672.991s-3.775.7-5.66,1.071-3.769.747-5.649,1.152Z" transform="translate(-2653.8 -389.277)" fill="#65a7ad"/>
    </g>
    <g id="Group_792" data-name="Group 792" transform="translate(2336.386 338.788) rotate(19)">
      <path id="Path_1293" data-name="Path 1293" d="M9.119,0C-17.079,54.141,21.5,63.839,21.5,63.839S53.659,40.42,9.119,0Z" transform="translate(0 0)" fill="#424f4f"/>
      <path id="Path_1294" data-name="Path 1294" d="M22.318,27.219c-.753,1.28-1.475,2.574-2.214,3.861s-1.448,2.588-2.158,3.889-1.521,2.552-2.1,3.917c-.293.682-.578,1.367-.828,2.071q-.16.442-.3.892-.3-1.851-.623-3.7c-.5-2.909-1.117-5.8-1.737-8.681.267-.33.514-.669.751-1.013q.541-.789,1.016-1.612A32.749,32.749,0,0,0,15.7,23.4q.778-1.73,1.528-3.475c.49-1.168,1-2.328,1.472-3.5l-.113-.056c-.656,1.085-1.281,2.186-1.922,3.278s-1.253,2.2-1.866,3.306a32.78,32.78,0,0,0-1.81,3.335q-.376.872-.682,1.779-.082.242-.158.486-.335-1.562-.662-3.125L8.834,12.705,6.113,0,5.989.024l2.227,12.8,1.236,6.907q-.123-.161-.251-.318A15.4,15.4,0,0,0,8.154,18.24,10.672,10.672,0,0,0,6.98,17.211c-.419-.313-.842-.62-1.25-.945q-1.222-.975-2.466-1.927C2.426,13.713,1.6,13.074.755,12.46l-.083.094c.714.765,1.451,1.5,2.175,2.257s1.471,1.481,2.217,2.21c.373.365.73.747,1.092,1.124a10.578,10.578,0,0,0,1.166,1.039,15.319,15.319,0,0,0,1.294.894,10.856,10.856,0,0,0,1,.558l.891,4.979c.653,3.607,1.23,7.229,1.947,10.825-.151-.179-.3-.356-.46-.53-.494-.559-1.015-1.088-1.541-1.611-1.05-1.05-2.268-1.908-3.414-2.847s-2.3-1.875-3.456-2.8S1.26,26.8.083,25.9L0,25.992c1.044,1.056,2.11,2.086,3.164,3.13S5.295,31.185,6.37,32.2s2.076,2.125,3.247,3.036c.584.458,1.173.91,1.789,1.331.4.279.812.548,1.236.8.07.339.14.679.213,1.017.455,2.117.918,4.233,1.42,6.341s1.029,4.211,1.609,6.3l.124-.024q-.367-3.237-.864-6.449c-.094-.62-.2-1.238-.295-1.857.342-.44.656-.894.958-1.353.414-.621.791-1.26,1.162-1.9.745-1.284,1.262-2.681,1.877-4.03s1.223-2.7,1.82-4.058,1.191-2.717,1.764-4.087Z" transform="translate(5.555 12.815)" fill="#65a7ad"/>
    </g>
    <g id="Group_793" data-name="Group 793" transform="matrix(0.07, -0.998, 0.998, 0.07, 2184.925, 605.391)">
      <path id="Path_1295" data-name="Path 1295" d="M5.375,0C-15.059,64.342,29.354,68.938,29.354,68.938S61.329,37.771,5.375,0Z" transform="translate(0 0)" fill="#2e5546"/>
      <path id="Path_1296" data-name="Path 1296" d="M26.4,27.644c-.632,1.542-1.227,3.1-1.841,4.644s-1.194,3.107-1.775,4.666-1.281,3.078-1.707,4.688c-.216.8-.424,1.611-.588,2.432q-.107.517-.194,1.04-.633-2.007-1.285-4.008c-1.021-3.152-2.169-6.26-3.32-9.366.243-.409.464-.825.672-1.246q.475-.964.87-1.954a36.67,36.67,0,0,0,1.209-4.083q.588-2.047,1.142-4.106c.358-1.376.734-2.746,1.075-4.128l-.134-.045c-.555,1.311-1.073,2.633-1.611,3.95s-1.04,2.644-1.543,3.972A36.72,36.72,0,0,0,15.888,28.1q-.278,1.029-.472,2.085-.053.282-.1.566-.622-1.681-1.235-3.366l-4.991-13.7L4.035,0,3.9.046,8.425,13.911,10.9,21.387q-.163-.16-.33-.314a17.226,17.226,0,0,0-1.351-1.136,11.929,11.929,0,0,0-1.47-.956c-.515-.28-1.035-.554-1.54-.849Q4.7,17.245,3.165,16.387c-1.03-.562-2.048-1.14-3.088-1.687L0,14.818c.915.735,1.852,1.439,2.777,2.159s1.871,1.41,2.817,2.1c.472.346.93.713,1.393,1.073a11.9,11.9,0,0,0,1.462.967,17.332,17.332,0,0,0,1.581.786,12.221,12.221,0,0,0,1.2.46l1.787,5.388c1.3,3.9,2.525,7.835,3.9,11.714-.2-.174-.4-.346-.6-.515-.638-.542-1.3-1.046-1.97-1.542-1.334-1-2.825-1.756-4.249-2.617s-2.852-1.715-4.287-2.558-2.874-1.681-4.326-2.5l-.077.118c1.328,1.006,2.678,1.98,4.017,2.971s2.7,1.951,4.055,2.912,2.647,2.028,4.094,2.853c.722.415,1.449.823,2.2,1.192.492.245.991.478,1.5.692.133.366.264.732.4,1.1.845,2.279,1.7,4.556,2.593,6.817s1.818,4.513,2.8,6.746l.134-.046q-.926-3.537-1.993-7.026c-.2-.674-.416-1.344-.625-2.016.309-.544.586-1.1.848-1.657.36-.756.677-1.527.986-2.3.623-1.545.973-3.181,1.44-4.778s.926-3.2,1.372-4.8.888-3.209,1.306-4.822Z" transform="translate(6.225 13.828)" fill="#65a7ad"/>
    </g>
    <g id="Group_794" data-name="Group 794" transform="translate(2178.379 593.01)">
      <path id="Path_1297" data-name="Path 1297" d="M2483.178,681.083c70.12,36.823,84.554-13.533,84.554-13.533S2538.3,624.214,2483.178,681.083Z" transform="translate(-2483.178 -651.75)" fill="#4b665b"/>
      <path id="Path_1298" data-name="Path 1298" d="M2567.237,669.362c1.652,1.046,3.324,2.053,4.985,3.081s3.344,2.018,5.025,3.008,3.292,2.113,5.065,2.936c.885.414,1.774.82,2.688,1.179q.576.229,1.161.438-2.448.319-4.894.66c-3.851.532-7.676,1.219-11.5,1.91-.422-.365-.857-.706-1.3-1.032-.677-.5-1.369-.969-2.078-1.406a43.076,43.076,0,0,0-4.467-2.235q-2.244-1.1-4.508-2.162c-1.516-.7-3.021-1.412-4.547-2.09l-.079.146c1.4.91,2.821,1.78,4.231,2.672s2.84,1.745,4.271,2.6a43.139,43.139,0,0,0,4.31,2.526c.754.356,1.525.679,2.312.975q.314.118.633.229-2.07.373-4.141.735l-16.852,2.949-16.839,3.031.026.164,16.944-2.377,9.145-1.328q-.218.156-.43.316a20.144,20.144,0,0,0-1.59,1.328,13.955,13.955,0,0,0-1.406,1.5c-.43.537-.853,1.081-1.3,1.6q-1.337,1.567-2.643,3.162c-.86,1.074-1.738,2.131-2.583,3.22l.121.114c1.037-.906,2.042-1.844,3.064-2.765s2.013-1.871,3-2.822c.5-.474,1.015-.928,1.526-1.388a14,14,0,0,0,1.418-1.49,20.4,20.4,0,0,0,1.233-1.665,14.371,14.371,0,0,0,.778-1.289l6.59-.957c4.777-.7,9.569-1.306,14.331-2.094q-.363.288-.717.583c-.758.626-1.476,1.289-2.187,1.959-1.427,1.336-2.609,2.9-3.9,4.37s-2.567,2.941-3.835,4.426-2.533,2.974-3.775,4.483l.121.114c1.435-1.328,2.837-2.686,4.256-4.029s2.808-2.714,4.2-4.086,2.886-2.64,4.136-4.142c.627-.749,1.248-1.5,1.829-2.3.384-.517.756-1.046,1.108-1.593.45-.078.9-.154,1.349-.236,2.807-.507,5.611-1.025,8.407-1.595s5.587-1.172,8.367-1.845l-.026-.163q-4.276.343-8.524.858c-.82.1-1.638.2-2.457.307-.564-.469-1.148-.9-1.74-1.32-.8-.572-1.625-1.1-2.455-1.611-1.656-1.037-3.474-1.778-5.222-2.645s-3.5-1.726-5.262-2.571-3.523-1.685-5.3-2.5Z" transform="translate(-2513.737 -662.978)" fill="#65a7ad"/>
    </g>
    <g id="Group_795" data-name="Group 795" transform="translate(2345.694 704.808) rotate(137)">
      <path id="Path_1299" data-name="Path 1299" d="M0,0C8.546,75.828,56.508,60.113,56.508,60.113S75.155,13.213,0,0Z" transform="translate(0 0)" fill="#4a706b"/>
      <path id="Path_1300" data-name="Path 1300" d="M35.932,18.234c.059,1.883.16,3.761.239,5.642s.2,3.757.318,5.634.1,3.768.4,5.626c.147.93.3,1.859.513,2.782q.128.582.279,1.163Q36.1,37.3,34.5,35.534C32,32.752,29.383,30.072,26.763,27.4c.062-.534.1-1.065.12-1.6.031-.809.032-1.615,0-2.417a41.542,41.542,0,0,0-.633-4.772q-.336-2.384-.713-4.764c-.265-1.585-.507-3.172-.792-4.756l-.159.016c.031,1.608.105,3.212.157,4.819s.144,3.208.236,4.811a41.527,41.527,0,0,0,.316,4.8c.124.794.284,1.584.473,2.37q.075.315.16.629-1.417-1.449-2.825-2.9L11.637,11.79.116,0,0,.109,11.056,12.337l6,6.574q-.241-.089-.485-.171a19.5,19.5,0,0,0-1.918-.551A13.525,13.525,0,0,0,12.7,17.88c-.661-.052-1.323-.1-1.981-.167q-1.972-.219-3.951-.4C5.445,17.21,4.128,17.082,2.8,17l-.025.157c1.284.337,2.575.632,3.862.949s2.581.593,3.875.87c.647.139,1.289.308,1.932.466a13.465,13.465,0,0,0,1.955.325,19.569,19.569,0,0,0,1.994.083,13.687,13.687,0,0,0,1.449-.077l4.327,4.739c3.143,3.429,6.215,6.924,9.418,10.3-.284-.089-.568-.175-.852-.256-.909-.266-1.826-.48-2.745-.685-1.837-.416-3.725-.512-5.591-.744s-3.734-.457-5.6-.665-3.741-.412-5.616-.587l-.025.158c1.835.426,3.676.81,5.514,1.216s3.683.771,5.527,1.138,3.666.874,5.539,1.059c.937.1,1.875.182,2.821.217.62.027,1.243.038,1.869.023.3.317.609.634.917.948,1.922,1.963,3.851,3.921,5.817,5.842s3.955,3.822,5.995,5.675l.116-.11Q42.685,44.81,39.977,41.7c-.52-.6-1.048-1.2-1.574-1.793.069-.7.1-1.4.112-2.1.023-.947,0-1.888-.043-2.828-.069-1.882-.46-3.732-.715-5.595s-.516-3.726-.794-5.587-.561-3.721-.874-5.579Z" transform="translate(11.295 12.023)" fill="#52999a"/>
    </g>
    <g id="Group_796" data-name="Group 796" transform="translate(2121.547 635.811)">
      <path id="Path_1301" data-name="Path 1301" d="M2443.142,777.586c74.63-15.913,54.3-62.11,54.3-62.11S2448.95,701.5,2443.142,777.586Z" transform="translate(-2443.142 -714.467)" fill="#284d43"/>
      <path id="Path_1302" data-name="Path 1302" d="M2488.174,729.35c1.868-.242,3.728-.526,5.591-.788s3.72-.565,5.576-.867,3.74-.463,5.56-.945c.911-.238,1.82-.485,2.719-.783q.568-.184,1.13-.391-1.618,1.745-3.219,3.5c-2.524,2.766-4.935,5.631-7.344,8.5-.537-.01-1.07.006-1.6.037-.808.048-1.61.126-2.406.238a41.536,41.536,0,0,0-4.687,1.1q-2.339.568-4.671,1.175c-1.552.419-3.108.815-4.656,1.253l.031.157c1.6-.189,3.187-.419,4.781-.627s3.179-.457,4.765-.705a41.548,41.548,0,0,0,4.749-.784c.777-.2,1.548-.437,2.313-.7q.306-.107.611-.221-1.3,1.552-2.615,3.1l-10.668,12.565-10.608,12.618.12.1,11.089-12.2,5.957-6.617q-.065.25-.124.5a19.608,19.608,0,0,0-.36,1.963,13.429,13.429,0,0,0-.116,1.978c.013.663.034,1.326.027,1.988q-.025,1.984-.01,3.971c.024,1.326.026,2.65.07,3.976l.159.01c.21-1.311.377-2.624.567-3.936s.338-2.626.487-3.941c.075-.657.18-1.313.275-1.969a13.461,13.461,0,0,0,.133-1.977,19.475,19.475,0,0,0-.112-1.993,13.663,13.663,0,0,0-.218-1.434l4.293-4.769c3.105-3.463,6.284-6.862,9.327-10.379-.061.291-.119.582-.172.874-.176.93-.3,1.864-.413,2.8-.235,1.868-.146,3.757-.194,5.637s-.09,3.76-.115,5.642-.044,3.763-.035,5.647l.159.01c.245-1.867.447-3.738.672-5.607s.408-3.74.593-5.612.512-3.734.513-5.617c0-.941,0-1.883-.06-2.828-.034-.62-.084-1.24-.16-1.863.285-.334.572-.668.854-1.005,1.767-2.1,3.526-4.215,5.246-6.36s3.417-4.31,5.062-6.52l-.12-.1q-2.957,2.888-5.787,5.887c-.548.576-1.088,1.16-1.631,1.741-.707,0-1.406.038-2.1.094-.944.069-1.878.189-2.811.319-1.866.253-3.669.823-5.5,1.258s-3.658.878-5.483,1.336-3.649.922-5.467,1.414Z" transform="translate(-2471.17 -708.852)" fill="#65a7ad"/>
    </g>
    <g id="Group_797" data-name="Group 797" transform="translate(2208.97 510.039)">
      <path id="Path_1303" data-name="Path 1303" d="M2458.888,430.686c-46.475,43.947-11.774,68.146-11.774,68.146S2487.924,487.679,2458.888,430.686Z" transform="translate(-2434.667 -430.686)" fill="#4a706b"/>
      <path id="Path_1304" data-name="Path 1304" d="M2473.3,502.194c-1.232.988-2.438,2-3.658,3s-2.417,2.027-3.613,3.053-2.475,1.963-3.568,3.1c-.548.568-1.091,1.141-1.6,1.746q-.326.379-.638.773.4-1.955.775-3.912c.6-3.081,1.076-6.184,1.549-9.287.389-.227.763-.471,1.129-.724q.836-.581,1.618-1.22a34.737,34.737,0,0,0,2.877-2.829q1.427-1.427,2.831-2.878c.928-.977,1.869-1.939,2.786-2.928l-.091-.1c-1.061.832-2.1,1.69-3.148,2.534s-2.076,1.714-3.1,2.583a34.753,34.753,0,0,0-3.057,2.632q-.7.725-1.349,1.511-.172.209-.34.424.255-1.679.521-3.356l2.154-13.648,2.089-13.659-.132-.023-2.615,13.568-1.377,7.334q-.062-.207-.13-.411a16.319,16.319,0,0,0-.6-1.562,11.345,11.345,0,0,0-.78-1.467c-.3-.469-.6-.934-.887-1.411q-.848-1.431-1.725-2.846c-.6-.938-1.174-1.885-1.785-2.816l-.118.063c.421,1.03.875,2.042,1.311,3.065s.9,2.027,1.37,3.033c.233.5.444,1.018.662,1.529a11.321,11.321,0,0,0,.768,1.473,16.384,16.384,0,0,0,.95,1.377,11.5,11.5,0,0,0,.781.931l-.992,5.287c-.712,3.833-1.5,7.652-2.148,11.5q-.125-.352-.258-.7c-.28-.742-.6-1.465-.925-2.183-.647-1.44-1.535-2.753-2.32-4.12s-1.576-2.731-2.379-4.088-1.61-2.713-2.438-4.057l-.118.062c.639,1.444,1.311,2.87,1.965,4.306s1.34,2.855,2.024,4.275,1.262,2.9,2.083,4.244c.408.675.823,1.347,1.276,2,.294.429.6.851.927,1.263-.058.364-.117.727-.172,1.092-.346,2.277-.685,4.555-.98,6.84s-.565,4.576-.779,6.875l.132.023q.856-3.357,1.574-6.738c.141-.652.272-1.3.407-1.958.506-.309.99-.641,1.463-.984.646-.461,1.262-.955,1.873-1.454,1.226-.995,2.267-2.189,3.386-3.3s2.235-2.224,3.341-3.348,2.21-2.252,3.3-3.4Z" transform="translate(-2445.534 -455.313)" fill="#65a7ad"/>
    </g>
    <g id="Group_798" data-name="Group 798" transform="translate(2235.609 585.021)">
      <path id="Path_1305" data-name="Path 1305" d="M2141.27,315.863c13.135,63.966,52.8,46.871,52.8,46.871S2206.342,321.325,2141.27,315.863Z" transform="translate(-2141.27 -315.863)" fill="#468984"/>
      <path id="Path_1306" data-name="Path 1306" d="M2202.87,354.867c.2,1.6.427,3.193.639,4.789s.459,3.187.706,4.777.372,3.2.772,4.764c.2.781.4,1.56.652,2.331q.154.486.327.969-1.482-1.4-2.978-2.777c-2.351-2.178-4.787-4.26-7.226-6.339.012-.46,0-.916-.021-1.369-.036-.692-.1-1.379-.188-2.06a35.487,35.487,0,0,0-.908-4.018q-.471-2.006-.975-4c-.348-1.331-.677-2.665-1.042-3.992l-.134.025c.151,1.368.338,2.73.505,4.095s.371,2.723.573,4.082a35.545,35.545,0,0,0,.64,4.069c.167.667.364,1.327.586,1.983q.089.262.185.524-1.32-1.125-2.632-2.257l-10.684-9.21-10.729-9.16-.091.1,10.366,9.568,5.623,5.14c-.142-.039-.284-.075-.427-.109a16.656,16.656,0,0,0-1.677-.321,11.5,11.5,0,0,0-1.692-.112c-.568.006-1.135.021-1.7.01q-1.7-.034-3.4-.034c-1.135.013-2.267.005-3.4.034l-.01.136c1.12.189,2.243.34,3.365.511s2.245.306,3.369.442c.562.069,1.122.162,1.683.248a11.551,11.551,0,0,0,1.691.126,16.7,16.7,0,0,0,1.706-.083,11.768,11.768,0,0,0,1.229-.177l4.053,3.7c2.943,2.68,5.831,5.422,8.82,8.049-.249-.054-.5-.106-.746-.153-.795-.156-1.593-.268-2.392-.371-1.6-.213-3.214-.149-4.823-.2s-3.217-.1-4.827-.134-3.22-.062-4.832-.067l-.01.136c1.6.222,3.2.407,4.793.611s3.2.374,4.8.543,3.192.462,4.8.475c.805.009,1.612.01,2.421-.033.53-.025,1.062-.064,1.595-.125.284.246.568.494.854.737,1.789,1.525,3.584,3.044,5.408,4.53s3.666,2.952,5.547,4.374l.091-.1q-2.452-2.549-5-4.99c-.49-.473-.986-.939-1.479-1.407,0-.605-.024-1.2-.066-1.8-.053-.809-.15-1.609-.254-2.408-.2-1.6-.681-3.145-1.041-4.713s-.728-3.136-1.108-4.7-.766-3.128-1.175-4.688Z" transform="translate(-2160.285 -332.724)" fill="#65a7ad"/>
    </g>
    <g id="Group_799" data-name="Group 799" transform="translate(2272.53 627.858)">
      <path id="Path_1307" data-name="Path 1307" d="M2611.49,561.625c-63.053-10.754-61.552,31.525-61.552,31.525S2583.369,619.075,2611.49,561.625Z" transform="translate(-2549.907 -559.873)" fill="#424f4f"/>
      <path id="Path_1308" data-name="Path 1308" d="M2576.089,603.958c-1.53-.391-3.066-.746-4.6-1.12s-3.072-.714-4.611-1.055-3.056-.8-4.623-.989c-.783-.1-1.567-.186-2.359-.233q-.5-.033-1-.046,1.8-.857,3.593-1.73c2.824-1.371,5.59-2.855,8.355-4.341.416.175.835.328,1.257.467.644.213,1.292.4,1.947.561a34.788,34.788,0,0,0,3.99.6q2,.283,4,.534c1.338.155,2.673.33,4.014.468l.024-.131c-1.3-.349-2.612-.662-3.917-.995s-2.618-.63-3.929-.929a34.806,34.806,0,0,0-3.941-.863c-.668-.085-1.341-.14-2.019-.171q-.271-.012-.544-.018,1.5-.8,3-1.6l12.2-6.476,12.174-6.536-.061-.119-12.418,6.06-6.691,3.305q.129-.174.251-.35a16.385,16.385,0,0,0,.89-1.417,11.319,11.319,0,0,0,.7-1.5c.2-.52.384-1.043.6-1.556q.635-1.537,1.239-3.089c.392-1.04.8-2.071,1.179-3.119l-.121-.057c-.57.955-1.107,1.926-1.663,2.889s-1.078,1.94-1.6,2.918c-.262.489-.547.966-.825,1.447a11.318,11.318,0,0,0-.716,1.5,16.414,16.414,0,0,0-.531,1.587,11.48,11.48,0,0,0-.275,1.184l-4.823,2.382c-3.492,1.734-7.021,3.394-10.482,5.189q.206-.312.4-.627c.425-.67.811-1.359,1.19-2.051.762-1.382,1.278-2.881,1.9-4.329s1.237-2.9,1.839-4.358,1.2-2.917,1.779-4.386l-.121-.057c-.77,1.378-1.507,2.772-2.262,4.158s-1.478,2.786-2.2,4.186-1.556,2.749-2.141,4.215c-.295.732-.583,1.467-.831,2.221-.166.493-.319.992-.453,1.5-.326.172-.653.343-.977.518-2.028,1.091-4.053,2.189-6.058,3.326s-4,2.3-5.965,3.508l.061.119q3.2-1.332,6.332-2.79c.606-.279,1.207-.566,1.81-.85.55.219,1.107.406,1.666.579.757.239,1.521.435,2.288.624,1.532.382,3.112.5,4.672.725s3.12.451,4.684.66,3.127.414,4.7.594Z" transform="translate(-2549.857 -571.211)" fill="#52999a"/>
    </g>
    <g id="Group_800" data-name="Group 800" transform="translate(2202.238 632.655) rotate(-31)">
      <path id="Path_1309" data-name="Path 1309" d="M63.279,15.559C16.393-19.471,0,15.6,0,15.6S16.435,50.647,63.279,15.559Z" transform="translate(0 0)" fill="#2e5546"/>
      <path id="Path_1310" data-name="Path 1310" d="M21.566,21.1c-1.083-.956-2.187-1.885-3.28-2.828s-2.205-1.862-3.317-2.78-2.157-1.925-3.355-2.732c-.6-.405-1.2-.8-1.825-1.173q-.393-.234-.8-.455,1.824.052,3.648.087c2.872.06,5.743,0,8.615-.056.266.315.544.615.829.9q.654.663,1.353,1.268a32,32,0,0,0,3,2.151q1.51,1.063,3.038,2.1c1.026.684,2.04,1.382,3.075,2.054l.075-.1c-.916-.827-1.852-1.627-2.777-2.442s-1.87-1.6-2.814-2.393a31.9,31.9,0,0,0-2.852-2.345q-.763-.521-1.573-.98-.216-.123-.435-.241,1.553-.032,3.107-.055l12.641-.191,12.641-.252v-.122l-12.641-.237L31.1,10.187q.177-.088.35-.181a14.992,14.992,0,0,0,1.315-.784,10.387,10.387,0,0,0,1.2-.932c.376-.342.748-.69,1.133-1.02q1.158-.988,2.3-2c.752-.684,1.516-1.354,2.259-2.05l-.075-.1c-.863.541-1.7,1.108-2.558,1.661S35.332,5.917,34.5,6.495c-.417.289-.848.559-1.275.836a10.293,10.293,0,0,0-1.208.922,15,15,0,0,0-1.094,1.071,10.474,10.474,0,0,0-.717.85l-4.921-.069c-3.567-.043-7.134-.16-10.7-.14q.3-.168.591-.342C15.8,9.256,16.4,8.855,17,8.449c1.2-.809,2.241-1.814,3.351-2.736S22.562,3.866,23.66,2.93,25.854,1.054,26.937.1L26.862,0c-1.2.8-2.383,1.63-3.575,2.445S20.922,4.1,19.749,4.938s-2.413,1.591-3.5,2.541c-.545.474-1.086.953-1.6,1.464-.341.332-.674.675-.994,1.033-.337,0-.674.008-1.011.015-2.107.044-4.214.095-6.321.186s-4.214.205-6.32.373v.123q3.161.247,6.321.365c.61.025,1.219.042,1.828.061.358.408.733.792,1.116,1.166.517.51,1.058.989,1.6,1.461,1.088.949,2.328,1.7,3.5,2.537s2.355,1.667,3.541,2.489,2.376,1.64,3.578,2.44Z" transform="translate(0 4.987)" fill="#65a7ad"/>
    </g>
    <g id="Group_801" data-name="Group 801" transform="translate(2027.812 590.457)">
      <path id="Path_1311" data-name="Path 1311" d="M2394.938,563.377c19.4,72.914,64.014,50.564,64.014,50.564S2470.362,565.36,2394.938,563.377Z" transform="translate(-2394.938 -563.377)" fill="#424f4f"/>
      <path id="Path_1312" data-name="Path 1312" d="M2468.595,604.271c.331,1.833.7,3.655,1.054,5.483s.741,3.646,1.131,5.464.641,3.671,1.207,5.444c.28.887.569,1.773.908,2.646q.21.551.442,1.1-1.8-1.512-3.619-3.006c-2.856-2.357-5.8-4.6-8.756-6.833-.016-.531-.058-1.056-.115-1.578-.087-.8-.2-1.584-.354-2.363a41.079,41.079,0,0,0-1.314-4.574q-.676-2.282-1.39-4.555c-.49-1.512-.958-3.029-1.467-4.536l-.153.039c.265,1.568.571,3.126.855,4.69s.608,3.117.931,4.67a41.134,41.134,0,0,0,1.008,4.651c.237.758.508,1.507.807,2.249.08.2.162.395.248.592q-1.6-1.21-3.186-2.43l-12.935-9.915-12.983-9.854-.1.124,12.592,10.349,6.828,5.556q-.249-.053-.5-.1a19.356,19.356,0,0,0-1.956-.26,13.384,13.384,0,0,0-1.959-.017c-.654.045-1.308.1-1.962.125q-1.961.073-3.922.186c-1.308.09-2.615.156-3.923.265l0,.158c1.3.143,2.61.243,3.915.366s2.611.2,3.916.287c.653.042,1.305.113,1.958.175a13.286,13.286,0,0,0,1.959.033,19.272,19.272,0,0,0,1.963-.209,13.553,13.553,0,0,0,1.405-.286l4.921,4c3.573,2.9,7.086,5.867,10.709,8.7-.29-.046-.581-.089-.871-.127-.927-.127-1.856-.2-2.784-.27-1.857-.139-3.718.042-5.576.086s-3.718.1-5.577.165-3.719.142-5.578.244l0,.158c1.856.15,3.713.257,5.57.387s3.714.219,5.571.308,3.713.321,5.572.229c.929-.043,1.859-.095,2.79-.2.61-.064,1.22-.144,1.831-.25.345.265.688.532,1.035.794,2.165,1.641,4.336,3.273,6.539,4.867s4.425,3.162,6.689,4.677l.1-.124q-3-2.778-6.1-5.424c-.6-.513-1.2-1.017-1.8-1.525-.035-.7-.107-1.387-.2-2.071-.115-.929-.279-1.846-.453-2.76-.341-1.83-.993-3.582-1.513-5.367s-1.047-3.569-1.59-5.348-1.091-3.558-1.667-5.329Z" transform="translate(-2418.003 -581.554)" fill="#65a7ad"/>
    </g>
    <g id="Group_802" data-name="Group 802" transform="translate(2181.598 614.411)">
      <path id="Path_1313" data-name="Path 1313" d="M2838.772,510.009c-49.251-29.687-61.866,6.2-61.866,6.2S2796.385,548.873,2838.772,510.009Z" transform="translate(-2776.9 -498.25)" fill="#4a706b"/>
      <path id="Path_1314" data-name="Path 1314" d="M2799,533.3c-1.152-.829-2.322-1.63-3.482-2.446s-2.337-1.605-3.514-2.4-2.3-1.672-3.545-2.344c-.624-.338-1.251-.671-1.9-.97q-.407-.191-.823-.367,1.789-.126,3.576-.269c2.813-.221,5.616-.556,8.417-.893.291.283.591.548.9.8q.7.584,1.446,1.108a31.245,31.245,0,0,0,3.143,1.811q1.58.893,3.175,1.76c1.069.569,2.129,1.152,3.207,1.709l.063-.1c-.976-.719-1.969-1.411-2.953-2.118s-1.984-1.386-2.984-2.066a31.255,31.255,0,0,0-3.016-2.015q-.8-.435-1.634-.805-.223-.1-.449-.193,1.516-.182,3.033-.356l12.34-1.417,12.335-1.477-.012-.12-12.383,1-6.685.572q.164-.1.325-.211a14.761,14.761,0,0,0,1.209-.894,10.163,10.163,0,0,0,1.083-1.029c.334-.371.665-.747,1.009-1.107q1.035-1.079,2.05-2.179c.669-.742,1.351-1.471,2.01-2.224l-.083-.087c-.791.613-1.559,1.249-2.339,1.873s-1.539,1.271-2.3,1.917c-.38.323-.775.63-1.165.941a10.088,10.088,0,0,0-1.091,1.019,14.585,14.585,0,0,0-.965,1.154,10.351,10.351,0,0,0-.619.9l-4.818.412c-3.492.3-6.991.537-10.477.9.184-.129.365-.259.545-.392.576-.421,1.125-.871,1.668-1.327,1.091-.907,2.015-1.992,3.01-3s1.986-2.022,2.969-3.044,1.962-2.047,2.928-3.088l-.083-.088c-1.1.9-2.171,1.826-3.258,2.738s-2.151,1.847-3.216,2.782-2.2,1.791-3.175,2.826c-.487.516-.969,1.037-1.424,1.587-.3.358-.592.725-.871,1.107-.329.037-.659.073-.988.113-2.056.247-4.111.5-6.162.8s-4.1.611-6.144.979l.013.12q3.114-.066,6.215-.258c.6-.035,1.2-.078,1.793-.118.389.364.793.7,1.2,1.031.555.448,1.131.864,1.71,1.273,1.157.822,2.442,1.437,3.672,2.14s2.464,1.4,3.7,2.089,2.482,1.372,3.736,2.038Z" transform="translate(-2776.889 -507.19)" fill="#52999a"/>
    </g>
    <g id="Group_803" data-name="Group 803" transform="translate(2164.506 592.927)">
      <path id="Path_1315" data-name="Path 1315" d="M2413.639,924.993c59.687-7.416,46.871-45.076,46.871-45.076S2423.379,865.641,2413.639,924.993Z" transform="translate(-2413.639 -878.411)" fill="#499393"/>
      <path id="Path_1316" data-name="Path 1316" d="M2453.936,890.129c1.484-.063,2.963-.16,4.445-.239s2.959-.19,4.438-.3,2.969-.109,4.431-.364c.731-.125,1.462-.257,2.188-.43q.458-.106.914-.23-1.389,1.26-2.766,2.532c-2.171,2-4.259,4.086-6.345,6.174-.422-.045-.841-.069-1.259-.08-.638-.017-1.273-.011-1.9.023a32.676,32.676,0,0,0-3.755.542q-1.876.287-3.748.6c-1.248.223-2.5.428-3.741.667l.014.125c1.267-.039,2.531-.112,3.8-.167s2.528-.142,3.79-.23a32.693,32.693,0,0,0,3.783-.292c.624-.105,1.245-.238,1.864-.394q.247-.062.494-.131-1.129,1.13-2.264,2.253l-9.232,9.141-9.189,9.186.087.091,9.538-8.824,5.127-4.79q-.068.191-.131.384a15.317,15.317,0,0,0-.417,1.517,10.614,10.614,0,0,0-.226,1.546c-.036.521-.063,1.044-.114,1.563q-.155,1.556-.278,3.117c-.071,1.042-.16,2.082-.216,3.127l.124.018c.254-1.015.475-2.035.713-3.052s.444-2.039.651-3.061c.1-.511.231-1.019.35-1.527a10.644,10.644,0,0,0,.239-1.544,15.591,15.591,0,0,0,.047-1.573,10.883,10.883,0,0,0-.073-1.141l3.7-3.453c2.674-2.508,5.4-4.96,8.031-7.515-.068.224-.133.449-.194.674-.2.719-.362,1.443-.515,2.169-.311,1.451-.37,2.94-.536,4.413s-.326,2.947-.474,4.422-.291,2.952-.412,4.432l.125.019c.32-1.45.605-2.9.909-4.357s.575-2.909.847-4.366.656-2.9.785-4.376c.067-.739.126-1.479.146-2.225.016-.489.019-.98,0-1.474.247-.243.494-.486.739-.731,1.53-1.532,3.055-3.07,4.552-4.637s2.976-3.152,4.419-4.776l-.087-.091q-2.519,2.067-4.945,4.229c-.47.415-.934.837-1.4,1.256-.555-.048-1.107-.066-1.657-.07-.746-.01-1.488.021-2.229.059-1.482.071-2.937.4-4.4.614s-2.932.44-4.4.676-2.928.476-4.39.739Z" transform="translate(-2430.513 -881.04)" fill="#65a7ad"/>
    </g>
    <g id="Group_804" data-name="Group 804" transform="translate(2188.827 635.811)">
      <path id="Path_1317" data-name="Path 1317" d="M2495.612,910.4c45.256-39.616,13.523-63.607,13.523-63.607S2470.386,855.8,2495.612,910.4Z" transform="translate(-2487.081 -846.778)" fill="#284d43"/>
      <path id="Path_1318" data-name="Path 1318" d="M2504.784,866.2c1.192-.884,2.363-1.794,3.545-2.69s2.344-1.817,3.505-2.738,2.4-1.755,3.464-2.786c.536-.514,1.066-1.032,1.57-1.583q.32-.345.628-.7-.443,1.822-.87,3.648c-.675,2.873-1.235,5.772-1.791,8.671-.374.2-.734.415-1.086.64q-.806.515-1.564,1.088a32.648,32.648,0,0,0-2.805,2.555q-1.392,1.289-2.764,2.6c-.907.884-1.826,1.755-2.723,2.651l.082.1c1.027-.743,2.032-1.512,3.049-2.267s2.013-1.536,3.009-2.316A32.717,32.717,0,0,0,2513,870.7q.687-.656,1.322-1.371c.113-.127.225-.256.335-.386q-.3,1.568-.61,3.135l-2.517,12.746-2.456,12.759.124.026,2.947-12.655,1.559-6.841c.034.131.069.261.107.391a15.337,15.337,0,0,0,.505,1.49,10.571,10.571,0,0,0,.68,1.406c.263.451.533.9.782,1.358q.744,1.375,1.518,2.737c.526.9,1.035,1.814,1.576,2.71l.113-.054c-.359-.983-.749-1.951-1.122-2.927s-.776-1.937-1.178-2.9c-.2-.481-.38-.972-.566-1.461a10.593,10.593,0,0,0-.668-1.412,15.512,15.512,0,0,0-.843-1.329,10.83,10.83,0,0,0-.7-.9l1.124-4.932c.807-3.576,1.689-7.136,2.433-10.726.07.224.142.446.217.667.236.707.51,1.4.791,2.084.556,1.376,1.343,2.642,2.031,3.955s1.382,2.622,2.088,3.927,1.415,2.607,2.145,3.9l.114-.054c-.549-1.38-1.128-2.745-1.691-4.117s-1.156-2.731-1.748-4.09-1.082-2.767-1.8-4.063c-.358-.65-.725-1.3-1.127-1.924-.261-.414-.535-.822-.826-1.221.068-.34.137-.679.2-1.02.408-2.127.808-4.256,1.168-6.393s.7-4.279.979-6.432l-.123-.026q-.925,3.124-1.722,6.274c-.156.607-.3,1.216-.454,1.825-.486.272-.953.566-1.41.871-.624.411-1.221.852-1.812,1.3-1.187.891-2.209,1.975-3.3,2.978s-2.181,2.009-3.261,3.025-2.157,2.036-3.22,3.073Z" transform="translate(-2497.889 -846.754)" fill="#62a2a7"/>
    </g>
    <g id="Group_805" data-name="Group 805" transform="translate(2139.798 593.98)">
      <path id="Path_1319" data-name="Path 1319" d="M2175.73,614.1c33.406,70.377,74.5,39.294,74.5,39.294S2252.676,601.922,2175.73,614.1Z" transform="translate(-2175.73 -612.233)" fill="#284d43"/>
      <path id="Path_1320" data-name="Path 1320" d="M2258.243,645.08c.681,1.8,1.4,3.578,2.1,5.368s1.438,3.562,2.176,5.334,1.342,3.606,2.25,5.3c.451.849.911,1.693,1.418,2.515q.317.52.655,1.03-2.114-1.2-4.239-2.371c-3.343-1.855-6.758-3.574-10.174-5.29-.117-.536-.258-1.061-.414-1.58-.239-.791-.5-1.57-.8-2.333a42.288,42.288,0,0,0-2.194-4.4q-1.115-2.19-2.268-4.363c-.782-1.442-1.542-2.895-2.342-4.329l-.148.068c.564,1.542,1.168,3.066,1.75,4.6s1.2,3.05,1.824,4.567a42.39,42.39,0,0,0,1.9,4.532c.383.725.8,1.435,1.242,2.132q.178.279.363.554-1.849-.928-3.692-1.867l-15-7.633-15.035-7.561-.076.144,14.731,8.138,7.977,4.356c-.176,0-.35-.006-.525,0a19.937,19.937,0,0,0-2.035.1,13.8,13.8,0,0,0-1.993.351c-.656.169-1.309.347-1.968.5q-1.976.443-3.946.927c-1.311.337-2.626.65-3.933,1.007l.028.161c1.351-.1,2.7-.245,4.043-.365s2.688-.283,4.029-.445c.671-.08,1.346-.131,2.02-.191a13.771,13.771,0,0,0,2-.335,20.063,20.063,0,0,0,1.953-.581,13.981,13.981,0,0,0,1.373-.555l5.749,3.14c4.172,2.268,8.3,4.624,12.508,6.817-.3.008-.606.019-.908.035-.965.045-1.922.143-2.877.25-1.911.208-3.766.742-5.645,1.136s-3.756.8-5.631,1.217-3.748.844-5.617,1.3l.028.161c1.913-.2,3.818-.438,5.728-.655s3.811-.476,5.714-.735,3.83-.372,5.7-.815c.936-.218,1.87-.446,2.8-.726.607-.179,1.212-.376,1.812-.6.4.2.8.41,1.2.611,2.507,1.259,5.018,2.508,7.554,3.711s5.087,2.378,7.67,3.491l.076-.144q-3.567-2.256-7.212-4.36c-.7-.409-1.409-.807-2.114-1.209-.167-.7-.37-1.388-.589-2.066-.292-.922-.631-1.822-.979-2.717-.691-1.794-1.682-3.45-2.546-5.164s-1.734-3.426-2.62-5.13-1.777-3.407-2.694-5.1Z" transform="translate(-2202.607 -629.67)" fill="#52999a"/>
    </g>
  </g>
</svg>
