<svg xmlns="http://www.w3.org/2000/svg" width="302" height="277.872" viewBox="0 0 302 277.872">
  <g id="Group_963" data-name="Group 963" transform="translate(410 -6603)">
    <rect id="_444" data-name="444" width="229" height="222" transform="translate(-410 6603)" fill="#4a706b"/>
    <g id="Group_723" data-name="Group 723" transform="translate(-380.896 6627.958)">
      <g id="Group_675" data-name="Group 675" transform="translate(0 0)">
        <g id="Group_662" data-name="Group 662" transform="translate(20.609 5.143)">
          <g id="Group_660" data-name="Group 660" transform="translate(4.712)">
            <path id="Path_1034" data-name="Path 1034" d="M1567.75,1350.367a4.5,4.5,0,0,0,.089-4.929s-1.742.838-1.937,1.5c0,0,1.3,2.456-1.159,5.089A10.091,10.091,0,0,0,1567.75,1350.367Z" transform="translate(-1564.743 -1345.438)" fill="#d6654e"/>
          </g>
          <g id="Group_661" data-name="Group 661" transform="translate(0 4.929)">
            <path id="Path_1035" data-name="Path 1035" d="M1553.947,1361.292s4.371.539,7.708-4.55c0,0-3.916,2.662-6.407,1.4A4.515,4.515,0,0,0,1553.947,1361.292Z" transform="translate(-1553.936 -1356.743)" fill="#ef8062"/>
          </g>
        </g>
        <g id="Group_665" data-name="Group 665" transform="translate(3.774 56.485)">
          <g id="Group_663" data-name="Group 663" transform="translate(2.638 3.289)">
            <path id="Path_1036" data-name="Path 1036" d="M1522.922,1472.826a3.4,3.4,0,0,0,3.705-.426s-.8-1.223-1.318-1.3a3.406,3.406,0,0,1-3.933-.36A7.643,7.643,0,0,0,1522.922,1472.826Z" transform="translate(-1521.377 -1470.737)" fill="#d6654e"/>
          </g>
          <g id="Group_664" data-name="Group 664">
            <path id="Path_1037" data-name="Path 1037" d="M1515.326,1463.246s.034,3.332,4.183,5.325c0,0-2.388-2.67-1.692-4.664A3.417,3.417,0,0,0,1515.326,1463.246Z" transform="translate(-1515.326 -1463.193)" fill="#ef8062"/>
          </g>
        </g>
        <g id="Group_666" data-name="Group 666" transform="translate(57.748)">
          <path id="Path_1038" data-name="Path 1038" d="M1641.542,1337.856a4,4,0,0,0,1.451-2.621,4.716,4.716,0,0,0-1.11-1.122c-.486-.255-1.318-.657-1.455-.373a8.31,8.31,0,0,1-1.13,2.031c-.62.721.519.671.975,1.369S1641.139,1338.22,1641.542,1337.856Z" transform="translate(-1639.118 -1333.643)" fill="#ef8062"/>
        </g>
        <g id="Group_667" data-name="Group 667" transform="translate(40.754 14.625)">
          <path id="Path_1039" data-name="Path 1039" d="M1603.795,1370.187a4,4,0,0,0-.758-2.9,4.719,4.719,0,0,0-1.578-.047c-.528.151-1.407.433-1.31.734a8.306,8.306,0,0,1,.583,2.25c.049.949.838.127,1.65.318S1603.754,1370.729,1603.795,1370.187Z" transform="translate(-1600.142 -1367.185)" fill="#fff"/>
        </g>
        <g id="Group_668" data-name="Group 668" transform="translate(17.347 39.345)">
          <path id="Path_1040" data-name="Path 1040" d="M1546.756,1426.714a3.807,3.807,0,0,0,2.85.119,4.493,4.493,0,0,0,.482-1.423c.01-.522,0-1.4-.3-1.4a7.9,7.9,0,0,1-2.21-.1c-.878-.22-.35.727-.75,1.413S1546.275,1426.526,1546.756,1426.714Z" transform="translate(-1546.455 -1423.884)" fill="#ef8062"/>
        </g>
        <g id="Group_671" data-name="Group 671" transform="translate(72.631 26.536)">
          <g id="Group_669" data-name="Group 669" transform="translate(3.57 4.45)">
            <path id="Path_1041" data-name="Path 1041" d="M1683.529,1407.538a4.606,4.606,0,0,0,5.013-.576s-1.086-1.655-1.782-1.763c0,0-2.316,1.651-5.321-.487A10.319,10.319,0,0,0,1683.529,1407.538Z" transform="translate(-1681.439 -1404.712)" fill="#d6654e"/>
          </g>
          <g id="Group_670" data-name="Group 670">
            <path id="Path_1042" data-name="Path 1042" d="M1673.252,1394.577s.045,4.508,5.66,7.2c0,0-3.232-3.613-2.289-6.311A4.622,4.622,0,0,0,1673.252,1394.577Z" transform="translate(-1673.252 -1394.505)" fill="#ef8062"/>
          </g>
        </g>
        <g id="Group_672" data-name="Group 672" transform="translate(85.63 54.534)">
          <path id="Path_1043" data-name="Path 1043" d="M1703.475,1462.548s1.25.81,3.856.161a6.074,6.074,0,0,0,.653-1.926c.013-.706,0-1.9-.41-1.89a10.707,10.707,0,0,1-2.991-.131c-1.188-.3-.473.984-1.015,1.912S1702.823,1462.294,1703.475,1462.548Z" transform="translate(-1703.067 -1458.718)" fill="#ef8062"/>
        </g>
        <g id="Group_673" data-name="Group 673" transform="translate(74.097 44.844)">
          <path id="Path_1044" data-name="Path 1044" d="M1678.285,1440.686a3.9,3.9,0,0,0,2.2-1.927,4.6,4.6,0,0,0-.648-1.4c-.362-.395-.993-1.039-1.213-.823a8.1,8.1,0,0,1-1.709,1.492c-.807.457.255.787.443,1.58S1677.795,1440.887,1678.285,1440.686Z" transform="translate(-1676.615 -1436.495)" fill="#fff"/>
        </g>
        <g id="Group_674" data-name="Group 674" transform="translate(0 42.831)">
          <path id="Path_1045" data-name="Path 1045" d="M1508.3,1435.965a3.808,3.808,0,0,0,2.145-1.88,4.483,4.483,0,0,0-.633-1.363c-.353-.385-.968-1.013-1.183-.8a7.918,7.918,0,0,1-1.667,1.455c-.787.446.249.768.432,1.541S1507.82,1436.161,1508.3,1435.965Z" transform="translate(-1506.67 -1431.877)" fill="#fff"/>
        </g>
      </g>
      <g id="Group_722" data-name="Group 722" transform="translate(3.775 30.424)">
        <g id="Group_676" data-name="Group 676" transform="translate(44.599 210.438)">
          <path id="Path_1046" data-name="Path 1046" d="M1626.905,1886.071s.113,4.514,3.167,5.787,11.9,2.422,8.6,5.325c-1.9,1.665-10.84.589-13.365.589s-4.9,1.1-6.771-.589c-2.065-1.859,0-11.112,0-11.112a10.085,10.085,0,0,0,4.138,1.084A8.037,8.037,0,0,0,1626.905,1886.071Z" transform="translate(-1617.616 -1886.071)" fill="#331832"/>
        </g>
        <g id="Group_677" data-name="Group 677" transform="translate(37.217 86.692)">
          <path id="Path_1047" data-name="Path 1047" d="M1640.059,1602.254s-.217,20.8-1.891,57.512c-1.312,28.779-1.042,55.449-3.564,68.091-.9,4.522-34.27,2.217-33.914-2.76l7.9-88.91,1.508-28.149Z" transform="translate(-1600.686 -1602.254)" fill="#b47b78"/>
        </g>
        <g id="Group_678" data-name="Group 678" transform="translate(21.204 29.005)">
          <path id="Path_1048" data-name="Path 1048" d="M1569.337,1481.979s4.474-12.586,20.409-12.014,28.691,21.529,31.672,66.537c0,0-26.67-5.59-57.239,7.759C1564.179,1544.261,1562.338,1500.323,1569.337,1481.979Z" transform="translate(-1563.96 -1469.946)" fill="#92a5e6"/>
        </g>
        <g id="Group_679" data-name="Group 679" transform="translate(15.39 28.934)">
          <path id="Path_1049" data-name="Path 1049" d="M1550.624,1481.129l11.29,7.226s29.02,2.9,36.723,1.506,3.747-5.468,3.747-5.468-2.173-11.646-16.118-14.142a38.012,38.012,0,0,0-4.04-.376,39.711,39.711,0,0,0-7.049.154C1561.4,1471.515,1550.624,1481.129,1550.624,1481.129Z" transform="translate(-1550.624 -1469.783)" fill="#92a5e6"/>
        </g>
        <g id="Group_680" data-name="Group 680" transform="translate(15.194 39.833)">
          <path id="Path_1050" data-name="Path 1050" d="M1550.21,1495.477c-.391,1.137,2.561,3.264,6.595,4.752s7.621,1.773,8.013.637-2.561-3.264-6.595-4.753S1550.6,1494.341,1550.21,1495.477Z" transform="translate(-1550.175 -1494.781)" fill="#331832"/>
        </g>
        <g id="Group_681" data-name="Group 681" transform="translate(9.521 210.437)">
          <path id="Path_1051" data-name="Path 1051" d="M1546.453,1886.069s.113,4.514,3.167,5.788,11.9,2.422,8.6,5.324c-1.9,1.665-10.84.589-13.365.589s-4.9,1.1-6.772-.589c-2.064-1.859,0-11.112,0-11.112a10.085,10.085,0,0,0,4.138,1.084A8.04,8.04,0,0,0,1546.453,1886.069Z" transform="translate(-1537.164 -1886.069)" fill="#331832"/>
        </g>
        <g id="Group_682" data-name="Group 682" transform="translate(21.419 93.646)">
          <path id="Path_1052" data-name="Path 1052" d="M1564.456,1627.876c.278,2.3,13.281,2.021,29.2.005s28.314-5.464,28.036-7.764-13.122-2.579-29.043-.564S1564.178,1625.577,1564.456,1627.876Z" transform="translate(-1564.452 -1618.202)" fill="#331832"/>
        </g>
        <g id="Group_683" data-name="Group 683" transform="translate(0 98.417)">
          <path id="Path_1053" data-name="Path 1053" d="M1573.637,1630.917,1544,1743c-1.423,4.571-29.536,3.959-28.656-.895l22.994-106.009a3.376,3.376,0,0,1,2.346-2.528C1547.062,1631.727,1574.263,1626.4,1573.637,1630.917Z" transform="translate(-1515.327 -1629.145)" fill="#b47b78"/>
        </g>
        <g id="Group_684" data-name="Group 684" transform="translate(40.83 114.53)">
          <path id="Path_1054" data-name="Path 1054" d="M1609.53,1716.886l-.557-.131,9.049-38.568a21.651,21.651,0,0,1,9.786-12.085l.284.5a21.07,21.07,0,0,0-9.52,11.743Z" transform="translate(-1608.973 -1666.102)" stroke="#000" stroke-miterlimit="10" stroke-width="1"/>
        </g>
        <g id="Group_685" data-name="Group 685" transform="translate(34.224 96.853)">
          <path id="Path_1055" data-name="Path 1055" d="M1593.822,1629.534s31.776-6.07,42.079-3.207l-4.94,7.321-18.367,1.039Z" transform="translate(-1593.822 -1625.56)" fill="#b47b78"/>
        </g>
        <g id="Group_686" data-name="Group 686" transform="translate(45.204 15.886)">
          <path id="Path_1056" data-name="Path 1056" d="M1626.041,1453.959s-3.616-1.446-4.184-3.461-1.911-1.395-2.686-1.911,1.395-5.992,1.395-5.992l7.49-2.738-.775,9.608Z" transform="translate(-1619.003 -1439.857)" fill="#366f90"/>
        </g>
        <g id="Group_687" data-name="Group 687" transform="translate(36.554 13.094)">
          <path id="Path_1057" data-name="Path 1057" d="M1599.165,1450.071a5.117,5.117,0,0,0,3.645-2.755l1.983-4.6.579-1.346,3.407-7.913-.59,8.2-.355,4.922-.1,1.386c-.082,1.148.569,1.206,1.7,1.41,0,0,1.465,4.433-1.839,4.433C1603.22,1453.8,1599.165,1450.071,1599.165,1450.071Z" transform="translate(-1599.165 -1433.452)" fill="#f9ad9f"/>
        </g>
        <g id="Group_688" data-name="Group 688" transform="translate(42.171 20.852)">
          <path id="Path_1058" data-name="Path 1058" d="M1612.05,1452.611c0,.045,0,.091.009.136.2,2.643,3.023,3.878,3.023,3.878l.017-.014.355-4.922a4.2,4.2,0,0,0-2.817-.288A1.155,1.155,0,0,0,1612.05,1452.611Z" transform="translate(-1612.048 -1451.247)" fill="#331832"/>
        </g>
        <g id="Group_689" data-name="Group 689" transform="translate(38.835 4.899)">
          <ellipse id="Ellipse_21" data-name="Ellipse 21" cx="7.705" cy="9.506" rx="7.705" ry="9.506" fill="#f9ad9f"/>
        </g>
        <g id="Group_690" data-name="Group 690" transform="translate(45.421 19.693)">
          <path id="Path_1059" data-name="Path 1059" d="M1624.771,1449.451a16.728,16.728,0,0,1-5.264-.864,2.565,2.565,0,0,0,2.632,2.768C1623.8,1451.456,1624.771,1449.451,1624.771,1449.451Z" transform="translate(-1619.503 -1448.587)" fill="#fff"/>
        </g>
        <g id="Group_692" data-name="Group 692" transform="translate(44.988 13.984)">
          <g id="Group_691" data-name="Group 691">
            <path id="Path_1060" data-name="Path 1060" d="M1620.806,1436.007a.175.175,0,0,0,.02-.331,1.9,1.9,0,0,0-2.269.506.176.176,0,0,0,.006.248.192.192,0,0,0,.248-.006,3,3,0,0,1,1.884-.422A.176.176,0,0,0,1620.806,1436.007Z" transform="translate(-1618.509 -1435.494)" fill="#080435"/>
          </g>
        </g>
        <g id="Group_693" data-name="Group 693" transform="translate(45.527 15.594)">
          <path id="Path_1061" data-name="Path 1061" d="M1619.746,1439.926c-.014.418.222.765.525.774s.56-.321.573-.74-.222-.764-.525-.774S1619.759,1439.509,1619.746,1439.926Z" transform="translate(-1619.746 -1439.186)" fill="#080435"/>
        </g>
        <g id="Group_694" data-name="Group 694" transform="translate(50.51 15.961)">
          <path id="Path_1062" data-name="Path 1062" d="M1631.179,1440.73c-.04.416.173.777.474.806s.58-.285.62-.7-.173-.777-.475-.806S1631.218,1440.314,1631.179,1440.73Z" transform="translate(-1631.174 -1440.027)" fill="#080435"/>
        </g>
        <g id="Group_695" data-name="Group 695" transform="translate(38.213)">
          <path id="Path_1063" data-name="Path 1063" d="M1607.558,1411.739a13.5,13.5,0,0,1,10.263,12.745q.017.528.017,1.085s-6,.268-5.12,4.083c.67,2.9,4.565,5.461,5.909,5.461,2.031,0,5.432-6.891,4.334-15.856s-4.574-15.551-12.807-15.826-7.135,5.214-7.135,5.214A7.714,7.714,0,0,0,1607.558,1411.739Z" transform="translate(-1602.969 -1403.421)" fill="#000100"/>
        </g>
        <g id="Group_696" data-name="Group 696" transform="translate(32.966 4.629)">
          <path id="Path_1064" data-name="Path 1064" d="M1601.926,1417.744s-.14.09-.366.265a8.822,8.822,0,0,0-3.408,5.5c-.48,3.636,3.019,5.9,2.058,8.713s-3.5-.343-5.557.137-3.567-.48-3.7-4.6.823-13.722,5.694-13.722Z" transform="translate(-1590.937 -1414.039)" fill="#000100"/>
        </g>
        <g id="Group_697" data-name="Group 697" transform="translate(38.173 12.517)">
          <path id="Path_1065" data-name="Path 1065" d="M1603.685,1435.451a1.894,1.894,0,0,0,2.726.191,2.119,2.119,0,0,0-.435-2.827,1.9,1.9,0,0,0-2.726-.191A2.118,2.118,0,0,0,1603.685,1435.451Z" transform="translate(-1602.878 -1432.13)" fill="#f9ad9f"/>
        </g>
        <g id="Group_698" data-name="Group 698" transform="translate(43.402 6.604)">
          <path id="Path_1066" data-name="Path 1066" d="M1625.912,1442.41h-.009a.057.057,0,0,1-.048-.065c1.762-11.443-1.739-17.465-3.326-19.522-3.655-4.74-7.552-4.118-7.59-4.111a.057.057,0,1,1-.02-.112c.04-.008,4-.64,7.7,4.154,1.6,2.069,5.117,8.123,3.349,19.61A.057.057,0,0,1,1625.912,1442.41Z" transform="translate(-1614.872 -1418.567)" fill="#331832"/>
        </g>
        <g id="Group_699" data-name="Group 699" transform="translate(35.455 6.061)">
          <path id="Path_1067" data-name="Path 1067" d="M1601.548,1434.256a.055.055,0,0,1-.026-.007,8.839,8.839,0,0,1-4.559-6.209c-.889-4.013.27-8.1,1.17-9.269,1.56-2.019,4.323-1.342,4.35-1.336a.057.057,0,1,1-.028.111c-.027-.007-2.719-.664-4.232,1.295-.863,1.117-2.018,5.252-1.149,9.174a8.617,8.617,0,0,0,4.5,6.132.057.057,0,0,1-.026.108Z" transform="translate(-1596.644 -1417.322)" fill="#331832"/>
        </g>
        <g id="Group_700" data-name="Group 700" transform="translate(42.595 4.35)">
          <path id="Path_1068" data-name="Path 1068" d="M1625.976,1428.515a.057.057,0,0,1-.057-.054c-.006-.123-.69-12.343-5.088-14.228a8.081,8.081,0,0,0-7.719.542.057.057,0,0,1-.069-.091,8.2,8.2,0,0,1,7.833-.556c1.877.8,3.315,3.462,4.275,7.9a45.853,45.853,0,0,1,.882,6.428.057.057,0,0,1-.054.06Z" transform="translate(-1613.021 -1413.398)" fill="#331832"/>
        </g>
        <g id="Group_701" data-name="Group 701" transform="translate(52.687 18.466)">
          <path id="Path_1069" data-name="Path 1069" d="M1636.96,1452.86h0a.057.057,0,0,1-.056-.058,24.466,24.466,0,0,0-.735-6.953.057.057,0,0,1,.109-.034,24.558,24.558,0,0,1,.74,6.989A.058.058,0,0,1,1636.96,1452.86Z" transform="translate(-1636.166 -1445.775)" fill="#331832"/>
        </g>
        <g id="Group_710" data-name="Group 710" transform="translate(30.734 42.812)">
          <g id="Group_704" data-name="Group 704">
            <g id="Group_702" data-name="Group 702" transform="translate(0 1.533)">
              <path id="Path_1070" data-name="Path 1070" d="M1604.94,1505.128l-15.583,1.308a3.864,3.864,0,0,0-3.537,4.016l1.458,34.041a3.864,3.864,0,0,0,4.017,3.7l15.278-.62Z" transform="translate(-1585.816 -1505.128)" fill="#60cca8"/>
            </g>
            <g id="Group_703" data-name="Group 703" transform="translate(16.253)">
              <path id="Path_1071" data-name="Path 1071" d="M1662.293,1501.616l-36.329,1.53a3,3,0,0,0-2.869,3.1l1.256,36.458a3,3,0,0,0,3.246,2.884l40.381-3.389a3,3,0,0,0,2.712-3.441l-5.307-34.6A3,3,0,0,0,1662.293,1501.616Z" transform="translate(-1623.093 -1501.613)" fill="#42a47b"/>
            </g>
          </g>
        </g>
        <g id="Group_716" data-name="Group 716" transform="translate(38.981 60.527)">
          <g id="Group_712" data-name="Group 712">
            <g id="Group_711" data-name="Group 711">
              <path id="Path_1075" data-name="Path 1075" d="M1604.732,1550.643s2.008-6.079,5.447-7.567,8.957-.789,7.021.586a24.7,24.7,0,0,1-4.9,2.449s6.43-2,6.246-.291-5.793,3.389-5.793,3.389,7.84-1.767,7.144-.212-6.661,2.855-6.661,2.855,7.36-1.353,6.51.435-6.09,1.078-6.274,2.784-1.493,8.42-6.3,8.487Z" transform="translate(-1604.732 -1542.243)" fill="#f9ad9f"/>
            </g>
          </g>
          <g id="Group_713" data-name="Group 713" transform="translate(5.032 3.731)">
            <path id="Path_1076" data-name="Path 1076" d="M1616.523,1552.35l-.25-.119c.529-1.113,2.44-1.418,2.521-1.431l.042.273C1618.817,1551.077,1616.989,1551.369,1616.523,1552.35Z" transform="translate(-1616.273 -1550.801)" fill="#e9845c"/>
          </g>
          <g id="Group_714" data-name="Group 714" transform="translate(5.03 6.829)">
            <path id="Path_1077" data-name="Path 1077" d="M1616.49,1559.741l-.222-.166a4.863,4.863,0,0,1,2.978-1.67l.037.274A4.668,4.668,0,0,0,1616.49,1559.741Z" transform="translate(-1616.268 -1557.905)" fill="#e9845c"/>
          </g>
          <g id="Group_715" data-name="Group 715" transform="translate(5.67 9.473)">
            <path id="Path_1078" data-name="Path 1078" d="M1617.995,1565.672l-.259-.1c.463-1.234,2.723-1.591,2.819-1.606l.042.274C1620.575,1564.246,1618.4,1564.589,1617.995,1565.672Z" transform="translate(-1617.736 -1563.969)" fill="#e9845c"/>
          </g>
        </g>
        <g id="Group_718" data-name="Group 718" transform="translate(83.04 50.537)">
          <g id="Group_717" data-name="Group 717">
            <path id="Path_1079" data-name="Path 1079" d="M1718.756,1523.87s.746-3.74-2.673-4.4c-4.356-.838-10.587,2.3-7.834,2.865a32.415,32.415,0,0,0,6.079.39s-9.247.42-8.5,2.31,8.69,1.421,8.69,1.421-8.964,1.258-7.683,2.816,8.5,1.177,8.5,1.177-8.826.758-7.3,2.533,6.015.458,8.042.334c1.916-.117,2.461-1.39,2.216-3.23,0,0,.821-1.974.357-3.136-.178-.446.227-.923.246-1.26A11.964,11.964,0,0,0,1718.756,1523.87Z" transform="translate(-1705.783 -1519.331)" fill="#f9ad9f"/>
          </g>
        </g>
        <g id="Group_720" data-name="Group 720" transform="translate(14.217 41.126)">
          <g id="Group_719" data-name="Group 719">
            <path id="Path_1080" data-name="Path 1080" d="M1576.637,1536.472l.135-8.25a2.125,2.125,0,0,0-1.974-2.153c-5.719-.409-9.722-2.183-11.915-5.284-3.045-4.307-2.724-11-1.876-15.635.434-2.374-.349-3.962-3.217-5.484a19.62,19.62,0,0,0-5.509-1.875,2.254,2.254,0,0,0-2.742,1.478,50.245,50.245,0,0,0-1.433,8.207c-.722,8.135.848,15.212,4.538,20.465,4.529,6.447,11.831,10.014,21.723,10.62A2.132,2.132,0,0,0,1576.637,1536.472Z" transform="translate(-1547.934 -1497.745)" fill="#f9ad9f"/>
          </g>
        </g>
        <g id="Group_721" data-name="Group 721" transform="translate(18.627 63.872)" opacity="0.5">
          <path id="Path_1081" data-name="Path 1081" d="M1561.315,1555.208a3.3,3.3,0,0,1-2.429-1.33,3.658,3.658,0,0,1-.83-1.956,1.72,1.72,0,0,1,2.358-1.9,3.661,3.661,0,0,1,1.734,1.228c1.019,1.265,1.116,2.884.218,3.608A1.647,1.647,0,0,1,1561.315,1555.208Z" transform="translate(-1558.048 -1549.915)" fill="#f9ad9f"/>
        </g>
        <g id="noun-pound-3675540" transform="translate(63.257 56.905)">
          <path id="Path_17694" data-name="Path 17694" d="M11.532,10.3H9.885v1.236H3.666A4.981,4.981,0,0,0,4.942,8.237V7.414H8.237V5.766H4.943V4.119A2.478,2.478,0,0,1,7.414,1.648a2.205,2.205,0,0,1,1.647.618L10.173,1.03A3.679,3.679,0,0,0,7.414,0,4.131,4.131,0,0,0,3.295,4.119V5.766H.824V7.414H3.295v.824A3.3,3.3,0,0,1,0,11.532V13.18H11.532Z" transform="translate(0 1.005) rotate(-5)" fill="#fff"/>
        </g>
      </g>
    </g>
    <text id="_04" data-name="04" transform="translate(-229 6677)" font-size="83" font-family="ClashDisplay-Bold, Clash Display" font-weight="700"><tspan x="0" y="0">04</tspan></text>
  </g>
</svg>
