<svg xmlns="http://www.w3.org/2000/svg" width="303" height="246.985" viewBox="0 0 303 246.985">
  <g id="Group_937" data-name="Group 937" transform="translate(171.272 -6477.804)">
    <rect id="_333" data-name="333" width="231" height="238" transform="translate(-171.272 6477.804)" fill="#4a706b"/>
    <text id="_03" data-name="03" transform="translate(11.728 6552.804)" font-size="84" font-family="ClashDisplay-Bold, Clash Display" font-weight="700"><tspan x="0" y="0">03</tspan></text>
    <g id="Group_881" data-name="Group 881" transform="translate(-151.995 6596.882)">
      <g id="Group_875" data-name="Group 875" transform="translate(223.605 44.832)">
        <path id="Path_17595" data-name="Path 17595" d="M6087.313,3293.493v9.209a5.157,5.157,0,0,1-5.159,5.16H6080.5a5.177,5.177,0,0,1-5.159-5.16v-9.209a5.083,5.083,0,0,1,.749-2.65v-.013a5.174,5.174,0,0,1,4.41-2.5h1.651A5.177,5.177,0,0,1,6087.313,3293.493Z" transform="translate(-6075.344 -3288.333)" fill="#00af8d"/>
        <path id="Path_17596" data-name="Path 17596" d="M6086.772,3315.259a5.174,5.174,0,0,1-4.618,2.857H6080.5a5.176,5.176,0,0,1-5.159-5.16v-9.209a5.083,5.083,0,0,1,.749-2.65C6076.19,3301.667,6078.382,3314.3,6086.772,3315.259Z" transform="translate(-6075.344 -3298.587)" fill="#00af8d"/>
      </g>
      <path id="Path_17597" data-name="Path 17597" d="M5715.753,3552.189h25.506v-25.741H5714.65Z" transform="translate(-5561.978 -3434.789)" fill="#09594d"/>
      <path id="Path_17598" data-name="Path 17598" d="M5617.34,3123.348l-125.3,3.09v-66.077h82.283a20.9,20.9,0,0,1,18.6,11.372l5.385,10.51Z" transform="translate(-5383.142 -3060.361)" fill="#008175"/>
      <g id="Group_876" data-name="Group 876" transform="translate(156.912 98.517)">
        <path id="Path_17599" data-name="Path 17599" d="M5766.113,3576.02c0,6.989,3.6,14.695,3.6,14.695h6.1c5.36,0,9.706-6.579,9.706-14.695s-10.447-14.695-15.808-14.695S5766.113,3567.9,5766.113,3576.02Z" transform="translate(-5760.012 -3561.325)" fill="#4a2009"/>
        <path id="Path_17600" data-name="Path 17600" d="M5736.21,3576.02c0,8.116,4.346,14.695,9.706,14.695s9.707-6.579,9.707-14.695-4.346-14.695-9.707-14.695S5736.21,3567.9,5736.21,3576.02Z" transform="translate(-5736.21 -3561.325)" fill="#994b2a"/>
        <ellipse id="Ellipse_31" data-name="Ellipse 31" cx="7.311" cy="11.069" rx="7.311" ry="11.069" transform="translate(2.518 3.626)" fill="#4a2009"/>
      </g>
      <g id="Group_877" data-name="Group 877" transform="translate(227.072 98.517)">
        <path id="Path_17601" data-name="Path 17601" d="M6122.88,3576.02c0,6.989,3.6,14.695,3.6,14.695h6.1c5.361,0,9.707-6.579,9.707-14.695s-10.448-14.695-15.809-14.695S6122.88,3567.9,6122.88,3576.02Z" transform="translate(-6116.778 -3561.325)" fill="#4a2009"/>
        <path id="Path_17602" data-name="Path 17602" d="M6092.976,3576.02c0,8.116,4.345,14.695,9.706,14.695s9.707-6.579,9.707-14.695-4.346-14.695-9.707-14.695S6092.976,3567.9,6092.976,3576.02Z" transform="translate(-6092.976 -3561.325)" fill="#994b2a"/>
        <path id="Path_17603" data-name="Path 17603" d="M6105.776,3590.832c0,6.113,3.273,11.069,7.312,11.069s7.312-4.956,7.312-11.069-3.274-11.069-7.312-11.069S6105.776,3584.719,6105.776,3590.832Z" transform="translate(-6103.259 -3576.137)" fill="#4a2009"/>
      </g>
      <g id="Group_878" data-name="Group 878" transform="translate(65.957 98.517)">
        <path id="Path_17604" data-name="Path 17604" d="M5303.6,3576.02c0,6.989,3.6,14.695,3.6,14.695h6.1c5.361,0,9.707-6.579,9.707-14.695s-10.448-14.695-15.808-14.695S5303.6,3567.9,5303.6,3576.02Z" transform="translate(-5297.501 -3561.325)" fill="#4a2009"/>
        <path id="Path_17605" data-name="Path 17605" d="M5273.7,3576.02c0,8.116,4.346,14.695,9.706,14.695s9.706-6.579,9.706-14.695-4.346-14.695-9.706-14.695S5273.7,3567.9,5273.7,3576.02Z" transform="translate(-5273.699 -3561.325)" fill="#994b2a"/>
        <path id="Path_17606" data-name="Path 17606" d="M5286.5,3590.832c0,6.113,3.272,11.069,7.311,11.069s7.312-4.956,7.312-11.069-3.273-11.069-7.312-11.069S5286.5,3584.719,5286.5,3590.832Z" transform="translate(-5283.983 -3576.137)" fill="#4a2009"/>
      </g>
      <path id="Path_17607" data-name="Path 17607" d="M5652.571,3413.407a11.1,11.1,0,0,1-11.1,11.124H5569.6a22.006,22.006,0,0,0,.319-3.745c0-9.5-5.7-17.213-12.719-17.213s-12.733,7.712-12.733,17.213a21.918,21.918,0,0,0,.306,3.745h-42s-1.692-18.752-1.484-28.156c.167-8.183.167-24.218-.319-28.128,0-.583,40.5-.653,50.723-.694,1.387-.014,2.219-.014,2.3-.014l.138.1.153.111c1.886,1.318,12.455,8.724,19.016,13.065,5.784,3.814,48.477,5.368,65.218,5.84,4.16.111,6.727.152,6.727.152a30.191,30.191,0,0,1,4.313,6.047,22.915,22.915,0,0,1,2.968,10.6c.014,2.51.028,5.534.028,8.5C5652.571,3412.436,5652.571,3412.921,5652.571,3413.407Z" transform="translate(-5390.32 -3307.13)" fill="#008175"/>
      <path id="Path_17608" data-name="Path 17608" d="M5777.943,3224.076H5721.63a3.329,3.329,0,0,1-3.023-1.941l-13.939-31.014a1.537,1.537,0,0,1,1.4-2.164h59.406a3.307,3.307,0,0,1,3.024,1.983l9.986,22.816,2.5,5.7A3.306,3.306,0,0,1,5777.943,3224.076Z" transform="translate(-5553.849 -3163.668)" fill="#a0e7b1"/>
      <path id="Path_17609" data-name="Path 17609" d="M5580.991,3165.2c-.014.971-.055,1.886-.111,2.705-.4,5.4-5.825,9.875-5.825,9.875h-12.649a22.43,22.43,0,0,0-1.484-12.58c-2.232-5.021-6.283-8.378-10.915-8.378-4.647,0-8.7,3.357-10.931,8.378a22.707,22.707,0,0,0-1.5,12.58h-45.563v-117.4h36.575v23.3s10.972,25.771,15.909,37.117c1.221,2.829,2.081,4.758,2.3,5.173,1.1,2.094,26.589,14.994,30.806,18.794C5579.951,3146.875,5581.116,3157.833,5580.991,3165.2Z" transform="translate(-5383.125 -3060.378)" fill="#0f9686"/>
      <path id="Path_17610" data-name="Path 17610" d="M5623.191,3197.143l12,29.545h-20.581s-4.223-.707-4.764-9.335c-.578-9.211-.577-25.107-.577-25.107l9.034-.044C5621.743,3192.721,5622.281,3194.613,5623.191,3197.143Z" transform="translate(-5477.317 -3166.274)" fill="#a0e7b1"/>
      <path id="Path_17611" data-name="Path 17611" d="M5861.859,3386.8h-66.743l-24.37-19.169-.139-.1h67.325l19.169,15.424Z" transform="translate(-5606.931 -3307.13)" fill="#008175"/>
      <path id="Path_17612" data-name="Path 17612" d="M6207.437,3455.857a2.248,2.248,0,0,1-1.428,1.151l-9.363,1.734c-.791.153-1.4-1.22-1.192-2.635l.915-6.3.028-.152.18-1.291a2.719,2.719,0,0,1,1.249-2.191l.54-.208,4.758,3.842A30.185,30.185,0,0,1,6207.437,3455.857Z" transform="translate(-5948.195 -3370.136)" fill="#cdf9d7"/>
      <path id="Path_17613" data-name="Path 17613" d="M5891.614,3471.9l-6.033-.6a4.727,4.727,0,0,1-4.189-3.87l-1.387-7.628a1.059,1.059,0,0,1-.028-.36,73.165,73.165,0,0,1,9.293,5.908C5890.27,3466.25,5891.06,3468.746,5891.614,3471.9Z" transform="translate(-5694.789 -3380.958)" fill="#00af8d"/>
      <path id="Path_17614" data-name="Path 17614" d="M5903.071,3462.223l-11.443-1.137h-.014l-6.033-.6a4.726,4.726,0,0,1-4.189-3.87l-1.387-7.628a1.06,1.06,0,0,1-.028-.36v-.014a2.538,2.538,0,0,1,3.051-2.58l17.823,3.62a3.071,3.071,0,0,1,2.344,2.191l2.094,7.74A2.088,2.088,0,0,1,5903.071,3462.223Z" transform="translate(-5694.789 -3370.149)" fill="#cdf9d7"/>
      <path id="Path_17615" data-name="Path 17615" d="M5703.693,3082.247h-69.531a40.225,40.225,0,0,0-2.014-9.53c-1.554-4.487-4.238-9.492-8.936-12.349h56.817c9.262,0,17.469,4.947,20.729,12.349a9.618,9.618,0,0,1,.4.92A58.111,58.111,0,0,1,5703.693,3082.247Z" transform="translate(-5488.522 -3060.366)" fill="#008175"/>
      <path id="Path_17616" data-name="Path 17616" d="M5891.628,3471.837l-6.047-.6a4.726,4.726,0,0,1-4.189-3.87l-1.387-7.629a1.142,1.142,0,0,1-.028-.374,74.434,74.434,0,0,1,9.293,5.922C5890.27,3466.192,5891.06,3468.689,5891.628,3471.837Z" transform="translate(-5694.789 -3380.901)" fill="#a0e7b1"/>
      <path id="Path_17617" data-name="Path 17617" d="M5926.861,3594.83a11.374,11.374,0,0,1-11.637,11.124h-71.334a22.421,22.421,0,0,0-1.484-12.58h84.441C5926.861,3593.859,5926.861,3594.345,5926.861,3594.83Z" transform="translate(-5664.61 -3488.553)" fill="#0c6b60"/>
      <path id="Path_17618" data-name="Path 17618" d="M5537.272,3602.209a21.962,21.962,0,0,0,.306,3.745h-45.563v-12.58h47.061A22,22,0,0,0,5537.272,3602.209Z" transform="translate(-5383.125 -3488.553)" fill="#0c6b60"/>
      <path id="Path_17619" data-name="Path 17619" d="M6027.025,3468.263h27.293c.872,0,1.538,1.176,1.405,2.479l-.969,9.485c-.142,1.4-.937,2.424-1.87,2.424H6030.4c-1.441,0-2.713-1.427-3.133-3.513l-1.619-8.064C6025.366,3469.675,6026.058,3468.263,6027.025,3468.263Z" transform="translate(-5811.765 -3388.046)" fill="#0c6b60"/>
      <path id="Path_17620" data-name="Path 17620" d="M5833.266,3213.756a100.631,100.631,0,0,1-60.543-24.8h47.533a3.307,3.307,0,0,1,3.024,1.983Z" transform="translate(-5608.63 -3163.668)" fill="#cdf9d7"/>
      <rect id="Rectangle_54" data-name="Rectangle 54" width="121.766" height="117.409" transform="translate(0 0)" fill="#008175"/>
      <path id="Path_17621" data-name="Path 17621" d="M5690.208,3290.422s1.042,11.94-4.854,15.211h11.013Z" transform="translate(-5538.443 -3245.179)" fill="#008175"/>
      <path id="Path_17622" data-name="Path 17622" d="M5707.232,3317.834s-2.487-1.77-2.7-3.237v8.351h3.254Z" transform="translate(-5553.85 -3264.601)" fill="#008175"/>
      <g id="Group_879" data-name="Group 879" transform="translate(138.71 44.832)">
        <path id="Path_17623" data-name="Path 17623" d="M5655.624,3293.493v9.209a5.157,5.157,0,0,1-5.16,5.16h-1.65a5.177,5.177,0,0,1-5.16-5.16v-9.209a5.079,5.079,0,0,1,.749-2.65v-.013a5.173,5.173,0,0,1,4.411-2.5h1.65A5.177,5.177,0,0,1,5655.624,3293.493Z" transform="translate(-5643.654 -3288.333)" fill="#00af8d"/>
        <path id="Path_17624" data-name="Path 17624" d="M5655.083,3315.259a5.176,5.176,0,0,1-4.619,2.857h-1.65a5.176,5.176,0,0,1-5.16-5.16v-9.209a5.078,5.078,0,0,1,.749-2.65C5644.5,3301.667,5646.691,3314.3,5655.083,3315.259Z" transform="translate(-5643.654 -3298.587)" fill="#0c6b60"/>
      </g>
      <path id="Path_17625" data-name="Path 17625" d="M5016.544,3567.7h-29.953c-.632-2.7-2.538-21.956,14.248-21.957C5016.094,3545.738,5017.215,3563.3,5016.544,3567.7Z" transform="translate(-4976.774 -3450.286)" fill="#09594d"/>
      <g id="Group_880" data-name="Group 880" transform="translate(13.092 98.517)">
        <path id="Path_17626" data-name="Path 17626" d="M5034.786,3576.02c0,6.989,3.6,14.695,3.6,14.695h6.1c5.361,0,9.707-6.579,9.707-14.695s-10.448-14.695-15.809-14.695S5034.786,3567.9,5034.786,3576.02Z" transform="translate(-5028.684 -3561.325)" fill="#4a2009"/>
        <path id="Path_17627" data-name="Path 17627" d="M5004.881,3576.02c0,8.116,4.346,14.695,9.706,14.695s9.707-6.579,9.707-14.695-4.346-14.695-9.707-14.695S5004.881,3567.9,5004.881,3576.02Z" transform="translate(-5004.881 -3561.325)" fill="#994b2a"/>
        <ellipse id="Ellipse_32" data-name="Ellipse 32" cx="7.311" cy="11.069" rx="7.311" ry="11.069" transform="translate(2.517 3.626)" fill="#4a2009"/>
      </g>
      <path id="Path_17628" data-name="Path 17628" d="M5740.2,3132.693h-69.531a40.2,40.2,0,0,0-2.014-9.53h68.611a9.87,9.87,0,0,1,.4.92A58.112,58.112,0,0,1,5740.2,3132.693Z" transform="translate(-5525.025 -3110.813)" fill="#0c6b60"/>
    </g>
    <g id="Group_859" data-name="Group 859" transform="translate(-171.272 6522.406)">
      <g id="Group_859-2" data-name="Group 859" transform="translate(0 44.523)">
        <path id="Path_17566" data-name="Path 17566" d="M1196.638,3680.716l-.782.842c-1.859,2.016-6.908,7.495-12.466,13.8-1.311,1.487-2.661,3.033-4.011,4.579-2.016,2.329-3.992,4.658-5.832,6.909l-.019.019c-.568.665-1.1,1.311-1.624,1.957-1.1,1.351-2.114,2.642-3.053,3.855-2.818,3.679-4.794,6.653-5.167,8.16-2.25,9.413,2.133,35.909,3.269,42.386h-61.486c1.859-13.463,4.442-32.484,4.775-35.38.509-4.56-15.4-24.128-15.675-38.414-.254-14.266,9.178-24.481,10.665-38.531.724-6.615-.1-15.225-1.155-22.563-.548-3.894-1.194-7.377-1.7-10.02a3.669,3.669,0,0,1,.979-3.307,3.224,3.224,0,0,1,.7-.568,3.605,3.605,0,0,1,3.463-.274c3.523,1.507,7.437,5.5,8.454,15.46,0,0,2.955,1.859,7.729,4.892,1.937,1.214,4.168,2.623,6.634,4.188,1.9,1.193,3.933,2.485,6.066,3.835.137.078.274.176.411.254.861.547,1.7,1.1,2.6,1.663h.019c.313.2.626.411.959.607q.851.557,1.761,1.115a2.364,2.364,0,0,0,.372.215c3.875,2.466,7.925,5.049,12.015,7.652h.02c.665.391,1.331.821,2,1.252.509.333,1.037.646,1.566.979.646.43,1.311.841,1.976,1.252h.02c4.638,2.935,9.178,5.832,13.424,8.512.665.431,1.331.841,1.977,1.252.528.333,1.037.666,1.546.979.685.43,1.311.841,1.957,1.272h.02c8.1,5.107,14.364,9.1,16.653,10.567C1196.305,3680.5,1196.638,3680.7,1196.638,3680.716Z" transform="translate(-1094.561 -3613.844)" fill="#f2b9a0"/>
        <path id="Path_17567" data-name="Path 17567" d="M1136.164,3626.066a3.193,3.193,0,0,1-2.7,3.368l-.427.063c-.558-3.877-1.194-7.372-1.7-10.015a14.032,14.032,0,0,1-.528-3.856c2.676-1.309,3.7,1.856,4.034,3.14A40.787,40.787,0,0,1,1136.164,3626.066Z" transform="translate(-1123.516 -3615.02)" fill="#ffc197"/>
      </g>
      <path id="Path_17568" data-name="Path 17568" d="M1308.39,3993.008c-2.016,2.329-3.992,4.658-5.832,6.909l-.019.019c-.568.665-1.1,1.311-1.624,1.957-1.1,1.351-2.114,2.642-3.053,3.855-2.818,3.679-4.794,6.653-5.167,8.16-2.25,9.413,2.133,35.909,3.268,42.386h-40c7.417-11.056,8.376-30.527,8.434-39.47a22.1,22.1,0,0,1,1.918-7.808,94.386,94.386,0,0,1,9.589-16.81c3.248-4.735,6.243-8.532,7.456-10.039v-.02c.391-.45.587-.705.587-.705l22.113-.939h.02l.294,1.565.235,1.331,1.017,5.519Z" transform="translate(-1223.572 -3862.397)" fill="#f2b9a0"/>
      <g id="Group_873" data-name="Group 873" transform="translate(16.379 0)">
        <g id="Group_862" data-name="Group 862" transform="translate(0)">
          <path id="Path_17569" data-name="Path 17569" d="M1260.217,3535.588l-66.181,6.84a3.8,3.8,0,0,1-4.163-3.383L1176.2,3406.7a3.8,3.8,0,0,1,3.383-4.162l66.181-6.84a3.8,3.8,0,0,1,4.163,3.383l13.678,132.347A3.8,3.8,0,0,1,1260.217,3535.588Z" transform="translate(-1176.175 -3394.937)" fill="#117c93"/>
          <path id="Path_17570" data-name="Path 17570" d="M1295.827,3531.907l-66.181,6.84a3.8,3.8,0,0,1-4.163-3.383l-13.678-132.347a3.8,3.8,0,0,1,3.383-4.163l66.181-6.84a3.8,3.8,0,0,1,4.162,3.383l13.678,132.347A3.8,3.8,0,0,1,1295.827,3531.907Z" transform="translate(-1204.639 -3391.995)" fill="#8cb6c9"/>
          <g id="Group_860" data-name="Group 860" transform="translate(31.75 7.615)">
            <path id="Path_17571" data-name="Path 17571" d="M1372,3430.611a.752.752,0,0,0-.823-.669l-19.165,1.981a.75.75,0,1,0,.154,1.491l19.165-1.981A.752.752,0,0,0,1372,3430.611Z" transform="translate(-1347.938 -3429.938)" fill="#117c93"/>
            <path id="Path_17572" data-name="Path 17572" d="M1335.054,3441.564a.75.75,0,1,0,.823.668A.752.752,0,0,0,1335.054,3441.564Z" transform="translate(-1334.381 -3439.228)" fill="#117c93"/>
          </g>
          <path id="Path_17573" data-name="Path 17573" d="M1451.786,4047.458a4.835,4.835,0,1,0-4.312,5.306A4.834,4.834,0,0,0,1451.786,4047.458Z" transform="translate(-1388.765 -3912.446)" fill="#117c93"/>
          <rect id="Rectangle_52" data-name="Rectangle 52" width="61.623" height="113.753" transform="translate(14.06 17.708) rotate(-5.9)" fill="#e1ffe7"/>
          <rect id="Rectangle_53" data-name="Rectangle 53" width="61.623" height="13.205" transform="matrix(0.995, -0.103, 0.103, 0.995, 24.397, 117.732)" fill="#6bdbad"/>
          <g id="Group_861" data-name="Group 861" transform="translate(43.398 115.771)">
            <path id="Path_17574" data-name="Path 17574" d="M1393.158,3973.469l31.635-3.269a.668.668,0,1,0-.137-1.33l-31.635,3.269a.671.671,0,0,0-.6.734h0A.67.67,0,0,0,1393.158,3973.469Z" transform="translate(-1392.42 -3968.866)" fill="#e1ffe7"/>
            <path id="Path_17575" data-name="Path 17575" d="M1426.89,3983.981a.671.671,0,0,0-.734-.6l-31.635,3.269a.669.669,0,0,0,.138,1.33l31.635-3.27A.671.671,0,0,0,1426.89,3983.981Z" transform="translate(-1393.62 -3980.469)" fill="#e1ffe7"/>
          </g>
          <path id="Path_17576" data-name="Path 17576" d="M1335.466,3961.325a3.822,3.822,0,0,0-.333-1.253,4.455,4.455,0,0,0-4.618-2.779,4.513,4.513,0,0,0-3.973,3.659,4.891,4.891,0,0,0-.058,1.311c.254,2.465,5.323,7.514,5.323,7.514S1335.721,3963.81,1335.466,3961.325Zm-4.285,2.524a2.107,2.107,0,0,1-2.309-1.878,2.21,2.21,0,0,1,.273-1.292,2.135,2.135,0,0,1,1.605-1.037,2.049,2.049,0,0,1,1.78.685,2.1,2.1,0,0,1-1.35,3.522Z" transform="translate(-1296.303 -3843.824)" fill="#fa412b"/>
        </g>
        <g id="Group_872" data-name="Group 872" transform="translate(25.286 67.163)">
          <g id="Group_864" data-name="Group 864">
            <g id="Group_863" data-name="Group 863" transform="translate(0 3.414)">
              <path id="Path_17577" data-name="Path 17577" d="M1307.946,3744.251a4.164,4.164,0,0,0-.587-.313,4.01,4.01,0,0,0-1.82-.255,3.759,3.759,0,0,0-3.19,2.623,3.516,3.516,0,0,0-.156,1.506,3.77,3.77,0,0,0,4.129,3.346,3.461,3.461,0,0,0,2.153-1,3.641,3.641,0,0,0,1.193-3.131A3.723,3.723,0,0,0,1307.946,3744.251Zm.156,5.695a3.277,3.277,0,0,1-1.82.783,3.318,3.318,0,0,1-3.64-2.955,3.171,3.171,0,0,1,.117-1.213,3.261,3.261,0,0,1,2.838-2.446,2.926,2.926,0,0,1,1.546.235,2.507,2.507,0,0,1,.646.333,3.314,3.314,0,0,1,.313,5.264Z" transform="translate(-1302.17 -3743.667)" fill="#6bdbad"/>
            </g>
            <path id="Path_17578" data-name="Path 17578" d="M1310.1,3732.121l2.38,3.7,3.189-9.167-3.468,6.471Z" transform="translate(-1308.505 -3726.657)" fill="#008175"/>
          </g>
          <g id="Group_866" data-name="Group 866" transform="translate(1.43 13.779)">
            <g id="Group_865" data-name="Group 865" transform="translate(0 3.411)">
              <path id="Path_17579" data-name="Path 17579" d="M1316.793,3815.7a3.762,3.762,0,0,0-1.722-2.8,5.746,5.746,0,0,0-.587-.313,4.045,4.045,0,0,0-1.82-.254,3.758,3.758,0,1,0,4.129,3.366Zm-3.405,3.679a3.314,3.314,0,1,1-.665-6.6,3.139,3.139,0,0,1,1.546.216,2.5,2.5,0,0,1,.646.332,3.29,3.29,0,0,1,1.448,2.407A3.345,3.345,0,0,1,1313.388,3819.375Z" transform="translate(-1309.297 -3812.313)" fill="#6bdbad"/>
            </g>
            <path id="Path_17580" data-name="Path 17580" d="M1317.192,3800.782l2.38,3.7,3.189-9.167-3.468,6.47Z" transform="translate(-1315.607 -3795.318)" fill="#008175"/>
          </g>
          <g id="Group_868" data-name="Group 868" transform="translate(2.859 30.963)">
            <g id="Group_867" data-name="Group 867">
              <path id="Path_17581" data-name="Path 17581" d="M1323.911,3884.329a3.757,3.757,0,1,0-3.346,4.129A3.771,3.771,0,0,0,1323.911,3884.329Zm-3.405,3.679a3.315,3.315,0,1,1,2.955-3.64A3.316,3.316,0,0,1,1320.506,3888.008Z" transform="translate(-1316.415 -3880.943)" fill="#6bdbad"/>
            </g>
          </g>
          <g id="Group_869" data-name="Group 869" transform="translate(12.244 0.516)">
            <path id="Path_17582" data-name="Path 17582" d="M1399.307,3730.681l-35.389,3.657a.657.657,0,0,1-.719-.584l-.015-.144a.657.657,0,0,1,.584-.719l35.388-3.657a.658.658,0,0,1,.719.584l.015.144A.657.657,0,0,1,1399.307,3730.681Z" transform="translate(-1363.181 -3729.229)" fill="#6bdbad"/>
            <path id="Path_17583" data-name="Path 17583" d="M1400.634,3743.521l-35.388,3.658a.658.658,0,0,1-.719-.584l-.015-.144a.657.657,0,0,1,.584-.719l35.388-3.657a.657.657,0,0,1,.719.584l.015.144A.656.656,0,0,1,1400.634,3743.521Z" transform="translate(-1364.241 -3739.493)" fill="#6bdbad"/>
          </g>
          <g id="Group_870" data-name="Group 870" transform="translate(13.671 14.319)">
            <path id="Path_17584" data-name="Path 17584" d="M1406.414,3799.457l-35.388,3.657a.657.657,0,0,1-.719-.584l-.015-.144a.657.657,0,0,1,.584-.719l35.388-3.657a.657.657,0,0,1,.719.584l.015.144A.658.658,0,0,1,1406.414,3799.457Z" transform="translate(-1370.289 -3798.006)" fill="#6bdbad"/>
            <path id="Path_17585" data-name="Path 17585" d="M1407.742,3812.3l-35.388,3.658a.657.657,0,0,1-.719-.585l-.015-.144a.657.657,0,0,1,.584-.719l35.388-3.657a.657.657,0,0,1,.719.584l.015.144A.657.657,0,0,1,1407.742,3812.3Z" transform="translate(-1371.349 -3808.27)" fill="#6bdbad"/>
          </g>
          <g id="Group_871" data-name="Group 871" transform="translate(15.097 28.121)">
            <path id="Path_17586" data-name="Path 17586" d="M1413.522,3868.233l-35.388,3.657a.657.657,0,0,1-.719-.584l-.015-.144a.657.657,0,0,1,.584-.719l35.388-3.657a.657.657,0,0,1,.719.584l.015.144A.657.657,0,0,1,1413.522,3868.233Z" transform="translate(-1377.397 -3866.782)" fill="#6bdbad"/>
            <path id="Path_17587" data-name="Path 17587" d="M1414.849,3881.072l-35.388,3.657a.657.657,0,0,1-.719-.584l-.015-.144a.657.657,0,0,1,.584-.719l35.388-3.657a.658.658,0,0,1,.719.584l.015.144A.658.658,0,0,1,1414.849,3881.072Z" transform="translate(-1378.457 -3877.044)" fill="#6bdbad"/>
          </g>
        </g>
      </g>
      <g id="Group_874" data-name="Group 874" transform="translate(87.208 16.629)">
        <path id="Path_17588" data-name="Path 17588" d="M1588.67,3480.033s9.606-8.535,15.906-3.691-14.175,20.447-14.175,20.447Z" transform="translate(-1576.716 -3474.854)" fill="#f2b9a0"/>
        <path id="Path_17589" data-name="Path 17589" d="M1552.6,3611.89l-11.162,6.175a6.743,6.743,0,0,1-9.138-2.629l-1.823-3.3a6.744,6.744,0,0,1,2.629-9.138l11.163-6.175a6.744,6.744,0,0,1,9.138,2.629l1.823,3.3A6.743,6.743,0,0,1,1552.6,3611.89Z" transform="translate(-1529.534 -3571.68)" fill="#f2b9a0"/>
        <path id="Path_17590" data-name="Path 17590" d="M1562.233,3705.081l-11.162,6.175a6.744,6.744,0,0,1-9.138-2.629l-1.823-3.3a6.743,6.743,0,0,1,2.629-9.138l11.162-6.175a6.744,6.744,0,0,1,9.138,2.629l1.823,3.3A6.743,6.743,0,0,1,1562.233,3705.081Z" transform="translate(-1537.233 -3646.169)" fill="#f2b9a0"/>
        <path id="Path_17591" data-name="Path 17591" d="M1571.6,3795.754l-11.162,6.175a6.744,6.744,0,0,1-9.138-2.629l-1.823-3.3a6.743,6.743,0,0,1,2.629-9.138l11.163-6.175a6.744,6.744,0,0,1,9.138,2.629l1.823,3.3A6.743,6.743,0,0,1,1571.6,3795.754Z" transform="translate(-1544.723 -3718.646)" fill="#f2b9a0"/>
        <path id="Path_17592" data-name="Path 17592" d="M1530.574,3637.364a40.02,40.02,0,0,1,6.26-3.976,3.2,3.2,0,0,1,4.14,1.222l2.448,4.09a3.023,3.023,0,0,1-1,4.128,54.14,54.14,0,0,1-6.647,3.532,3.724,3.724,0,0,1-4.71-1.6l-1.486-2.633A3.687,3.687,0,0,1,1530.574,3637.364Z" transform="translate(-1529.104 -3601.316)" fill="#ffc197"/>
        <path id="Path_17593" data-name="Path 17593" d="M1540.471,3733.123a39.936,39.936,0,0,1,6.26-3.976,3.2,3.2,0,0,1,4.14,1.221l2.447,4.09a3.023,3.023,0,0,1-1,4.128,54.1,54.1,0,0,1-6.647,3.532,3.723,3.723,0,0,1-4.71-1.6l-1.486-2.633A3.687,3.687,0,0,1,1540.471,3733.123Z" transform="translate(-1537.014 -3677.857)" fill="#ffc197"/>
        <path id="Path_17594" data-name="Path 17594" d="M1551.509,3822.874a39.986,39.986,0,0,1,6.26-3.975,3.2,3.2,0,0,1,4.14,1.221l2.447,4.09a3.023,3.023,0,0,1-1,4.128,54.1,54.1,0,0,1-6.647,3.532,3.724,3.724,0,0,1-4.711-1.6l-1.486-2.633A3.687,3.687,0,0,1,1551.509,3822.874Z" transform="translate(-1545.837 -3749.597)" fill="#ffc197"/>
      </g>
    </g>
  </g>
</svg>
