<svg xmlns="http://www.w3.org/2000/svg" width="168.519" height="237.684" viewBox="0 0 168.519 237.684">
  <g id="Group_932" data-name="Group 932" transform="translate(-2285.602 -369.573)">
    <g id="Group_768" data-name="Group 768" transform="translate(2356.465 475.135)">
      <path id="Path_1245" data-name="Path 1245" d="M2126.36,710.091c64.868,17.576,67.543-26.795,67.543-26.795S2161.538,652.825,2126.36,710.091Z" transform="translate(-2126.36 -675.197)" fill="#284d43"/>
      <path id="Path_1246" data-name="Path 1246" d="M2186.843,690.086c1.561.562,3.132,1.088,4.7,1.633s3.141,1.055,4.717,1.566,3.117,1.143,4.737,1.5c.809.18,1.621.353,2.444.481q.519.084,1.043.149-1.97.715-3.932,1.449c-3.091,1.151-6.133,2.425-9.174,3.7-.417-.224-.841-.426-1.268-.615-.653-.287-1.312-.55-1.98-.782a36.537,36.537,0,0,0-4.113-1.028q-2.061-.5-4.132-.96c-1.384-.3-2.762-.613-4.151-.893l-.039.135c1.328.5,2.665.955,4,1.433s2.675.922,4.016,1.366a36.633,36.633,0,0,0,4.036,1.3c.69.156,1.389.281,2.094.381q.283.04.567.073-1.645.691-3.295,1.372l-13.415,5.549-13.39,5.614.052.131,13.6-5.091,7.33-2.786q-.151.169-.3.341a17.21,17.21,0,0,0-1.073,1.393,11.907,11.907,0,0,0-.888,1.5c-.257.524-.507,1.053-.779,1.568q-.817,1.544-1.606,3.107c-.514,1.048-1.047,2.086-1.546,3.143l.121.072c.692-.942,1.351-1.9,2.029-2.855s1.322-1.921,1.968-2.891c.324-.484.67-.956,1.009-1.431a11.894,11.894,0,0,0,.9-1.5,17.3,17.3,0,0,0,.714-1.606,12.007,12.007,0,0,0,.407-1.211l5.283-2.008c3.827-1.463,7.685-2.846,11.485-4.376q-.248.305-.487.615c-.512.658-.985,1.34-1.45,2.026-.936,1.37-1.626,2.885-2.421,4.338s-1.584,2.91-2.361,4.373-1.55,2.93-2.3,4.409l.121.072c.944-1.364,1.855-2.748,2.783-4.122s1.825-2.765,2.723-4.157,1.9-2.719,2.663-4.194c.382-.735.756-1.476,1.092-2.239.223-.5.434-1.005.625-1.524.358-.147.717-.293,1.073-.444,2.231-.937,4.459-1.883,6.67-2.87s4.412-2,6.59-3.07l-.052-.131q-3.479,1.072-6.9,2.282c-.661.231-1.319.471-1.978.708-.554-.284-1.117-.536-1.685-.773-.767-.326-1.547-.608-2.33-.882-1.563-.553-3.2-.832-4.814-1.227s-3.218-.785-4.832-1.161-3.229-.746-4.852-1.093Z" transform="translate(-2146.758 -684.063)" fill="#52999a"/>
    </g>
    <g id="Group_769" data-name="Group 769" transform="translate(2342.958 525.871)">
      <path id="Path_1247" data-name="Path 1247" d="M2331.941,525.913c-27.555,49.135,7.966,60.385,7.966,60.385S2371.3,566.221,2331.941,525.913Z" transform="translate(-2321.466 -525.913)" fill="#53bfab"/>
      <path id="Path_1248" data-name="Path 1248" d="M2354.664,582.662c-.776,1.154-1.525,2.323-2.289,3.484s-1.5,2.338-2.238,3.514-1.566,2.3-2.186,3.544c-.312.621-.618,1.245-.891,1.889q-.175.4-.334.817-.178-1.747-.374-3.493c-.3-2.748-.717-5.482-1.133-8.215.268-.293.518-.6.759-.9.367-.471.716-.954,1.041-1.449a30.7,30.7,0,0,0,1.677-3.133q.825-1.574,1.625-3.162c.525-1.065,1.063-2.121,1.575-3.192l-.1-.059c-.674.977-1.321,1.971-1.983,2.956s-1.3,1.986-1.931,2.986a30.571,30.571,0,0,0-1.881,3.015c-.268.529-.512,1.071-.738,1.624q-.09.221-.175.446-.225-1.478-.442-2.959l-1.767-12.04-1.825-12.032-.117.016,1.358,12.094.765,6.528q-.106-.157-.216-.312a14.52,14.52,0,0,0-.912-1.157,9.957,9.957,0,0,0-1.041-1.029c-.374-.316-.752-.627-1.115-.954q-1.088-.981-2.2-1.941c-.747-.633-1.481-1.277-2.239-1.9l-.083.083c.624.755,1.271,1.488,1.906,2.233s1.291,1.468,1.947,2.191c.328.362.64.74.957,1.112a9.96,9.96,0,0,0,1.031,1.038,14.534,14.534,0,0,0,1.16.909,10.137,10.137,0,0,0,.9.578l.552,4.705c.406,3.41.741,6.829,1.208,10.23q-.2-.263-.4-.521c-.43-.551-.888-1.075-1.351-1.593-.921-1.041-2.012-1.912-3.031-2.855s-2.041-1.883-3.073-2.814-2.065-1.859-3.114-2.772l-.083.083c.916,1.046,1.854,2.07,2.781,3.105s1.875,2.049,2.823,3.064,1.821,2.1,2.865,3.022c.52.461,1.045.917,1.6,1.346.36.283.729.558,1.111.819.046.321.092.643.141.964.306,2.005.619,4.009.969,6.009s.724,4,1.148,5.985l.117-.016q-.16-3.047-.443-6.078c-.052-.585-.113-1.169-.17-1.753.344-.392.664-.8.972-1.211.422-.557.811-1.134,1.194-1.714.77-1.158,1.332-2.435,1.982-3.661s1.3-2.456,1.932-3.691,1.267-2.473,1.88-3.72Z" transform="translate(-2328.918 -544.172)" fill="#52999a"/>
    </g>
    <g id="Group_770" data-name="Group 770" transform="translate(2408.031 489.74)">
      <path id="Path_1249" data-name="Path 1249" d="M2836.05,350.523c-51.931,49.106-13.156,76.146-13.156,76.146S2868.494,414.207,2836.05,350.523Z" transform="translate(-2808.985 -350.523)" fill="#284d43"/>
      <path id="Path_1250" data-name="Path 1250" d="M2850.168,425.928c-1.376,1.1-2.724,2.238-4.087,3.356s-2.7,2.265-4.037,3.411-2.766,2.194-3.986,3.466c-.613.634-1.219,1.275-1.793,1.951q-.364.424-.713.863.443-2.184.866-4.371c.671-3.443,1.2-6.91,1.73-10.378.435-.254.853-.526,1.261-.809q.934-.648,1.808-1.363a38.9,38.9,0,0,0,3.214-3.161q1.594-1.595,3.164-3.216c1.037-1.091,2.088-2.167,3.113-3.271l-.1-.11c-1.186.929-2.345,1.888-3.518,2.832s-2.32,1.915-3.467,2.886a38.934,38.934,0,0,0-3.416,2.942q-.786.81-1.508,1.689-.193.234-.381.474.286-1.876.582-3.751l2.407-15.25,2.334-15.263-.147-.026-2.923,15.161-1.539,8.2c-.046-.154-.094-.307-.145-.459a18.264,18.264,0,0,0-.668-1.746,12.644,12.644,0,0,0-.872-1.639c-.333-.524-.674-1.044-.99-1.577q-.948-1.6-1.928-3.18c-.666-1.048-1.312-2.107-1.995-3.146l-.132.07c.471,1.15.978,2.282,1.465,3.424s1.01,2.265,1.531,3.389c.26.563.5,1.138.74,1.709a12.556,12.556,0,0,0,.858,1.646,18.218,18.218,0,0,0,1.061,1.539,12.786,12.786,0,0,0,.873,1.041l-1.109,5.907c-.8,4.283-1.681,8.551-2.4,12.847-.093-.263-.188-.524-.288-.783-.313-.829-.67-1.637-1.033-2.439-.724-1.609-1.715-3.076-2.593-4.6s-1.761-3.051-2.658-4.568-1.8-3.032-2.724-4.533l-.133.07c.714,1.613,1.465,3.207,2.2,4.811s1.5,3.19,2.262,4.777,1.411,3.236,2.327,4.742c.456.755.92,1.505,1.427,2.233.329.479.672.951,1.036,1.411-.065.407-.131.813-.192,1.22-.387,2.544-.765,5.09-1.1,7.644s-.632,5.113-.87,7.682l.147.026q.957-3.751,1.758-7.529c.158-.728.3-1.458.456-2.187.565-.345,1.106-.716,1.635-1.1.722-.516,1.41-1.067,2.093-1.625,1.369-1.111,2.533-2.446,3.784-3.686s2.5-2.485,3.733-3.741,2.469-2.516,3.683-3.8Z" transform="translate(-2819.144 -373.543)" fill="#65a7ad"/>
    </g>
    <g id="Group_771" data-name="Group 771" transform="translate(2290.415 465.208)">
      <path id="Path_1251" data-name="Path 1251" d="M2125.265,352.134c-59.213,40.026-25.341,73-25.341,73S2146.942,420.24,2125.265,352.134Z" transform="translate(-2090.28 -352.134)" fill="#284d43"/>
      <path id="Path_1252" data-name="Path 1252" d="M2132.989,426.518c-1.537.866-3.051,1.766-4.578,2.649s-3.032,1.8-4.537,2.71-3.085,1.716-4.5,2.773c-.707.526-1.41,1.06-2.086,1.634q-.428.36-.844.736.792-2.083,1.565-4.173c1.22-3.288,2.308-6.623,3.391-9.959.47-.18.927-.381,1.376-.594q1.027-.488,2.005-1.051a38.858,38.858,0,0,0,3.685-2.6q1.833-1.314,3.644-2.66c1.2-.908,2.412-1.8,3.6-2.723l-.082-.125c-1.321.725-2.62,1.483-3.931,2.223s-2.6,1.513-3.89,2.285a38.937,38.937,0,0,0-3.849,2.348q-.907.672-1.761,1.422c-.153.133-.3.268-.453.405q.587-1.8,1.183-3.606l4.851-14.657,4.78-14.682-.141-.049-5.344,14.486-2.848,7.837q-.031-.24-.068-.477a18.227,18.227,0,0,0-.376-1.831,12.677,12.677,0,0,0-.594-1.759c-.243-.571-.5-1.139-.722-1.716q-.675-1.732-1.386-3.451c-.487-1.142-.953-2.292-1.457-3.428l-.142.047c.278,1.212.594,2.411.89,3.617s.628,2.4.961,3.593c.165.6.3,1.2.452,1.806a12.634,12.634,0,0,0,.579,1.764,18.256,18.256,0,0,0,.8,1.691,12.758,12.758,0,0,0,.693,1.169l-2.053,5.649c-1.48,4.1-3.047,8.165-4.454,12.287-.049-.274-.1-.547-.157-.819-.174-.869-.4-1.724-.624-2.575-.453-1.7-1.193-3.313-1.811-4.963s-1.243-3.3-1.882-4.939-1.283-3.283-1.953-4.915l-.142.047c.443,1.708.925,3.4,1.385,5.1s.959,3.391,1.457,5.081.867,3.422,1.527,5.057c.327.819.663,1.635,1.045,2.435.247.526.509,1.048.793,1.561-.13.391-.261.781-.388,1.173-.795,2.448-1.581,4.9-2.322,7.365s-1.453,4.942-2.105,7.44l.141.049q1.553-3.547,2.957-7.144c.274-.693.537-1.39.8-2.085.614-.248,1.208-.527,1.792-.819.8-.392,1.565-.824,2.329-1.264,1.531-.874,2.9-2,4.332-3.023s2.868-2.047,4.291-3.086,2.844-2.082,4.25-3.148Z" transform="translate(-2102.6 -374.185)" fill="#52999a"/>
    </g>
    <g id="Group_772" data-name="Group 772" transform="translate(2384.777 531.481)">
      <path id="Path_1253" data-name="Path 1253" d="M2844.938,573.112c-71.429,2.481-60.233,48.408-60.233,48.408S2827.149,642.335,2844.938,573.112Z" transform="translate(-2784.068 -573.112)" fill="#56928d"/>
      <path id="Path_1254" data-name="Path 1254" d="M2814.148,629.579c-1.763-.082-3.524-.123-5.286-.187s-3.523-.087-5.284-.112-3.525-.184-5.283-.037c-.878.071-1.757.15-2.635.278q-.554.077-1.106.176,1.778-1.345,3.542-2.706c2.78-2.139,5.472-4.387,8.162-6.639.494.1.987.17,1.481.227.753.088,1.505.147,2.257.174a38.83,38.83,0,0,0,4.5-.245q2.251-.141,4.5-.32c1.5-.133,3-.243,4.5-.395l0-.149c-1.5-.087-3.008-.134-4.511-.2s-3.007-.1-4.51-.128a38.869,38.869,0,0,0-4.508-.053c-.75.058-1.5.15-2.248.269q-.3.049-.6.1,1.455-1.218,2.917-2.428l11.892-9.845,11.845-9.9-.094-.117-12.22,9.438-6.575,5.129q.1-.22.2-.44a18.336,18.336,0,0,0,.653-1.752,12.591,12.591,0,0,0,.431-1.806c.1-.613.185-1.229.3-1.838q.347-1.826.658-3.661c.194-1.226.409-2.447.585-3.679l-.145-.035c-.408,1.174-.776,2.358-1.167,3.537s-.741,2.367-1.093,3.555c-.177.594-.38,1.182-.576,1.771a12.575,12.575,0,0,0-.445,1.8,18.259,18.259,0,0,0-.222,1.856,12.661,12.661,0,0,0-.034,1.358l-4.739,3.7c-3.43,2.686-6.917,5.3-10.3,8.047.1-.258.2-.517.3-.777.313-.829.581-1.67.838-2.513.521-1.685.748-3.441,1.1-5.167s.7-3.453,1.027-5.185.656-3.463.955-5.2l-.145-.035c-.531,1.682-1.023,3.374-1.536,5.061s-.988,3.383-1.463,5.079-1.082,3.36-1.391,5.1c-.157.867-.306,1.737-.407,2.618-.07.577-.125,1.158-.157,1.744-.318.262-.636.523-.952.788-1.973,1.652-3.94,3.311-5.877,5.008s-3.855,3.416-5.734,5.187l.094.117q3.2-2.181,6.3-4.484c.6-.442,1.193-.892,1.789-1.339.652.115,1.3.194,1.954.257.882.091,1.763.133,2.645.166,1.762.072,3.518-.159,5.276-.262s3.517-.212,5.275-.336,3.516-.254,5.273-.411Z" transform="translate(-2784.958 -587.671)" fill="#284d43"/>
    </g>
    <g id="Group_773" data-name="Group 773" transform="translate(2370.157 370.373) rotate(42)">
      <path id="Path_1255" data-name="Path 1255" d="M0,.231C32.528,94.507,89.218,60.784,89.218,60.784S99.624-4.353,0,.231Z" transform="translate(0 0)" fill="#4b665b"/>
      <path id="Path_1256" data-name="Path 1256" d="M51,13.04c.611,2.385,1.277,4.751,1.913,7.128q.981,3.556,2.012,7.1c.684,2.36,1.2,4.778,2.111,7.062.453,1.143.919,2.283,1.449,3.4q.329.707.687,1.4-2.521-1.821-5.058-3.618c-3.991-2.834-8.091-5.505-12.2-8.172-.073-.7-.178-1.387-.3-2.069-.192-1.04-.419-2.069-.692-3.082a54.2,54.2,0,0,0-2.168-5.905q-1.109-2.944-2.268-5.873c-.79-1.946-1.552-3.9-2.367-5.84l-.2.065c.5,2.042,1.051,4.067,1.574,6.1q.812,3.043,1.674,6.069a54.272,54.272,0,0,0,1.773,6.036c.385.976.813,1.939,1.279,2.888q.186.38.383.756-2.22-1.443-4.432-2.9l-18-11.837L.117,0,0,.173,17.589,12.615l9.531,6.673q-.334-.045-.667-.081a25.661,25.661,0,0,0-2.6-.155,17.724,17.724,0,0,0-2.585.164c-.858.122-1.715.256-2.574.352q-2.578.284-5.152.62c-1.716.243-3.433.455-5.147.724l.013.208c1.733.064,3.464.071,5.2.109q2.6.028,5.19,0c.865-.007,1.731.024,2.6.044a17.615,17.615,0,0,0,2.586-.143,25.642,25.642,0,0,0,2.567-.463,17.911,17.911,0,0,0,1.826-.511l6.87,4.81c4.987,3.477,9.9,7.059,14.948,10.446q-.581-.049-1.16-.084c-1.235-.079-2.466-.091-3.7-.09-2.461-.007-4.9.409-7.343.646s-4.892.483-7.337.75c-2.443.286-4.889.542-7.33.854l.012.208c2.461.02,4.92-.016,7.38-.022q3.689-.036,7.374-.125c2.457-.055,4.925.069,7.367-.229,1.222-.145,2.443-.3,3.659-.528.8-.142,1.6-.306,2.39-.5.479.317.958.635,1.44.947,3.011,1.957,6.029,3.9,9.085,5.792s6.135,3.746,9.265,5.528l.117-.172q-4.218-3.376-8.558-6.569c-.835-.62-1.678-1.227-2.518-1.838-.114-.917-.274-1.818-.456-2.712-.24-1.214-.545-2.407-.861-3.6-.625-2.38-1.652-4.627-2.508-6.931s-1.721-4.6-2.606-6.9c-.9-2.289-1.777-4.586-2.706-6.867Z" transform="translate(17.867 12.311)" fill="#65a7ad"/>
    </g>
    <g id="Group_774" data-name="Group 774" transform="translate(2387.675 420.277)">
      <path id="Path_1257" data-name="Path 1257" d="M2362.963,574.232c-38.322,92.073,26.453,104.531,26.453,104.531S2440.468,636.993,2362.963,574.232Z" transform="translate(-2350.839 -574.232)" fill="#2e5546"/>
      <path id="Path_1258" data-name="Path 1258" d="M2412.355,670.35c-1.128,2.188-2.2,4.4-3.305,6.6q-1.629,3.309-3.209,6.639c-1.057,2.219-2.281,4.366-3.115,6.681-.42,1.156-.83,2.317-1.177,3.5q-.223.747-.419,1.506-.675-3.036-1.377-6.064c-1.1-4.77-2.39-9.49-3.685-14.21.41-.571.789-1.154,1.148-1.747q.823-1.357,1.531-2.763a54.225,54.225,0,0,0,2.3-5.854q1.127-2.937,2.207-5.9c.7-1.98,1.433-3.947,2.111-5.937l-.192-.083c-.984,1.858-1.917,3.738-2.877,5.606q-1.414,2.813-2.781,5.647a54.235,54.235,0,0,0-2.685,5.689c-.361.985-.68,1.989-.963,3.009q-.113.408-.216.82-.7-2.553-1.387-5.111l-5.588-20.8-5.689-20.78-.2.051,4.881,20.984,2.69,11.32q-.219-.256-.445-.5a25.475,25.475,0,0,0-1.844-1.846,17.645,17.645,0,0,0-2.041-1.595c-.722-.479-1.452-.948-2.158-1.447q-2.115-1.5-4.263-2.96c-1.443-.958-2.868-1.94-4.328-2.878l-.129.164c1.253,1.2,2.542,2.354,3.812,3.533s2.572,2.315,3.875,3.451c.651.569,1.278,1.169,1.912,1.759a17.641,17.641,0,0,0,2.028,1.611,25.621,25.621,0,0,0,2.226,1.36,18.064,18.064,0,0,0,1.7.831l1.939,8.159c1.417,5.911,2.711,11.854,4.232,17.738-.268-.282-.537-.56-.812-.834-.871-.88-1.783-1.706-2.7-2.522-1.835-1.64-3.932-2.947-5.917-4.4s-3.978-2.89-5.982-4.314-4.014-2.843-6.046-4.232l-.129.164c1.826,1.651,3.688,3.257,5.53,4.887s3.719,3.217,5.594,4.805,3.635,3.323,5.659,4.723c1.009.7,2.026,1.4,3.085,2.036.691.424,1.4.831,2.122,1.211.148.556.294,1.111.447,1.665.951,3.463,1.914,6.922,2.942,10.365q1.519,5.17,3.252,10.286l.2-.051q-.909-5.325-2.032-10.6c-.212-1.018-.438-2.032-.661-3.047.525-.761,1-1.541,1.46-2.33.627-1.067,1.192-2.161,1.746-3.259,1.114-2.194,1.84-4.556,2.73-6.847s1.773-4.585,2.636-6.888c.846-2.31,1.719-4.609,2.54-6.93Z" transform="translate(-2365.45 -605.822)" fill="#65a7ad"/>
    </g>
    <g id="Group_778" data-name="Group 778" transform="translate(2338.696 447.426)">
      <path id="Path_1265" data-name="Path 1265" d="M2281.667,812.391c72.966-.229,63.022-47.454,63.022-47.454S2302.05,742.33,2281.667,812.391Z" transform="translate(-2281.667 -761.459)" fill="#496052"/>
      <path id="Path_1266" data-name="Path 1266" d="M2334.344,775.8c1.8.14,3.592.239,5.387.361s3.592.2,5.388.284,3.591.3,5.389.208c.9-.044,1.8-.1,2.7-.2q.568-.06,1.135-.144-1.857,1.315-3.7,2.646c-2.906,2.093-5.725,4.3-8.542,6.511-.5-.115-1-.205-1.5-.28-.766-.114-1.531-.2-2.3-.25a39.643,39.643,0,0,0-4.6.105q-2.3.071-4.6.181c-1.534.087-3.068.152-4.6.258l0,.153c1.532.137,3.064.234,4.6.352s3.064.2,4.6.277a39.735,39.735,0,0,0,4.6.2c.767-.035,1.534-.1,2.3-.2q.307-.039.614-.087-1.524,1.2-3.055,2.384l-12.452,9.663-12.406,9.723.092.122,12.773-9.236,6.874-5.021q-.111.22-.214.443a18.944,18.944,0,0,0-.723,1.766,12.925,12.925,0,0,0-.5,1.828c-.119.623-.229,1.248-.365,1.866q-.413,1.852-.789,3.714c-.238,1.245-.5,2.485-.715,3.735l.147.04c.454-1.185.868-2.382,1.3-3.572s.833-2.391,1.23-3.592c.2-.6.426-1.193.645-1.788a13,13,0,0,0,.512-1.825,18.721,18.721,0,0,0,.286-1.887,13.158,13.158,0,0,0,.078-1.385l4.955-3.619c3.586-2.63,7.229-5.186,10.767-7.88q-.171.391-.333.784c-.347.836-.646,1.686-.936,2.538-.586,1.7-.874,3.487-1.289,5.237s-.823,3.5-1.216,5.257-.781,3.513-1.143,5.277l.147.041c.6-1.7,1.153-3.41,1.73-5.115s1.117-3.42,1.657-5.135,1.212-3.394,1.584-5.155c.188-.88.368-1.763.5-2.658.09-.586.165-1.177.216-1.774.333-.257.667-.513,1-.773,2.066-1.623,4.127-3.252,6.158-4.921s4.044-3.362,6.018-5.107l-.092-.122q-3.335,2.122-6.572,4.372c-.626.431-1.246.872-1.868,1.309-.662-.138-1.323-.24-1.985-.325-.9-.121-1.795-.192-2.693-.254-1.8-.131-3.594.049-5.392.1s-3.595.1-5.393.173-3.6.146-5.394.25Z" transform="translate(-2293.332 -760.133)" fill="#62a2a7"/>
    </g>
    <g id="Group_779" data-name="Group 779" transform="matrix(0.391, -0.921, 0.921, 0.391, 2350.236, 585.888)">
      <path id="Path_1267" data-name="Path 1267" d="M0,0C14.676,71.475,59,52.374,59,52.374S72.711,6.1,0,0Z" fill="#284d43"/>
      <path id="Path_1268" data-name="Path 1268" d="M35.781,14.276c.218,1.788.477,3.568.714,5.352s.513,3.561.789,5.338.415,3.58.863,5.324c.221.872.45,1.743.729,2.6q.172.544.366,1.083-1.657-1.56-3.327-3.1c-2.627-2.434-5.349-4.76-8.074-7.083.013-.514,0-1.023-.024-1.53-.04-.773-.108-1.54-.21-2.3a39.76,39.76,0,0,0-1.014-4.489Q26.065,13.23,25.5,11c-.389-1.487-.756-2.977-1.164-4.461l-.15.029c.168,1.529.378,3.05.565,4.576s.414,3.043.64,4.561a39.583,39.583,0,0,0,.715,4.547c.186.745.406,1.484.654,2.217q.1.293.206.585-1.475-1.257-2.941-2.523L12.089,10.235.1,0,0,.114,11.583,10.8l6.284,5.744c-.159-.043-.317-.083-.476-.122a18.654,18.654,0,0,0-1.874-.359,12.974,12.974,0,0,0-1.891-.125c-.634.007-1.268.023-1.9.012q-1.9-.038-3.8-.038c-1.268.014-2.534.005-3.8.038l-.01.152c1.251.21,2.506.379,3.759.571s2.509.342,3.765.494c.628.077,1.254.182,1.88.277a12.855,12.855,0,0,0,1.89.141,18.768,18.768,0,0,0,1.907-.093,13.043,13.043,0,0,0,1.373-.2l4.529,4.14c3.288,2.994,6.515,6.058,9.856,8.993q-.416-.09-.834-.171c-.888-.174-1.781-.3-2.673-.415-1.785-.238-3.591-.166-5.388-.226s-3.595-.113-5.394-.15-3.6-.069-5.4-.074l-.011.152c1.784.248,3.571.455,5.356.683s3.574.417,5.362.607,3.566.516,5.367.531c.9.01,1.8.012,2.7-.037.592-.028,1.187-.071,1.782-.14.318.275.634.551.955.824,2,1.7,4,3.4,6.043,5.062s4.1,3.3,6.2,4.887l.1-.114Q44.5,39,41.656,36.275c-.547-.529-1.1-1.049-1.653-1.572,0-.676-.027-1.345-.074-2.01-.06-.9-.167-1.8-.284-2.69-.228-1.786-.761-3.514-1.163-5.266s-.813-3.5-1.238-5.252-.856-3.5-1.313-5.238Z" transform="translate(11.803 10.466)" fill="#52999a"/>
    </g>
    <g id="Group_781" data-name="Group 781" transform="translate(2398.124 487.059)">
      <path id="Path_1271" data-name="Path 1271" d="M2583.761,329.926c-53.745,16.885-35.594,49.425-35.594,49.425S2584.782,386.251,2583.761,329.926Z" transform="translate(-2545.217 -329.926)" fill="#468984"/>
      <path id="Path_1272" data-name="Path 1272" d="M2572.864,383.319c-1.356.308-2.7.646-4.055.969s-2.695.674-4.038,1.024-2.717.6-4.021,1.081c-.653.238-1.3.483-1.944.765q-.4.175-.8.366,1.068-1.395,2.122-2.8c1.663-2.209,3.236-4.482,4.806-6.758.4-.03.786-.079,1.173-.138q.886-.137,1.751-.342a30.636,30.636,0,0,0,3.368-1.132q1.68-.579,3.352-1.188c1.112-.415,2.228-.815,3.335-1.245l-.034-.112c-1.161.249-2.313.529-3.47.793s-2.3.557-3.453.85a30.658,30.658,0,0,0-3.436.906c-.558.2-1.108.429-1.651.677-.145.066-.289.134-.433.2q.85-1.231,1.707-2.457l6.967-9.977,6.919-10.011-.1-.069-7.3,9.736-3.918,5.277c.02-.125.039-.25.056-.375a14.368,14.368,0,0,0,.129-1.468,9.985,9.985,0,0,0-.052-1.462c-.055-.486-.117-.972-.158-1.459q-.12-1.46-.269-2.919c-.11-.973-.2-1.946-.328-2.918l-.118,0c-.063.978-.095,1.955-.143,2.932s-.066,1.954-.084,2.93c-.01.488-.041.977-.065,1.466a9.912,9.912,0,0,0,.04,1.462,14.433,14.433,0,0,0,.221,1.457,10.2,10.2,0,0,0,.26,1.039l-2.824,3.8c-2.042,2.761-4.141,5.48-6.133,8.276q.037-.327.066-.654c.064-.7.09-1.391.109-2.085.042-1.389-.154-2.771-.25-4.156s-.2-2.77-.308-4.155-.229-2.769-.367-4.153l-.118,0c-.051,1.39-.069,2.778-.1,4.168s-.04,2.777-.045,4.165-.117,2.78.013,4.164c.063.692.133,1.384.241,2.075.068.453.148.906.247,1.358-.186.266-.374.531-.557.8-1.152,1.669-2.3,3.343-3.414,5.039s-2.212,3.405-3.267,5.144l.1.069q1.972-2.329,3.844-4.729c.363-.461.719-.928,1.078-1.393.52-.049,1.031-.126,1.538-.215.689-.117,1.368-.27,2.044-.429,1.354-.316,2.639-.86,3.954-1.307s2.627-.9,3.937-1.363,2.617-.932,3.919-1.42Z" transform="translate(-2549.587 -344.829)" fill="#65a7ad"/>
    </g>
    <g id="Group_783" data-name="Group 783" transform="translate(2341.335 452.819) rotate(-60)">
      <path id="Path_1275" data-name="Path 1275" d="M0,0C11.9,70.174,55.754,53.043,55.754,53.043S70.68,8.4,0,0Z" fill="#499393"/>
      <path id="Path_1276" data-name="Path 1276" d="M34.406,15.118c.152,1.75.345,3.494.516,5.242s.38,3.489.589,5.23.285,3.5.663,5.219c.186.858.38,1.715.623,2.564q.15.536.32,1.068-1.562-1.576-3.139-3.137c-2.479-2.461-5.055-4.821-7.633-7.177.03-.5.037-1,.028-1.492-.014-.755-.054-1.505-.128-2.251a38.683,38.683,0,0,0-.838-4.411q-.438-2.2-.911-4.4c-.329-1.463-.637-2.928-.985-4.388l-.147.023c.113,1.5.265,2.986.4,4.479s.3,2.981.47,4.468a38.734,38.734,0,0,0,.544,4.457c.156.732.346,1.46.563,2.183q.088.289.182.577-1.395-1.276-2.782-2.558L11.446,10.381.1,0,0,.108,10.933,10.92l5.933,5.811q-.23-.071-.46-.135a18.268,18.268,0,0,0-1.816-.413A12.63,12.63,0,0,0,12.751,16c-.618-.014-1.237-.02-1.854-.053q-1.848-.1-3.7-.164c-1.236-.03-2.47-.08-3.708-.091l-.016.148c1.213.247,2.431.455,3.646.683s2.434.418,3.653.609c.61.1,1.216.219,1.824.334a12.575,12.575,0,0,0,1.838.2,18.36,18.36,0,0,0,1.862-.026,12.887,12.887,0,0,0,1.345-.147l4.276,4.188c3.105,3.03,6.148,6.125,9.306,9.1q-.4-.1-.807-.195c-.86-.2-1.725-.352-2.592-.494-1.732-.292-3.5-.283-5.246-.4s-3.5-.231-5.253-.328-3.505-.189-5.261-.254l-.016.148c1.731.3,3.466.563,5.2.846s3.47.527,5.207.772,3.459.623,5.214.7c.877.041,1.755.072,2.638.055.579-.007,1.159-.03,1.742-.076.3.279.6.559.9.835,1.892,1.729,3.79,3.451,5.721,5.138s3.882,3.353,5.878,4.973l.1-.108q-2.576-2.868-5.259-5.624c-.516-.534-1.038-1.059-1.559-1.588.028-.659.019-1.312,0-1.963-.028-.883-.1-1.758-.187-2.632-.162-1.749-.623-3.451-.957-5.173s-.675-3.443-1.03-5.161-.716-3.437-1.1-5.15Z" transform="translate(11.151 10.604)" fill="#4b665b"/>
    </g>
    <g id="Group_786" data-name="Group 786" transform="matrix(0.208, 0.978, -0.978, 0.208, 2408.049, 485.891)">
      <path id="Path_1281" data-name="Path 1281" d="M53.228,99.356C77.249,2.562,11.337,0,11.337,0S-32.844,48.98,53.228,99.356Z" transform="translate(0 0.04)" fill="#284d43"/>
      <path id="Path_1282" data-name="Path 1282" d="M.2,40.842c.785-2.333,1.514-4.681,2.274-7.021Q3.588,30.3,4.649,26.773c.711-2.352,1.6-4.659,2.073-7.074.241-1.206.472-2.416.636-3.642q.108-.772.188-1.551,1.123,2.9,2.274,5.788c1.8,4.55,3.792,9.022,5.783,13.493-.32.626-.606,1.26-.873,1.9q-.609,1.465-1.1,2.962a54.2,54.2,0,0,0-1.395,6.134q-.672,3.073-1.294,6.161c-.4,2.063-.822,4.118-1.193,6.187l.2.053c.693-1.985,1.332-3.984,2-5.976q.974-2.994,1.9-6a54.253,54.253,0,0,0,1.8-6.029c.209-1.028.373-2.069.5-3.119q.05-.42.09-.843,1.077,2.419,2.141,4.844l8.657,19.726L35.79,79.473l.192-.081L28,59.382,23.633,48.6q.256.22.516.431a25.517,25.517,0,0,0,2.1,1.548,17.674,17.674,0,0,0,2.258,1.269c.786.365,1.578.719,2.351,1.106q2.317,1.165,4.66,2.284c1.571.73,3.127,1.486,4.712,2.194l.1-.181c-1.419-1-2.867-1.945-4.3-2.92Q33.869,52.89,31.681,51.5c-.729-.464-1.439-.963-2.155-1.45a17.65,17.65,0,0,0-2.247-1.288,25.684,25.684,0,0,0-2.406-1.009,17.969,17.969,0,0,0-1.81-.565l-3.146-7.774c-2.291-5.63-4.465-11.31-6.855-16.9q.46.357.928.7c.993.739,2.019,1.418,3.052,2.087,2.061,1.345,4.331,2.321,6.511,3.455s4.367,2.258,6.563,3.364c2.206,1.09,4.4,2.206,6.614,3.273l.1-.182c-2.054-1.357-4.136-2.665-6.2-4q-3.114-1.977-6.254-3.908c-2.091-1.291-4.094-2.738-6.306-3.817-1.1-.543-2.214-1.075-3.357-1.549-.747-.315-1.505-.611-2.28-.878-.23-.527-.458-1.054-.692-1.579-1.461-3.28-2.935-6.555-4.469-9.8S4.164,3.2,2.508,0L2.316.081q1.7,5.127,3.6,10.168c.363.974.74,1.942,1.112,2.913-.4.831-.76,1.674-1.093,2.523C5.48,16.834,5.086,18,4.7,19.17c-.771,2.337-1.133,4.781-1.669,7.18s-1.062,4.8-1.568,7.206C.98,35.967.463,38.371,0,40.789Z" transform="translate(8.925 0)" fill="#52999a"/>
    </g>
    <g id="Group_787" data-name="Group 787" transform="translate(2414.901 465.081) rotate(8)">
      <path id="Path_1283" data-name="Path 1283" d="M8.28,0C-18.445,66.288,28.074,74.7,28.074,74.7S64.324,44.354,8.28,0Z" transform="translate(0 0)" fill="#284d43"/>
      <path id="Path_1284" data-name="Path 1284" d="M26.838,30.973c-.79,1.577-1.543,3.171-2.316,4.755s-1.51,3.184-2.247,4.784-1.6,3.147-2.178,4.813c-.292.832-.576,1.667-.815,2.521q-.154.538-.288,1.082-.508-2.17-1.036-4.335c-.826-3.409-1.788-6.782-2.755-10.154.289-.412.556-.834.809-1.261q.579-.979,1.075-1.993a38.917,38.917,0,0,0,1.6-4.214q.784-2.114,1.534-4.243c.488-1.424.995-2.84,1.465-4.272l-.138-.058c-.69,1.34-1.343,2.694-2.016,4.041s-1.31,2.708-1.948,4.069a38.976,38.976,0,0,0-1.879,4.1c-.251.709-.471,1.431-.666,2.164q-.078.293-.148.589-.522-1.825-1.035-3.652L9.689,14.845,5.446,0,5.3.038l3.665,15,2.019,8.09q-.159-.181-.323-.357a18.265,18.265,0,0,0-1.336-1.308,12.672,12.672,0,0,0-1.475-1.127C7.33,20,6.8,19.668,6.294,19.316q-1.527-1.058-3.078-2.087C2.173,16.554,1.145,15.861.091,15.2L0,15.32c.908.849,1.84,1.666,2.759,2.5s1.862,1.638,2.805,2.442c.471.4.925.827,1.384,1.245a12.628,12.628,0,0,0,1.466,1.138,18.35,18.35,0,0,0,1.607.957,12.778,12.778,0,0,0,1.228.581L12.7,30.016c1.063,4.225,2.038,8.473,3.175,12.678q-.291-.3-.588-.591c-.631-.623-1.291-1.208-1.957-1.786-1.328-1.16-2.842-2.08-4.276-3.1s-2.873-2.039-4.321-3.043-2.9-2.005-4.367-2.985l-.091.119c1.322,1.168,2.668,2.3,4,3.457s2.691,2.276,4.048,3.4,2.631,2.353,4.093,3.34c.729.5,1.463.984,2.227,1.435.5.3,1.007.584,1.53.851.111.4.22.794.334,1.19.709,2.474,1.427,4.945,2.192,7.4s1.558,4.91,2.413,7.345l.145-.038q-.695-3.809-1.542-7.576c-.16-.727-.331-1.452-.5-2.178.37-.549.707-1.112,1.028-1.681.441-.77.837-1.558,1.225-2.35.781-1.581,1.282-3.28,1.9-4.928s1.233-3.3,1.833-4.957,1.195-3.317,1.765-4.986Z" transform="translate(6.884 14.989)" fill="#52999a"/>
    </g>
    <g id="Group_788" data-name="Group 788" transform="translate(2370.77 369.574) rotate(62)">
      <path id="Path_1285" data-name="Path 1285" d="M0,0C17.994,69.17,60.376,48.23,60.376,48.23S71.436,2.27,0,0Z" fill="#2e5546"/>
      <path id="Path_1286" data-name="Path 1286" d="M35.722,12.149c.3,1.738.648,3.465.97,5.2s.683,3.457,1.043,5.181.589,3.481,1.115,5.164c.261.842.529,1.682.846,2.511q.2.523.413,1.041-1.7-1.441-3.412-2.866c-2.693-2.247-5.475-4.384-8.258-6.518-.013-.5-.05-1-.1-1.495-.079-.754-.185-1.5-.323-2.241a38.85,38.85,0,0,0-1.221-4.34Q26.165,11.62,25.5,9.463c-.456-1.435-.891-2.874-1.366-4.3l-.145.036c.243,1.487.525,2.965.785,4.447s.56,2.956.858,4.429a38.813,38.813,0,0,0,.931,4.412c.22.719.473,1.43.753,2.135q.112.282.232.562-1.506-1.155-3.005-2.318L12.341,9.4.093,0,0,.117,11.875,9.985l6.439,5.3q-.236-.051-.472-.095a18.275,18.275,0,0,0-1.852-.256,12.686,12.686,0,0,0-1.856-.027c-.62.039-1.239.087-1.859.108q-1.857.059-3.716.156c-1.239.078-2.478.134-3.718.231l0,.149c1.235.142,2.471.243,3.706.367s2.472.207,3.708.292c.618.043,1.235.114,1.853.176a12.64,12.64,0,0,0,1.856.042,18.284,18.284,0,0,0,1.86-.188,12.842,12.842,0,0,0,1.333-.263L23.8,19.795c3.369,2.762,6.682,5.595,10.1,8.3-.275-.045-.549-.087-.824-.125-.878-.125-1.757-.2-2.636-.27-1.758-.142-3.521.02-5.282.053s-3.522.072-5.284.127-3.523.115-5.285.2l0,.149c1.758.152,3.516.263,5.275.4s3.517.226,5.275.321,3.515.324,5.277.246c.881-.036,1.762-.08,2.644-.173.578-.057,1.157-.13,1.736-.227.325.253.649.507.976.757,2.043,1.565,4.091,3.124,6.169,4.644s4.175,3.018,6.312,4.465l.094-.117q-2.826-2.646-5.749-5.17c-.562-.489-1.131-.97-1.7-1.453-.03-.662-.094-1.314-.175-1.963-.1-.881-.255-1.75-.415-2.617-.314-1.735-.923-3.4-1.406-5.092s-.973-3.386-1.478-5.074-1.015-3.376-1.551-5.056Z" transform="translate(12.084 9.632)" fill="#52999a"/>
    </g>
    <g id="Group_789" data-name="Group 789" transform="translate(2292.307 491.45) rotate(-59)">
      <path id="Path_1287" data-name="Path 1287" d="M0,5.195C44.568,77.887,85.662,39.264,85.662,39.264S82.318-17.033,0,5.195Z" transform="translate(0 0)" fill="#284d43"/>
      <path id="Path_1288" data-name="Path 1288" d="M44.95,3.952c.951,1.878,1.943,3.73,2.914,5.6s1.98,3.708,2.99,5.551,1.881,3.768,3.067,5.505c.59.871,1.189,1.736,1.838,2.572q.405.529.832,1.045-2.44-1.055-4.89-2.086c-3.854-1.629-7.771-3.1-11.69-4.57-.19-.57-.4-1.125-.635-1.671q-.528-1.25-1.147-2.445a46.378,46.378,0,0,0-2.9-4.529Q33.859,6.668,32.35,4.438C31.332,2.959,30.334,1.467,29.3,0l-.154.091c.794,1.613,1.629,3.2,2.442,4.8S33.25,8.073,34.1,9.65A46.4,46.4,0,0,0,36.7,14.362c.5.744,1.037,1.468,1.6,2.175q.226.283.46.56-2.12-.794-4.236-1.6L17.311,8.939.066,2.464,0,2.63,16.981,9.767l9.189,3.81q-.287.024-.572.056a21.882,21.882,0,0,0-2.2.352,15.1,15.1,0,0,0-2.127.615c-.694.26-1.384.53-2.084.769q-2.1.714-4.187,1.469c-1.388.52-2.781,1.014-4.163,1.556l.049.171c1.459-.267,2.9-.581,4.358-.869q2.173-.456,4.333-.955c.721-.166,1.45-.3,2.176-.443a15.06,15.06,0,0,0,2.133-.6,21.9,21.9,0,0,0,2.058-.861,15.187,15.187,0,0,0,1.43-.764l6.623,2.746c4.8,1.981,9.569,4.064,14.408,5.959-.329.044-.657.092-.984.144-1.046.162-2.075.38-3.1.607-2.056.449-4.012,1.246-6.011,1.9s-3.995,1.306-5.986,1.981c-1.987.69-3.981,1.356-5.962,2.067l.049.172c2.059-.438,4.1-.922,6.157-1.381q3.073-.712,6.132-1.467c2.041-.5,4.124-.852,6.108-1.552.993-.347,1.983-.7,2.957-1.117.64-.267,1.275-.551,1.9-.863.459.176.917.353,1.377.525C53.917,24.87,56.8,25.937,59.7,26.95s5.813,1.994,8.755,2.9l.066-.166q-4.144-2.039-8.357-3.9c-.811-.363-1.627-.714-2.442-1.069-.264-.744-.564-1.467-.882-2.179-.424-.969-.9-1.908-1.383-2.842-.961-1.872-2.234-3.558-3.373-5.323s-2.287-3.526-3.45-5.278S46.3,5.593,45.1,3.86Z" transform="translate(17.179 9.493)" fill="#52999a"/>
    </g>
    <g id="Group_790" data-name="Group 790" transform="matrix(0.259, 0.966, -0.966, 0.259, 2353.387, 401.039)">
      <path id="Path_1289" data-name="Path 1289" d="M0,2.082c37.327,78.64,83.246,43.907,83.246,43.907S85.98-11.521,0,2.082Z" transform="translate(0 0)" fill="#46513c"/>
      <path id="Path_1290" data-name="Path 1290" d="M45.484,6.4c.761,2.01,1.567,4,2.348,6s1.607,3.98,2.431,5.96,1.5,4.03,2.514,5.923c.5.948,1.018,1.892,1.585,2.811q.354.581.731,1.151-2.363-1.336-4.737-2.65c-3.735-2.073-7.551-3.994-11.369-5.911-.131-.6-.288-1.186-.462-1.765-.267-.884-.564-1.754-.9-2.607a47.378,47.378,0,0,0-2.452-4.913q-1.247-2.447-2.535-4.875C31.768,3.906,30.918,2.283,30.024.68l-.166.076c.63,1.724,1.3,3.426,1.955,5.141S33.159,9.3,33.852,11a47.454,47.454,0,0,0,2.121,5.065q.642,1.215,1.389,2.382.2.311.405.619-2.066-1.037-4.125-2.087L16.885,8.449.085,0,0,.161,16.46,9.255l8.913,4.868q-.294-.007-.586-.006a22.28,22.28,0,0,0-2.274.117,15.418,15.418,0,0,0-2.226.392c-.733.188-1.463.387-2.2.554q-2.209.5-4.41,1.036c-1.465.376-2.934.727-4.395,1.126l.031.179c1.51-.112,3.012-.273,4.518-.408q2.256-.226,4.5-.5c.749-.089,1.5-.146,2.257-.213a15.379,15.379,0,0,0,2.23-.374A22.42,22.42,0,0,0,25,15.378a15.586,15.586,0,0,0,1.534-.62l6.424,3.509c4.662,2.534,9.272,5.167,13.977,7.618-.339.009-.677.021-1.015.039-1.079.051-2.148.16-3.215.279-2.136.232-4.208.829-6.307,1.27s-4.2.891-6.292,1.36c-2.092.484-4.188.943-6.277,1.449l.031.18c2.137-.22,4.266-.489,6.4-.732q3.2-.388,6.385-.821c2.126-.285,4.279-.416,6.369-.911,1.046-.244,2.09-.5,3.123-.812.679-.2,1.354-.42,2.025-.668.447.228.892.458,1.341.683,2.8,1.406,5.608,2.8,8.441,4.147s5.684,2.657,8.571,3.9l.085-.161q-3.985-2.521-8.058-4.871c-.784-.457-1.574-.9-2.362-1.351-.187-.785-.414-1.551-.658-2.308-.326-1.03-.705-2.035-1.094-3.036-.772-2-1.88-3.855-2.845-5.771s-1.938-3.828-2.927-5.733S46.674,8.208,45.649,6.32Z" transform="translate(16.684 10.824)" fill="#65a7ad"/>
    </g>
    <g id="Group_792" data-name="Group 792" transform="translate(2403.838 446.139)">
      <path id="Path_1293" data-name="Path 1293" d="M2369.264,294.626c-29.274,60.5,13.836,71.334,13.836,71.334S2419.032,339.791,2369.264,294.626Z" transform="translate(-2359.074 -294.626)" fill="#4a706b"/>
      <path id="Path_1294" data-name="Path 1294" d="M2399.568,360.924c-.842,1.43-1.648,2.876-2.474,4.314s-1.618,2.892-2.411,4.346-1.7,2.851-2.349,4.377c-.327.762-.646,1.528-.925,2.314q-.178.494-.339,1-.339-2.068-.7-4.132c-.559-3.251-1.248-6.476-1.941-9.7.3-.368.575-.747.839-1.132q.6-.882,1.135-1.8a36.578,36.578,0,0,0,1.771-3.852q.87-1.933,1.708-3.883c.548-1.305,1.114-2.6,1.646-3.915l-.126-.063c-.732,1.213-1.431,2.443-2.148,3.663s-1.4,2.458-2.085,3.694a36.7,36.7,0,0,0-2.023,3.726q-.42.974-.762,1.988-.092.27-.176.544-.375-1.745-.74-3.492l-2.971-14.21-3.04-14.2-.138.027,2.489,14.3,1.381,7.718q-.137-.18-.28-.356a17.325,17.325,0,0,0-1.17-1.312,11.958,11.958,0,0,0-1.312-1.15c-.468-.35-.941-.693-1.4-1.055q-1.366-1.089-2.756-2.153c-.935-.7-1.856-1.414-2.8-2.1l-.093.105c.8.855,1.621,1.68,2.431,2.522s1.644,1.655,2.477,2.469c.417.407.816.834,1.221,1.255a11.8,11.8,0,0,0,1.3,1.161,17.07,17.07,0,0,0,1.446,1,12.1,12.1,0,0,0,1.115.624l1,5.563c.729,4.031,1.375,8.078,2.175,12.1-.169-.2-.34-.4-.514-.592-.552-.625-1.135-1.216-1.723-1.8-1.173-1.173-2.534-2.132-3.815-3.182s-2.566-2.1-3.861-3.129-2.593-2.065-3.907-3.076l-.093.105c1.166,1.18,2.358,2.331,3.536,3.5s2.38,2.305,3.582,3.445,2.32,2.374,3.629,3.392c.652.512,1.31,1.016,2,1.487.449.312.908.612,1.382.9.078.379.156.759.238,1.137.509,2.366,1.025,4.73,1.587,7.086s1.15,4.706,1.8,7.045l.138-.027q-.411-3.617-.966-7.206c-.1-.693-.218-1.384-.329-2.075.382-.492.733-1,1.071-1.512.462-.694.884-1.408,1.3-2.127.833-1.434,1.411-3,2.1-4.5s1.367-3.018,2.034-4.534,1.331-3.036,1.972-4.566Z" transform="translate(-2368.422 -316.19)" fill="#65a7ad"/>
    </g>
    <g id="Group_793" data-name="Group 793" transform="matrix(0.946, 0.326, -0.326, 0.946, 2338.263, 475.135)">
      <path id="Path_1295" data-name="Path 1295" d="M6.006,0C-16.827,71.9,32.8,77.032,32.8,77.032S68.529,42.206,6.006,0Z" transform="translate(0 0)" fill="#4b665b"/>
      <path id="Path_1296" data-name="Path 1296" d="M29.495,30.889c-.706,1.723-1.371,3.459-2.058,5.189S26.1,39.55,25.454,41.292s-1.432,3.439-1.908,5.239c-.242.9-.474,1.8-.657,2.718q-.119.578-.217,1.162-.707-2.243-1.436-4.479c-1.141-3.522-2.423-6.995-3.71-10.466.272-.457.519-.922.751-1.392q.531-1.077.972-2.183A40.994,40.994,0,0,0,20.6,27.329q.657-2.288,1.276-4.588c.4-1.538.82-3.068,1.2-4.612l-.15-.05c-.62,1.465-1.2,2.943-1.8,4.413s-1.162,2.955-1.725,4.438a41.04,41.04,0,0,0-1.65,4.463q-.311,1.149-.528,2.33-.059.315-.109.632-.7-1.878-1.38-3.761L10.159,15.285,4.508,0,4.359.052,9.414,15.544l2.77,8.353q-.182-.178-.368-.35a19.254,19.254,0,0,0-1.51-1.27,13.331,13.331,0,0,0-1.642-1.068c-.576-.313-1.156-.619-1.721-.949q-1.692-.991-3.406-1.95c-1.151-.628-2.289-1.274-3.45-1.885L0,16.557c1.023.822,2.07,1.607,3.1,2.412s2.091,1.575,3.147,2.346c.527.386,1.039.8,1.556,1.2A13.291,13.291,0,0,0,9.441,23.6a19.374,19.374,0,0,0,1.767.879,13.666,13.666,0,0,0,1.338.514l2,6.021C16,35.372,17.364,39.764,18.9,44.1c-.22-.195-.442-.387-.666-.575-.713-.606-1.455-1.168-2.2-1.724-1.49-1.115-3.157-1.963-4.748-2.924S8.095,36.96,6.491,36.019,3.279,34.14,1.657,33.226l-.087.132c1.484,1.124,2.993,2.212,4.488,3.32s3.013,2.18,4.531,3.253,2.957,2.266,4.574,3.188c.806.464,1.619.919,2.459,1.332.549.274,1.107.534,1.678.773.148.409.295.818.446,1.225.944,2.547,1.9,5.09,2.9,7.618s2.031,5.043,3.125,7.538l.149-.052Q24.884,57.6,23.692,53.7c-.227-.753-.465-1.5-.7-2.252.346-.607.655-1.227.948-1.851.4-.845.757-1.706,1.1-2.571.7-1.726,1.087-3.554,1.608-5.339s1.035-3.571,1.534-5.363.992-3.586,1.459-5.388Z" transform="translate(6.956 15.452)" fill="#65a7ad"/>
    </g>
    <g id="Group_794" data-name="Group 794" transform="translate(2335.582 538.341) rotate(-9)">
      <path id="Path_1297" data-name="Path 1297" d="M0,32.776C78.352,73.922,94.481,17.655,94.481,17.655S61.6-30.769,0,32.776Z" transform="translate(0 0)" fill="#46513c"/>
      <path id="Path_1298" data-name="Path 1298" d="M40.813.163c1.846,1.169,3.714,2.294,5.571,3.443S50.12,5.861,52,6.967s3.679,2.361,5.659,3.281c.988.463,1.982.917,3,1.317q.643.256,1.3.489-2.736.356-5.468.738c-4.3.595-8.577,1.362-12.851,2.135-.472-.407-.958-.789-1.453-1.153q-1.135-.834-2.322-1.571a48.146,48.146,0,0,0-4.992-2.5q-2.507-1.228-5.037-2.416c-1.694-.777-3.375-1.578-5.081-2.335l-.088.163C26.231,6.133,27.82,7.106,29.395,8.1q2.375,1.472,4.772,2.9a48.134,48.134,0,0,0,4.816,2.823c.842.4,1.7.758,2.583,1.089q.351.132.708.256-2.312.417-4.627.822l-18.83,3.3L0,22.677l.029.183L18.962,20.2,29.18,18.721q-.243.174-.48.354a22.538,22.538,0,0,0-1.777,1.483,15.607,15.607,0,0,0-1.571,1.678c-.48.6-.952,1.208-1.45,1.793q-1.494,1.751-2.953,3.534c-.961,1.2-1.942,2.382-2.886,3.6l.135.127c1.159-1.013,2.281-2.061,3.424-3.09s2.249-2.091,3.357-3.153c.555-.53,1.134-1.037,1.706-1.552a15.687,15.687,0,0,0,1.584-1.665,22.655,22.655,0,0,0,1.378-1.86,15.979,15.979,0,0,0,.869-1.441l7.365-1.069c5.337-.785,10.692-1.46,16.013-2.34q-.405.321-.8.652c-.846.7-1.649,1.441-2.444,2.189-1.595,1.492-2.916,3.242-4.352,4.883s-2.868,3.287-4.285,4.946-2.83,3.323-4.218,5.01l.135.127c1.6-1.484,3.17-3,4.756-4.5s3.137-3.033,4.689-4.565,3.225-2.95,4.622-4.628c.7-.837,1.394-1.681,2.044-2.566.43-.578.845-1.168,1.238-1.78.5-.087,1.005-.172,1.507-.263,3.136-.567,6.27-1.145,9.394-1.782s6.242-1.31,9.349-2.062l-.029-.183q-4.778.383-9.525.959c-.916.107-1.83.228-2.745.344-.63-.524-1.283-1.008-1.944-1.475-.894-.639-1.815-1.224-2.743-1.8C56.689,7.462,54.658,6.634,52.7,5.666s-3.912-1.929-5.88-2.873S42.887.909,40.9,0Z" transform="translate(18.969 6.97)" fill="#65a7ad"/>
    </g>
    <g id="Group_791" data-name="Group 791" transform="translate(2331.741 405.867)">
      <path id="Path_1291" data-name="Path 1291" d="M2632.688,455.861c85.963-13.705,65.546-67.538,65.546-67.538S2643.814,369.525,2632.688,455.861Z" transform="translate(-2632.688 -386.593)" fill="#284d43"/>
      <path id="Path_1292" data-name="Path 1292" d="M2684.432,402.968c2.142-.165,4.277-.379,6.416-.567q3.205-.306,6.4-.657c2.133-.231,4.289-.306,6.39-.747,1.052-.217,2.1-.445,3.143-.731q.657-.177,1.311-.378-1.947,1.892-3.875,3.8c-3.04,3-5.957,6.123-8.87,9.247-.612-.043-1.219-.057-1.824-.053-.923.007-1.842.048-2.754.129a47.333,47.333,0,0,0-5.4.971q-2.7.508-5.391,1.062c-1.792.385-3.589.744-5.378,1.151l.026.18c1.831-.12,3.655-.288,5.483-.431q2.738-.238,5.47-.521a47.35,47.35,0,0,0,5.457-.611c.9-.183,1.789-.406,2.676-.662q.355-.1.708-.215-1.576,1.69-3.162,3.372l-12.9,13.682-12.833,13.746.13.127,13.356-13.239,7.178-7.184q-.089.28-.17.561a22.36,22.36,0,0,0-.527,2.215,15.393,15.393,0,0,0-.25,2.247c-.025.756-.04,1.513-.087,2.266q-.146,2.259-.247,4.523c-.051,1.512-.128,3.02-.156,4.534l.181.021c.317-1.48.585-2.967.88-4.45q.416-2.228.788-4.461c.125-.744.283-1.485.43-2.226a15.356,15.356,0,0,0,.268-2.245,22.147,22.147,0,0,0-.01-2.277,15.5,15.5,0,0,0-.163-1.646l5.174-5.179c3.743-3.761,7.565-7.444,11.24-11.271-.086.328-.17.656-.248.985-.255,1.049-.451,2.106-.636,3.164-.378,2.115-.388,4.271-.555,6.41s-.325,4.278-.465,6.42c-.124,2.144-.273,4.285-.375,6.431l.181.021c.39-2.113.731-4.232,1.1-6.348q.526-3.176,1.007-6.358c.324-2.12.8-4.223.917-6.368.06-1.072.109-2.145.1-3.226,0-.708-.022-1.418-.072-2.131.345-.364.691-.727,1.032-1.1,2.137-2.293,4.266-4.593,6.354-6.934s4.148-4.708,6.153-7.128l-.131-.127q-3.539,3.115-6.941,6.363c-.659.624-1.309,1.257-1.961,1.887-.806-.042-1.6-.04-2.4-.018-1.08.023-2.152.1-3.221.2-2.14.177-4.228.72-6.338,1.107s-4.219.783-6.325,1.2c-2.1.43-4.212.834-6.312,1.287Z" transform="translate(-2652.423 -389.102)" fill="#65a7ad"/>
    </g>
    <g id="Group_795" data-name="Group 795" transform="translate(2293.275 517.167)">
      <path id="Path_1299" data-name="Path 1299" d="M2220.514,281.107c9.549,84.73,63.142,67.17,63.142,67.17S2304.492,295.872,2220.514,281.107Z" transform="translate(-2220.514 -281.107)" fill="#4b665b"/>
      <path id="Path_1300" data-name="Path 1300" d="M2292.292,335.149c.065,2.1.179,4.2.267,6.3s.222,4.2.355,6.3.107,4.21.444,6.286c.165,1.039.34,2.077.574,3.109q.143.651.311,1.3-1.763-1.99-3.545-3.962c-2.8-3.109-5.724-6.1-8.65-9.095.07-.6.111-1.19.134-1.783.035-.9.036-1.8,0-2.7a46.406,46.406,0,0,0-.707-5.332q-.376-2.664-.8-5.323c-.3-1.771-.567-3.545-.885-5.314l-.177.018c.035,1.8.118,3.59.175,5.384q.109,2.69.264,5.376a46.417,46.417,0,0,0,.353,5.367c.139.887.317,1.769.529,2.648q.085.352.178.7-1.583-1.619-3.157-3.246l-12.809-13.235-12.874-13.174-.13.122,12.354,13.663,6.708,7.346q-.27-.1-.541-.192a21.8,21.8,0,0,0-2.144-.615,15.105,15.105,0,0,0-2.187-.346c-.739-.058-1.479-.107-2.214-.187q-2.2-.244-4.414-.444c-1.477-.118-2.949-.261-4.43-.356l-.028.176c1.435.377,2.877.706,4.315,1.061q2.162.508,4.33.972c.723.156,1.44.344,2.159.521a15.046,15.046,0,0,0,2.185.363,21.877,21.877,0,0,0,2.228.093,15.29,15.29,0,0,0,1.618-.086l4.835,5.3c3.511,3.831,6.944,7.737,10.523,11.505-.317-.1-.634-.2-.953-.287-1.015-.3-2.041-.536-3.067-.765-2.052-.465-4.162-.572-6.247-.831s-4.172-.51-6.262-.743c-2.092-.217-4.18-.46-6.275-.656l-.029.176c2.05.476,4.108.905,6.162,1.359q3.085.657,6.177,1.271c2.06.412,4.1.976,6.189,1.183,1.046.107,2.095.2,3.152.242.693.03,1.388.042,2.089.025.341.354.681.709,1.025,1.06,2.147,2.194,4.3,4.381,6.5,6.528s4.419,4.27,6.7,6.341l.13-.123q-2.889-3.6-5.915-7.078c-.581-.672-1.171-1.336-1.759-2,.077-.786.111-1.568.125-2.348.026-1.058-.005-2.11-.047-3.161-.077-2.1-.514-4.17-.8-6.252s-.577-4.163-.887-6.242c-.327-2.078-.627-4.158-.976-6.234Z" transform="translate(-2239.521 -301.339)" fill="#52999a"/>
    </g>
    <g id="Group_796" data-name="Group 796" transform="translate(2358.108 495.369)">
      <path id="Path_1301" data-name="Path 1301" d="M2443.142,785c83.392-17.782,60.68-69.4,60.68-69.4S2449.632,699.977,2443.142,785Z" transform="translate(-2443.142 -714.467)" fill="#2e5546"/>
      <path id="Path_1302" data-name="Path 1302" d="M2489.893,730.783c2.088-.27,4.165-.588,6.248-.881q3.12-.463,6.231-.969c2.074-.334,4.179-.517,6.213-1.056,1.018-.266,2.034-.542,3.037-.875q.634-.206,1.263-.437-1.808,1.95-3.6,3.916c-2.821,3.091-5.515,6.292-8.206,9.5-.6-.011-1.2.006-1.787.041-.9.054-1.8.141-2.688.266a46.462,46.462,0,0,0-5.237,1.225q-2.614.634-5.219,1.313c-1.734.468-3.473.91-5.2,1.4l.035.175c1.785-.211,3.561-.469,5.342-.7q2.666-.372,5.324-.788a46.424,46.424,0,0,0,5.307-.876c.869-.225,1.73-.488,2.584-.784q.342-.119.682-.247-1.456,1.734-2.922,3.459l-11.92,14.04-11.854,14.1.135.117,12.391-13.63,6.656-7.393q-.073.279-.138.558a21.968,21.968,0,0,0-.4,2.194,15.067,15.067,0,0,0-.13,2.21c.014.741.038,1.482.031,2.221q-.028,2.217-.011,4.437c.027,1.481.029,2.961.078,4.443l.178.011c.234-1.465.421-2.932.634-4.4q.294-2.2.544-4.4c.084-.734.2-1.467.308-2.2a15.034,15.034,0,0,0,.148-2.21,21.691,21.691,0,0,0-.125-2.227,15.217,15.217,0,0,0-.243-1.6l4.8-5.329c3.47-3.869,7.022-7.667,10.422-11.6-.068.325-.133.65-.192.976-.2,1.04-.334,2.083-.462,3.127-.262,2.088-.162,4.2-.217,6.3s-.1,4.2-.128,6.3c-.012,2.1-.05,4.205-.039,6.31l.178.011c.274-2.087.5-4.177.751-6.265q.354-3.134.662-6.27c.209-2.091.572-4.172.573-6.276,0-1.052,0-2.1-.067-3.16-.038-.692-.094-1.386-.179-2.081.319-.373.639-.747.954-1.123,1.974-2.351,3.939-4.71,5.862-7.106s3.818-4.816,5.656-7.286l-.135-.117q-3.3,3.227-6.466,6.578c-.613.644-1.216,1.3-1.823,1.945-.79,0-1.571.043-2.348.1-1.055.077-2.1.211-3.141.356-2.085.282-4.1.919-6.143,1.405s-4.087.981-6.126,1.493c-2.036.528-4.077,1.03-6.109,1.58Z" transform="translate(-2461.401 -716.076)" fill="#65a7ad"/>
    </g>
    <g id="Group_798" data-name="Group 798" transform="translate(2356.465 434.575) rotate(-19)">
      <path id="Path_1305" data-name="Path 1305" d="M0,0C14.676,71.475,59,52.374,59,52.374S72.711,6.1,0,0Z" fill="#424f4f"/>
      <path id="Path_1306" data-name="Path 1306" d="M35.781,14.277c.218,1.788.477,3.568.714,5.352s.513,3.561.789,5.338.415,3.58.863,5.323c.221.873.451,1.743.729,2.605q.172.544.366,1.083-1.657-1.559-3.327-3.1c-2.627-2.434-5.349-4.76-8.074-7.083.014-.514,0-1.023-.024-1.53-.04-.773-.108-1.54-.21-2.3a39.7,39.7,0,0,0-1.014-4.489Q26.065,13.23,25.5,11c-.389-1.487-.757-2.978-1.165-4.461l-.15.028c.168,1.529.377,3.05.565,4.576s.414,3.043.64,4.561a39.7,39.7,0,0,0,.715,4.547c.186.745.407,1.483.654,2.216q.1.293.206.585-1.474-1.257-2.941-2.522L12.089,10.235.1,0,0,.115,11.583,10.805l6.284,5.744c-.159-.043-.317-.083-.477-.122a18.64,18.64,0,0,0-1.874-.359,12.861,12.861,0,0,0-1.891-.125c-.634.007-1.268.023-1.9.012q-1.9-.038-3.8-.038c-1.268.014-2.534.006-3.8.038l-.011.152c1.252.211,2.506.38,3.76.571s2.509.342,3.765.494c.628.077,1.254.182,1.88.277a12.91,12.91,0,0,0,1.889.141,18.661,18.661,0,0,0,1.907-.093,13.157,13.157,0,0,0,1.373-.2l4.529,4.139c3.288,2.995,6.515,6.058,9.856,8.994-.278-.06-.555-.118-.834-.171-.888-.174-1.781-.3-2.673-.415-1.785-.238-3.592-.166-5.388-.227s-3.595-.113-5.394-.15-3.6-.07-5.4-.075l-.011.152c1.784.248,3.571.455,5.356.683s3.574.417,5.361.607,3.567.516,5.367.531c.9.01,1.8.012,2.7-.037.593-.028,1.186-.071,1.782-.14.318.275.634.551.955.824,2,1.7,4.005,3.4,6.043,5.062s4.1,3.3,6.2,4.888l.1-.115Q44.5,39,41.656,36.275c-.547-.528-1.1-1.049-1.653-1.572,0-.676-.027-1.345-.074-2.01-.059-.9-.167-1.8-.284-2.69-.228-1.786-.761-3.514-1.163-5.266s-.813-3.5-1.238-5.252-.856-3.5-1.313-5.238Z" transform="translate(11.803 10.466)" fill="#65a7ad"/>
    </g>
    <g id="Group_799" data-name="Group 799" transform="translate(2296.705 443.357)">
      <path id="Path_1307" data-name="Path 1307" d="M2618.717,561.831c-70.455-12.017-68.779,35.226-68.779,35.226S2587.294,626.025,2618.717,561.831Z" transform="translate(-2549.904 -559.873)" fill="#496052"/>
      <path id="Path_1308" data-name="Path 1308" d="M2579.168,607.063c-1.709-.437-3.425-.833-5.139-1.251s-3.433-.8-5.152-1.178-3.415-.893-5.166-1.1c-.875-.109-1.751-.208-2.637-.261q-.558-.037-1.119-.052,2.013-.958,4.015-1.933c3.155-1.532,6.246-3.19,9.335-4.851.465.2.933.366,1.4.522.72.238,1.444.448,2.175.627a38.9,38.9,0,0,0,4.458.67q2.232.317,4.472.6c1.5.174,2.987.368,4.485.523l.027-.147c-1.456-.39-2.918-.74-4.377-1.111s-2.925-.7-4.39-1.038a38.882,38.882,0,0,0-4.4-.964c-.746-.095-1.5-.156-2.256-.191q-.3-.014-.608-.02,1.671-.9,3.348-1.788l13.637-7.236,13.6-7.3-.068-.133-13.876,6.771-7.476,3.693q.144-.194.281-.391a18.271,18.271,0,0,0,.994-1.583,12.686,12.686,0,0,0,.787-1.681c.219-.581.429-1.166.665-1.739q.709-1.718,1.385-3.451c.438-1.162.9-2.314,1.317-3.485l-.135-.063c-.637,1.067-1.238,2.153-1.858,3.228s-1.2,2.168-1.79,3.26c-.293.546-.611,1.08-.922,1.617a12.654,12.654,0,0,0-.8,1.675,18.264,18.264,0,0,0-.593,1.773,12.9,12.9,0,0,0-.308,1.323l-5.389,2.662c-3.9,1.937-7.845,3.793-11.712,5.8q.231-.348.452-.7c.475-.749.906-1.519,1.329-2.292.851-1.544,1.428-3.219,2.122-4.837s1.381-3.241,2.055-4.87,1.343-3.259,1.987-4.9l-.135-.064c-.86,1.54-1.684,3.1-2.528,4.646s-1.651,3.113-2.46,4.678-1.739,3.072-2.393,4.71c-.329.818-.651,1.639-.928,2.482-.185.551-.356,1.108-.506,1.676-.364.192-.729.383-1.091.579-2.266,1.219-4.528,2.446-6.769,3.716s-4.467,2.566-6.665,3.92l.068.133q3.574-1.489,7.076-3.117c.677-.311,1.349-.632,2.022-.95.615.245,1.237.454,1.861.647.845.267,1.7.486,2.556.7,1.711.427,3.477.555,5.22.81s3.487.5,5.234.737,3.495.462,5.248.664Z" transform="translate(-2549.857 -570.472)" fill="#52999a"/>
    </g>
    <g id="Group_802" data-name="Group 802" transform="translate(2335.596 415.033)">
      <path id="Path_1313" data-name="Path 1313" d="M2846.035,511.39c-55.033-33.172-69.129,6.923-69.129,6.923S2798.672,554.817,2846.035,511.39Z" transform="translate(-2776.899 -498.25)" fill="#4a706b"/>
      <path id="Path_1314" data-name="Path 1314" d="M2801.6,535.779c-1.287-.926-2.594-1.821-3.891-2.734s-2.611-1.794-3.926-2.676-2.565-1.868-3.961-2.619c-.7-.378-1.4-.749-2.122-1.083q-.455-.213-.919-.41,2-.141,4-.3c3.144-.247,6.275-.621,9.406-1,.325.316.661.613,1,.9q.787.653,1.615,1.238a34.9,34.9,0,0,0,3.512,2.024q1.764,1,3.547,1.967c1.2.636,2.379,1.288,3.583,1.909l.071-.114c-1.091-.8-2.2-1.577-3.3-2.366s-2.217-1.549-3.335-2.309a34.909,34.909,0,0,0-3.37-2.252q-.89-.486-1.826-.9-.249-.111-.5-.215,1.694-.2,3.389-.4l13.79-1.583,13.783-1.65-.013-.134-13.837,1.115-7.469.639q.184-.116.363-.236a16.458,16.458,0,0,0,1.351-1,11.357,11.357,0,0,0,1.21-1.149c.374-.415.742-.835,1.127-1.237q1.157-1.206,2.292-2.435c.747-.829,1.509-1.643,2.245-2.485l-.092-.1c-.883.685-1.742,1.4-2.614,2.093s-1.719,1.42-2.568,2.142c-.425.361-.866.7-1.3,1.052a11.334,11.334,0,0,0-1.219,1.139,16.361,16.361,0,0,0-1.078,1.29,11.493,11.493,0,0,0-.692,1.007l-5.384.46c-3.9.341-7.812.6-11.707,1.011.205-.144.408-.289.609-.438.643-.471,1.257-.974,1.864-1.483,1.22-1.014,2.252-2.226,3.364-3.353s2.22-2.26,3.318-3.4,2.193-2.288,3.271-3.451l-.092-.1c-1.226,1.007-2.426,2.04-3.64,3.06s-2.4,2.064-3.594,3.109-2.463,2-3.547,3.157c-.544.576-1.083,1.159-1.592,1.773-.336.4-.662.81-.973,1.237-.368.041-.736.081-1.1.127-2.3.277-4.593.561-6.885.89s-4.581.682-6.865,1.094l.014.134q3.479-.074,6.945-.288c.669-.039,1.336-.087,2-.132.435.407.886.786,1.346,1.152.621.5,1.264.965,1.911,1.422,1.292.919,2.729,1.606,4.1,2.391s2.753,1.565,4.139,2.334,2.774,1.533,4.175,2.277Z" transform="translate(-2776.889 -506.607)" fill="#52999a"/>
    </g>
    <g id="Group_805" data-name="Group 805" transform="translate(2335.67 479.809) rotate(69)">
      <path id="Path_1319" data-name="Path 1319" d="M0,2.082c37.327,78.64,83.246,43.907,83.246,43.907S85.98-11.521,0,2.082Z" fill="#284d43"/>
      <path id="Path_1320" data-name="Path 1320" d="M45.484,6.4c.761,2.01,1.567,4,2.348,6s1.607,3.98,2.431,5.96,1.5,4.03,2.514,5.923c.5.948,1.018,1.892,1.585,2.811q.354.581.732,1.151-2.363-1.336-4.737-2.65c-3.735-2.073-7.551-3.994-11.369-5.911-.13-.6-.288-1.186-.462-1.765q-.4-1.326-.9-2.607a47.382,47.382,0,0,0-2.452-4.913Q33.93,7.946,32.642,5.517C31.768,3.906,30.919,2.283,30.024.68l-.165.076c.63,1.724,1.3,3.426,1.955,5.141S33.159,9.3,33.852,11a47.4,47.4,0,0,0,2.122,5.064c.428.81.893,1.6,1.388,2.382q.2.311.405.619-2.066-1.037-4.125-2.087L16.885,8.449.085,0,0,.161,16.46,9.255l8.913,4.868q-.294-.007-.586-.006a22.281,22.281,0,0,0-2.274.117,15.424,15.424,0,0,0-2.226.392c-.733.188-1.463.387-2.2.554q-2.209.495-4.409,1.036c-1.465.376-2.934.727-4.395,1.125l.031.18c1.51-.112,3.012-.273,4.518-.408q2.256-.226,4.5-.5c.75-.089,1.5-.146,2.257-.213a15.385,15.385,0,0,0,2.23-.374A22.409,22.409,0,0,0,25,15.378a15.618,15.618,0,0,0,1.534-.62l6.424,3.509c4.661,2.534,9.271,5.167,13.977,7.618-.339.009-.677.021-1.015.039-1.079.051-2.148.159-3.215.279-2.135.232-4.208.829-6.308,1.27s-4.2.892-6.292,1.36c-2.092.484-4.189.943-6.276,1.449l.031.18c2.137-.22,4.266-.489,6.4-.732q3.2-.388,6.385-.821c2.126-.285,4.279-.416,6.369-.911,1.046-.244,2.09-.5,3.124-.812.679-.2,1.354-.42,2.025-.668.446.228.892.458,1.341.683,2.8,1.406,5.607,2.8,8.441,4.147s5.684,2.657,8.571,3.9l.085-.161q-3.985-2.521-8.059-4.871c-.784-.457-1.574-.9-2.362-1.351-.187-.785-.414-1.551-.658-2.308-.326-1.03-.705-2.036-1.094-3.036-.772-2-1.88-3.855-2.845-5.771s-1.938-3.828-2.927-5.733-1.985-3.807-3.011-5.7Z" transform="translate(16.684 10.824)" fill="#52999a"/>
    </g>
  </g>
</svg>
