<svg xmlns="http://www.w3.org/2000/svg" width="334.696" height="232.336" viewBox="0 0 334.696 232.336">
  <g id="Group_935" data-name="Group 935" transform="translate(279 -5405)">
    <rect id="_222" data-name="222" width="206" height="211" transform="translate(-197 5426)" fill="#4a706b"/>
    <text id="_02" data-name="02" transform="translate(-279 5482)" font-size="80" font-family="ClashDisplay-Bold, Clash Display" font-weight="700"><tspan x="0" y="0">02</tspan></text>
    <g id="Group_764" data-name="Group 764" transform="translate(-134.79 5405)">
      <g id="Group_117" data-name="Group 117" transform="translate(0)">
        <g id="Group_111" data-name="Group 111" transform="translate(8.689 49.984)">
          <path id="Path_599" data-name="Path 599" d="M748.873,240.166,729.2,207.976l73.079-5.96,20.1,33.142,15.9-34.407,65.112,8.418-25.769,35.86-67.389,15.01Z" transform="translate(-729.204 -200.751)" fill="#42a47b"/>
          <path id="Path_600" data-name="Path 600" d="M767.466,272.693l61.37,19.873,67.389-15.01,3.494-4.863-58.742-5.007Z" transform="translate(-747.798 -233.278)" fill="#1d684d"/>
        </g>
        <g id="Group_116" data-name="Group 116">
          <g id="Group_112" data-name="Group 112" transform="translate(0 27.673)">
            <path id="Path_607" data-name="Path 607" d="M746.64,220.189l-15.332-13.75s7.243,19.87,18.768,37.009c-2.781,3.792-9.7,4.892-9.7,4.892s-38.829-44.707-25.155-68.863c0,0,8.614,3.071,14-3.075s1.208-14.281,1.208-14.281C752.575,145.392,802,178.009,802,178.009s-.18,7.006-3.575,10.261c-18.5-9.172-39.154-13.742-39.154-13.742l34.517,29.544-18.76,21.41Z" transform="translate(-712.3 -157.348)" fill="#2e5546"/>
            <path id="Path_608" data-name="Path 608" d="M829.441,178.012s-36.342-23.983-60.665-20.268c9.631,20.26,19.039,42.58,20.451,65.271l13.242,2.47,18.76-21.41-34.517-29.544s20.649,4.57,39.154,13.742C829.26,185.019,829.441,178.012,829.441,178.012Z" transform="translate(-739.745 -157.35)" fill="#2e5546"/>
          </g>
          <g id="Group_113" data-name="Group 113" transform="translate(97.375 29.639)">
            <path id="Path_609" data-name="Path 609" d="M950.947,223.2l11.639-20.821,4.2,6.445,15.724-10.238s-7.475-15.7-15.513-23.824c0,0-7.35,5.849-14.626,1.667s-5.924-13.477-5.924-13.477c-11.064-2.855-28.394-1.408-28.394-1.408l-.929,18.74,7.682.381-23.074,39.066,15.508,8.913Z" transform="translate(-901.728 -161.173)" fill="#ef7f33"/>
            <path id="Path_610" data-name="Path 610" d="M976.747,199.256c-15.378,20.709-40.026,35.539-65.208,41.876L922,247.147l33.711-5.444,11.639-20.821,4.2,6.445,15.724-10.238A130.25,130.25,0,0,0,976.747,199.256Z" transform="translate(-906.496 -179.68)" fill="#ed611b"/>
          </g>
          <g id="Group_115" data-name="Group 115" transform="translate(77.315)">
            <g id="Group_114" data-name="Group 114" transform="translate(18.314)">
              <path id="Path_611" data-name="Path 611" d="M904.31,103.836c-2.049,3.048-4.435,5.895-5.941,9.273-.2.445.459.833.657.386,1.507-3.379,3.893-6.226,5.941-9.273C905.244,103.811,904.583,103.431,904.31,103.836Z" transform="translate(-898.332 -103.587)" fill="#ffad1d"/>
              <path id="Path_612" data-name="Path 612" d="M909.585,103.738c-2.96,3.175-4.861,7.284-6.329,11.325-.168.463.568.661.735.2,1.419-3.909,3.268-7.916,6.132-10.988C910.458,103.917,909.92,103.377,909.585,103.738Z" transform="translate(-900.713 -103.565)" fill="#ffad1d"/>
              <path id="Path_613" data-name="Path 613" d="M914.838,103.629c-2.973,3.05-4.566,7.335-6.435,11.089-.218.438.439.825.658.385,1.836-3.687,3.4-7.939,6.316-10.935C915.721,103.817,915.182,103.277,914.838,103.629Z" transform="translate(-903.205 -103.515)" fill="#ffad1d"/>
              <path id="Path_614" data-name="Path 614" d="M920.623,104.3c.372-.324-.171-.86-.539-.539a29.936,29.936,0,0,0-7.777,11.47c-.18.458.558.655.735.2A29.127,29.127,0,0,1,920.623,104.3Z" transform="translate(-905.11 -103.584)" fill="#ffad1d"/>
              <path id="Path_615" data-name="Path 615" d="M925.3,104.945c-3.095,3.268-4.862,7.553-7.577,11.109-.3.391.364.77.658.385,2.673-3.5,4.41-7.737,7.457-10.954C926.179,105.128,925.641,104.588,925.3,104.945Z" transform="translate(-907.72 -104.153)" fill="#ffad1d"/>
              <path id="Path_616" data-name="Path 616" d="M930.535,104.528c-2.734,3.5-4.721,7.529-7.071,11.285-.262.418.4.8.657.385,2.314-3.7,4.261-7.682,6.952-11.131C931.372,104.685,930.837,104.141,930.535,104.528Z" transform="translate(-910.516 -103.943)" fill="#ffad1d"/>
              <path id="Path_617" data-name="Path 617" d="M936.311,105.449c.364-.333-.177-.87-.539-.539-3.208,2.933-5.082,7.1-7.506,10.639-.278.407.382.788.659.385C931.312,112.446,933.153,108.336,936.311,105.449Z" transform="translate(-912.846 -104.142)" fill="#ffad1d"/>
              <path id="Path_618" data-name="Path 618" d="M941.032,105.583c-3.188,2.811-4.828,6.95-7.658,10.072-.329.363.208.9.538.539,2.829-3.121,4.475-7.264,7.659-10.072C941.941,105.8,941.4,105.259,941.032,105.583Z" transform="translate(-915.311 -104.471)" fill="#ffad1d"/>
            </g>
            <path id="Path_619" data-name="Path 619" d="M881.527,210.722c4.515-14.819,16.7-34.808,10.225-44.479-4.29-6.668-7.191-10.224-5.276-19.3,2.375-10.959,9.238-19.819,16.83-27.885l-21.558-.453c-7.24,8.383-13.718,17.528-15.623,28.578-1.525,9.145,1.524,12.575,6.1,19.053,7,9.548-3.275,24.681-9.516,43.139l12.413,2.315Z" transform="translate(-862.706 -110.85)" fill="#f7d53e"/>
            <path id="Path_620" data-name="Path 620" d="M890.26,211.1c4.515-14.819,16.7-34.808,10.225-44.479-4.29-6.668-7.191-10.224-5.276-19.3,2.375-10.959,9.238-19.819,16.83-27.885l-2.378-.05c-6.341,7.98-12.642,16.031-17.819,24.831-3.217,5.719-8.578,15.012-7.149,21.8,1.073,6.434,8.222,8.936,7.864,16.084,0,7.149-5.362,15.728-8.579,22.519-1.044,2.311-2.152,4.59-3.3,6.853l3.175.592Z" transform="translate(-871.439 -111.231)" fill="#ffad1d" opacity="0.4"/>
          </g>
          <path id="Path_1237" data-name="Path 1237" d="M767.466,363.743,827.28,379l63.533-13.353,5.651-87.032-67.626,10.254-61.37-11.446Z" transform="translate(-739.109 -188.028)" fill="#42a47b"/>
          <path id="Path_1238" data-name="Path 1238" d="M828.474,288.8l-61.008-11.378v30.7l58.657,18.9Z" transform="translate(-739.109 -188.028)" fill="#42a47b" opacity="0.3" style="mix-blend-mode: multiply;isolation: isolate"/>
          <path id="Path_1239" data-name="Path 1239" d="M953.007,279.746,885.381,290l-1.557,90.131,63.533-13.353Z" transform="translate(-795.653 -189.155)" fill="#60cca8"/>
          <path id="Path_1240" data-name="Path 1240" d="M952.623,313.177l2.171-33.431-67.294,10.2,3.869,38.2Z" transform="translate(-797.439 -189.155)" fill="#60cca8" opacity="0.3" style="mix-blend-mode: multiply;isolation: isolate"/>
          <path id="Path_1241" data-name="Path 1241" d="M886.853,288.873l19.7,29.09,81.058-18.831-29.874-21.7Z" transform="translate(-797.125 -188.028)" fill="#60cca8"/>
          <path id="Path_1242" data-name="Path 1242" d="M820.436,319.155l3.667-30.282-61.37-11.446-5.007,24.8Z" transform="translate(-734.375 -188.028)" fill="#42a47b"/>
        </g>
      </g>
      <g id="Group_120" data-name="Group 120" transform="translate(19.037 137.249)">
        <g id="Group_118" data-name="Group 118" transform="translate(73.838)">
          <path id="Path_621" data-name="Path 621" d="M892.974,465.6s1.907-18.339,2.054-26.115-1.021-27.277,19.514-30.518c16.683-2.632,21.714-8.8,24.5-11s7.515-4.264,11.392-3.521c0,0,2.986-5.574,3.72-8.95s.81-15.49,6.012-14.963c4.843.49.564,25.354-2.785,31.689-4.118,7.787-13.4,19.665-15.552,20.393-10.417,3.522-26.7,10.271-27.437,15.406s5.135,27.582,5.135,27.582Z" transform="translate(-892.974 -370.513)" fill="#f2b9a0"/>
          <path id="Path_622" data-name="Path 622" d="M898.677,491.706c-.2-4.366-.812-8.63-.913-12.895a69.879,69.879,0,0,1,.1-10.521c-3.065,6.691-2.76,14.454-2.84,18.71-.146,7.776-2.054,26.115-2.054,26.115h4.271q.452-2.807.721-5.671A136.206,136.206,0,0,0,898.677,491.706Z" transform="translate(-892.974 -418.028)" fill="#ea9675" opacity="0.5"/>
          <path id="Path_623" data-name="Path 623" d="M985.506,398.424c.919,2.575-4.468,5.707-8.949,11.341-2.635,3.311-11.157,5.4-18.575,13.242,0,0,14.206-9.474,18.45-10.971,1.151-.407,4.3-4.975,6.838-7.412s4.771-5.382,2.944-8.225.219-3.858.668-9.443c.33-4.107.7-10.239,2.279-14.291-2.658,2.987-2.83,11.19-3.412,13.873-.734,3.376-3.72,8.95-3.72,8.95A4.605,4.605,0,0,1,985.506,398.424Z" transform="translate(-924.565 -371.559)" fill="#ea9675"/>
          <path id="Path_624" data-name="Path 624" d="M984.74,419.779c.484,1.358-1.4,3.185-3.776,5.5a57.418,57.418,0,0,0-5.11,5.454c-1.037,1.3-3.079,2.435-5.664,3.865a49.334,49.334,0,0,0-12.887,9.351.406.406,0,1,0,.59.559,48.655,48.655,0,0,1,12.691-9.2c2.663-1.473,4.768-2.638,5.906-4.069a56.458,56.458,0,0,1,5.04-5.377c2.691-2.615,4.634-4.505,3.975-6.354a4.964,4.964,0,0,0-3.664-3.176l-.2.378A5.406,5.406,0,0,1,984.74,419.779Z" transform="translate(-924.181 -392.778)" fill="#dd7c62"/>
          <path id="Path_625" data-name="Path 625" d="M993.877,421.236c.1,1.47,3.011,4.913,4.413,4.6s4.489-3.555,4.757-5.025-2.612-4.232-5.493-3.066S993.824,420.47,993.877,421.236Z" transform="translate(-942.007 -393.327)" fill="#fae3d3"/>
          <path id="Path_626" data-name="Path 626" d="M999.782,417.552a3.819,3.819,0,0,0-2.228.192c-2.881,1.166-3.73,2.73-3.677,3.495.078,1.175,1.954,3.606,3.422,4.375C997.007,423.021,998.146,419.958,999.782,417.552Z" transform="translate(-942.007 -393.331)" fill="#fff3eb"/>
        </g>
        <g id="Group_119" data-name="Group 119">
          <path id="Path_627" data-name="Path 627" d="M818.7,465.6s-1.907-18.339-2.054-26.115,1.022-27.277-19.514-30.518c-16.683-2.632-21.715-8.8-24.5-11s-7.515-4.264-11.393-3.521c0,0-2.986-5.574-3.719-8.95s-.811-15.49-6.012-14.963c-4.843.49-.565,25.354,2.785,31.689,4.118,7.787,13.4,19.665,15.552,20.393,10.417,3.522,26.7,10.271,27.437,15.406s-5.135,27.582-5.135,27.582Z" transform="translate(-749.332 -370.513)" fill="#f2b9a0"/>
          <path id="Path_628" data-name="Path 628" d="M873.146,491.706c.2-4.366.812-8.63.913-12.895a69.959,69.959,0,0,0-.1-10.521c3.065,6.691,2.76,14.454,2.84,18.71.146,7.776,2.054,26.115,2.054,26.115h-4.272q-.45-2.807-.72-5.671A135.934,135.934,0,0,1,873.146,491.706Z" transform="translate(-809.478 -418.028)" fill="#ea9675" opacity="0.5"/>
          <path id="Path_629" data-name="Path 629" d="M762.276,398.424c-.919,2.575,4.467,5.707,8.951,11.341,2.635,3.311,11.157,5.4,18.575,13.242,0,0-14.206-9.474-18.45-10.971-1.151-.407-4.3-4.975-6.837-7.412s-4.772-5.382-2.944-8.225-.219-3.858-.668-9.443c-.33-4.107-.7-10.239-2.279-14.291,2.659,2.987,2.83,11.19,3.413,13.873.733,3.376,3.719,8.95,3.719,8.95A4.605,4.605,0,0,0,762.276,398.424Z" transform="translate(-753.847 -371.559)" fill="#ea9675"/>
          <path id="Path_630" data-name="Path 630" d="M765.629,419.779c-.485,1.358,1.4,3.185,3.776,5.5a57.214,57.214,0,0,1,5.11,5.454c1.037,1.3,3.08,2.435,5.664,3.865a49.335,49.335,0,0,1,12.888,9.351.406.406,0,1,1-.59.559,48.638,48.638,0,0,0-12.691-9.2c-2.664-1.473-4.767-2.638-5.906-4.069a56.458,56.458,0,0,0-5.04-5.377c-2.691-2.615-4.634-4.505-3.974-6.354a4.963,4.963,0,0,1,3.663-3.176c.121.233.2.378.2.378A5.408,5.408,0,0,0,765.629,419.779Z" transform="translate(-756.817 -392.778)" fill="#dd7c62"/>
          <path id="Path_631" data-name="Path 631" d="M774.693,421.236c-.1,1.47-3.011,4.913-4.413,4.6s-4.489-3.555-4.758-5.025,2.612-4.232,5.493-3.066S774.745,420.47,774.693,421.236Z" transform="translate(-757.191 -393.327)" fill="#fae3d3"/>
          <path id="Path_632" data-name="Path 632" d="M771.89,417.552a3.82,3.82,0,0,1,2.228.192c2.881,1.166,3.73,2.73,3.678,3.495-.079,1.175-1.955,3.606-3.422,4.375C774.665,423.021,773.526,419.958,771.89,417.552Z" transform="translate(-760.294 -393.331)" fill="#fff3eb"/>
        </g>
      </g>
    </g>
  </g>
</svg>
