<svg xmlns="http://www.w3.org/2000/svg" width="657.428" height="365.492" viewBox="0 0 657.428 365.492">
  <g id="Group_950" data-name="Group 950" transform="translate(1313.606 2349.163) rotate(-90)">
    <g id="Group_767" data-name="Group 767" transform="matrix(-0.017, 1, -1, -0.017, 2282.598, -1020.856)">
      <path id="Path_1243" data-name="Path 1243" d="M22.272,0C-20.264,39.773,11.205,61.981,11.205,61.981S48.415,52.035,22.272,0Z" transform="translate(0)" fill="#499393"/>
      <path id="Path_1244" data-name="Path 1244" d="M19.731,30.256c-1.126.893-2.23,1.811-3.346,2.716s-2.21,1.833-3.305,2.761-2.263,1.775-3.264,2.806c-.5.514-1,1.033-1.469,1.582q-.3.344-.585.7.371-1.777.726-3.558c.562-2.8,1.011-5.624,1.457-8.447.356-.2.7-.424,1.032-.653q.764-.524,1.479-1.1A31.727,31.727,0,0,0,15.089,24.5q1.306-1.292,2.592-2.606c.85-.884,1.712-1.756,2.551-2.651l-.082-.09c-.971.752-1.919,1.528-2.879,2.291s-1.9,1.55-2.838,2.336a31.655,31.655,0,0,0-2.8,2.381q-.644.656-1.236,1.369-.159.19-.312.385.241-1.527.492-3.053L12.61,12.446,14.581.021,14.462,0,12.011,12.339l-1.291,6.67q-.055-.189-.116-.375a14.913,14.913,0,0,0-.536-1.425,10.283,10.283,0,0,0-.7-1.339c-.269-.429-.544-.854-.8-1.289q-.765-1.307-1.556-2.6c-.538-.857-1.059-1.722-1.61-2.573l-.108.056c.378.939.786,1.864,1.178,2.8s.812,1.851,1.232,2.768c.209.46.4.929.595,1.4a10.263,10.263,0,0,0,.691,1.345,14.914,14.914,0,0,0,.858,1.259,10.459,10.459,0,0,0,.707.852L9.62,24.689c-.668,3.486-1.409,6.959-2.014,10.456-.075-.214-.151-.427-.231-.639-.252-.677-.538-1.336-.831-1.992C5.962,31.2,5.16,30,4.453,28.752s-1.421-2.494-2.145-3.734S.855,22.54.108,21.312L0,21.368c.575,1.318,1.179,2.62,1.767,3.93s1.2,2.606,1.821,3.9,1.135,2.643,1.875,3.874c.368.617.742,1.231,1.152,1.826.266.392.543.778.838,1.155-.055.331-.111.662-.163.993-.327,2.071-.646,4.143-.927,6.223s-.538,4.163-.744,6.255l.12.022q.8-3.052,1.467-6.126c.132-.593.255-1.187.381-1.78.462-.279.9-.579,1.337-.888.59-.417,1.154-.863,1.713-1.314,1.121-.9,2.075-1.982,3.1-2.986s2.046-2.013,3.059-3.031,2.023-2.039,3.018-3.076Z" transform="translate(5.527 12.443)" fill="#65a7ad"/>
    </g>
    <g id="Group_768" data-name="Group 768" transform="translate(2288.309 -821.44)">
      <path id="Path_1245" data-name="Path 1245" d="M2126.36,706.623c58.422,15.829,60.831-24.132,60.831-24.132S2158.042,655.048,2126.36,706.623Z" transform="translate(-2126.36 -675.197)" fill="#284d43"/>
      <path id="Path_1246" data-name="Path 1246" d="M2184.206,690.073c1.406.506,2.82.98,4.23,1.471s2.829.951,4.248,1.41,2.807,1.029,4.266,1.349c.729.162,1.459.318,2.2.433q.467.076.939.134-1.774.644-3.542,1.3c-2.784,1.036-5.524,2.184-8.262,3.334-.375-.2-.757-.384-1.142-.554-.588-.259-1.182-.5-1.784-.7a32.862,32.862,0,0,0-3.7-.926q-1.856-.448-3.722-.865c-1.246-.267-2.488-.552-3.739-.8l-.035.122c1.2.446,2.4.86,3.6,1.291s2.409.83,3.617,1.23a33.019,33.019,0,0,0,3.635,1.169c.622.14,1.251.253,1.886.343.169.024.339.046.51.066q-1.481.622-2.967,1.236l-12.082,5-12.059,5.056.047.118,12.245-4.586,6.6-2.509q-.136.152-.268.307a15.526,15.526,0,0,0-.966,1.254,10.7,10.7,0,0,0-.8,1.353c-.231.472-.457.948-.7,1.412q-.736,1.391-1.446,2.8c-.463.944-.942,1.879-1.392,2.831l.109.065c.624-.848,1.217-1.715,1.827-2.571s1.191-1.73,1.772-2.6c.292-.436.6-.861.908-1.289a10.643,10.643,0,0,0,.811-1.347,15.587,15.587,0,0,0,.644-1.447,10.993,10.993,0,0,0,.366-1.091l4.758-1.808c3.446-1.317,6.921-2.563,10.343-3.941-.148.183-.3.368-.438.554-.461.593-.886,1.207-1.306,1.824-.843,1.234-1.465,2.6-2.18,3.907s-1.427,2.62-2.126,3.939-1.4,2.639-2.072,3.971l.109.065c.85-1.229,1.67-2.475,2.507-3.712s1.644-2.491,2.452-3.744,1.715-2.449,2.4-3.777c.344-.662.681-1.329.983-2.017.2-.449.391-.905.562-1.372.323-.132.646-.264.967-.4,2.01-.844,4.016-1.7,6.007-2.585s3.973-1.8,5.935-2.765l-.047-.118q-3.133.966-6.217,2.055c-.6.208-1.188.424-1.781.637-.5-.256-1.006-.483-1.517-.7-.691-.294-1.394-.548-2.1-.795-1.408-.5-2.886-.749-4.335-1.105s-2.9-.707-4.352-1.045-2.909-.672-4.37-.984Z" transform="translate(-2148.104 -684.648)" fill="#52999a"/>
    </g>
    <g id="Group_769" data-name="Group 769" transform="matrix(-0.809, 0.588, -0.588, -0.809, 2163.931, -746.591)">
      <path id="Path_1247" data-name="Path 1247" d="M9.434,0c-24.817,44.252,7.175,54.384,7.175,54.384S44.878,36.3,9.434,0Z" transform="translate(0 0)" fill="#53bfab"/>
      <path id="Path_1248" data-name="Path 1248" d="M18.729,23.744c-.7,1.039-1.373,2.092-2.061,3.138s-1.351,2.105-2.015,3.165-1.411,2.071-1.969,3.191c-.281.559-.557,1.121-.8,1.7q-.157.364-.3.736-.161-1.574-.336-3.145c-.273-2.475-.646-4.937-1.02-7.4.241-.264.467-.537.684-.815.331-.424.644-.859.937-1.305a27.614,27.614,0,0,0,1.51-2.822q.743-1.418,1.464-2.848c.472-.959.957-1.91,1.418-2.875l-.092-.053c-.607.88-1.19,1.775-1.786,2.662s-1.167,1.788-1.739,2.689a27.533,27.533,0,0,0-1.694,2.716c-.241.476-.461.965-.665,1.463q-.081.2-.158.4-.2-1.332-.4-2.665L8.115,10.837,6.471,0l-.1.014L7.589,10.906l.689,5.879q-.1-.142-.195-.281a13.058,13.058,0,0,0-.822-1.042,8.974,8.974,0,0,0-.937-.926c-.336-.285-.677-.565-1-.859q-.979-.884-1.978-1.748c-.673-.57-1.334-1.15-2.016-1.71l-.075.075c.562.68,1.145,1.34,1.717,2.011S4.13,13.626,4.72,14.278c.3.326.576.666.862,1a8.949,8.949,0,0,0,.929.934,13.062,13.062,0,0,0,1.044.819,9.11,9.11,0,0,0,.812.521l.5,4.238c.366,3.071.667,6.15,1.088,9.214q-.177-.237-.36-.469c-.387-.5-.8-.968-1.216-1.435-.83-.937-1.812-1.722-2.729-2.572s-1.838-1.7-2.767-2.534-1.86-1.674-2.8-2.5L0,21.574c.825.942,1.67,1.864,2.5,2.8s1.688,1.846,2.542,2.759,1.64,1.895,2.58,2.722c.468.415.941.826,1.438,1.212.324.255.656.5,1,.738.042.289.083.579.127.868.276,1.806.558,3.611.873,5.411s.652,3.6,1.034,5.39l.105-.014q-.144-2.744-.4-5.474c-.047-.527-.1-1.053-.154-1.579.31-.353.6-.719.876-1.09.38-.5.731-1.021,1.075-1.544.693-1.043,1.2-2.193,1.785-3.3s1.167-2.212,1.74-3.324,1.141-2.227,1.694-3.351Z" transform="translate(4.457 10.92)" fill="#52999a"/>
    </g>
    <g id="Group_770" data-name="Group 770" transform="translate(2216.57 -1123.999)">
      <path id="Path_1249" data-name="Path 1249" d="M2833.361,350.523c-46.771,44.226-11.849,68.579-11.849,68.579S2862.58,407.878,2833.361,350.523Z" transform="translate(-2808.985 -350.523)" fill="#284d43"/>
      <path id="Path_1250" data-name="Path 1250" d="M2847.755,422.242c-1.239.994-2.454,2.016-3.681,3.023s-2.432,2.04-3.636,3.072-2.491,1.976-3.59,3.122c-.552.571-1.1,1.148-1.615,1.758q-.328.382-.642.777.4-1.967.78-3.937c.6-3.1,1.083-6.223,1.558-9.346.392-.229.768-.474,1.136-.729q.841-.584,1.628-1.227a34.99,34.99,0,0,0,2.895-2.847q1.436-1.436,2.849-2.9c.934-.983,1.881-1.951,2.8-2.946l-.091-.1c-1.068.837-2.112,1.7-3.168,2.55s-2.089,1.725-3.122,2.6a35.054,35.054,0,0,0-3.077,2.649q-.708.729-1.358,1.521-.174.211-.343.427.258-1.69.525-3.378l2.168-13.734,2.1-13.746-.133-.023-2.632,13.654-1.386,7.381c-.041-.139-.085-.277-.13-.414a16.5,16.5,0,0,0-.6-1.572,11.368,11.368,0,0,0-.785-1.476c-.3-.472-.607-.94-.892-1.42q-.853-1.44-1.736-2.864c-.6-.944-1.182-1.9-1.8-2.833l-.119.063c.424,1.036.881,2.055,1.319,3.084s.91,2.04,1.38,3.052c.234.507.446,1.025.666,1.539a11.331,11.331,0,0,0,.773,1.483,16.442,16.442,0,0,0,.956,1.386,11.522,11.522,0,0,0,.786.937l-1,5.32c-.717,3.858-1.514,7.7-2.162,11.57-.084-.236-.169-.472-.259-.7-.282-.747-.6-1.474-.931-2.2-.651-1.449-1.544-2.77-2.335-4.145s-1.586-2.748-2.394-4.114-1.62-2.73-2.454-4.083l-.119.063c.643,1.453,1.319,2.888,1.978,4.333s1.348,2.873,2.037,4.3,1.271,2.914,2.1,4.271c.411.68.828,1.356,1.285,2.011.3.432.6.857.933,1.271-.059.366-.118.732-.174,1.1-.349,2.292-.689,4.584-.987,6.884s-.569,4.6-.784,6.919l.133.023q.861-3.379,1.583-6.781c.142-.656.275-1.313.411-1.97.509-.31,1-.645,1.473-.99.65-.465,1.27-.961,1.885-1.463,1.233-1,2.281-2.2,3.408-3.32s2.249-2.238,3.362-3.369,2.223-2.266,3.317-3.419Z" transform="translate(-2819.814 -375.063)" fill="#65a7ad"/>
    </g>
    <g id="Group_773" data-name="Group 773" transform="translate(2039.705 -744.199)">
      <path id="Path_1255" data-name="Path 1255" d="M2052.158,518.272c29.3,84.906,80.351,54.535,80.351,54.535S2141.882,514.144,2052.158,518.272Z" transform="translate(-2052.158 -518.064)" fill="#4d8d87"/>
      <path id="Path_1256" data-name="Path 1256" d="M2142.862,560.659c.55,2.148,1.15,4.279,1.723,6.419q.884,3.2,1.812,6.39c.616,2.126,1.078,4.3,1.9,6.361.408,1.03.827,2.056,1.3,3.063q.3.637.618,1.264-2.271-1.64-4.555-3.258c-3.594-2.552-7.287-4.958-10.983-7.36-.065-.629-.16-1.249-.272-1.863-.173-.937-.378-1.863-.623-2.776a48.783,48.783,0,0,0-1.953-5.318q-1-2.652-2.042-5.289c-.711-1.753-1.4-3.514-2.131-5.259l-.178.059c.449,1.839.946,3.663,1.418,5.495q.732,2.74,1.507,5.466a48.811,48.811,0,0,0,1.6,5.436c.346.879.732,1.746,1.152,2.6q.168.342.345.681-2-1.3-3.992-2.611L2113.3,559.5l-16.263-10.584-.106.156,15.841,11.205,8.584,6.01q-.3-.041-.6-.073a23.107,23.107,0,0,0-2.345-.14,15.959,15.959,0,0,0-2.328.148c-.773.11-1.544.23-2.319.317q-2.321.256-4.64.558c-1.545.218-3.092.41-4.635.652l.011.187c1.561.058,3.12.064,4.679.1q2.339.025,4.674,0c.779-.006,1.56.022,2.34.039a15.866,15.866,0,0,0,2.329-.129,23.11,23.11,0,0,0,2.312-.417,16.107,16.107,0,0,0,1.644-.46l6.187,4.332c4.491,3.131,8.917,6.357,13.463,9.408-.349-.029-.7-.055-1.045-.076-1.112-.071-2.221-.082-3.328-.081-2.217-.006-4.41.369-6.614.581s-4.406.435-6.607.675c-2.2.258-4.4.488-6.6.769l.011.188c2.217.018,4.431-.014,6.646-.019q3.322-.033,6.641-.113c2.212-.05,4.435.062,6.635-.207,1.1-.13,2.2-.272,3.3-.475.719-.128,1.437-.276,2.153-.454.432.285.862.572,1.3.853,2.712,1.762,5.43,3.514,8.182,5.217s5.525,3.374,8.344,4.978l.105-.155q-3.8-3.04-7.707-5.916c-.752-.558-1.511-1.1-2.268-1.655-.1-.826-.247-1.637-.411-2.442-.216-1.093-.49-2.167-.775-3.239-.562-2.143-1.487-4.168-2.258-6.242s-1.55-4.147-2.347-6.213c-.813-2.061-1.6-4.131-2.437-6.184Z" transform="translate(-2080.84 -537.827)" fill="#65a7ad"/>
    </g>
    <g id="Group_776" data-name="Group 776" transform="translate(2129.373 -707.968)">
      <path id="Path_1261" data-name="Path 1261" d="M2599.994,867.87c-9.209-65.066-50.113-50.367-50.113-50.367S2534.975,858.332,2599.994,867.87Z" transform="translate(-2548.408 -816.08)" fill="#53bfab"/>
      <path id="Path_1262" data-name="Path 1262" d="M2561.139,845.428c-.1-1.619-.229-3.234-.343-4.851s-.262-3.23-.411-4.842-.174-3.241-.479-4.834c-.15-.8-.308-1.592-.51-2.382q-.125-.5-.268-.994,1.4,1.494,2.818,2.975c2.226,2.334,4.543,4.577,6.863,6.817-.041.461-.059.92-.064,1.376-.007.7.011,1.391.06,2.081a35.89,35.89,0,0,0,.662,4.092q.348,2.044.73,4.084c.267,1.358.514,2.719.8,4.074l.136-.017c-.066-1.384-.169-2.763-.252-4.144s-.2-2.759-.321-4.136a35.789,35.789,0,0,0-.389-4.127c-.126-.68-.283-1.356-.465-2.029q-.073-.269-.153-.537,1.255,1.213,2.5,2.432l10.157,9.916,10.206,9.868.1-.1L2582.7,849.9l-5.328-5.513c.14.047.28.093.421.136a16.826,16.826,0,0,0,1.665.427,11.666,11.666,0,0,0,1.692.218c.57.029,1.142.05,1.709.1q1.7.14,3.411.245c1.14.058,2.277.137,3.42.178l.018-.136c-1.113-.259-2.232-.481-3.347-.722s-2.236-.448-3.356-.654c-.56-.1-1.117-.233-1.675-.354a11.608,11.608,0,0,0-1.691-.232,16.9,16.9,0,0,0-1.719-.023,11.729,11.729,0,0,0-1.245.1l-3.84-3.974c-2.789-2.875-5.519-5.809-8.358-8.633.246.07.493.137.74.2.789.206,1.583.368,2.379.522,1.591.313,3.219.349,4.831.5s3.225.3,4.84.436,3.23.263,4.849.368l.018-.137c-1.59-.322-3.185-.607-4.777-.912s-3.189-.574-4.786-.845-3.177-.663-4.794-.776c-.809-.06-1.618-.111-2.434-.118-.534-.008-1.071,0-1.61.026-.27-.265-.54-.531-.813-.794-1.7-1.644-3.41-3.281-5.15-4.887s-3.5-3.193-5.3-4.739l-.1.1q2.3,2.713,4.711,5.323c.462.505.931,1,1.4,1.5-.042.607-.051,1.211-.045,1.811,0,.815.05,1.625.106,2.434.105,1.618.487,3.2.752,4.8s.535,3.194.82,4.79.574,3.19.888,4.781Z" transform="translate(-2550.947 -818.531)" fill="#52999a"/>
    </g>
    <g id="Group_778" data-name="Group 778" transform="translate(2241.026 -760.057)">
      <path id="Path_1265" data-name="Path 1265" d="M2281.667,807.329c65.715-.206,56.759-42.738,56.759-42.738S2300.025,744.231,2281.667,807.329Z" transform="translate(-2281.667 -761.459)" fill="#60b7ba"/>
      <path id="Path_1266" data-name="Path 1266" d="M2332.251,775.222c1.617.126,3.234.216,4.852.325s3.235.182,4.853.256,3.234.271,4.854.187c.81-.039,1.619-.087,2.429-.179q.511-.054,1.022-.129-1.672,1.184-3.333,2.384c-2.617,1.885-5.156,3.873-7.694,5.864-.451-.1-.9-.185-1.354-.252-.69-.1-1.379-.179-2.069-.225a35.7,35.7,0,0,0-4.144.095q-2.072.064-4.145.163c-1.382.078-2.763.137-4.145.232v.138c1.38.124,2.76.211,4.14.317s2.76.178,4.141.249a35.783,35.783,0,0,0,4.142.18c.691-.032,1.382-.094,2.073-.182q.276-.035.553-.078-1.373,1.077-2.751,2.147l-11.215,8.7-11.173,8.757.083.11,11.5-8.318,6.191-4.522q-.1.2-.193.4a16.972,16.972,0,0,0-.651,1.591,11.63,11.63,0,0,0-.448,1.647c-.107.561-.206,1.124-.329,1.68q-.372,1.668-.711,3.345c-.214,1.122-.447,2.238-.645,3.364l.132.036c.409-1.067.782-2.145,1.175-3.217s.75-2.153,1.108-3.235c.18-.541.384-1.075.58-1.61a11.6,11.6,0,0,0,.461-1.643,16.886,16.886,0,0,0,.258-1.7,11.686,11.686,0,0,0,.07-1.247l4.462-3.26c3.23-2.369,6.51-4.671,9.7-7.1-.1.235-.2.47-.3.706-.312.753-.582,1.518-.843,2.285-.528,1.533-.787,3.141-1.161,4.716s-.741,3.153-1.095,4.735-.7,3.164-1.029,4.753l.133.037c.537-1.531,1.038-3.071,1.558-4.606s1.006-3.08,1.492-4.625,1.092-3.056,1.427-4.643c.169-.793.331-1.587.45-2.394.081-.528.148-1.06.194-1.6.3-.232.6-.462.9-.7,1.861-1.461,3.717-2.929,5.547-4.432s3.643-3.027,5.42-4.6l-.083-.11q-3,1.911-5.919,3.938c-.564.388-1.122.785-1.682,1.179-.6-.125-1.192-.216-1.788-.293-.808-.109-1.616-.173-2.425-.229-1.617-.117-3.238.044-4.857.087s-3.238.093-4.857.156-3.239.132-4.858.225Z" transform="translate(-2301.921 -766.944)" fill="#62a2a7"/>
    </g>
    <g id="Group_779" data-name="Group 779" transform="translate(2211.124 -932.112)">
      <path id="Path_1267" data-name="Path 1267" d="M2703.61,298.631c13.218,64.372,53.133,47.169,53.133,47.169S2769.1,304.128,2703.61,298.631Z" transform="translate(-2703.61 -298.631)" fill="#284d43"/>
      <path id="Path_1268" data-name="Path 1268" d="M2765.413,337.717c.2,1.61.429,3.213.642,4.82s.462,3.207.71,4.807.374,3.224.777,4.795c.2.786.406,1.57.656,2.346q.155.49.329.976-1.492-1.4-3-2.8c-2.366-2.192-4.817-4.287-7.271-6.379.012-.463,0-.922-.021-1.378-.037-.7-.1-1.387-.189-2.073a35.786,35.786,0,0,0-.914-4.043q-.474-2.018-.981-4.03c-.351-1.339-.681-2.681-1.048-4.017l-.135.026c.152,1.377.34,2.747.509,4.121s.373,2.741.576,4.108a35.653,35.653,0,0,0,.644,4.1c.168.671.366,1.336.589,2q.089.264.186.527-1.328-1.132-2.649-2.272l-10.752-9.269-10.8-9.217-.092.1,10.432,9.628,5.659,5.173q-.215-.058-.429-.11a16.8,16.8,0,0,0-1.688-.323,11.682,11.682,0,0,0-1.7-.113c-.571.006-1.142.021-1.712.01q-1.708-.035-3.419-.034c-1.142.012-2.282,0-3.425.034l-.009.137c1.127.189,2.257.341,3.385.514s2.26.308,3.391.445c.565.069,1.129.163,1.693.25a11.582,11.582,0,0,0,1.7.127,16.906,16.906,0,0,0,1.717-.084,11.756,11.756,0,0,0,1.236-.178l4.079,3.728c2.961,2.7,5.868,5.456,8.876,8.1q-.375-.081-.751-.154c-.8-.157-1.6-.27-2.407-.374-1.607-.214-3.234-.15-4.853-.2s-3.238-.1-4.858-.135-3.24-.063-4.862-.067l-.01.137c1.606.223,3.216.409,4.824.615s3.219.376,4.829.547,3.212.465,4.833.478c.811.009,1.622.01,2.436-.033.534-.025,1.069-.064,1.6-.126.286.248.572.5.86.742,1.8,1.535,3.607,3.063,5.442,4.559s3.689,2.97,5.583,4.4l.091-.1q-2.468-2.565-5.032-5.022c-.492-.476-.991-.944-1.489-1.416,0-.609-.024-1.211-.067-1.811-.054-.814-.151-1.619-.256-2.423-.205-1.609-.685-3.165-1.047-4.743s-.732-3.155-1.115-4.73-.77-3.148-1.182-4.717Z" transform="translate(-2722.558 -315.433)" fill="#52999a"/>
    </g>
    <g id="Group_781" data-name="Group 781" transform="translate(2185.763 -902.49)">
      <path id="Path_1271" data-name="Path 1271" d="M2579.931,329.926c-48.4,15.207-32.057,44.513-32.057,44.513S2580.851,380.654,2579.931,329.926Z" transform="translate(-2545.217 -329.926)" fill="#468984"/>
      <path id="Path_1272" data-name="Path 1272" d="M2570.839,380.477c-1.221.277-2.435.582-3.652.872s-2.427.607-3.636.923-2.447.541-3.621.974c-.588.215-1.174.435-1.75.689q-.364.157-.723.33.962-1.256,1.911-2.521c1.5-1.989,2.915-4.037,4.329-6.086.356-.027.708-.071,1.056-.125q.8-.124,1.577-.308a27.612,27.612,0,0,0,3.034-1.019q1.512-.522,3.018-1.07c1-.374,2.007-.734,3-1.121l-.031-.1c-1.045.225-2.083.477-3.125.714s-2.076.5-3.11.765a27.577,27.577,0,0,0-3.095.816c-.5.182-1,.386-1.487.61q-.2.089-.39.184.765-1.108,1.537-2.213l6.274-8.985,6.232-9.016-.086-.062-6.576,8.768L2568,368.246q.028-.169.051-.338a12.965,12.965,0,0,0,.116-1.322,8.988,8.988,0,0,0-.047-1.317c-.05-.438-.106-.875-.142-1.314q-.108-1.315-.242-2.629c-.1-.876-.183-1.752-.3-2.628l-.106,0c-.057.881-.085,1.76-.129,2.641s-.059,1.76-.076,2.639c-.009.44-.037.88-.059,1.32a8.95,8.95,0,0,0,.036,1.317,12.958,12.958,0,0,0,.2,1.313,9.154,9.154,0,0,0,.234.936L2565,372.293c-1.839,2.487-3.73,4.935-5.524,7.454q.033-.295.059-.589c.058-.627.081-1.253.1-1.878.038-1.251-.139-2.5-.225-3.743s-.176-2.495-.277-3.742-.206-2.494-.33-3.74l-.106,0c-.046,1.252-.062,2.5-.094,3.754s-.036,2.5-.041,3.751-.1,2.5.012,3.75c.056.623.119,1.246.217,1.868.061.408.133.816.222,1.223-.168.239-.337.478-.5.719-1.038,1.5-2.07,3.011-3.074,4.538s-1.992,3.067-2.942,4.633l.086.062q1.776-2.1,3.462-4.259c.327-.415.648-.836.97-1.254.468-.045.928-.114,1.385-.194.621-.1,1.231-.243,1.841-.387,1.219-.284,2.377-.775,3.56-1.177s2.366-.81,3.545-1.228,2.357-.839,3.53-1.279Z" transform="translate(-2549.875 -345.812)" fill="#65a7ad"/>
    </g>
    <g id="Group_782" data-name="Group 782" transform="matrix(-0.891, -0.454, 0.454, -0.891, 2106.149, -1174.853)">
      <path id="Path_1273" data-name="Path 1273" d="M2.487,0c-13.688,70.179,33.6,69.622,33.6,69.622S65.944,32.947,2.487,0Z" transform="translate(0 0)" fill="#499393"/>
      <path id="Path_1274" data-name="Path 1274" d="M29.33,26.371c-.477,1.7-.915,3.406-1.374,5.11s-.879,3.414-1.3,5.125S25.681,40,25.428,41.746c-.129.872-.25,1.747-.323,2.631q-.049.557-.078,1.117-.91-2.035-1.839-4.062c-1.457-3.192-3.042-6.323-4.63-9.451.206-.46.388-.924.555-1.392.255-.714.483-1.434.679-2.161a38.966,38.966,0,0,0,.776-4.443q.37-2.225.7-4.458c.209-1.492.439-2.978.629-4.474l-.146-.031c-.424,1.446-.809,2.9-1.215,4.351s-.773,2.908-1.142,4.366a38.9,38.9,0,0,0-1.069,4.382c-.112.744-.192,1.5-.244,2.252q-.02.3-.034.607-.859-1.693-1.708-3.391L9.427,13.779,2.446,0,2.311.065,8.754,14.1l3.516,7.564q-.191-.148-.385-.29a18.414,18.414,0,0,0-1.56-1.032,12.7,12.7,0,0,0-1.663-.827c-.576-.233-1.155-.457-1.723-.707q-1.7-.75-3.419-1.466c-1.152-.466-2.293-.951-3.453-1.4L0,16.081c1.052.662,2.123,1.288,3.185,1.934s2.14,1.256,3.218,1.867c.539.307,1.066.637,1.6.96a12.613,12.613,0,0,0,1.656.84,18.436,18.436,0,0,0,1.759.635,12.882,12.882,0,0,0,1.316.339l2.534,5.452c1.845,3.949,3.608,7.937,5.522,11.852-.229-.159-.458-.316-.69-.469-.738-.493-1.5-.942-2.261-1.384-1.525-.888-3.185-1.5-4.788-2.237S9.839,34.412,8.226,33.7,5,32.28,3.371,31.6L3.3,31.73c1.52.9,3.058,1.758,4.587,2.638s3.074,1.725,4.62,2.572,3.031,1.812,4.654,2.5c.81.349,1.624.69,2.46.987.546.2,1.1.383,1.664.546.184.369.366.738.553,1.105,1.166,2.3,2.339,4.587,3.556,6.858s2.461,4.528,3.762,6.758l.135-.065q-1.4-3.61-2.95-7.15c-.3-.684-.6-1.364-.9-2.045.259-.609.483-1.226.691-1.846.287-.84.527-1.689.758-2.54.468-1.7.638-3.465.934-5.2s.587-3.475.862-5.217.545-3.484.788-5.232Z" transform="translate(6.859 13.956)" fill="#65a7ad"/>
    </g>
    <g id="Group_785" data-name="Group 785" transform="matrix(-0.259, 0.966, -0.966, -0.259, 2273.695, -1226.567)">
      <path id="Path_1279" data-name="Path 1279" d="M42.911,0C-30.625,51.574,12.648,92.274,12.648,92.274S71.621,85.106,42.911,0Z" transform="translate(0 0)" fill="#284d43"/>
      <path id="Path_1280" data-name="Path 1280" d="M28.219,47.345c-1.913,1.121-3.8,2.285-5.7,3.426s-3.77,2.323-5.642,3.5-3.839,2.222-5.59,3.581c-.877.677-1.748,1.362-2.585,2.1q-.53.461-1.044.943.95-2.635,1.876-5.277c1.462-4.158,2.756-8.372,4.046-12.587.587-.236,1.157-.5,1.716-.776q1.28-.636,2.5-1.364a48.914,48.914,0,0,0,4.574-3.344q2.273-1.691,4.521-3.421c1.489-1.167,2.992-2.312,4.468-3.5l-.106-.155c-1.644.939-3.26,1.92-4.891,2.878s-3.234,1.958-4.838,2.956a48.942,48.942,0,0,0-4.785,3.034q-1.125.863-2.183,1.824-.283.256-.56.52.7-2.28,1.409-4.557l5.778-18.521L26.871.059,26.693,0l-6.4,18.317-3.41,9.909q-.044-.3-.1-.6a23.042,23.042,0,0,0-.512-2.293,15.98,15.98,0,0,0-.784-2.2c-.318-.712-.647-1.421-.944-2.141q-.886-2.161-1.816-4.306c-.636-1.425-1.246-2.859-1.905-4.276l-.177.063c.375,1.517.8,3.016,1.2,4.525q.621,2.254,1.285,4.494c.221.747.409,1.505.607,2.26a15.919,15.919,0,0,0,.766,2.2,23.081,23.081,0,0,0,1.038,2.108,16.064,16.064,0,0,0,.9,1.453l-2.458,7.142c-1.771,5.18-3.651,10.325-5.33,15.535q-.1-.515-.216-1.025c-.238-1.089-.534-2.157-.84-3.222-.606-2.132-1.571-4.137-2.383-6.2s-1.633-4.115-2.471-6.165c-.855-2.044-1.683-4.1-2.56-6.134L0,29.517c.594,2.136,1.236,4.255,1.852,6.384q.948,3.184,1.94,6.352c.658,2.113,1.163,4.281,2.028,6.321.429,1.021.869,2.039,1.366,3.037.322.656.662,1.305,1.03,1.944-.155.494-.312.987-.463,1.482C6.807,58.13,5.873,61.226,5,64.341s-1.719,6.241-2.484,9.393l.179.059q1.875-4.489,3.561-9.04c.329-.877.645-1.757.966-2.637.766-.326,1.506-.689,2.234-1.068.992-.51,1.949-1.069,2.9-1.639,1.905-1.132,3.6-2.579,5.378-3.892s3.559-2.633,5.325-3.97,3.529-2.678,5.272-4.048Z" transform="translate(10.048 18.511)" fill="#65a7ad"/>
    </g>
    <g id="Group_786" data-name="Group 786" transform="translate(2201.84 -815.223)">
      <path id="Path_1281" data-name="Path 1281" d="M2386.774,839.556c21.634-87.174-37.728-89.482-37.728-89.482S2309.257,794.187,2386.774,839.556Z" transform="translate(-2338.836 -750.038)" fill="#284d43"/>
      <path id="Path_1282" data-name="Path 1282" d="M2361.384,786.756c.707-2.1,1.364-4.216,2.048-6.323q1-3.167,1.958-6.347c.64-2.119,1.438-4.2,1.867-6.371.217-1.086.425-2.175.572-3.28q.1-.695.169-1.4,1.012,2.611,2.048,5.212c1.625,4.1,3.415,8.126,5.208,12.152-.288.564-.546,1.135-.786,1.711q-.549,1.32-.988,2.668a48.778,48.778,0,0,0-1.256,5.525q-.6,2.768-1.165,5.548c-.357,1.858-.74,3.709-1.074,5.572l.182.048c.624-1.788,1.2-3.588,1.8-5.382q.878-2.7,1.71-5.405a48.79,48.79,0,0,0,1.619-5.429c.189-.926.336-1.863.45-2.809q.045-.378.081-.759.97,2.178,1.928,4.363l7.8,17.766,7.883,17.73.174-.073-7.191-18.022-3.931-9.714q.23.2.464.388a23.022,23.022,0,0,0,1.891,1.394,15.931,15.931,0,0,0,2.034,1.143c.708.328,1.421.647,2.117,1q2.087,1.049,4.2,2.057c1.415.658,2.817,1.339,4.244,1.976l.092-.163c-1.278-.9-2.582-1.752-3.872-2.629q-1.948-1.294-3.919-2.547c-.656-.418-1.3-.867-1.941-1.306a15.922,15.922,0,0,0-2.024-1.16,23.15,23.15,0,0,0-2.167-.908,16.2,16.2,0,0,0-1.63-.509l-2.833-7c-2.063-5.071-4.021-10.186-6.174-15.219q.415.322.836.632c.894.665,1.819,1.277,2.749,1.88,1.856,1.212,3.9,2.091,5.864,3.111s3.933,2.033,5.911,3.029,3.959,1.987,5.957,2.948l.093-.163c-1.85-1.222-3.725-2.4-5.586-3.6s-3.748-2.36-5.633-3.52-3.687-2.466-5.679-3.438c-.994-.489-1.994-.969-3.024-1.395-.673-.284-1.356-.551-2.053-.791-.207-.474-.413-.949-.624-1.422-1.316-2.954-2.643-5.9-4.025-8.83s-2.8-5.837-4.29-8.718l-.174.073q1.533,4.617,3.247,9.158c.327.877.666,1.749,1,2.623-.364.748-.684,1.508-.985,2.272-.413,1.035-.768,2.085-1.112,3.139-.694,2.1-1.02,4.306-1.5,6.466s-.957,4.323-1.413,6.49c-.439,2.171-.9,4.336-1.322,6.514Z" transform="translate(-2353.164 -749.973)" fill="#52999a"/>
    </g>
    <g id="Group_787" data-name="Group 787" transform="translate(2196.595 -986.538)">
      <path id="Path_1283" data-name="Path 1283" d="M2640.73,290.774c-24.069,59.7,17.827,67.273,17.827,67.273S2691.2,330.72,2640.73,290.774Z" transform="translate(-2633.273 -290.774)" fill="#284d43"/>
      <path id="Path_1284" data-name="Path 1284" d="M2674.693,356.231c-.712,1.421-1.389,2.855-2.085,4.283s-1.36,2.868-2.023,4.308-1.44,2.834-1.962,4.334c-.263.749-.519,1.5-.734,2.27q-.138.484-.259.975-.458-1.954-.933-3.9c-.744-3.07-1.611-6.108-2.481-9.145.26-.371.5-.751.728-1.136q.521-.882.969-1.794a35.1,35.1,0,0,0,1.444-3.795q.706-1.9,1.381-3.821c.439-1.283.9-2.558,1.32-3.847l-.125-.052c-.622,1.207-1.21,2.427-1.816,3.639s-1.18,2.439-1.754,3.665a35.186,35.186,0,0,0-1.692,3.691c-.226.639-.424,1.289-.6,1.949q-.07.264-.134.531-.47-1.643-.932-3.289l-3.757-13.387-3.822-13.37-.13.035,3.3,13.508,1.818,7.286q-.143-.163-.291-.322a16.357,16.357,0,0,0-1.2-1.178,11.38,11.38,0,0,0-1.329-1.015c-.469-.3-.944-.6-1.4-.918q-1.375-.953-2.772-1.88c-.939-.608-1.865-1.232-2.814-1.826l-.082.107c.817.765,1.657,1.5,2.485,2.253s1.677,1.475,2.527,2.2c.424.363.833.745,1.247,1.121a11.361,11.361,0,0,0,1.32,1.025,16.537,16.537,0,0,0,1.447.862,11.516,11.516,0,0,0,1.105.524l1.311,5.252c.957,3.8,1.835,7.631,2.859,11.418q-.262-.27-.53-.532c-.568-.561-1.162-1.088-1.762-1.609-1.2-1.045-2.559-1.874-3.851-2.794s-2.588-1.836-3.892-2.741-2.611-1.806-3.933-2.688l-.082.107c1.19,1.052,2.4,2.075,3.6,3.114s2.424,2.05,3.646,3.061,2.37,2.119,3.686,3.008c.656.446,1.318.887,2.006,1.292.449.269.907.526,1.378.766.1.358.2.715.3,1.071.639,2.228,1.285,4.454,1.974,6.669s1.4,4.422,2.173,6.615l.131-.035q-.626-3.43-1.388-6.824c-.144-.655-.3-1.308-.448-1.962.333-.495.636-1,.926-1.514.4-.693.754-1.4,1.1-2.116.7-1.424,1.155-2.954,1.713-4.439s1.111-2.972,1.651-4.464,1.076-2.987,1.589-4.49Z" transform="translate(-2644.323 -314.836)" fill="#52999a"/>
    </g>
    <g id="Group_788" data-name="Group 788" transform="translate(2126.574 -1029.731)">
      <path id="Path_1285" data-name="Path 1285" d="M2502.69,416.614c16.206,62.3,54.376,43.437,54.376,43.437S2567.027,418.658,2502.69,416.614Z" transform="translate(-2502.69 -416.614)" fill="#284d43"/>
      <path id="Path_1286" data-name="Path 1286" d="M2565.145,451.694c.273,1.565.583,3.121.874,4.682s.615,3.114.939,4.666.53,3.135,1,4.651c.234.758.477,1.515.761,2.261q.177.471.372.938-1.531-1.3-3.073-2.582c-2.426-2.024-4.931-3.948-7.438-5.87-.012-.454-.045-.9-.091-1.346-.071-.679-.167-1.352-.291-2.018a35.08,35.08,0,0,0-1.1-3.908q-.566-1.95-1.165-3.893c-.411-1.292-.8-2.588-1.23-3.876l-.131.032c.219,1.339.473,2.67.708,4.005s.5,2.662.772,3.989a34.98,34.98,0,0,0,.838,3.973q.3.971.678,1.922.1.254.209.506-1.356-1.04-2.707-2.088l-10.989-8.519-11.031-8.467-.084.1,10.695,8.888,5.8,4.772q-.212-.046-.425-.085a16.452,16.452,0,0,0-1.668-.23,11.42,11.42,0,0,0-1.671-.024c-.559.035-1.116.079-1.675.1q-1.673.053-3.346.141c-1.116.07-2.231.121-3.348.208l0,.134c1.112.128,2.226.219,3.338.331s2.226.187,3.339.263c.557.039,1.113.1,1.669.159a11.382,11.382,0,0,0,1.671.037,16.477,16.477,0,0,0,1.675-.169,11.584,11.584,0,0,0,1.2-.237l4.18,3.439c3.034,2.487,6.018,5.039,9.1,7.472-.248-.041-.5-.079-.743-.112-.791-.113-1.582-.182-2.374-.243-1.583-.128-3.171.018-4.757.047s-3.172.065-4.759.115-3.173.1-4.76.182l0,.134c1.583.137,3.167.237,4.75.356s3.167.2,4.751.289,3.166.291,4.752.222c.794-.032,1.587-.072,2.382-.156.521-.052,1.042-.117,1.563-.2.292.228.584.456.879.682,1.84,1.41,3.684,2.813,5.556,4.183s3.76,2.718,5.684,4.022l.084-.105q-2.545-2.383-5.177-4.656c-.506-.441-1.019-.873-1.529-1.309-.027-.6-.085-1.183-.157-1.768-.094-.793-.23-1.576-.374-2.357-.283-1.563-.831-3.061-1.266-4.586s-.877-3.049-1.332-4.57-.914-3.04-1.4-4.554Z" transform="translate(-2522.089 -432.077)" fill="#52999a"/>
    </g>
    <g id="Group_789" data-name="Group 789" transform="translate(2140.673 -1099.584)">
      <path id="Path_1287" data-name="Path 1287" d="M2144.77,468.732c40.138,65.468,77.149,30.684,77.149,30.684S2218.907,448.713,2144.77,468.732Z" transform="translate(-2144.77 -464.053)" fill="#284d43"/>
      <path id="Path_1288" data-name="Path 1288" d="M2228.3,491.4c.856,1.691,1.75,3.36,2.624,5.041s1.784,3.34,2.693,5,1.694,3.393,2.762,4.958c.531.785,1.071,1.564,1.655,2.316q.365.477.75.941-2.2-.95-4.4-1.879c-3.471-1.467-7-2.793-10.528-4.115-.171-.514-.364-1.014-.572-1.505q-.475-1.126-1.033-2.2a41.8,41.8,0,0,0-2.613-4.079q-1.323-2.029-2.682-4.038c-.917-1.332-1.815-2.675-2.75-4l-.138.082c.715,1.453,1.467,2.883,2.2,4.325s1.5,2.863,2.268,4.284a41.768,41.768,0,0,0,2.337,4.243c.451.67.934,1.322,1.442,1.959q.2.254.414.5-1.909-.715-3.815-1.442l-15.5-5.906-15.531-5.831-.06.149,15.294,6.428,8.276,3.431q-.259.022-.515.05a19.706,19.706,0,0,0-1.984.317,13.605,13.605,0,0,0-1.916.553c-.625.234-1.247.478-1.877.693q-1.891.643-3.771,1.323c-1.25.468-2.5.914-3.749,1.4l.044.154c1.314-.24,2.616-.523,3.925-.782s2.605-.56,3.9-.86c.649-.149,1.306-.27,1.96-.4a13.563,13.563,0,0,0,1.921-.538,19.722,19.722,0,0,0,1.853-.775,13.66,13.66,0,0,0,1.287-.688l5.966,2.473c4.327,1.784,8.618,3.66,12.976,5.367q-.445.06-.886.13c-.942.146-1.869.342-2.794.547-1.852.4-3.613,1.122-5.413,1.707s-3.6,1.176-5.391,1.784-3.585,1.221-5.369,1.861l.044.155c1.854-.394,3.7-.83,5.545-1.244s3.686-.868,5.523-1.321,3.714-.768,5.5-1.4c.895-.312,1.787-.634,2.664-1.006.576-.24,1.149-.5,1.713-.777.414.158.826.318,1.24.473,2.589.97,5.182,1.931,7.794,2.843s5.235,1.8,7.885,2.615l.059-.149q-3.732-1.836-7.527-3.515c-.73-.327-1.466-.643-2.2-.963-.238-.67-.508-1.321-.794-1.963-.383-.873-.809-1.719-1.245-2.56-.866-1.686-2.012-3.2-3.038-4.794s-2.06-3.176-3.107-4.753-2.1-3.152-3.176-4.712Z" transform="translate(-2172.347 -479.293)" fill="#52999a"/>
    </g>
    <g id="Group_794" data-name="Group 794" transform="translate(2183.508 -1196.83)">
      <path id="Path_1297" data-name="Path 1297" d="M2483.178,681.269c70.566,37.057,85.091-13.619,85.091-13.619S2538.653,624.039,2483.178,681.269Z" transform="translate(-2483.178 -651.75)" fill="#499393"/>
      <path id="Path_1298" data-name="Path 1298" d="M2567.469,669.363c1.662,1.053,3.345,2.066,5.017,3.1s3.365,2.031,5.057,3.027,3.313,2.126,5.1,2.955c.89.417,1.785.825,2.706,1.186q.579.231,1.168.441-2.464.321-4.925.664c-3.875.536-7.725,1.227-11.574,1.922-.425-.367-.863-.71-1.309-1.038q-1.022-.752-2.091-1.415a43.354,43.354,0,0,0-4.5-2.25q-2.258-1.106-4.536-2.176c-1.526-.7-3.04-1.421-4.576-2.1l-.08.147c1.409.915,2.839,1.792,4.258,2.689s2.858,1.756,4.3,2.615a43.338,43.338,0,0,0,4.337,2.542c.759.358,1.535.683,2.326.981q.316.119.637.23-2.083.376-4.167.74l-16.959,2.968-16.946,3.05.027.165,17.051-2.392,9.2-1.336q-.219.157-.432.318a20.332,20.332,0,0,0-1.6,1.336,14.047,14.047,0,0,0-1.415,1.511c-.433.541-.858,1.088-1.306,1.614q-1.345,1.577-2.659,3.183c-.866,1.081-1.749,2.145-2.6,3.24l.121.114c1.044-.912,2.055-1.856,3.084-2.782s2.026-1.883,3.023-2.84c.5-.478,1.021-.934,1.536-1.4a14.117,14.117,0,0,0,1.427-1.5,20.4,20.4,0,0,0,1.241-1.676,14.454,14.454,0,0,0,.783-1.3l6.633-.963c4.807-.707,9.629-1.315,14.422-2.107q-.365.289-.721.587c-.762.63-1.485,1.3-2.2,1.972-1.436,1.344-2.626,2.92-3.92,4.4s-2.583,2.96-3.859,4.454-2.549,2.993-3.8,4.512l.121.114c1.444-1.336,2.855-2.7,4.284-4.054s2.826-2.731,4.223-4.112,2.9-2.657,4.163-4.168c.631-.754,1.256-1.514,1.841-2.311.387-.52.761-1.052,1.115-1.6.452-.078.905-.155,1.357-.237,2.824-.511,5.646-1.031,8.461-1.6s5.622-1.18,8.419-1.857l-.026-.165q-4.3.345-8.579.864c-.825.1-1.649.205-2.472.309-.568-.472-1.155-.908-1.75-1.328-.8-.575-1.635-1.1-2.47-1.621-1.667-1.043-3.5-1.789-5.256-2.661s-3.524-1.737-5.3-2.588-3.546-1.7-5.335-2.515Z" transform="translate(-2513.629 -662.939)" fill="#65a7ad"/>
    </g>
    <g id="Group_800" data-name="Group 800" transform="translate(2132.914 -1174.565)">
      <path id="Path_1309" data-name="Path 1309" d="M2626.866,791.263c-47.185-35.254-63.682.038-63.682.038S2579.723,826.573,2626.866,791.263Z" transform="translate(-2563.184 -775.605)" fill="#4d8d87"/>
      <path id="Path_1310" data-name="Path 1310" d="M2584.887,810.8c-1.09-.962-2.2-1.9-3.3-2.846s-2.219-1.874-3.338-2.8-2.171-1.937-3.376-2.749c-.6-.408-1.207-.81-1.837-1.181-.263-.157-.531-.309-.8-.457q1.835.053,3.672.088c2.89.06,5.78,0,8.67-.056.268.317.547.619.835.91q.658.667,1.361,1.276a32.138,32.138,0,0,0,3.02,2.165q1.519,1.07,3.057,2.116c1.032.688,2.053,1.391,3.095,2.067l.075-.1c-.922-.832-1.864-1.638-2.794-2.458s-1.882-1.614-2.832-2.409a32.1,32.1,0,0,0-2.87-2.36q-.768-.524-1.583-.986-.217-.124-.438-.242,1.563-.032,3.127-.055l12.722-.193,12.722-.254v-.123l-12.722-.239-6.871-.1q.178-.089.353-.182a15.09,15.09,0,0,0,1.323-.789,10.449,10.449,0,0,0,1.208-.938c.379-.344.753-.694,1.14-1.026q1.165-.995,2.311-2.013c.757-.688,1.526-1.362,2.274-2.063l-.075-.1c-.868.544-1.716,1.115-2.574,1.672s-1.7,1.139-2.537,1.721c-.42.29-.854.563-1.283.841a10.366,10.366,0,0,0-1.216.928,15.131,15.131,0,0,0-1.1,1.078,10.583,10.583,0,0,0-.722.856l-4.952-.069c-3.59-.043-7.18-.161-10.769-.141q.3-.169.594-.344c.63-.371,1.235-.774,1.835-1.183,1.2-.814,2.255-1.826,3.372-2.753s2.23-1.859,3.335-2.8,2.208-1.888,3.3-2.851l-.075-.1c-1.209.807-2.4,1.641-3.6,2.46s-2.38,1.665-3.56,2.509-2.429,1.6-3.523,2.558c-.549.477-1.093.959-1.612,1.473-.343.334-.678.679-1,1.04-.339,0-.679.008-1.018.015-2.12.044-4.24.1-6.361.187s-4.24.207-6.36.375v.123q3.181.248,6.361.368c.614.026,1.227.042,1.84.062.36.41.738.8,1.123,1.173.52.514,1.065,1,1.614,1.471,1.095.955,2.343,1.713,3.526,2.553s2.37,1.678,3.563,2.505,2.391,1.65,3.6,2.456Z" transform="translate(-2563.184 -784.55)" fill="#65a7ad"/>
    </g>
    <g id="Group_801" data-name="Group 801" transform="translate(2174.61 -1266.725) rotate(150)">
      <path id="Path_1311" data-name="Path 1311" d="M0,0C19.519,73.377,64.421,50.885,64.421,50.885S75.9,2,0,0Z" fill="#499393"/>
      <path id="Path_1312" data-name="Path 1312" d="M38.019,12.7c.333,1.844.708,3.678,1.061,5.517s.746,3.669,1.138,5.5.645,3.694,1.215,5.479c.282.893.573,1.784.913,2.662q.211.555.445,1.1-1.815-1.521-3.642-3.025c-2.874-2.372-5.842-4.625-8.811-6.876-.017-.535-.059-1.063-.116-1.588-.088-.8-.2-1.594-.356-2.378a41.409,41.409,0,0,0-1.322-4.6q-.68-2.3-1.4-4.584c-.493-1.522-.964-3.048-1.476-4.565l-.154.039c.267,1.578.575,3.146.86,4.72s.612,3.137.937,4.7a41.32,41.32,0,0,0,1.015,4.681c.238.763.511,1.517.812,2.263.08.2.163.4.249.6q-1.607-1.218-3.206-2.445L13.165,9.916.1,0,0,.125,12.672,10.539l6.871,5.591q-.251-.053-.5-.1a19.5,19.5,0,0,0-1.969-.261,13.474,13.474,0,0,0-1.972-.017c-.658.045-1.316.1-1.974.126q-1.973.074-3.947.187c-1.316.09-2.631.157-3.948.267l0,.159c1.313.144,2.627.244,3.939.368s2.627.206,3.941.289c.657.042,1.314.114,1.97.176a13.375,13.375,0,0,0,1.972.033,19.4,19.4,0,0,0,1.975-.21,13.663,13.663,0,0,0,1.414-.288l4.953,4.03c3.6,2.914,7.131,5.9,10.777,8.754-.292-.046-.584-.089-.877-.128-.933-.128-1.867-.2-2.8-.272-1.869-.14-3.741.042-5.612.087s-3.741.1-5.612.166-3.742.143-5.614.245l0,.159c1.868.151,3.737.258,5.605.389s3.737.22,5.606.31,3.736.323,5.607.231c.936-.043,1.871-.1,2.808-.2.614-.064,1.228-.145,1.843-.252.347.267.693.535,1.042.8,2.179,1.651,4.364,3.294,6.581,4.9s4.453,3.182,6.732,4.707l.1-.125q-3.017-2.8-6.137-5.459c-.6-.516-1.207-1.024-1.811-1.534-.035-.7-.108-1.4-.2-2.084-.116-.935-.281-1.857-.456-2.777-.344-1.842-1-3.605-1.523-5.4s-1.054-3.591-1.6-5.382-1.1-3.581-1.677-5.363Z" transform="translate(12.894 10.162)" fill="#65a7ad"/>
    </g>
    <g id="Group_803" data-name="Group 803" transform="translate(2196.721 -710.963) rotate(-98)">
      <path id="Path_1315" data-name="Path 1315" d="M0,46.878C60.066,39.415,47.169,1.516,47.169,1.516S9.8-12.851,0,46.878Z" transform="translate(0 0)" fill="#499393"/>
      <path id="Path_1316" data-name="Path 1316" d="M14.139,7.676c1.493-.063,2.981-.161,4.473-.24s2.978-.191,4.466-.3,2.987-.11,4.459-.366c.736-.125,1.471-.258,2.2-.432q.461-.107.92-.231-1.4,1.268-2.784,2.549c-2.185,2.013-4.286,4.112-6.385,6.214-.424-.045-.846-.069-1.266-.081-.642-.017-1.281-.011-1.917.023a32.9,32.9,0,0,0-3.779.545q-1.887.288-3.772.608c-1.255.225-2.512.431-3.765.671L7,16.759c1.275-.04,2.547-.113,3.821-.168s2.544-.143,3.814-.231a32.9,32.9,0,0,0,3.807-.294c.628-.106,1.253-.239,1.876-.4q.249-.063.5-.132-1.136,1.137-2.279,2.267L9.248,27,0,36.248l.088.091,9.6-8.88,5.16-4.821q-.069.192-.132.386a15.406,15.406,0,0,0-.419,1.526,10.708,10.708,0,0,0-.227,1.555c-.036.525-.064,1.051-.115,1.573q-.156,1.566-.28,3.137c-.072,1.049-.161,2.1-.217,3.147l.125.019c.256-1.021.478-2.048.718-3.071s.447-2.052.655-3.081c.1-.514.232-1.025.352-1.537a10.647,10.647,0,0,0,.24-1.554,15.654,15.654,0,0,0,.048-1.582,10.929,10.929,0,0,0-.074-1.148l3.72-3.475c2.691-2.524,5.436-4.992,8.081-7.562-.068.226-.134.452-.2.679-.2.723-.364,1.453-.518,2.183-.313,1.461-.372,2.959-.54,4.441s-.328,2.965-.477,4.45-.293,2.971-.414,4.46l.125.019c.322-1.459.609-2.923.915-4.385s.579-2.928.853-4.394.66-2.916.79-4.4c.068-.744.127-1.488.147-2.239.016-.492.019-.986,0-1.483.248-.245.5-.489.744-.736,1.54-1.542,3.075-3.089,4.581-4.666s3-3.172,4.447-4.806L37.692,0q-2.535,2.08-4.976,4.256c-.473.418-.939.842-1.408,1.264-.559-.048-1.114-.066-1.667-.07-.751-.01-1.5.021-2.243.059-1.492.072-2.956.4-4.431.617s-2.95.443-4.424.68-2.947.479-4.417.743Z" transform="translate(9.434 1.47)" fill="#65a7ad"/>
    </g>
    <g id="Group_804" data-name="Group 804" transform="matrix(0.017, 1, -1, 0.017, 2047.686, -777.667)">
      <path id="Path_1317" data-name="Path 1317" d="M8.586,64.011C54.129,24.143,22.194,0,22.194,0S-16.8,9.064,8.586,64.011Z" transform="translate(0 0.013)" fill="#284d43"/>
      <path id="Path_1318" data-name="Path 1318" d="M.9,19.565c1.2-.89,2.378-1.806,3.568-2.707S6.822,15.029,7.991,14.1s2.412-1.766,3.486-2.8c.539-.517,1.073-1.039,1.58-1.593q.322-.347.632-.708-.446,1.834-.875,3.671c-.68,2.892-1.242,5.809-1.8,8.726-.376.2-.739.417-1.094.644q-.812.519-1.574,1.094A32.9,32.9,0,0,0,5.522,25.7Q4.121,27,2.74,28.323C1.827,29.213.9,30.089,0,30.991l.082.1c1.034-.748,2.045-1.522,3.069-2.282s2.026-1.545,3.028-2.33A32.953,32.953,0,0,0,9.166,24.1q.691-.66,1.331-1.38.171-.192.337-.389-.3,1.578-.615,3.155L7.686,38.31,5.215,51.15l.124.026L8.305,38.441l1.568-6.885q.051.2.108.393a15.5,15.5,0,0,0,.509,1.5,10.65,10.65,0,0,0,.684,1.415c.264.454.536.905.787,1.366q.749,1.384,1.528,2.754c.529.909,1.042,1.825,1.586,2.727l.114-.055c-.361-.989-.753-1.963-1.129-2.946s-.781-1.95-1.186-2.918c-.2-.484-.383-.979-.57-1.47a10.682,10.682,0,0,0-.673-1.421,15.576,15.576,0,0,0-.848-1.337,10.889,10.889,0,0,0-.705-.909l1.131-4.963c.813-3.6,1.7-7.182,2.449-10.794.071.225.143.449.219.672.238.712.513,1.407.8,2.1.56,1.385,1.352,2.658,2.044,3.98s1.391,2.639,2.1,3.952,1.424,2.624,2.158,3.925l.114-.055c-.552-1.388-1.135-2.762-1.7-4.144s-1.163-2.748-1.758-4.116-1.089-2.784-1.816-4.089c-.361-.654-.729-1.3-1.134-1.936-.263-.416-.538-.827-.831-1.228.068-.342.138-.684.2-1.026.41-2.141.813-4.283,1.176-6.433s.7-4.306.986-6.473L16.09,0q-.932,3.143-1.733,6.314c-.157.611-.306,1.224-.457,1.837-.49.273-.959.57-1.42.877-.628.413-1.228.857-1.824,1.307-1.195.9-2.223,1.988-3.322,3s-2.194,2.022-3.281,3.044S1.883,18.425.813,19.469Z" transform="translate(6.043 0)" fill="#62a2a7"/>
    </g>
  </g>
</svg>
