<svg xmlns="http://www.w3.org/2000/svg" width="312.656" height="293.663" viewBox="0 0 312.656 293.663">
  <g id="Group_964" data-name="Group 964" transform="translate(521 -7376)">
    <rect id="_555" data-name="555" width="242.671" height="247.689" transform="translate(-466.262 7376)" fill="#4a706b"/>
    <g id="Group_766" data-name="Group 766" transform="translate(-453 7454.165)">
      <g id="Group_737" data-name="Group 737" transform="translate(0 27.41)">
        <path id="Path_1082" data-name="Path 1082" d="M1809.112,1981.986c11.193.418,22.716-.256,33.909.162,4.912.184,9.912-.236,14.827-.162,33.874.509,63.953-1.146,97.8.165" transform="translate(-1807.799 -1978.88)" fill="none" stroke="#fff" stroke-miterlimit="10" stroke-width="5.02"/>
        <g id="Group_725" data-name="Group 725" transform="translate(83.434)">
          <g id="Group_724" data-name="Group 724" transform="translate(8.437)">
            <path id="Path_1083" data-name="Path 1083" d="M1972.43,2000.13a47.746,47.746,0,0,1,13.207-8.429,2.108,2.108,0,0,1,1.026-.24,2.16,2.16,0,0,1,1.06.56l12.488,9.992a155.65,155.65,0,0,1-29.435.069,2.07,2.07,0,0,1,1.36-1.865" transform="translate(-1970.776 -1983.2)" fill="none" stroke="#232323" stroke-miterlimit="10" stroke-width="1"/>
            <path id="Path_1084" data-name="Path 1084" d="M1997.18,1985.13a5.245,5.245,0,0,1,.67-2.833,10.046,10.046,0,0,0,1.058-2.743,2.616,2.616,0,0,0-.973-2.613,1.538,1.538,0,0,0-2.307.9" transform="translate(-1981.707 -1976.718)" fill="none" stroke="#232323" stroke-miterlimit="10" stroke-width="1"/>
          </g>
          <path id="Path_1085" data-name="Path 1085" d="M1993.66,2003.164c.257-.017.514-.026.772-.025.505,4.774,1.908,9.591,2.568,14.417,1.5,10.949,1.4,22.179,1.7,33.318.3,11.219,1.006,22.411,1.882,33.572.694,8.854,1.327,17.725,2.339,26.523.5,4.341,1.029,8.726,1.83,12.982.706,3.751-.195,3.34-2.661,3.7q-3.566.519-7.148.792c-1.164.089-13.982.562-13.978.118.018-2.3.071-4.53.083-6.841.019-3.773-.081-7.556-.122-11.33l-.243-22.668c-.162-15.107-.486-30.229-.486-45.338.445,28.766-2.87,57.825-.841,86.6l-12.313.737a18.951,18.951,0,0,1-2.6.036c-1.563-.123-7,.037-8.118-1.345-1.395-1.724.007-7.863.2-10.118l2.3-26.449c.5-5.7.994-11.414,1.084-17.156.08-5.049-.156-10.1-.258-15.145a283.328,283.328,0,0,1,4.6-56.983c.055-.3,14.014,1.481,15.339,1.544a71.465,71.465,0,0,0,7.841-.023C1989.523,2003.946,1991.577,2003.3,1993.66,2003.164Z" transform="translate(-1955.715 -1988.067)" fill="#ff9985"/>
          <path id="Path_1086" data-name="Path 1086" d="M1960.089,2206.425a7.321,7.321,0,0,0,3.3.928,52.719,52.719,0,0,0,15.877-.751" transform="translate(-1957.639 -2077.752)" fill="none" stroke="#e28071" stroke-miterlimit="10" stroke-width="1"/>
          <path id="Path_1087" data-name="Path 1087" d="M2002.877,2203.177l5.084.234c1.8.083,3.606.166,5.408.094a31.351,31.351,0,0,0,9.436-1.86" transform="translate(-1976.459 -2075.65)" fill="none" stroke="#e28071" stroke-miterlimit="10" stroke-width="1"/>
          <path id="Path_1088" data-name="Path 1088" d="M2021.224,2156.633c-1.933-4.909-.531-10.427.892-15.506s2.836-10.592.923-15.508" transform="translate(-1984.113 -2042.211)" fill="none" stroke="#e28071" stroke-miterlimit="10" stroke-width="1"/>
          <path id="Path_1089" data-name="Path 1089" d="M2018.152,2135.916a10.8,10.8,0,0,1-4.112-7.4c-.208-2.11.2-4.333-.6-6.295l1.623,2.978a28.474,28.474,0,0,1,2.443,5.32,9.566,9.566,0,0,1,.107,5.77" transform="translate(-1981.103 -2040.714)" fill="none" stroke="#e28071" stroke-miterlimit="10" stroke-width="1"/>
          <path id="Path_1090" data-name="Path 1090" d="M2021.969,2121.635a19.448,19.448,0,0,1-3.63-18.309,1.742,1.742,0,0,0,.328,1.529c2.769,4.8,4.927,10.245,4.325,15.75" transform="translate(-1982.862 -2032.405)" fill="none" stroke="#e28071" stroke-miterlimit="10" stroke-width="1"/>
          <path id="Path_1091" data-name="Path 1091" d="M2024.964,2152.4a7.683,7.683,0,0,1,1.393-4.051l2.457-4.281a18.95,18.95,0,0,1-.485,5.1,4.831,4.831,0,0,1-.568,1.517,5.565,5.565,0,0,1-3.122,1.9" transform="translate(-1986.031 -2050.324)" fill="none" stroke="#e28071" stroke-miterlimit="10" stroke-width="1"/>
          <path id="Path_1092" data-name="Path 1092" d="M2014.354,2152.727a8.837,8.837,0,0,1-1.415-1.885,17.221,17.221,0,0,1-1.8-3.472,5.782,5.782,0,0,1-.084-3.843,12.748,12.748,0,0,1,3.717,9.122" transform="translate(-1979.927 -2050.087)" fill="none" stroke="#e28071" stroke-miterlimit="10" stroke-width="1"/>
          <path id="Path_1093" data-name="Path 1093" d="M2023.509,2167a1.476,1.476,0,0,1,.251-1.33,15.734,15.734,0,0,1,3.034-3.752,6.374,6.374,0,0,1-1.832,4.694c-.314.314-.858.59-1.155.26" transform="translate(-1985.498 -2058.176)" fill="none" stroke="#e28071" stroke-miterlimit="10" stroke-width="1"/>
          <path id="Path_1094" data-name="Path 1094" d="M1999.144,2084.664q-.183-4.845-.235-9.695" transform="translate(-1974.713 -2019.933)" fill="none" stroke="#e28071" stroke-miterlimit="10" stroke-width="1"/>
          <path id="Path_1095" data-name="Path 1095" d="M1992.433,2009.621a30.012,30.012,0,0,0,16.7.049" transform="translate(-1971.865 -1991.19)" fill="none" stroke="#e28071" stroke-miterlimit="10" stroke-width="1"/>
          <path id="Path_1096" data-name="Path 1096" d="M1976.227,2007.685a9.759,9.759,0,0,1,2.312.473,12.926,12.926,0,0,0,4.718-.113" transform="translate(-1964.737 -1990.338)" fill="none" stroke="#e28071" stroke-miterlimit="10" stroke-width="1"/>
          <path id="Path_1097" data-name="Path 1097" d="M1962.482,2204.115a37.99,37.99,0,0,0,7.408,1.139c2.354.2,4.82.393,6.991-.539" transform="translate(-1958.691 -2076.736)" fill="none" stroke="#e28071" stroke-miterlimit="10" stroke-width="1"/>
          <path id="Path_1098" data-name="Path 1098" d="M2005.138,2200.406l11.454-.219a24.159,24.159,0,0,0,4.266-.334,12.073,12.073,0,0,0,2.86-.953" transform="translate(-1977.453 -2074.443)" fill="none" stroke="#e28071" stroke-miterlimit="10" stroke-width="1"/>
        </g>
        <g id="Group_726" data-name="Group 726" transform="translate(57.351 0.33)">
          <path id="Path_1099" data-name="Path 1099" d="M1937.095,2003.053a47.473,47.473,0,0,1,13.207-9.268,1.951,1.951,0,0,1,1.026-.264,2.1,2.1,0,0,1,1.06.615l12.488,10.988a141.6,141.6,0,0,1-29.434.076,2.267,2.267,0,0,1,1.36-2.051" transform="translate(-1920.715 -1984.436)" fill="none" stroke="#232323" stroke-miterlimit="10" stroke-width="1.049"/>
          <path id="Path_1100" data-name="Path 1100" d="M1929.4,2002.27c-.766.5-1.548.964-2.33,1.432a18.479,18.479,0,0,0-5.171,4.421c-2.038,2.6-3.468,5.7-5.123,8.609-1.443,2.54-3.07,4.96-4.323,7.619a41.525,41.525,0,0,0-3.3,11.852,34.622,34.622,0,0,0,11.1,2.926c-.836-.076-2.211,26.452-2.265,28.9a1.491,1.491,0,0,0,.106.727,1.224,1.224,0,0,0,.815.515c5.431,1.562,11.053,1.68,16.6,2.474s11.175,1.6,16.761.786a1.049,1.049,0,0,0,.655-.265,1.329,1.329,0,0,0,.239-.82l1.1-16.784c.162-2.483.2-4.975.388-7.458a44.029,44.029,0,0,0-.163-8.5,32.135,32.135,0,0,0,7.009.169,65.319,65.319,0,0,0-.662-9.4,38.442,38.442,0,0,1-.489-4.163c-.065-1.959.01-3.885-.223-5.829a51.588,51.588,0,0,0-1.544-6.572,13.1,13.1,0,0,0-2.2-5.249,10.945,10.945,0,0,0-3.34-2.422q-2.927-1.579-5.912-3.027c-.556,2.358-2.991,3.508-5.182,3.867a15.735,15.735,0,0,1-6.334-.349,20.287,20.287,0,0,1-2.994-1.094,5.2,5.2,0,0,1-2.559-2.8Q1929.727,2002.056,1929.4,2002.27Z" transform="translate(-1909.151 -1988.095)" fill="#899b5d"/>
          <path id="Path_1101" data-name="Path 1101" d="M1944.452,2006.284a23.274,23.274,0,0,1-1.753,12.472c-.19.426-.383.969-.109,1.335a1.022,1.022,0,0,0,.615.325c2.443.586,5.193.276,7.223,1.881" transform="translate(-1923.799 -1990.053)" fill="none" stroke="#6e7d43" stroke-miterlimit="10" stroke-width="1"/>
          <path id="Path_1102" data-name="Path 1102" d="M1949.974,2007.885a43.981,43.981,0,0,1,3,7.825,20.342,20.342,0,0,1,.9,7.262" transform="translate(-1927.107 -1990.757)" fill="none" stroke="#6e7d43" stroke-miterlimit="10" stroke-width="1"/>
          <path id="Path_1103" data-name="Path 1103" d="M1958.877,2021.481a27.054,27.054,0,0,1,2.632-2.647,26.184,26.184,0,0,0,7.035-12.255" transform="translate(-1931.022 -1990.182)" fill="none" stroke="#6e7d43" stroke-miterlimit="10" stroke-width="1"/>
          <path id="Path_1104" data-name="Path 1104" d="M1969.667,2005.948a124.019,124.019,0,0,1-.695,15.651,1.1,1.1,0,0,1-.155.537.884.884,0,0,1-.8.233l-6.734-.383a2.571,2.571,0,0,0-2.166.556" transform="translate(-1931.127 -1989.905)" fill="none" stroke="#6e7d43" stroke-miterlimit="10" stroke-width="1"/>
          <path id="Path_1105" data-name="Path 1105" d="M1957.216,2036.574c-1.22,4.487-.058,9.327-.505,13.984-.155,1.61-.5,3.189-.755,4.784a84.083,84.083,0,0,0-.677,13.568l.065,15.812" transform="translate(-1929.437 -2003.375)" fill="none" stroke="#6e7d43" stroke-miterlimit="10" stroke-width="1"/>
          <path id="Path_1106" data-name="Path 1106" d="M1938.734,2009.676" transform="translate(-1922.163 -1991.544)" fill="none" stroke="#6e7d43" stroke-miterlimit="10" stroke-width="1"/>
          <path id="Path_1107" data-name="Path 1107" d="M1961.845,1986.558a6.236,6.236,0,0,1,.67-3.116,11.722,11.722,0,0,0,1.058-3.016,3.027,3.027,0,0,0-.973-2.874,1.5,1.5,0,0,0-2.306.985" transform="translate(-1931.646 -1977.307)" fill="none" stroke="#232323" stroke-miterlimit="10" stroke-width="1.049"/>
          <path id="Path_1108" data-name="Path 1108" d="M1928.986,2053.565l.912-9.615a56.638,56.638,0,0,1,1.374-9.149" transform="translate(-1917.875 -2002.595)" fill="none" stroke="#6e7d43" stroke-miterlimit="10" stroke-width="1"/>
          <path id="Path_1109" data-name="Path 1109" d="M1988.958,2054.88c-.523-5.4-.738-10.831-.953-16.257" transform="translate(-1943.834 -2004.276)" fill="none" stroke="#6e7d43" stroke-miterlimit="10" stroke-width="1"/>
          <path id="Path_1110" data-name="Path 1110" d="M1961.456,2051.821c.05.184-.236.327-.329.164s.151-.383.279-.252a.359.359,0,0,0,.112.582" transform="translate(-1932.003 -2010.025)" fill="none" stroke="#6e7d43" stroke-miterlimit="10" stroke-width="1"/>
          <path id="Path_1111" data-name="Path 1111" d="M1961.237,2063.713c-.17.087-.12.43.067.454a1.019,1.019,0,0,0-.223-1.368.573.573,0,0,0,.164.724" transform="translate(-1931.963 -2014.91)" fill="none" stroke="#6e7d43" stroke-miterlimit="10" stroke-width="1"/>
          <path id="Path_1112" data-name="Path 1112" d="M1959.332,2076.094c-.122-.19-.392.206-.192.281-.073.1.062.279.167.215s.045-.282-.074-.271" transform="translate(-1931.107 -2020.735)" fill="none" stroke="#6e7d43" stroke-miterlimit="10" stroke-width="1"/>
          <path id="Path_1113" data-name="Path 1113" d="M1959.186,2090.28a.9.9,0,0,0,.082,1.076" transform="translate(-1931.097 -2026.997)" fill="none" stroke="#6e7d43" stroke-miterlimit="10" stroke-width="1"/>
          <path id="Path_1114" data-name="Path 1114" d="M1960.049,2101.949l-.175-.277" transform="translate(-1931.461 -2032.008)" fill="none" stroke="#6e7d43" stroke-miterlimit="10" stroke-width="1"/>
          <path id="Path_1115" data-name="Path 1115" d="M1959.273,2113.439c.165-.116.04-.468-.153-.43a.713.713,0,0,0,.075.808" transform="translate(-1931.089 -2036.994)" fill="none" stroke="#6e7d43" stroke-miterlimit="10" stroke-width="1"/>
        </g>
        <g id="Group_728" data-name="Group 728" transform="translate(41.903 1.211)">
          <g id="Group_727" data-name="Group 727" transform="translate(10.157)">
            <path id="Path_1116" data-name="Path 1116" d="M1901.359,2002.293a47.754,47.754,0,0,1,13.207-8.429,2.107,2.107,0,0,1,1.026-.24,2.157,2.157,0,0,1,1.06.56l12.488,9.992a155.655,155.655,0,0,1-29.434.069,2.069,2.069,0,0,1,1.36-1.865" transform="translate(-1899.706 -1985.363)" fill="none" stroke="#3a6380" stroke-miterlimit="10" stroke-width="1"/>
            <path id="Path_1117" data-name="Path 1117" d="M1926.11,1987.293a5.244,5.244,0,0,1,.67-2.833,10.06,10.06,0,0,0,1.058-2.743,2.616,2.616,0,0,0-.973-2.614,1.538,1.538,0,0,0-2.306.9" transform="translate(-1910.637 -1978.88)" fill="none" stroke="#3a6380" stroke-miterlimit="10" stroke-width="1"/>
          </g>
          <path id="Path_1118" data-name="Path 1118" d="M1892.857,2004.95c-.257-.017-.514-.026-.772-.025-.505,4.9-1.908,9.84-2.569,14.791-1.5,11.233-1.4,22.755-1.7,34.183-.3,11.511-1.007,22.993-1.881,34.444-.59,7.712-1.134,15.428-1.906,23.123-.32,3.194-.743,6.463-1.368,9.625-.679,3.429-1.563,6.978-.779,10.469,2.608-.952,5.521-.449,8.164.4s5.2,2.038,7.941,2.468c4.013.63,8.072-.408,12.085-1.04a60.823,60.823,0,0,1,14.513-.53,18.938,18.938,0,0,0,6.3-.071c-.288-1.7-.08-3.185-.256-4.859-.17-1.626-.507-3.236-.643-4.865l-2.3-27.135c-.5-5.849-.994-11.711-1.084-17.6-.08-5.18.156-10.358.258-15.538a298.04,298.04,0,0,0-4.6-58.462c-.055-.307-14.014,1.52-15.339,1.584a69.623,69.623,0,0,1-7.841-.024C1896.993,2005.753,1894.94,2005.089,1892.857,2004.95Z" transform="translate(-1881.574 -1990.057)" fill="#834348"/>
          <path id="Path_1119" data-name="Path 1119" d="M1898.977,2007.347c-3.006,3.874-1.553,9.383-1.342,14.282a62.691,62.691,0,0,1-.67,9.531c-1.472,13.346-1.035,26.829-.155,40.226.316,4.825.691,9.652.659,14.487-.055,8.4-1.335,16.741-2.612,25.046a34.566,34.566,0,0,1-2.12,8.691c-.854,1.951-2.066,3.735-2.861,5.711a7.791,7.791,0,0,0-.212,6.2" transform="translate(-1884.888 -1991.401)" fill="none" stroke="#6c3136" stroke-miterlimit="10" stroke-width="1"/>
          <path id="Path_1120" data-name="Path 1120" d="M1911.447,2007.892c-2.377,6.5.013,13.665.052,20.583a85.581,85.581,0,0,1-1.089,10.979c-3.1,24.958,3.2,50.336.444,75.335-.372,3.369-.907,6.724-1.058,10.11a44.8,44.8,0,0,0,.518,9.064" transform="translate(-1893.869 -1991.641)" fill="none" stroke="#6c3136" stroke-miterlimit="10" stroke-width="1"/>
          <path id="Path_1121" data-name="Path 1121" d="M1922.94,2009.831c-2.908,13.721,2.429,27.877,1.65,41.881-.274,4.925-1.3,9.774-1.9,14.67-2.111,17.257,1.146,34.665,1.865,52.036.229,5.521.2,11.05.119,16.574" transform="translate(-1899.348 -1992.494)" fill="none" stroke="#6c3136" stroke-miterlimit="10" stroke-width="1"/>
          <path id="Path_1122" data-name="Path 1122" d="M1933.654,2010.842c-.641,20.159,4.773,40.339,2.357,60.363-.381,3.157-.957,6.3-1.071,9.476a65.616,65.616,0,0,0,.734,10.4q2.659,21.4,5.318,42.8" transform="translate(-1904.458 -1992.939)" fill="none" stroke="#6c3136" stroke-miterlimit="10" stroke-width="1"/>
          <path id="Path_1123" data-name="Path 1123" d="M1945.631,2006.144q3.159,36.737,3.446,73.646a145.342,145.342,0,0,0,.593,15c1.442,12.918,6.609,25.414,6.224,38.407" transform="translate(-1909.749 -1990.872)" fill="none" stroke="#6c3136" stroke-miterlimit="10" stroke-width="1"/>
          <path id="Path_1124" data-name="Path 1124" d="M1889.734,2106.569c2.117,10.644.688,21.636-.746,32.394l-.76,5.7c-1.045,7.841-2.091,15.687-3.533,23.465" transform="translate(-1882.947 -2035.043)" fill="none" stroke="#6c3136" stroke-miterlimit="10" stroke-width="1"/>
        </g>
        <g id="Group_729" data-name="Group 729" transform="translate(26.595 0.086)">
          <path id="Path_1125" data-name="Path 1125" d="M1879.929,2003.25a47.451,47.451,0,0,1,12.789-9.861,1.943,1.943,0,0,1,1.013-.309,2.1,2.1,0,0,1,1.086.57l12.958,10.46a141.216,141.216,0,0,1-29.4,1.363,2.272,2.272,0,0,1,1.269-2.114" transform="translate(-1864.856 -1983.999)" fill="none" stroke="#232323" stroke-miterlimit="10" stroke-width="1.05"/>
          <path id="Path_1126" data-name="Path 1126" d="M1872.984,2002.058c-.744.531-1.5,1.035-2.264,1.537a18.474,18.474,0,0,0-4.973,4.655c-1.922,2.695-3.215,5.858-4.741,8.847-1.33,2.606-2.85,5.1-3.984,7.82a41.7,41.7,0,0,0-2.777,12.016,34.546,34.546,0,0,0,11.217,2.445c-.839-.039-1.05,26.593-1,29.044a1.5,1.5,0,0,0,.138.723,1.224,1.224,0,0,0,.837.48c5.494,1.327,11.116,1.2,16.694,1.753s11.236,1.118,16.78.055a1.051,1.051,0,0,0,.643-.294,1.339,1.339,0,0,0,.2-.832l.361-16.86c.053-2.495-.02-4.992.061-7.488a44.263,44.263,0,0,0-.535-8.5,32.049,32.049,0,0,0,7.01-.137,65.687,65.687,0,0,0-1.073-9.385,38.612,38.612,0,0,1-.671-4.148c-.151-1.96-.16-3.892-.479-5.829a51.955,51.955,0,0,0-1.83-6.516,13.152,13.152,0,0,0-2.432-5.16,12.1,12.1,0,0,0-3.456-2.626c-2-.969-3.77-1.905-5.8-2.785-.451,2.386-3.06,4-5.234,4.458a15.719,15.719,0,0,1-6.344-.073,23.4,23.4,0,0,1-3.295-.928,4.851,4.851,0,0,1-2.423-2.733Q1873.305,2001.829,1872.984,2002.058Z" transform="translate(-1854.245 -1987.426)" fill="#ffab00"/>
          <path id="Path_1127" data-name="Path 1127" d="M1887.478,2006.638a23.388,23.388,0,0,1-1.2,12.569c-.171.435-.341.988-.051,1.342a1.02,1.02,0,0,0,.63.3c2.466.481,5.2.05,7.3,1.57" transform="translate(-1868.241 -1989.964)" fill="none" stroke="#e28200" stroke-miterlimit="10" stroke-width="1.05"/>
          <path id="Path_1128" data-name="Path 1128" d="M1892.606,2008.069a44.2,44.2,0,0,1,3.343,7.707,20.455,20.455,0,0,1,1.214,7.235" transform="translate(-1871.118 -1990.593)" fill="none" stroke="#e28200" stroke-miterlimit="10" stroke-width="1.05"/>
          <path id="Path_1129" data-name="Path 1129" d="M1902.609,2020.966a26.978,26.978,0,0,1,2.513-2.766,26.261,26.261,0,0,0,6.491-12.582" transform="translate(-1875.517 -1989.515)" fill="none" stroke="#e28200" stroke-miterlimit="10" stroke-width="1.05"/>
          <path id="Path_1130" data-name="Path 1130" d="M1912.766,2004.906a124.5,124.5,0,0,1-.008,15.706,1.086,1.086,0,0,1-.132.545.882.882,0,0,1-.791.269l-6.745-.089a2.566,2.566,0,0,0-2.139.652" transform="translate(-1875.668 -1989.202)" fill="none" stroke="#e28200" stroke-miterlimit="10" stroke-width="1.05"/>
          <path id="Path_1131" data-name="Path 1131" d="M1902.029,2036.422c-1.022,4.548.351,9.344.109,14.029-.084,1.62-.361,3.217-.545,4.825a84.5,84.5,0,0,0-.081,13.62l.758,15.835" transform="translate(-1874.931 -2003.064)" fill="none" stroke="#e28200" stroke-miterlimit="10" stroke-width="1.05"/>
          <path id="Path_1132" data-name="Path 1132" d="M1881.455,2010.354" transform="translate(-1866.213 -1991.598)" fill="none" stroke="#e28200" stroke-miterlimit="10" stroke-width="1.05"/>
          <path id="Path_1133" data-name="Path 1133" d="M1903.574,1986.136a6.261,6.261,0,0,1,.533-3.15,11.794,11.794,0,0,0,.925-3.068,3.04,3.04,0,0,0-1.1-2.836,1.5,1.5,0,0,0-2.261,1.087" transform="translate(-1875.105 -1976.871)" fill="none" stroke="#232323" stroke-miterlimit="10" stroke-width="1.05"/>
          <path id="Path_1134" data-name="Path 1134" d="M1874.285,2054.662l.49-9.67a56.9,56.9,0,0,1,.971-9.224" transform="translate(-1863.06 -2002.777)" fill="none" stroke="#e28200" stroke-miterlimit="10" stroke-width="1.05"/>
          <path id="Path_1135" data-name="Path 1135" d="M1933.612,2053.437c-.76-5.386-1.212-10.816-1.665-16.242" transform="translate(-1888.422 -2003.404)" fill="none" stroke="#e28200" stroke-miterlimit="10" stroke-width="1.05"/>
          <path id="Path_1136" data-name="Path 1136" d="M1906.009,2051.568c.059.182-.222.338-.322.178s.135-.39.268-.265a.36.36,0,0,0,.138.578" transform="translate(-1876.861 -2009.672)" fill="none" stroke="#e28200" stroke-miterlimit="10" stroke-width="1.05"/>
          <path id="Path_1137" data-name="Path 1137" d="M1906.313,2063.494c-.166.094-.1.436.086.451a1.023,1.023,0,0,0-.283-1.36.575.575,0,0,0,.2.718" transform="translate(-1877.036 -2014.572)" fill="none" stroke="#e28200" stroke-miterlimit="10" stroke-width="1.05"/>
          <path id="Path_1138" data-name="Path 1138" d="M1904.952,2075.974c-.13-.184-.383.224-.18.291-.068.108.075.276.177.208s.032-.285-.086-.268" transform="translate(-1876.435 -2020.44)" fill="none" stroke="#e28200" stroke-miterlimit="10" stroke-width="1.05"/>
          <path id="Path_1139" data-name="Path 1139" d="M1905.435,2090.192a.9.9,0,0,0,.129,1.074" transform="translate(-1876.708 -2026.714)" fill="none" stroke="#e28200" stroke-miterlimit="10" stroke-width="1.05"/>
          <path id="Path_1140" data-name="Path 1140" d="M1906.793,2101.847l-.187-.27" transform="translate(-1877.276 -2031.722)" fill="none" stroke="#e28200" stroke-miterlimit="10" stroke-width="1.05"/>
          <path id="Path_1141" data-name="Path 1141" d="M1906.534,2113.385c.16-.123.02-.47-.172-.423a.717.717,0,0,0,.11.806" transform="translate(-1877.134 -2036.728)" fill="none" stroke="#e28200" stroke-miterlimit="10" stroke-width="1.05"/>
        </g>
        <path id="Path_1142" data-name="Path 1142" d="M2051.948,1983.148c-.419,11.193.488,40.4.069,51.6-.183,4.912.236,9.912.162,14.828-.51,33.873,1.146,63.953-.165,97.8" transform="translate(-1914.558 -1979.546)" fill="none" stroke="#fff" stroke-miterlimit="10" stroke-width="5.02"/>
        <g id="Group_736" data-name="Group 736" transform="translate(0 0.308)">
          <g id="Group_730" data-name="Group 730" transform="translate(23.129)">
            <path id="Path_1143" data-name="Path 1143" d="M1849.71,2003.1a47.468,47.468,0,0,1,13.207-9.3,1.947,1.947,0,0,1,1.026-.264,2.1,2.1,0,0,1,1.06.617l12.488,11.023a141.087,141.087,0,0,1-29.434.076,2.273,2.273,0,0,1,1.36-2.057" transform="translate(-1848.057 -1984.418)" fill="none" stroke="#232323" stroke-miterlimit="10" stroke-width="1.05"/>
            <path id="Path_1144" data-name="Path 1144" d="M1874.461,1986.548a6.271,6.271,0,0,1,.67-3.126,11.815,11.815,0,0,0,1.058-3.026,3.043,3.043,0,0,0-.974-2.883,1.5,1.5,0,0,0-2.306.988" transform="translate(-1858.988 -1977.267)" fill="none" stroke="#232323" stroke-miterlimit="10" stroke-width="1.05"/>
          </g>
          <path id="Path_1145" data-name="Path 1145" d="M1858.763,2093.869c-.592.591.923,31.815,0,36.936-8.852,1.817-21.45,2.313-26.217.166-1.463-9.913-.26-39.5-.26-39.5l-.1-19.143,17.065,4.618Z" transform="translate(-1817.787 -2019.079)" fill="#f6dfc4"/>
          <path id="Path_1146" data-name="Path 1146" d="M1892.959,2093.869c-.592.591.923,31.815,0,36.936-8.852,1.817-20.8,2.148-25.563,0-1.462-9.913-.915-39.333-.915-39.333l-.1-19.143,17.065,4.618Z" transform="translate(-1832.988 -2019.079)" fill="#f6dfc4"/>
          <path id="Path_1147" data-name="Path 1147" d="M1865.62,2085.379a45.727,45.727,0,0,1-12.733-.386" transform="translate(-1827.053 -2024.65)" fill="none" stroke="#e9ba98" stroke-miterlimit="10" stroke-width="1"/>
          <path id="Path_1148" data-name="Path 1148" d="M1862.825,2048.379s-11.762,4.542-19.912-1.625c-4.9-3.712-5.183-17.082-4.626-27.143.407-7.338,5.5-10.989,10.5-15.5a39.546,39.546,0,0,0,3.574,1.968,11.225,11.225,0,0,0,3.211,1.12c3.156.467,6.142-1.379,8.8-3.146.61,4.949-.059,9.97.045,14.951l.182,8.724Z" transform="translate(-1820.54 -1989.05)" fill="#f6dfc4"/>
          <path id="Path_1149" data-name="Path 1149" d="M1877.422,2007.516s-3.876,13.052-3.876,18.173,1.221,15.364,1.189,22.468.463,24.294,1.454,27.76,9.48,2.143,16.47-1.161,1.4-25.607,1.4-25.607l-5.975-39.7a12.6,12.6,0,0,0-1.867-3.274c-1.214-1.807-3.315-3.378-4.846-4.931a23.356,23.356,0,0,0-2.877,3.509C1878.076,2005.613,1877.823,2006.62,1877.422,2007.516Z" transform="translate(-1836.139 -1987.811)" fill="#587995"/>
          <g id="Group_731" data-name="Group 731" transform="translate(0 15.134)">
            <path id="Path_1150" data-name="Path 1150" d="M1834.858,2004.284s-14.388,6.3-17.8,17.607-7.4,29.891-9.494,36.608.094,11.7,4.807,14.562,10.737,1.434,10.737,1.434,8.961-4.066,8.56-11.119-1.161-27.775-.437-33.607" transform="translate(-1806.767 -2004.284)" fill="#587995"/>
            <path id="Path_1151" data-name="Path 1151" d="M1816.767,2093.072c4.713,2.863,10.737,1.434,10.737,1.434s8.961-4.066,8.56-11.119-1.161-27.775-.437-33.607" transform="translate(-1811.165 -2024.295)" fill="none" stroke="#595245" stroke-miterlimit="10" stroke-width="0.75"/>
            <path id="Path_1152" data-name="Path 1152" d="M1815.2,2126.082s-1.029,2.626,3.811,3.439,7.387.293,7.762-1.455C1825.324,2128.3,1818.743,2128.83,1815.2,2126.082Z" transform="translate(-1810.437 -2057.856)" fill="#3c6580"/>
          </g>
          <path id="Path_1153" data-name="Path 1153" d="M1827.259,2020.862s-1.778,18.8-3.139,26.817-3.469,26.433-3.965,28.416,17.512,2.156,19.825,1.161-1.623-20.16-1.142-29.247,1.876-42.069,1.876-42.069l.028-1.656S1827.59,2017.487,1827.259,2020.862Z" transform="translate(-1812.651 -1989.15)" fill="#587995"/>
          <g id="Group_732" data-name="Group 732" transform="translate(7.504 31.712)">
            <path id="Path_1154" data-name="Path 1154" d="M1827.267,2033.88l-.573,6.94-.679,6.931c-.487,4.616-1.03,9.232-1.779,13.82s-1.341,9.179-1.986,13.774-1.221,9.205-2.088,13.768c.387-2.288.6-4.6.881-6.9l.829-6.913c.566-4.608,1.162-9.211,1.875-13.8.788-4.569,1.323-9.177,1.89-13.783Z" transform="translate(-1820.163 -2033.88)" fill="#3c6580"/>
          </g>
          <g id="Group_733" data-name="Group 733" transform="translate(38 21.018)">
            <path id="Path_1155" data-name="Path 1155" d="M1880.2,2082.8a3.1,3.1,0,0,1-3.066-2.783c-.169-1.633-1-16.62-1-20.007,0-3.289-.571-14.442-.8-16.242-.189-1.5-.961-9.79-.662-13.419.288-3.493,3.373-15.068,3.5-15.56l.479.128c-.032.12-3.2,12.024-3.489,15.473-.3,3.591.473,11.823.66,13.317.226,1.81.8,13,.8,16.3,0,3.378.826,18.326.99,19.909a2.617,2.617,0,0,0,2.644,2.385c3.924-.1,9.384-1.088,12.737-3.068l.251.427c-3.429,2.024-8.988,3.034-12.976,3.136Z" transform="translate(-1874.605 -2014.788)" fill="#3c6580"/>
          </g>
          <path id="Path_1156" data-name="Path 1156" d="M1879.2,2028.833c-.055.209.33.492.86.63s1,.08,1.058-.129-.331-.492-.86-.63S1879.257,2028.623,1879.2,2028.833Z" transform="translate(-1838.625 -1999.858)" fill="#3c6580"/>
          <ellipse id="Ellipse_22" data-name="Ellipse 22" cx="0.392" cy="0.991" rx="0.392" ry="0.991" transform="translate(39.28 38.721) rotate(-86.748)" fill="#3c6580"/>
          <path id="Path_1157" data-name="Path 1157" d="M1877.893,2064.314c-.012.216.421.417.967.448s1-.119,1.012-.335-.421-.417-.967-.448S1877.905,2064.1,1877.893,2064.314Z" transform="translate(-1838.051 -2015.404)" fill="#3c6580"/>
          <path id="Path_1158" data-name="Path 1158" d="M1879.152,2086.51c.012.216.466.366,1.012.334s.98-.232.967-.448-.465-.366-1.012-.334S1879.139,2086.294,1879.152,2086.51Z" transform="translate(-1838.605 -2025.117)" fill="#3c6580"/>
          <path id="Path_1159" data-name="Path 1159" d="M1880.408,2108.253c.012.216.465.366,1.012.334s.979-.232.967-.448-.466-.366-1.012-.334S1880.4,2108.037,1880.408,2108.253Z" transform="translate(-1839.157 -2034.681)" fill="#3c6580"/>
          <g id="Group_734" data-name="Group 734" transform="translate(7.533 17.724)">
            <path id="Path_1160" data-name="Path 1160" d="M1833.275,2079.031a63.608,63.608,0,0,1-13.059-1.095l.119-.482c4.86,1.2,14.3,1.229,18.22.91a1.11,1.11,0,0,0,1.022-.96,37.117,37.117,0,0,0-.308-7.178l-.123-1.126c-.574-5.229-1.767-16.108-1.621-18.6.034-.571.129-2.091.258-4.149.455-7.27,1.4-22.4,1.4-24.143,0-2.21.491-13.187.5-13.3l.5.022c-.005.111-.5,11.076-.5,13.276,0,1.761-.913,16.341-1.4,24.174-.128,2.057-.223,3.577-.257,4.148-.144,2.452,1.046,13.3,1.619,18.519l.123,1.125a37.5,37.5,0,0,1,.307,7.29,1.606,1.606,0,0,1-1.474,1.4C1837.3,2078.964,1835.408,2079.031,1833.275,2079.031Z" transform="translate(-1820.216 -2008.908)" fill="#3c6580"/>
          </g>
          <g id="Group_735" data-name="Group 735" transform="translate(43.836 13.433)">
            <path id="Path_1161" data-name="Path 1161" d="M1886.59,2001.247s12.605,5.5,15.469,16.956,5.947,30.214,7.709,37.024-.661,11.68-5.507,14.312-10.794.912-10.794.912-8.754-4.5-8.011-11.521,2.5-27.687,2.064-33.546" transform="translate(-1885.195 -2001.247)" fill="#587995"/>
            <path id="Path_1162" data-name="Path 1162" d="M1904.091,2088.492a12.186,12.186,0,0,1-2.563,1.042,14.137,14.137,0,0,1-2.736.475,17.568,17.568,0,0,1-5.538-.455l-.014,0-.014-.007a20.442,20.442,0,0,1-4.884-3.647,11.653,11.653,0,0,1-3.094-5.257,4.57,4.57,0,0,1-.135-.765c-.029-.257-.083-.514-.091-.773.02-.514,0-1.05.057-1.547l.289-3.013.551-6.031c.349-4.022.659-8.048.953-12.075.146-2.013.256-4.029.367-6.044s.194-4.034.109-6.052c.152,2.015.126,4.04.089,6.059s-.135,4.039-.236,6.057c-.2,4.036-.494,8.066-.821,12.093l-.522,6.039-.307,3.016c-.062.5-.039.984-.065,1.477.007.245.057.487.083.73a4.216,4.216,0,0,0,.123.725,11.225,11.225,0,0,0,2.953,5.072,20.189,20.189,0,0,0,4.723,3.662l-.028-.011a17.137,17.137,0,0,0,2.694.488,18.924,18.924,0,0,0,2.746.086,14.029,14.029,0,0,0,2.724-.383A12.135,12.135,0,0,0,1904.091,2088.492Z" transform="translate(-1885.024 -2020.2)" fill="#3c6580"/>
            <path id="Path_1163" data-name="Path 1163" d="M1911.449,2122.254s.9,2.673-3.973,3.25-7.393-.065-7.683-1.829C1901.232,2123.979,1907.781,2124.826,1911.449,2122.254Z" transform="translate(-1891.52 -2054.47)" fill="#3c6580"/>
          </g>
          <path id="Path_1164" data-name="Path 1164" d="M1861.295,2080.393a9.692,9.692,0,0,1,1.139-2.92,3.279,3.279,0,0,1,2.584-1.573,3.5,3.5,0,0,1-1.1,3.206,6.191,6.191,0,0,1-3.168,1.476,6.968,6.968,0,0,0-3.413-6.032,3.456,3.456,0,0,0,.559,3.631,10.159,10.159,0,0,0,3.071,2.341c-.346,3.222,1.008,6.347,2.051,9.416s1.759,6.577.248,9.445" transform="translate(-1828.877 -2020.055)" fill="none" stroke="#e9ba98" stroke-miterlimit="10" stroke-width="1"/>
          <path id="Path_1165" data-name="Path 1165" d="M1863.428,2086.461c-1.865,2.671-1.787,6.209-1.436,9.449s.886,6.626-.269,9.672" transform="translate(-1830.939 -2025.295)" fill="none" stroke="#e9ba98" stroke-miterlimit="10" stroke-width="1"/>
        </g>
        <path id="Path_1166" data-name="Path 1166" d="M1827.014,1983.148c-.419,11.193.487,40.4.069,51.6-.184,4.912.236,9.912.162,14.828-.509,33.873,1.147,63.953-.165,97.8" transform="translate(-1815.623 -1979.546)" fill="none" stroke="#fff" stroke-miterlimit="10" stroke-width="5.02"/>
      </g>
      <g id="Group_760" data-name="Group 760" transform="translate(112.688 0)">
        <path id="Path_1167" data-name="Path 1167" d="M2072.524,1956.774q.068.335.163.662c.071.245.806,2.914.742,2.912l-.275-.01-5.546,2.512s.024-.667.072-1.67l-.832-.176-.056-.307-1.363.211a2.866,2.866,0,0,1-.129.261l-.648-.141-.618.1.041-.221-.531-.116s-4.032-8.817.609-10.67c.445-1.286,2.5-.609,2.5-.609.38-.908,2.311-.929,2.631.006.38-.909,1.711-.768,2.326-.216a3.6,3.6,0,0,1,.772,2.808A19,19,0,0,0,2072.524,1956.774Z" transform="translate(-2031.682 -1937.037)" fill="#f9ad9f"/>
        <g id="Group_759" data-name="Group 759">
          <g id="Group_739" data-name="Group 739" transform="translate(29.346 21.228)">
            <path id="Path_1168" data-name="Path 1168" d="M2094.8,2003.37a81.5,81.5,0,0,1-15.494-1.081c-4.244-.8-8.24-2.149-10.273-4.434a16.572,16.572,0,0,1-2.291-3.521c-4.114-8.1-6.336-22.729-6.415-26.666-.017-1.366,11.511-2.639,12.489-1.614s6.789,16.007,9.927,16.447,13.461-.415,13.461-.415" transform="translate(-2060.326 -1965.681)" fill="#f9d5b6"/>
            <path id="Path_1169" data-name="Path 1169" d="M2082.621,1966.346c.978,1.026,6.789,16.007,9.927,16.447s12.847-1.03,12.847-1.03" transform="translate(-2070.132 -1965.974)" fill="none" stroke="#e0b596" stroke-miterlimit="10" stroke-width="0.93"/>
            <path id="Path_1170" data-name="Path 1170" d="M2084.341,2023.5c-4.244-.8-8.24-2.149-10.273-4.434a16.556,16.556,0,0,1-2.291-3.521,7.123,7.123,0,0,1,.735-.508,7.937,7.937,0,0,1,11.828,8.463Z" transform="translate(-2065.363 -1986.891)" fill="#72373a"/>
            <g id="Group_738" data-name="Group 738" transform="translate(8.356 25.829)">
              <path id="Path_1171" data-name="Path 1171" d="M2075.244,2012.35a6.059,6.059,0,0,1,.67,2.647" transform="translate(-2075.244 -2012.037)" fill="none" stroke="#592c26" stroke-miterlimit="10" stroke-width="0.465"/>
              <path id="Path_1172" data-name="Path 1172" d="M2081.773,2011.792a3.109,3.109,0,0,1-.3,2.425" transform="translate(-2077.983 -2011.792)" fill="none" stroke="#592c26" stroke-miterlimit="10" stroke-width="0.465"/>
              <path id="Path_1173" data-name="Path 1173" d="M2087.634,2013.438a3.093,3.093,0,0,1-.974,2.5" transform="translate(-2080.265 -2012.516)" fill="none" stroke="#592c26" stroke-miterlimit="10" stroke-width="0.465"/>
              <path id="Path_1174" data-name="Path 1174" d="M2092.408,2019.085s-1.033,1.461-2.022,1.459" transform="translate(-2081.904 -2015)" fill="none" stroke="#592c26" stroke-miterlimit="10" stroke-width="0.465"/>
              <path id="Path_1175" data-name="Path 1175" d="M2094.534,2026.05s-1.337,1.106-2.424.3" transform="translate(-2082.663 -2018.063)" fill="none" stroke="#592c26" stroke-miterlimit="10" stroke-width="0.465"/>
            </g>
            <path id="Path_1176" data-name="Path 1176" d="M2094.8,2004.929a81.5,81.5,0,0,1-15.494-1.081c-4.244-.8-8.24-2.149-10.273-4.434a16.572,16.572,0,0,1-2.291-3.521c-4.114-8.1-6.336-22.729-6.415-26.666" transform="translate(-2060.326 -1967.24)" fill="none" stroke="#e0b596" stroke-miterlimit="10" stroke-width="0.93"/>
          </g>
          <g id="Group_740" data-name="Group 740" transform="translate(0 14.663)">
            <path id="Path_1177" data-name="Path 1177" d="M2037.052,1979.457a47.46,47.46,0,0,1,13.418-8.986,1.946,1.946,0,0,1,1.032-.241,2.1,2.1,0,0,1,1.045.641l12.23,11.3a141.222,141.222,0,0,1-29.428-.6,2.272,2.272,0,0,1,1.407-2.025" transform="translate(-2019.995 -1961.113)" fill="none" stroke="#232323" stroke-miterlimit="10" stroke-width="1.05"/>
            <path id="Path_1178" data-name="Path 1178" d="M2028.962,1978.587c-.778.48-1.57.932-2.362,1.383a18.47,18.47,0,0,0-5.271,4.312c-2.1,2.561-3.6,5.63-5.321,8.51-1.5,2.512-3.184,4.9-4.5,7.537a41.7,41.7,0,0,0-3.572,11.8,34.514,34.514,0,0,0,11.028,3.188c-.833-.094-2.822,26.464-2.932,28.913a1.5,1.5,0,0,0,.089.731,1.226,1.226,0,0,0,.8.534c5.393,1.69,11.011,1.938,16.541,2.862s11.136,1.866,16.738,1.175a1.049,1.049,0,0,0,.661-.25,1.329,1.329,0,0,0,.258-.816l1.485-16.8c.219-2.486.314-4.983.561-7.468a44.277,44.277,0,0,0,.033-8.521,32,32,0,0,0,7,.331,65.674,65.674,0,0,0-.445-9.435,38.663,38.663,0,0,1-.392-4.184c-.02-1.966.1-3.895-.088-5.848a51.841,51.841,0,0,0-1.392-6.623,13.152,13.152,0,0,0-2.082-5.311,12.12,12.12,0,0,0-3.273-2.851c-1.927-1.1-3.635-2.153-5.6-3.165-.61,2.351-3.321,3.789-5.519,4.1a15.718,15.718,0,0,1-6.325-.5,23.444,23.444,0,0,1-3.225-1.146,4.851,4.851,0,0,1-2.236-2.889C2029.408,1978.309,2029.185,1978.45,2028.962,1978.587Z" transform="translate(-2007.938 -1964.607)" fill="#587995"/>
            <path id="Path_1179" data-name="Path 1179" d="M2044.3,1982.616a23.391,23.391,0,0,1-2.041,12.461c-.2.422-.406.962-.14,1.335a1.019,1.019,0,0,0,.608.34c2.428.644,5.185.4,7.177,2.053" transform="translate(-2022.918 -1966.565)" fill="none" stroke="#38617e" stroke-miterlimit="10" stroke-width="1"/>
            <path id="Path_1180" data-name="Path 1180" d="M2050.028,1984.312a44.166,44.166,0,0,1,2.821,7.913,20.452,20.452,0,0,1,.729,7.3" transform="translate(-2026.451 -1967.311)" fill="none" stroke="#38617e" stroke-miterlimit="10" stroke-width="1"/>
            <path id="Path_1181" data-name="Path 1181" d="M2058.344,1998.32a26.974,26.974,0,0,1,2.692-2.593,26.267,26.267,0,0,0,7.316-12.121" transform="translate(-2030.109 -1967)" fill="none" stroke="#38617e" stroke-miterlimit="10" stroke-width="1"/>
            <path id="Path_1182" data-name="Path 1182" d="M2069.459,1983.015a124.694,124.694,0,0,1-1.057,15.671,1.1,1.1,0,0,1-.167.535.881.881,0,0,1-.808.215l-6.724-.538a2.567,2.567,0,0,0-2.178.508" transform="translate(-2030.188 -1966.74)" fill="none" stroke="#38617e" stroke-miterlimit="10" stroke-width="1"/>
            <path id="Path_1183" data-name="Path 1183" d="M2055.786,2013.27c-1.323,4.47-.273,9.347-.828,14-.192,1.611-.574,3.185-.865,4.778a84.559,84.559,0,0,0-.99,13.584l-.3,15.85" transform="translate(-2027.671 -1980.047)" fill="none" stroke="#38617e" stroke-miterlimit="10" stroke-width="1"/>
            <path id="Path_1184" data-name="Path 1184" d="M2038.75,1985.847" transform="translate(-2021.49 -1967.986)" fill="none" stroke="#38617e" stroke-miterlimit="10" stroke-width="1"/>
            <path id="Path_1185" data-name="Path 1185" d="M2062.366,1963.236a6.269,6.269,0,0,1,.742-3.107,11.782,11.782,0,0,0,1.127-3,3.04,3.04,0,0,0-.907-2.9,1.5,1.5,0,0,0-2.329.934" transform="translate(-2031.277 -1953.962)" fill="none" stroke="#232323" stroke-miterlimit="10" stroke-width="1.05"/>
            <path id="Path_1186" data-name="Path 1186" d="M2027.65,2029.656l1.134-9.616a56.969,56.969,0,0,1,1.585-9.138" transform="translate(-2016.608 -1979.006)" fill="none" stroke="#38617e" stroke-miterlimit="10" stroke-width="1"/>
            <path id="Path_1187" data-name="Path 1187" d="M2087.915,2032.315c-.4-5.425-.488-10.873-.577-16.317" transform="translate(-2042.861 -1981.248)" fill="none" stroke="#38617e" stroke-miterlimit="10" stroke-width="1"/>
            <path id="Path_1188" data-name="Path 1188" d="M2060.488,2028.618c.047.186-.244.323-.332.157s.16-.381.285-.246a.36.36,0,0,0,.1.586" transform="translate(-2030.897 -1986.741)" fill="none" stroke="#38617e" stroke-miterlimit="10" stroke-width="1"/>
            <path id="Path_1189" data-name="Path 1189" d="M2059.994,2040.531c-.173.083-.13.428.056.456a1.024,1.024,0,0,0-.192-1.377.575.575,0,0,0,.147.73" transform="translate(-2030.743 -1991.633)" fill="none" stroke="#38617e" stroke-miterlimit="10" stroke-width="1"/>
            <path id="Path_1190" data-name="Path 1190" d="M2057.8,2052.9c-.118-.193-.4.2-.2.279-.076.1.056.28.162.219s.051-.282-.068-.273" transform="translate(-2029.753 -1997.455)" fill="none" stroke="#38617e" stroke-miterlimit="10" stroke-width="1"/>
            <path id="Path_1191" data-name="Path 1191" d="M2057.325,2067.114a.9.9,0,0,0,.058,1.08" transform="translate(-2029.593 -2003.731)" fill="none" stroke="#38617e" stroke-miterlimit="10" stroke-width="1"/>
            <path id="Path_1192" data-name="Path 1192" d="M2057.927,2078.828l-.168-.282" transform="translate(-2029.851 -2008.759)" fill="none" stroke="#38617e" stroke-miterlimit="10" stroke-width="1"/>
            <path id="Path_1193" data-name="Path 1193" d="M2056.88,2090.328c.168-.113.05-.468-.144-.434a.718.718,0,0,0,.056.812" transform="translate(-2029.358 -2013.749)" fill="none" stroke="#38617e" stroke-miterlimit="10" stroke-width="1"/>
          </g>
          <path id="Path_1194" data-name="Path 1194" d="M2049.122,2043.526c-1.171-2.643-2.334-.767-1.422,2.535-2.282-1.985-4.265-3.2-5.146-4.3-.827-1.034-2.527.36.915,4.729a22.019,22.019,0,0,1-3.339-2.967c-.964-1.227-2.063.966.8,4.8a14.25,14.25,0,0,1-2.031-1.752c-.925-1.062-1.729.759.447,3.86-.163-.107-.316-.212-.444-.313-1.518-1.2-1.819,2.908,5.653,6.881l7.139,3.309.22-8.191.991-3.521A18.582,18.582,0,0,1,2049.122,2043.526Z" transform="translate(-2021.142 -1977.775)" fill="#f9ad9f"/>
          <path id="Path_1195" data-name="Path 1195" d="M2096.49,1950.32s-2.754-9.858,4.515-10.849c1.927-2.3,5.7-2.716,7.136-2.762,4.97-.158,9.489,2.583,10.839,7.549,1.247,4.585-.165,10.305-4.676,12.56a1.566,1.566,0,0,1-2.148-1.321c0-1.074-7.186-4.13-7.186-4.13Z" transform="translate(-2046.662 -1931.708)" fill="#000100"/>
          <path id="Path_1196" data-name="Path 1196" d="M2096.891,1956.839s.771,12.115,8.591,11.454c5-1.47,6.168-4.3,7.076-6.278,1.57-.248,3.965-2.23,3.3-4.791s-3.387-.826-3.552.826c-.606.523-3.139-.688-5.878-2.643a10.448,10.448,0,0,1-3.374-3.883S2101.214,1955.793,2096.891,1956.839Z" transform="translate(-2047.063 -1938.227)" fill="#f9ad9f"/>
          <g id="Group_744" data-name="Group 744" transform="translate(36.834 203.205)">
            <path id="Path_1197" data-name="Path 1197" d="M2087.846,2291.844v2.669l8.15.551,1.211-4.516Z" transform="translate(-2079.919 -2290.548)" fill="#f9ad9f"/>
            <g id="Group_743" data-name="Group 743" transform="translate(0 3.411)">
              <g id="Group_742" data-name="Group 742">
                <path id="Path_1198" data-name="Path 1198" d="M2091.6,2296.952s-1.128,5.484-1.66,8.567H2073.7s.683-2.855,5.618-3.311c.531-6.833.551-5.458.551-5.458Z" transform="translate(-2073.695 -2296.638)" fill="#f9d5b6"/>
                <g id="Group_741" data-name="Group 741" transform="translate(4.91 4.961)">
                  <path id="Path_1199" data-name="Path 1199" d="M2083.864,2307.317a.286.286,0,0,0,.087-.013.3.3,0,0,0,.2-.378,2.712,2.712,0,0,0-1.252-1.4.3.3,0,0,0-.281.539,2.12,2.12,0,0,1,.951,1.033A.305.305,0,0,0,2083.864,2307.317Z" transform="translate(-2082.46 -2305.494)" fill="#72373a"/>
                </g>
              </g>
            </g>
          </g>
          <g id="Group_748" data-name="Group 748" transform="translate(114.665 186.016)">
            <path id="Path_1200" data-name="Path 1200" d="M2212.638,2266.28l5.839,3.626,4.768-6.633-3.2-3.412Z" transform="translate(-2212.638 -2259.862)" fill="#f9ad9f"/>
            <g id="Group_747" data-name="Group 747" transform="translate(4.432 1.441)">
              <g id="Group_746" data-name="Group 746">
                <path id="Path_1201" data-name="Path 1201" d="M2227.019,2262.434s4.064,3.852,6.4,5.93l-8.572,13.8s-2.065-2.087.152-6.52c-5.524-4.056-4.346-3.347-4.346-3.347Z" transform="translate(-2220.55 -2262.434)" fill="#f9d5b6"/>
                <g id="Group_745" data-name="Group 745" transform="translate(3.674 12.747)">
                  <path id="Path_1202" data-name="Path 1202" d="M2229.283,2285.7a.3.3,0,0,0,.035-.082.3.3,0,0,0-.215-.372,2.718,2.718,0,0,0-1.846.326.3.3,0,0,0,.309.523,2.124,2.124,0,0,1,1.38-.263A.3.3,0,0,0,2229.283,2285.7Z" transform="translate(-2227.108 -2285.19)" fill="#72373a"/>
                </g>
              </g>
            </g>
          </g>
          <path id="Path_1203" data-name="Path 1203" d="M2098.106,1942.927a7.891,7.891,0,0,0-3.662,7.025c.165,2.953.923,3.07,1.37,3.1a8.824,8.824,0,0,0,5.58-4.249" transform="translate(-2045.987 -1934.445)" fill="#000100"/>
          <path id="Path_1204" data-name="Path 1204" d="M2119.432,1932.794s2.3-5.753,8.493-4.928,4.708,5.617,9.417,6.691,10.491.33,13.547,6.526.248,17.016-10.573,17.512-9.912-7.1-9.912-9.995-4.213-9.417-7.022-9.5" transform="translate(-2056.978 -1927.785)" fill="#000100"/>
          <path id="Path_1205" data-name="Path 1205" d="M2073.678,2091.747a269.475,269.475,0,0,0-5.507,34.8c-1.982,20.486-6.282,52.206-8.648,58.594s-1.469,7.247-1.469,7.247,10.275,11.917,32.884,7.071,32.742-7.357,45.739-7.093,18.944-12.292,18.283-20.662c-7.71-7.93-21.808-19.3-24.671-28.266s-12.556-52.508-17.623-59.584S2073.678,2091.747,2073.678,2091.747Z" transform="translate(-2029.908 -1995.597)" fill="#834348"/>
          <path id="Path_1206" data-name="Path 1206" d="M2118.275,1970.253s.248,5.085,1.735,7.044a19.364,19.364,0,0,1-10.078,2.538,7.458,7.458,0,0,0,0-4.3C2109.188,1972.979,2118.275,1970.253,2118.275,1970.253Z" transform="translate(-2052.78 -1946.464)" fill="#f9ad9f"/>
          <path id="Path_1207" data-name="Path 1207" d="M2096.179,1982.9s7.862-2.234,10.629-2.9a1.694,1.694,0,0,1,1.255.175c1.212.712,1.162,2.132,1.374,3.015,2.189,2.23,9.458,11.812,14.415,35.6,2.478,12.556,4.3,29.407,4.3,29.407s-18.613,9.086-38.218,4.3c-4.9-1.321-8.866-4.46-8.866-5.451s4.791-28.251,5.782-36.346,7.558-23.047,8.136-23.914C2094.816,1986.043,2094.36,1983.348,2096.179,1982.9Z" transform="translate(-2040.101 -1950.731)" fill="#f9d5b6"/>
          <path id="Path_1208" data-name="Path 1208" d="M2122.431,1985.737a43.476,43.476,0,0,1-11.826,3.222" transform="translate(-2053.095 -1953.275)" fill="none" stroke="#e0b596" stroke-miterlimit="10" stroke-width="0.75"/>
          <g id="Group_749" data-name="Group 749" transform="translate(32.978 99.296)" style="mix-blend-mode: screen;isolation: isolate">
            <path id="Path_1209" data-name="Path 1209" d="M2157.037,2105.05s7.611,41.57,12.016,51.262,28.025,34.51,28.025,34.51" transform="translate(-2106.495 -2105.05)" fill="none" stroke="#72373a" stroke-miterlimit="10" stroke-width="0.75"/>
            <path id="Path_1210" data-name="Path 1210" d="M2148.543,2107.709s5.981,42.944,9.285,54.178,26.034,40.408,26.034,40.408" transform="translate(-2102.76 -2106.219)" fill="none" stroke="#72373a" stroke-miterlimit="10" stroke-width="0.75"/>
            <path id="Path_1211" data-name="Path 1211" d="M2138,2110.107s4.62,46.006,7.924,56.359,16.94,38.568,16.94,38.568" transform="translate(-2098.12 -2107.274)" fill="none" stroke="#72373a" stroke-miterlimit="10" stroke-width="0.75"/>
            <path id="Path_1212" data-name="Path 1212" d="M2127.117,2111.562s1.241,40.125,4.766,54.223,10.628,42.228,10.628,42.228" transform="translate(-2093.335 -2107.914)" fill="none" stroke="#72373a" stroke-miterlimit="10" stroke-width="0.75"/>
            <path id="Path_1213" data-name="Path 1213" d="M2116.891,2111.951s.78,39.608,2.112,53.415,6.807,45.367,6.807,45.367" transform="translate(-2088.838 -2108.086)" fill="none" stroke="#72373a" stroke-miterlimit="10" stroke-width="0.75"/>
            <path id="Path_1214" data-name="Path 1214" d="M2106.5,2111.276s-.826,46.012-.413,57.027,2.478,44.691,2.478,44.691" transform="translate(-2084.036 -2107.789)" fill="none" stroke="#72373a" stroke-miterlimit="10" stroke-width="0.75"/>
            <path id="Path_1215" data-name="Path 1215" d="M2092.4,2109.46s-2.785,49.452-3.21,58.7-2.667,44-2.507,44.031" transform="translate(-2075.546 -2106.99)" fill="none" stroke="#72373a" stroke-miterlimit="10" stroke-width="0.75"/>
            <path id="Path_1216" data-name="Path 1216" d="M2079.62,2106.679s-5.817,54.59-6.148,62.024-3.908,29.692-6.662,38.306" transform="translate(-2066.81 -2105.767)" fill="none" stroke="#72373a" stroke-miterlimit="10" stroke-width="0.75"/>
          </g>
          <path id="Path_1217" data-name="Path 1217" d="M2110.6,1977.692a7.48,7.48,0,0,0,6.994-4.858" transform="translate(-2053.095 -1947.599)" fill="none" stroke="#d36751" stroke-miterlimit="10" stroke-width="0.5"/>
          <g id="Group_757" data-name="Group 757" transform="translate(50.705 16.309)">
            <path id="Path_1218" data-name="Path 1218" d="M2105.974,1974.1c-.035.283.879,2.177,2.045,2.216a2.206,2.206,0,0,0,1.716-2.535C2109.508,1973.453,2106.009,1973.817,2105.974,1974.1Z" transform="translate(-2101.763 -1964.268)" fill="#fff"/>
            <g id="Group_750" data-name="Group 750" transform="translate(4.332 5.915)">
              <path id="Path_1219" data-name="Path 1219" d="M2106.98,1967.49c-.1.5-.8.61-.789,1.183a.9.9,0,0,0,.891.837c.075,0,.156-.1.085-.164a4.464,4.464,0,0,0-.415-.3c-.337-.247-.27-.565-.047-.844a1.217,1.217,0,0,0,.345-.71.035.035,0,0,0-.069-.006Z" transform="translate(-2106.191 -1967.46)" fill="#663024"/>
            </g>
            <g id="Group_755" data-name="Group 755">
              <path id="Path_1220" data-name="Path 1220" d="M2099.859,1961.819c.192-.472.588-.647,1.116.118.332.481.609,1.5-.106,1.784C2099.777,1964.151,2099.546,1962.589,2099.859,1961.819Z" transform="translate(-2099.017 -1958.886)" fill="#3f2c25"/>
              <path id="Path_1221" data-name="Path 1221" d="M2099.956,1962.889c.085-.209.261-.287.5.053.147.213.27.667-.047.791C2099.92,1963.924,2099.817,1963.231,2099.956,1962.889Z" transform="translate(-2099.092 -1959.456)" fill="#fff"/>
              <g id="Group_752" data-name="Group 752" transform="translate(0 0.346)">
                <g id="Group_751" data-name="Group 751">
                  <path id="Path_1222" data-name="Path 1222" d="M2101.184,1958.022c-.607-.595-2.471-.837-2.724.275a.081.081,0,0,0,.142.074,1.4,1.4,0,0,1,1.236-.622,3.441,3.441,0,0,1,1.3.334c.035.015.071-.034.043-.062Z" transform="translate(-2098.458 -1957.519)" fill="#32221d"/>
                </g>
              </g>
              <g id="Group_754" data-name="Group 754" transform="translate(6.037)">
                <g id="Group_753" data-name="Group 753">
                  <path id="Path_1223" data-name="Path 1223" d="M2111.961,1957.4c-.607-.6-2.471-.837-2.724.275a.081.081,0,0,0,.142.074,1.4,1.4,0,0,1,1.236-.622,3.436,3.436,0,0,1,1.3.334c.035.015.071-.035.043-.062Z" transform="translate(-2109.235 -1956.901)" fill="#32221d"/>
                </g>
              </g>
            </g>
            <g id="Group_756" data-name="Group 756" transform="translate(7.385 2.502)">
              <path id="Path_1224" data-name="Path 1224" d="M2111.794,1961.8c.221-.5.666-.693,1.246.111.365.506.662,1.586-.14,1.893C2111.674,1964.276,2111.435,1962.623,2111.794,1961.8Z" transform="translate(-2111.642 -1961.368)" fill="#3f2c25"/>
              <path id="Path_1225" data-name="Path 1225" d="M2111.9,1962.939c.1-.223.3-.307.552.049.162.225.293.7-.062.839C2111.843,1964.036,2111.737,1963.3,2111.9,1962.939Z" transform="translate(-2111.724 -1961.974)" fill="#fff"/>
            </g>
          </g>
          <path id="Path_1226" data-name="Path 1226" d="M2121.161,1936.873s9.787.132,9.213,12.451" transform="translate(-2057.738 -1931.782)" fill="none" stroke="#32221d" stroke-miterlimit="10" stroke-width="0.5"/>
          <path id="Path_1227" data-name="Path 1227" d="M2101.156,2001.3s4.109,43.965,7.826,68.086,26.075,13.566,32.408,7.362-5.005-28.588-5.782-33.878-1.995-10.578-1.995-10.578a79.231,79.231,0,0,1-1.156,9.834c-.76,3.139-11.448,9.534-16.76,8.154s-9.351-16.248-10.719-32.934c-1.862-13.713-2.957-18.147-2.957-18.147Z" transform="translate(-2048.939 -1959.198)" fill="#587995"/>
          <g id="Group_758" data-name="Group 758" transform="translate(26.558 52.039)">
            <path id="Path_1228" data-name="Path 1228" d="M2107.552,2038.859a87.625,87.625,0,0,1-9.6,13.659c-3.093,3.463-6.556,6.39-9.787,6.992a17.811,17.811,0,0,1-4.514.152c-9.741-.714-24.437-6.793-28.1-8.908-1.267-.744,3.965-12.06,5.452-12.391s18.5,2.644,20.651,0,8.174-17.677,8.174-17.677" transform="translate(-2055.349 -2020.686)" fill="#f9d5b6"/>
            <path id="Path_1229" data-name="Path 1229" d="M2065.431,2038.363c1.487-.33,18.5,2.644,20.652,0s8.174-17.677,8.174-17.677" transform="translate(-2059.783 -2020.686)" fill="none" stroke="#e0b596" stroke-miterlimit="10" stroke-width="1"/>
            <path id="Path_1230" data-name="Path 1230" d="M2107.706,2053.129a87.618,87.618,0,0,1-9.6,13.659c-3.093,3.463-6.556,6.39-9.787,6.992a17.8,17.8,0,0,1-4.514.152c-9.74-.714-24.437-6.793-28.1-8.908" transform="translate(-2055.503 -2034.956)" fill="none" stroke="#e0b596" stroke-miterlimit="10" stroke-width="1"/>
          </g>
          <path id="Path_1231" data-name="Path 1231" d="M2147.811,2104.706c-4.038-1.917-6.5,2.908-6.5,2.908s-4.345-3.238-7.12.267,3.475,7.993,9.518,10.025C2148.227,2113.413,2151.849,2106.624,2147.811,2104.706Z" transform="translate(-2063.169 -2005.404)" fill="#f9d5b6"/>
          <line id="Line_12" data-name="Line 12" x2="16.137" transform="translate(37.086 214.923)" fill="none" stroke="#72373a" stroke-miterlimit="10" stroke-width="0.5"/>
          <path id="Path_1232" data-name="Path 1232" d="M2101.236,2304.566a3.713,3.713,0,0,0-3.756,3.866" transform="translate(-2047.322 -2093.509)" fill="none" stroke="#72373a" stroke-miterlimit="10" stroke-width="0.5"/>
          <line id="Line_13" data-name="Line 13" x1="8.42" y2="13.736" transform="translate(123.039 192.93)" fill="none" stroke="#72373a" stroke-miterlimit="10" stroke-width="0.5"/>
          <path id="Path_1233" data-name="Path 1233" d="M2237.406,2267.7s-1.436,3.194,1.255,4.968" transform="translate(-2108.699 -2077.292)" fill="none" stroke="#72373a" stroke-miterlimit="10" stroke-width="0.5"/>
        </g>
        <path id="Path_1234" data-name="Path 1234" d="M2070.384,1955.037c.051.277.033.663-.243.719-.326.066-.615-.451-.9-.289a2.276,2.276,0,0,1-.282,1.569c-.038.063-.087.13-.16.14a.261.261,0,0,1-.183-.077l-1.291-1.008a3.425,3.425,0,0,1-.428,1.156.575.575,0,0,1-.171.2c-.221.142-.509-.035-.684-.231s-.354-.44-.616-.455a.906.906,0,0,1-.776.594,1.552,1.552,0,0,1-.979-.269,2.471,2.471,0,0,1-1.083-1.551,2.787,2.787,0,0,1-.095-1.8,3.833,3.833,0,0,1,2.875-1.836" transform="translate(-2031.876 -1938.392)" fill="#f9ad9f"/>
        <path id="Path_1235" data-name="Path 1235" d="M2063.368,1957.183a3,3,0,0,0,1.138,2.587.449.449,0,0,0,.281.12.438.438,0,0,0,.233-.106,2.132,2.132,0,0,0,.833-1.665,2.729,2.729,0,0,0,.326.922.923.923,0,0,0,.817.454,1.161,1.161,0,0,0,.715-.454,1.6,1.6,0,0,0,.474-1.155,2.517,2.517,0,0,0,.737,1.13.809.809,0,0,0,.375.211.662.662,0,0,0,.668-.416,1.927,1.927,0,0,0,.113-.833,1.488,1.488,0,0,0,.383.753.658.658,0,0,0,.786.11.816.816,0,0,0,.263-.348,2.315,2.315,0,0,0,.188-1.32" transform="translate(-2032.314 -1940.712)" fill="none" stroke="#d36751" stroke-miterlimit="10" stroke-width="1"/>
        <path id="Path_1236" data-name="Path 1236" d="M2079.887,1957.6a16.055,16.055,0,0,1,1.263-2.876,5.342,5.342,0,0,0,.666-1.459,1.49,1.49,0,0,0-.415-1.471,1.3,1.3,0,0,0-1.333-.112,2.056,2.056,0,0,0-.943,1.008" transform="translate(-2039.249 -1938.237)" fill="#f9ad9f"/>
      </g>
    </g>
    <text id="_05" data-name="05" transform="translate(-521 7457.457)" font-size="91" font-family="ClashDisplay-Bold, Clash Display" font-weight="700"><tspan x="0" y="0">05</tspan></text>
  </g>
</svg>
