<svg xmlns="http://www.w3.org/2000/svg" width="657.428" height="365.492" viewBox="0 0 657.428 365.492">
  <g id="Group_806" data-name="Group 806" transform="translate(1313.606 2349.163) rotate(-90)">
    <g id="Group_767" data-name="Group 767" transform="matrix(-0.017, 1, -1, -0.017, 2282.598, -1020.856)">
      <path id="Path_1243" data-name="Path 1243" d="M22.272,0C-20.264,39.773,11.205,61.981,11.205,61.981S48.415,52.035,22.272,0Z" transform="translate(0)" fill="#499393"/>
      <path id="Path_1244" data-name="Path 1244" d="M19.731,30.256c-1.126.893-2.23,1.811-3.346,2.716s-2.21,1.833-3.305,2.761-2.263,1.775-3.264,2.806c-.5.514-1,1.033-1.469,1.582q-.3.344-.585.7.371-1.777.726-3.558c.562-2.8,1.011-5.624,1.457-8.447.356-.2.7-.424,1.032-.653q.764-.524,1.479-1.1A31.727,31.727,0,0,0,15.089,24.5q1.306-1.292,2.592-2.606c.85-.884,1.712-1.756,2.551-2.651l-.082-.09c-.971.752-1.919,1.528-2.879,2.291s-1.9,1.55-2.838,2.336a31.655,31.655,0,0,0-2.8,2.381q-.644.656-1.236,1.369-.159.19-.312.385.241-1.527.492-3.053L12.61,12.446,14.581.021,14.462,0,12.011,12.339l-1.291,6.67q-.055-.189-.116-.375a14.913,14.913,0,0,0-.536-1.425,10.283,10.283,0,0,0-.7-1.339c-.269-.429-.544-.854-.8-1.289q-.765-1.307-1.556-2.6c-.538-.857-1.059-1.722-1.61-2.573l-.108.056c.378.939.786,1.864,1.178,2.8s.812,1.851,1.232,2.768c.209.46.4.929.595,1.4a10.263,10.263,0,0,0,.691,1.345,14.914,14.914,0,0,0,.858,1.259,10.459,10.459,0,0,0,.707.852L9.62,24.689c-.668,3.486-1.409,6.959-2.014,10.456-.075-.214-.151-.427-.231-.639-.252-.677-.538-1.336-.831-1.992C5.962,31.2,5.16,30,4.453,28.752s-1.421-2.494-2.145-3.734S.855,22.54.108,21.312L0,21.368c.575,1.318,1.179,2.62,1.767,3.93s1.2,2.606,1.821,3.9,1.135,2.643,1.875,3.874c.368.617.742,1.231,1.152,1.826.266.392.543.778.838,1.155-.055.331-.111.662-.163.993-.327,2.071-.646,4.143-.927,6.223s-.538,4.163-.744,6.255l.12.022q.8-3.052,1.467-6.126c.132-.593.255-1.187.381-1.78.462-.279.9-.579,1.337-.888.59-.417,1.154-.863,1.713-1.314,1.121-.9,2.075-1.982,3.1-2.986s2.046-2.013,3.059-3.031,2.023-2.039,3.018-3.076Z" transform="translate(5.527 12.443)" fill="#65a7ad"/>
    </g>
    <g id="Group_768" data-name="Group 768" transform="translate(2288.309 -821.44)">
      <path id="Path_1245" data-name="Path 1245" d="M2126.36,706.623c58.422,15.829,60.831-24.132,60.831-24.132S2158.042,655.048,2126.36,706.623Z" transform="translate(-2126.36 -675.197)" fill="#284d43"/>
      <path id="Path_1246" data-name="Path 1246" d="M2184.206,690.073c1.406.506,2.82.98,4.23,1.471s2.829.951,4.248,1.41,2.807,1.029,4.266,1.349c.729.162,1.459.318,2.2.433q.467.076.939.134-1.774.644-3.542,1.3c-2.784,1.036-5.524,2.184-8.262,3.334-.375-.2-.757-.384-1.142-.554-.588-.259-1.182-.5-1.784-.7a32.862,32.862,0,0,0-3.7-.926q-1.856-.448-3.722-.865c-1.246-.267-2.488-.552-3.739-.8l-.035.122c1.2.446,2.4.86,3.6,1.291s2.409.83,3.617,1.23a33.019,33.019,0,0,0,3.635,1.169c.622.14,1.251.253,1.886.343.169.024.339.046.51.066q-1.481.622-2.967,1.236l-12.082,5-12.059,5.056.047.118,12.245-4.586,6.6-2.509q-.136.152-.268.307a15.526,15.526,0,0,0-.966,1.254,10.7,10.7,0,0,0-.8,1.353c-.231.472-.457.948-.7,1.412q-.736,1.391-1.446,2.8c-.463.944-.942,1.879-1.392,2.831l.109.065c.624-.848,1.217-1.715,1.827-2.571s1.191-1.73,1.772-2.6c.292-.436.6-.861.908-1.289a10.643,10.643,0,0,0,.811-1.347,15.587,15.587,0,0,0,.644-1.447,10.993,10.993,0,0,0,.366-1.091l4.758-1.808c3.446-1.317,6.921-2.563,10.343-3.941-.148.183-.3.368-.438.554-.461.593-.886,1.207-1.306,1.824-.843,1.234-1.465,2.6-2.18,3.907s-1.427,2.62-2.126,3.939-1.4,2.639-2.072,3.971l.109.065c.85-1.229,1.67-2.475,2.507-3.712s1.644-2.491,2.452-3.744,1.715-2.449,2.4-3.777c.344-.662.681-1.329.983-2.017.2-.449.391-.905.562-1.372.323-.132.646-.264.967-.4,2.01-.844,4.016-1.7,6.007-2.585s3.973-1.8,5.935-2.765l-.047-.118q-3.133.966-6.217,2.055c-.6.208-1.188.424-1.781.637-.5-.256-1.006-.483-1.517-.7-.691-.294-1.394-.548-2.1-.795-1.408-.5-2.886-.749-4.335-1.105s-2.9-.707-4.352-1.045-2.909-.672-4.37-.984Z" transform="translate(-2148.104 -684.648)" fill="#52999a"/>
    </g>
    <g id="Group_769" data-name="Group 769" transform="matrix(-0.809, 0.588, -0.588, -0.809, 2163.931, -746.591)">
      <path id="Path_1247" data-name="Path 1247" d="M9.434,0c-24.817,44.252,7.175,54.384,7.175,54.384S44.878,36.3,9.434,0Z" transform="translate(0 0)" fill="#53bfab"/>
      <path id="Path_1248" data-name="Path 1248" d="M18.729,23.744c-.7,1.039-1.373,2.092-2.061,3.138s-1.351,2.105-2.015,3.165-1.411,2.071-1.969,3.191c-.281.559-.557,1.121-.8,1.7q-.157.364-.3.736-.161-1.574-.336-3.145c-.273-2.475-.646-4.937-1.02-7.4.241-.264.467-.537.684-.815.331-.424.644-.859.937-1.305a27.614,27.614,0,0,0,1.51-2.822q.743-1.418,1.464-2.848c.472-.959.957-1.91,1.418-2.875l-.092-.053c-.607.88-1.19,1.775-1.786,2.662s-1.167,1.788-1.739,2.689a27.533,27.533,0,0,0-1.694,2.716c-.241.476-.461.965-.665,1.463q-.081.2-.158.4-.2-1.332-.4-2.665L8.115,10.837,6.471,0l-.1.014L7.589,10.906l.689,5.879q-.1-.142-.195-.281a13.058,13.058,0,0,0-.822-1.042,8.974,8.974,0,0,0-.937-.926c-.336-.285-.677-.565-1-.859q-.979-.884-1.978-1.748c-.673-.57-1.334-1.15-2.016-1.71l-.075.075c.562.68,1.145,1.34,1.717,2.011S4.13,13.626,4.72,14.278c.3.326.576.666.862,1a8.949,8.949,0,0,0,.929.934,13.062,13.062,0,0,0,1.044.819,9.11,9.11,0,0,0,.812.521l.5,4.238c.366,3.071.667,6.15,1.088,9.214q-.177-.237-.36-.469c-.387-.5-.8-.968-1.216-1.435-.83-.937-1.812-1.722-2.729-2.572s-1.838-1.7-2.767-2.534-1.86-1.674-2.8-2.5L0,21.574c.825.942,1.67,1.864,2.5,2.8s1.688,1.846,2.542,2.759,1.64,1.895,2.58,2.722c.468.415.941.826,1.438,1.212.324.255.656.5,1,.738.042.289.083.579.127.868.276,1.806.558,3.611.873,5.411s.652,3.6,1.034,5.39l.105-.014q-.144-2.744-.4-5.474c-.047-.527-.1-1.053-.154-1.579.31-.353.6-.719.876-1.09.38-.5.731-1.021,1.075-1.544.693-1.043,1.2-2.193,1.785-3.3s1.167-2.212,1.74-3.324,1.141-2.227,1.694-3.351Z" transform="translate(4.457 10.92)" fill="#52999a"/>
    </g>
    <g id="Group_770" data-name="Group 770" transform="translate(2216.57 -1123.999)">
      <path id="Path_1249" data-name="Path 1249" d="M2833.361,350.523c-46.771,44.226-11.849,68.579-11.849,68.579S2862.58,407.878,2833.361,350.523Z" transform="translate(-2808.985 -350.523)" fill="#284d43"/>
      <path id="Path_1250" data-name="Path 1250" d="M2847.755,422.242c-1.239.994-2.454,2.016-3.681,3.023s-2.432,2.04-3.636,3.072-2.491,1.976-3.59,3.122c-.552.571-1.1,1.148-1.615,1.758q-.328.382-.642.777.4-1.967.78-3.937c.6-3.1,1.083-6.223,1.558-9.346.392-.229.768-.474,1.136-.729q.841-.584,1.628-1.227a34.99,34.99,0,0,0,2.895-2.847q1.436-1.436,2.849-2.9c.934-.983,1.881-1.951,2.8-2.946l-.091-.1c-1.068.837-2.112,1.7-3.168,2.55s-2.089,1.725-3.122,2.6a35.054,35.054,0,0,0-3.077,2.649q-.708.729-1.358,1.521-.174.211-.343.427.258-1.69.525-3.378l2.168-13.734,2.1-13.746-.133-.023-2.632,13.654-1.386,7.381c-.041-.139-.085-.277-.13-.414a16.5,16.5,0,0,0-.6-1.572,11.368,11.368,0,0,0-.785-1.476c-.3-.472-.607-.94-.892-1.42q-.853-1.44-1.736-2.864c-.6-.944-1.182-1.9-1.8-2.833l-.119.063c.424,1.036.881,2.055,1.319,3.084s.91,2.04,1.38,3.052c.234.507.446,1.025.666,1.539a11.331,11.331,0,0,0,.773,1.483,16.442,16.442,0,0,0,.956,1.386,11.522,11.522,0,0,0,.786.937l-1,5.32c-.717,3.858-1.514,7.7-2.162,11.57-.084-.236-.169-.472-.259-.7-.282-.747-.6-1.474-.931-2.2-.651-1.449-1.544-2.77-2.335-4.145s-1.586-2.748-2.394-4.114-1.62-2.73-2.454-4.083l-.119.063c.643,1.453,1.319,2.888,1.978,4.333s1.348,2.873,2.037,4.3,1.271,2.914,2.1,4.271c.411.68.828,1.356,1.285,2.011.3.432.6.857.933,1.271-.059.366-.118.732-.174,1.1-.349,2.292-.689,4.584-.987,6.884s-.569,4.6-.784,6.919l.133.023q.861-3.379,1.583-6.781c.142-.656.275-1.313.411-1.97.509-.31,1-.645,1.473-.99.65-.465,1.27-.961,1.885-1.463,1.233-1,2.281-2.2,3.408-3.32s2.249-2.238,3.362-3.369,2.223-2.266,3.317-3.419Z" transform="translate(-2819.814 -375.063)" fill="#65a7ad"/>
    </g>
    <g id="Group_771" data-name="Group 771" transform="translate(1983.67 -1029.731)">
      <path id="Path_1251" data-name="Path 1251" d="M2121.788,352.134c-53.329,36.048-22.823,65.746-22.823,65.746S2141.311,413.471,2121.788,352.134Z" transform="translate(-2090.28 -352.134)" fill="#284d43"/>
      <path id="Path_1252" data-name="Path 1252" d="M2130.782,422.772c-1.384.78-2.748,1.591-4.123,2.385s-2.73,1.618-4.086,2.441-2.779,1.545-4.049,2.5c-.637.474-1.27.955-1.878,1.472q-.385.324-.76.663.713-1.876,1.409-3.758c1.1-2.961,2.078-5.965,3.054-8.969.423-.162.835-.343,1.239-.535q.925-.44,1.806-.947a35.068,35.068,0,0,0,3.318-2.34q1.65-1.184,3.282-2.4c1.081-.818,2.172-1.62,3.244-2.452l-.073-.112c-1.19.653-2.36,1.336-3.54,2s-2.342,1.363-3.5,2.058a35.07,35.07,0,0,0-3.467,2.115q-.817.6-1.586,1.281-.206.179-.407.365.528-1.625,1.066-3.248l4.368-13.2,4.3-13.223-.127-.044-4.813,13.046-2.565,7.058c-.019-.144-.039-.287-.061-.429a16.426,16.426,0,0,0-.339-1.649,11.414,11.414,0,0,0-.535-1.584c-.219-.514-.446-1.026-.65-1.546q-.608-1.56-1.248-3.108c-.438-1.029-.858-2.064-1.312-3.088l-.128.043c.25,1.091.535,2.171.8,3.257s.566,2.161.865,3.236c.149.538.274,1.084.407,1.626a11.373,11.373,0,0,0,.522,1.589,16.447,16.447,0,0,0,.718,1.523,11.547,11.547,0,0,0,.624,1.053l-1.849,5.087c-1.333,3.69-2.744,7.353-4.011,11.066-.044-.247-.091-.493-.142-.737-.157-.783-.356-1.552-.562-2.319-.407-1.535-1.075-2.984-1.631-4.469s-1.119-2.969-1.7-4.448-1.156-2.957-1.759-4.427l-.128.042c.4,1.538.833,3.065,1.248,4.6s.864,3.054,1.312,4.576.78,3.082,1.375,4.554c.295.738.6,1.472.941,2.193.222.474.458.943.714,1.406-.117.352-.236.7-.35,1.056-.716,2.2-1.424,4.411-2.091,6.633s-1.309,4.451-1.9,6.7l.127.044q1.4-3.194,2.664-6.434c.247-.624.484-1.251.725-1.878.553-.224,1.087-.475,1.614-.738.717-.353,1.409-.742,2.1-1.138,1.379-.787,2.608-1.8,3.9-2.722s2.583-1.843,3.865-2.779,2.562-1.875,3.828-2.835Z" transform="translate(-2103.414 -375.64)" fill="#52999a"/>
    </g>
    <g id="Group_772" data-name="Group 772" transform="translate(2189.159 -1158.365)">
      <path id="Path_1253" data-name="Path 1253" d="M2838.89,573.112c-64.331,2.235-54.247,43.6-54.247,43.6S2822.868,635.456,2838.89,573.112Z" transform="translate(-2784.068 -573.112)" fill="#56928d"/>
      <path id="Path_1254" data-name="Path 1254" d="M2811.306,626.375c-1.587-.074-3.174-.111-4.761-.168s-3.173-.078-4.759-.1-3.175-.166-4.758-.033c-.791.064-1.583.135-2.373.25q-.5.069-1,.158,1.6-1.211,3.189-2.437c2.5-1.926,4.928-3.951,7.351-5.979.445.088.89.153,1.333.2.679.079,1.356.133,2.033.156a34.958,34.958,0,0,0,4.055-.221q2.027-.127,4.052-.288c1.351-.119,2.7-.219,4.052-.355l0-.134c-1.354-.079-2.708-.121-4.062-.183s-2.708-.088-4.062-.116a35.029,35.029,0,0,0-4.061-.048c-.675.052-1.35.135-2.024.243q-.27.044-.539.093,1.311-1.1,2.628-2.187l10.71-8.867,10.668-8.919-.084-.105-11.006,8.5-5.921,4.619c.061-.132.12-.264.176-.4a16.548,16.548,0,0,0,.588-1.577,11.4,11.4,0,0,0,.388-1.626c.087-.552.167-1.107.27-1.655q.312-1.644.592-3.3c.175-1.1.369-2.2.527-3.313l-.13-.032c-.368,1.058-.7,2.124-1.05,3.186s-.667,2.132-.985,3.2c-.159.535-.343,1.064-.519,1.595a11.389,11.389,0,0,0-.4,1.623,16.619,16.619,0,0,0-.2,1.672,11.554,11.554,0,0,0-.03,1.223l-4.268,3.329c-3.089,2.419-6.229,4.774-9.274,7.248q.14-.349.271-.7c.283-.747.522-1.5.755-2.263.47-1.517.673-3.1.991-4.654s.628-3.11.926-4.669.59-3.119.86-4.685l-.131-.032c-.479,1.515-.922,3.039-1.383,4.558s-.89,3.047-1.318,4.574-.975,3.026-1.253,4.59c-.142.781-.275,1.564-.366,2.358-.063.52-.113,1.043-.141,1.571-.287.236-.573.471-.857.709-1.777,1.488-3.548,2.982-5.293,4.51s-3.472,3.077-5.164,4.671l.084.1q2.881-1.964,5.673-4.038c.541-.4,1.074-.8,1.611-1.206.587.1,1.173.175,1.759.231.795.082,1.588.12,2.382.149,1.587.065,3.168-.143,4.752-.236s3.167-.191,4.75-.3,3.166-.229,4.749-.37Z" transform="translate(-2785.016 -588.632)" fill="#284d43"/>
    </g>
    <g id="Group_773" data-name="Group 773" transform="translate(2039.705 -744.199)">
      <path id="Path_1255" data-name="Path 1255" d="M2052.158,518.272c29.3,84.906,80.351,54.535,80.351,54.535S2141.882,514.144,2052.158,518.272Z" transform="translate(-2052.158 -518.064)" fill="#4d8d87"/>
      <path id="Path_1256" data-name="Path 1256" d="M2142.862,560.659c.55,2.148,1.15,4.279,1.723,6.419q.884,3.2,1.812,6.39c.616,2.126,1.078,4.3,1.9,6.361.408,1.03.827,2.056,1.3,3.063q.3.637.618,1.264-2.271-1.64-4.555-3.258c-3.594-2.552-7.287-4.958-10.983-7.36-.065-.629-.16-1.249-.272-1.863-.173-.937-.378-1.863-.623-2.776a48.783,48.783,0,0,0-1.953-5.318q-1-2.652-2.042-5.289c-.711-1.753-1.4-3.514-2.131-5.259l-.178.059c.449,1.839.946,3.663,1.418,5.495q.732,2.74,1.507,5.466a48.811,48.811,0,0,0,1.6,5.436c.346.879.732,1.746,1.152,2.6q.168.342.345.681-2-1.3-3.992-2.611L2113.3,559.5l-16.263-10.584-.106.156,15.841,11.205,8.584,6.01q-.3-.041-.6-.073a23.107,23.107,0,0,0-2.345-.14,15.959,15.959,0,0,0-2.328.148c-.773.11-1.544.23-2.319.317q-2.321.256-4.64.558c-1.545.218-3.092.41-4.635.652l.011.187c1.561.058,3.12.064,4.679.1q2.339.025,4.674,0c.779-.006,1.56.022,2.34.039a15.866,15.866,0,0,0,2.329-.129,23.11,23.11,0,0,0,2.312-.417,16.107,16.107,0,0,0,1.644-.46l6.187,4.332c4.491,3.131,8.917,6.357,13.463,9.408-.349-.029-.7-.055-1.045-.076-1.112-.071-2.221-.082-3.328-.081-2.217-.006-4.41.369-6.614.581s-4.406.435-6.607.675c-2.2.258-4.4.488-6.6.769l.011.188c2.217.018,4.431-.014,6.646-.019q3.322-.033,6.641-.113c2.212-.05,4.435.062,6.635-.207,1.1-.13,2.2-.272,3.3-.475.719-.128,1.437-.276,2.153-.454.432.285.862.572,1.3.853,2.712,1.762,5.43,3.514,8.182,5.217s5.525,3.374,8.344,4.978l.105-.155q-3.8-3.04-7.707-5.916c-.752-.558-1.511-1.1-2.268-1.655-.1-.826-.247-1.637-.411-2.442-.216-1.093-.49-2.167-.775-3.239-.562-2.143-1.487-4.168-2.258-6.242s-1.55-4.147-2.347-6.213c-.813-2.061-1.6-4.131-2.437-6.184Z" transform="translate(-2080.84 -537.827)" fill="#65a7ad"/>
    </g>
    <g id="Group_774" data-name="Group 774" transform="translate(2166.968 -1049.411)">
      <path id="Path_1257" data-name="Path 1257" d="M2361.758,574.232c-34.513,82.923,23.824,94.142,23.824,94.142S2431.561,630.756,2361.758,574.232Z" transform="translate(-2350.839 -574.232)" fill="#4d8d87"/>
      <path id="Path_1258" data-name="Path 1258" d="M2408.658,666.022c-1.015,1.971-1.983,3.962-2.977,5.943q-1.467,2.981-2.89,5.98c-.952,2-2.054,3.932-2.8,6.017-.379,1.041-.747,2.087-1.06,3.156q-.2.673-.377,1.356-.608-2.734-1.24-5.461c-.99-4.3-2.153-8.547-3.319-12.8.369-.514.71-1.04,1.034-1.573.494-.815.956-1.643,1.379-2.489a48.943,48.943,0,0,0,2.074-5.272q1.015-2.645,1.987-5.31c.633-1.783,1.29-3.555,1.9-5.347l-.173-.075c-.886,1.673-1.726,3.367-2.591,5.049q-1.273,2.534-2.5,5.086a48.847,48.847,0,0,0-2.418,5.124c-.326.887-.613,1.792-.868,2.71q-.1.367-.195.738-.631-2.3-1.249-4.6l-5.033-18.737-5.124-18.715-.182.046,4.4,18.9,2.423,10.195q-.2-.23-.4-.453a23,23,0,0,0-1.66-1.663,15.89,15.89,0,0,0-1.838-1.436c-.65-.431-1.308-.854-1.943-1.3q-1.905-1.351-3.839-2.666c-1.3-.863-2.583-1.747-3.9-2.592l-.116.148c1.129,1.08,2.289,2.12,3.433,3.182s2.317,2.085,3.49,3.108c.586.513,1.151,1.053,1.722,1.584a15.863,15.863,0,0,0,1.826,1.451,23.031,23.031,0,0,0,2.005,1.225,16.207,16.207,0,0,0,1.534.748l1.747,7.348c1.276,5.324,2.442,10.676,3.812,15.976q-.362-.381-.731-.751c-.784-.792-1.605-1.536-2.434-2.272-1.653-1.477-3.541-2.654-5.329-3.959s-3.582-2.6-5.387-3.885-3.615-2.56-5.446-3.811l-.116.148c1.645,1.486,3.321,2.933,4.98,4.4s3.35,2.9,5.039,4.328,3.274,2.993,5.1,4.254c.909.633,1.825,1.258,2.779,1.834.623.382,1.258.749,1.911,1.091.133.5.265,1,.4,1.5.856,3.119,1.724,6.234,2.65,9.335s1.888,6.192,2.929,9.264l.182-.046q-.819-4.8-1.83-9.542c-.191-.917-.4-1.83-.6-2.744.473-.685.9-1.388,1.315-2.1.565-.961,1.073-1.946,1.572-2.935,1-1.976,1.657-4.1,2.459-6.166s1.6-4.13,2.373-6.2,1.548-4.151,2.288-6.241Z" transform="translate(-2366.414 -607.907)" fill="#65a7ad"/>
    </g>
    <g id="Group_775" data-name="Group 775" transform="translate(2226.642 -825.595)">
      <path id="Path_1259" data-name="Path 1259" d="M2683.661,804.123c-22.344-53.385-53.918-31.747-53.918-31.747S2626.139,810.483,2683.661,804.123Z" transform="translate(-2629.698 -768.039)" fill="#499393"/>
      <path id="Path_1260" data-name="Path 1260" d="M2642.872,799.775c-.443-1.358-.917-2.7-1.373-4.056s-.943-2.693-1.429-4.034-.87-2.722-1.485-4.011c-.305-.646-.617-1.288-.966-1.916q-.217-.4-.45-.787,1.527.961,3.063,1.907c2.416,1.493,4.89,2.887,7.366,4.279.068.4.154.8.252,1.187q.224.893.515,1.759a31.463,31.463,0,0,0,1.475,3.339q.752,1.664,1.532,3.317c.53,1.1,1.044,2.2,1.588,3.294l.112-.045c-.365-1.164-.76-2.316-1.138-3.475s-.788-2.305-1.2-3.452a31.385,31.385,0,0,0-1.251-3.429c-.259-.551-.543-1.093-.848-1.625q-.122-.213-.25-.424,1.339.753,2.675,1.514l10.863,6.186,10.894,6.133.062-.1-10.649-6.55-5.768-3.51q.195.014.389.022a14.832,14.832,0,0,0,1.514-.007,10.252,10.252,0,0,0,1.49-.191c.492-.1.984-.212,1.478-.3q1.482-.26,2.961-.551c.984-.2,1.971-.391,2.954-.611l-.015-.12c-1.006.027-2.008.088-3.013.13s-2.005.117-3.006.191c-.5.036-1,.05-1.506.071a10.173,10.173,0,0,0-1.492.179,14.916,14.916,0,0,0-1.469.363,10.342,10.342,0,0,0-1.038.364l-4.157-2.53c-3.017-1.828-6-3.719-9.045-5.493.225,0,.45.007.675.005.718,0,1.431-.039,2.144-.086,1.425-.088,2.821-.419,4.228-.647s2.815-.461,4.221-.707,2.811-.5,4.213-.767l-.015-.12c-1.426.08-2.849.192-4.273.287s-2.845.221-4.265.347-2.854.143-4.258.407c-.7.129-1.4.266-2.1.442-.457.112-.913.237-1.365.381-.29-.166-.578-.332-.869-.5-1.817-1.021-3.636-2.035-5.477-3.016s-3.692-1.941-5.571-2.857l-.062.1q2.568,1.8,5.2,3.486c.506.328,1.017.648,1.527.971.1.527.226,1.043.365,1.553.184.694.4,1.373.632,2.05.45,1.355,1.129,2.619,1.71,3.921s1.168,2.6,1.766,3.9,1.2,2.59,1.822,3.875Z" transform="translate(-2629.723 -775.677)" fill="#65a7ad"/>
    </g>
    <g id="Group_776" data-name="Group 776" transform="translate(2129.373 -707.968)">
      <path id="Path_1261" data-name="Path 1261" d="M2599.994,867.87c-9.209-65.066-50.113-50.367-50.113-50.367S2534.975,858.332,2599.994,867.87Z" transform="translate(-2548.408 -816.08)" fill="#53bfab"/>
      <path id="Path_1262" data-name="Path 1262" d="M2561.139,845.428c-.1-1.619-.229-3.234-.343-4.851s-.262-3.23-.411-4.842-.174-3.241-.479-4.834c-.15-.8-.308-1.592-.51-2.382q-.125-.5-.268-.994,1.4,1.494,2.818,2.975c2.226,2.334,4.543,4.577,6.863,6.817-.041.461-.059.92-.064,1.376-.007.7.011,1.391.06,2.081a35.89,35.89,0,0,0,.662,4.092q.348,2.044.73,4.084c.267,1.358.514,2.719.8,4.074l.136-.017c-.066-1.384-.169-2.763-.252-4.144s-.2-2.759-.321-4.136a35.789,35.789,0,0,0-.389-4.127c-.126-.68-.283-1.356-.465-2.029q-.073-.269-.153-.537,1.255,1.213,2.5,2.432l10.157,9.916,10.206,9.868.1-.1L2582.7,849.9l-5.328-5.513c.14.047.28.093.421.136a16.826,16.826,0,0,0,1.665.427,11.666,11.666,0,0,0,1.692.218c.57.029,1.142.05,1.709.1q1.7.14,3.411.245c1.14.058,2.277.137,3.42.178l.018-.136c-1.113-.259-2.232-.481-3.347-.722s-2.236-.448-3.356-.654c-.56-.1-1.117-.233-1.675-.354a11.608,11.608,0,0,0-1.691-.232,16.9,16.9,0,0,0-1.719-.023,11.729,11.729,0,0,0-1.245.1l-3.84-3.974c-2.789-2.875-5.519-5.809-8.358-8.633.246.07.493.137.74.2.789.206,1.583.368,2.379.522,1.591.313,3.219.349,4.831.5s3.225.3,4.84.436,3.23.263,4.849.368l.018-.137c-1.59-.322-3.185-.607-4.777-.912s-3.189-.574-4.786-.845-3.177-.663-4.794-.776c-.809-.06-1.618-.111-2.434-.118-.534-.008-1.071,0-1.61.026-.27-.265-.54-.531-.813-.794-1.7-1.644-3.41-3.281-5.15-4.887s-3.5-3.193-5.3-4.739l-.1.1q2.3,2.713,4.711,5.323c.462.505.931,1,1.4,1.5-.042.607-.051,1.211-.045,1.811,0,.815.05,1.625.106,2.434.105,1.618.487,3.2.752,4.8s.535,3.194.82,4.79.574,3.19.888,4.781Z" transform="translate(-2550.947 -818.531)" fill="#52999a"/>
    </g>
    <g id="Group_777" data-name="Group 777" transform="translate(2196.86 -850.311)">
      <path id="Path_1263" data-name="Path 1263" d="M2421.327,372.326C2363.271,403.114,2391,436.58,2391,436.58S2434.469,436.714,2421.327,372.326Z" transform="translate(-2384.384 -372.326)" fill="#53bfab"/>
      <path id="Path_1264" data-name="Path 1264" d="M2423.685,442.678c-1.49.641-2.963,1.316-4.445,1.972s-2.948,1.345-4.414,2.033-2.989,1.266-4.383,2.095c-.7.412-1.393.831-2.067,1.29q-.426.286-.844.59.928-1.827,1.84-3.662c1.438-2.886,2.759-5.828,4.077-8.772.448-.118.885-.257,1.316-.408.658-.231,1.3-.484,1.937-.765a35.8,35.8,0,0,0,3.623-2.014q1.8-1.022,3.592-2.075c1.187-.713,2.382-1.408,3.56-2.136l-.062-.122c-1.279.533-2.541,1.1-3.811,1.647s-2.526,1.129-3.78,1.708a35.71,35.71,0,0,0-3.749,1.769c-.6.35-1.179.727-1.75,1.127q-.228.16-.453.326.713-1.592,1.436-3.181l5.871-12.924,5.809-12.953-.124-.059-6.306,12.719-3.373,6.885c0-.148-.008-.3-.016-.442a16.694,16.694,0,0,0-.164-1.711,11.674,11.674,0,0,0-.37-1.666c-.167-.546-.342-1.09-.492-1.64q-.448-1.649-.929-3.291c-.333-1.092-.646-2.188-1-3.277l-.134.03c.135,1.135.307,2.262.459,3.393s.34,2.255.526,3.379c.093.562.161,1.13.237,1.7a11.579,11.579,0,0,0,.357,1.669,16.894,16.894,0,0,0,.563,1.624,11.833,11.833,0,0,0,.519,1.136l-2.43,4.963c-1.755,3.6-3.586,7.166-5.276,10.8-.018-.255-.039-.51-.064-.764-.074-.812-.192-1.614-.318-2.415-.247-1.6-.766-3.146-1.169-4.714s-.812-3.136-1.236-4.7-.851-3.127-1.3-4.685l-.135.029c.238,1.6.512,3.2.766,4.8s.545,3.194.833,4.788.457,3.213.9,4.773c.219.78.446,1.559.716,2.328.174.505.363,1.008.572,1.5-.157.345-.316.688-.47,1.034-.967,2.16-1.926,4.323-2.845,6.505s-1.813,4.376-2.654,6.595l.125.059q1.767-3.09,3.4-6.241c.318-.607.627-1.218.94-1.827.585-.167,1.156-.364,1.719-.574.766-.28,1.511-.6,2.253-.927,1.486-.649,2.844-1.547,4.257-2.339s2.822-1.59,4.225-2.4,2.8-1.625,4.195-2.461Z" transform="translate(-2396.073 -395.285)" fill="#52999a"/>
    </g>
    <g id="Group_778" data-name="Group 778" transform="translate(2241.026 -760.057)">
      <path id="Path_1265" data-name="Path 1265" d="M2281.667,807.329c65.715-.206,56.759-42.738,56.759-42.738S2300.025,744.231,2281.667,807.329Z" transform="translate(-2281.667 -761.459)" fill="#60b7ba"/>
      <path id="Path_1266" data-name="Path 1266" d="M2332.251,775.222c1.617.126,3.234.216,4.852.325s3.235.182,4.853.256,3.234.271,4.854.187c.81-.039,1.619-.087,2.429-.179q.511-.054,1.022-.129-1.672,1.184-3.333,2.384c-2.617,1.885-5.156,3.873-7.694,5.864-.451-.1-.9-.185-1.354-.252-.69-.1-1.379-.179-2.069-.225a35.7,35.7,0,0,0-4.144.095q-2.072.064-4.145.163c-1.382.078-2.763.137-4.145.232v.138c1.38.124,2.76.211,4.14.317s2.76.178,4.141.249a35.783,35.783,0,0,0,4.142.18c.691-.032,1.382-.094,2.073-.182q.276-.035.553-.078-1.373,1.077-2.751,2.147l-11.215,8.7-11.173,8.757.083.11,11.5-8.318,6.191-4.522q-.1.2-.193.4a16.972,16.972,0,0,0-.651,1.591,11.63,11.63,0,0,0-.448,1.647c-.107.561-.206,1.124-.329,1.68q-.372,1.668-.711,3.345c-.214,1.122-.447,2.238-.645,3.364l.132.036c.409-1.067.782-2.145,1.175-3.217s.75-2.153,1.108-3.235c.18-.541.384-1.075.58-1.61a11.6,11.6,0,0,0,.461-1.643,16.886,16.886,0,0,0,.258-1.7,11.686,11.686,0,0,0,.07-1.247l4.462-3.26c3.23-2.369,6.51-4.671,9.7-7.1-.1.235-.2.47-.3.706-.312.753-.582,1.518-.843,2.285-.528,1.533-.787,3.141-1.161,4.716s-.741,3.153-1.095,4.735-.7,3.164-1.029,4.753l.133.037c.537-1.531,1.038-3.071,1.558-4.606s1.006-3.08,1.492-4.625,1.092-3.056,1.427-4.643c.169-.793.331-1.587.45-2.394.081-.528.148-1.06.194-1.6.3-.232.6-.462.9-.7,1.861-1.461,3.717-2.929,5.547-4.432s3.643-3.027,5.42-4.6l-.083-.11q-3,1.911-5.919,3.938c-.564.388-1.122.785-1.682,1.179-.6-.125-1.192-.216-1.788-.293-.808-.109-1.616-.173-2.425-.229-1.617-.117-3.238.044-4.857.087s-3.238.093-4.857.156-3.239.132-4.858.225Z" transform="translate(-2301.921 -766.944)" fill="#62a2a7"/>
    </g>
    <g id="Group_779" data-name="Group 779" transform="translate(2211.124 -932.112)">
      <path id="Path_1267" data-name="Path 1267" d="M2703.61,298.631c13.218,64.372,53.133,47.169,53.133,47.169S2769.1,304.128,2703.61,298.631Z" transform="translate(-2703.61 -298.631)" fill="#284d43"/>
      <path id="Path_1268" data-name="Path 1268" d="M2765.413,337.717c.2,1.61.429,3.213.642,4.82s.462,3.207.71,4.807.374,3.224.777,4.795c.2.786.406,1.57.656,2.346q.155.49.329.976-1.492-1.4-3-2.8c-2.366-2.192-4.817-4.287-7.271-6.379.012-.463,0-.922-.021-1.378-.037-.7-.1-1.387-.189-2.073a35.786,35.786,0,0,0-.914-4.043q-.474-2.018-.981-4.03c-.351-1.339-.681-2.681-1.048-4.017l-.135.026c.152,1.377.34,2.747.509,4.121s.373,2.741.576,4.108a35.653,35.653,0,0,0,.644,4.1c.168.671.366,1.336.589,2q.089.264.186.527-1.328-1.132-2.649-2.272l-10.752-9.269-10.8-9.217-.092.1,10.432,9.628,5.659,5.173q-.215-.058-.429-.11a16.8,16.8,0,0,0-1.688-.323,11.682,11.682,0,0,0-1.7-.113c-.571.006-1.142.021-1.712.01q-1.708-.035-3.419-.034c-1.142.012-2.282,0-3.425.034l-.009.137c1.127.189,2.257.341,3.385.514s2.26.308,3.391.445c.565.069,1.129.163,1.693.25a11.582,11.582,0,0,0,1.7.127,16.906,16.906,0,0,0,1.717-.084,11.756,11.756,0,0,0,1.236-.178l4.079,3.728c2.961,2.7,5.868,5.456,8.876,8.1q-.375-.081-.751-.154c-.8-.157-1.6-.27-2.407-.374-1.607-.214-3.234-.15-4.853-.2s-3.238-.1-4.858-.135-3.24-.063-4.862-.067l-.01.137c1.606.223,3.216.409,4.824.615s3.219.376,4.829.547,3.212.465,4.833.478c.811.009,1.622.01,2.436-.033.534-.025,1.069-.064,1.6-.126.286.248.572.5.86.742,1.8,1.535,3.607,3.063,5.442,4.559s3.689,2.97,5.583,4.4l.091-.1q-2.468-2.565-5.032-5.022c-.492-.476-.991-.944-1.489-1.416,0-.609-.024-1.211-.067-1.811-.054-.814-.151-1.619-.256-2.423-.205-1.609-.685-3.165-1.047-4.743s-.732-3.155-1.115-4.73-.77-3.148-1.182-4.717Z" transform="translate(-2722.558 -315.433)" fill="#52999a"/>
    </g>
    <g id="Group_780" data-name="Group 780" transform="translate(2007.181 -1143.203)">
      <path id="Path_1269" data-name="Path 1269" d="M2183,395.462c10.205,49.7,41.022,36.418,41.022,36.418S2233.558,399.706,2183,395.462Z" transform="translate(-2182.999 -395.462)" fill="#5ab5b7"/>
      <path id="Path_1270" data-name="Path 1270" d="M2230.715,425.639c.152,1.243.332,2.481.5,3.722s.356,2.476.548,3.711.289,2.489.6,3.7c.154.607.313,1.212.507,1.811q.119.378.254.753-1.152-1.085-2.313-2.158c-1.827-1.692-3.72-3.31-5.614-4.925.009-.358,0-.712-.017-1.064-.028-.537-.075-1.071-.146-1.6a27.686,27.686,0,0,0-.706-3.122q-.365-1.558-.757-3.112c-.271-1.034-.526-2.07-.81-3.1l-.1.02c.117,1.063.262,2.121.393,3.181s.288,2.116.445,3.171a27.672,27.672,0,0,0,.5,3.162c.13.518.283,1.031.455,1.541q.07.2.144.406-1.025-.874-2.045-1.754l-8.3-7.156-8.336-7.116-.071.079,8.054,7.434,4.369,3.993c-.11-.03-.22-.058-.331-.084a13.034,13.034,0,0,0-1.3-.25,8.975,8.975,0,0,0-1.314-.087c-.441,0-.882.016-1.322.008q-1.319-.026-2.64-.027c-.881.01-1.761,0-2.644.027l-.007.106c.871.146,1.743.264,2.614.4s1.744.238,2.617.344c.437.053.872.126,1.308.193a8.928,8.928,0,0,0,1.314.1,13.029,13.029,0,0,0,1.325-.064,9.149,9.149,0,0,0,.955-.138l3.149,2.878c2.287,2.082,4.53,4.213,6.854,6.253-.194-.042-.386-.082-.58-.119-.617-.121-1.238-.208-1.859-.289-1.241-.165-2.5-.116-3.747-.157s-2.5-.079-3.75-.1-2.5-.049-3.755-.052l-.007.106c1.241.172,2.483.316,3.724.475s2.485.29,3.728.422,2.48.359,3.732.369c.626.007,1.252.008,1.881-.026.412-.019.825-.05,1.239-.1.221.191.441.383.664.573,1.39,1.185,2.785,2.365,4.2,3.52s2.848,2.293,4.31,3.4l.07-.079q-1.906-1.981-3.885-3.877c-.38-.367-.766-.729-1.15-1.093,0-.47-.018-.935-.051-1.4-.041-.628-.116-1.25-.2-1.871-.158-1.242-.529-2.443-.809-3.662s-.565-2.436-.861-3.652-.595-2.431-.913-3.642Z" transform="translate(-2197.628 -408.434)" fill="#5e9da2"/>
    </g>
    <g id="Group_781" data-name="Group 781" transform="translate(2185.763 -902.49)">
      <path id="Path_1271" data-name="Path 1271" d="M2579.931,329.926c-48.4,15.207-32.057,44.513-32.057,44.513S2580.851,380.654,2579.931,329.926Z" transform="translate(-2545.217 -329.926)" fill="#468984"/>
      <path id="Path_1272" data-name="Path 1272" d="M2570.839,380.477c-1.221.277-2.435.582-3.652.872s-2.427.607-3.636.923-2.447.541-3.621.974c-.588.215-1.174.435-1.75.689q-.364.157-.723.33.962-1.256,1.911-2.521c1.5-1.989,2.915-4.037,4.329-6.086.356-.027.708-.071,1.056-.125q.8-.124,1.577-.308a27.612,27.612,0,0,0,3.034-1.019q1.512-.522,3.018-1.07c1-.374,2.007-.734,3-1.121l-.031-.1c-1.045.225-2.083.477-3.125.714s-2.076.5-3.11.765a27.577,27.577,0,0,0-3.095.816c-.5.182-1,.386-1.487.61q-.2.089-.39.184.765-1.108,1.537-2.213l6.274-8.985,6.232-9.016-.086-.062-6.576,8.768L2568,368.246q.028-.169.051-.338a12.965,12.965,0,0,0,.116-1.322,8.988,8.988,0,0,0-.047-1.317c-.05-.438-.106-.875-.142-1.314q-.108-1.315-.242-2.629c-.1-.876-.183-1.752-.3-2.628l-.106,0c-.057.881-.085,1.76-.129,2.641s-.059,1.76-.076,2.639c-.009.44-.037.88-.059,1.32a8.95,8.95,0,0,0,.036,1.317,12.958,12.958,0,0,0,.2,1.313,9.154,9.154,0,0,0,.234.936L2565,372.293c-1.839,2.487-3.73,4.935-5.524,7.454q.033-.295.059-.589c.058-.627.081-1.253.1-1.878.038-1.251-.139-2.5-.225-3.743s-.176-2.495-.277-3.742-.206-2.494-.33-3.74l-.106,0c-.046,1.252-.062,2.5-.094,3.754s-.036,2.5-.041,3.751-.1,2.5.012,3.75c.056.623.119,1.246.217,1.868.061.408.133.816.222,1.223-.168.239-.337.478-.5.719-1.038,1.5-2.07,3.011-3.074,4.538s-1.992,3.067-2.942,4.633l.086.062q1.776-2.1,3.462-4.259c.327-.415.648-.836.97-1.254.468-.045.928-.114,1.385-.194.621-.1,1.231-.243,1.841-.387,1.219-.284,2.377-.775,3.56-1.177s2.366-.81,3.545-1.228,2.357-.839,3.53-1.279Z" transform="translate(-2549.875 -345.812)" fill="#65a7ad"/>
    </g>
    <g id="Group_782" data-name="Group 782" transform="matrix(-0.891, -0.454, 0.454, -0.891, 2106.149, -1174.853)">
      <path id="Path_1273" data-name="Path 1273" d="M2.487,0c-13.688,70.179,33.6,69.622,33.6,69.622S65.944,32.947,2.487,0Z" transform="translate(0 0)" fill="#499393"/>
      <path id="Path_1274" data-name="Path 1274" d="M29.33,26.371c-.477,1.7-.915,3.406-1.374,5.11s-.879,3.414-1.3,5.125S25.681,40,25.428,41.746c-.129.872-.25,1.747-.323,2.631q-.049.557-.078,1.117-.91-2.035-1.839-4.062c-1.457-3.192-3.042-6.323-4.63-9.451.206-.46.388-.924.555-1.392.255-.714.483-1.434.679-2.161a38.966,38.966,0,0,0,.776-4.443q.37-2.225.7-4.458c.209-1.492.439-2.978.629-4.474l-.146-.031c-.424,1.446-.809,2.9-1.215,4.351s-.773,2.908-1.142,4.366a38.9,38.9,0,0,0-1.069,4.382c-.112.744-.192,1.5-.244,2.252q-.02.3-.034.607-.859-1.693-1.708-3.391L9.427,13.779,2.446,0,2.311.065,8.754,14.1l3.516,7.564q-.191-.148-.385-.29a18.414,18.414,0,0,0-1.56-1.032,12.7,12.7,0,0,0-1.663-.827c-.576-.233-1.155-.457-1.723-.707q-1.7-.75-3.419-1.466c-1.152-.466-2.293-.951-3.453-1.4L0,16.081c1.052.662,2.123,1.288,3.185,1.934s2.14,1.256,3.218,1.867c.539.307,1.066.637,1.6.96a12.613,12.613,0,0,0,1.656.84,18.436,18.436,0,0,0,1.759.635,12.882,12.882,0,0,0,1.316.339l2.534,5.452c1.845,3.949,3.608,7.937,5.522,11.852-.229-.159-.458-.316-.69-.469-.738-.493-1.5-.942-2.261-1.384-1.525-.888-3.185-1.5-4.788-2.237S9.839,34.412,8.226,33.7,5,32.28,3.371,31.6L3.3,31.73c1.52.9,3.058,1.758,4.587,2.638s3.074,1.725,4.62,2.572,3.031,1.812,4.654,2.5c.81.349,1.624.69,2.46.987.546.2,1.1.383,1.664.546.184.369.366.738.553,1.105,1.166,2.3,2.339,4.587,3.556,6.858s2.461,4.528,3.762,6.758l.135-.065q-1.4-3.61-2.95-7.15c-.3-.684-.6-1.364-.9-2.045.259-.609.483-1.226.691-1.846.287-.84.527-1.689.758-2.54.468-1.7.638-3.465.934-5.2s.587-3.475.862-5.217.545-3.484.788-5.232Z" transform="translate(6.859 13.956)" fill="#65a7ad"/>
    </g>
    <g id="Group_783" data-name="Group 783" transform="translate(2080.021 -1003.929)">
      <path id="Path_1275" data-name="Path 1275" d="M2486.92,484.329c10.721,63.2,50.213,47.772,50.213,47.772S2550.576,491.89,2486.92,484.329Z" transform="translate(-2486.92 -484.329)" fill="#499393"/>
      <path id="Path_1276" data-name="Path 1276" d="M2545.85,524.518c.137,1.576.311,3.147.464,4.721s.343,3.142.531,4.711.256,3.155.6,4.7c.167.773.343,1.544.561,2.309q.135.483.288.962-1.407-1.419-2.827-2.825c-2.232-2.217-4.552-4.342-6.875-6.464.027-.451.033-.9.026-1.344-.012-.68-.049-1.356-.115-2.027a34.9,34.9,0,0,0-.754-3.972q-.394-1.983-.821-3.962c-.3-1.317-.574-2.637-.887-3.952l-.132.021c.1,1.347.239,2.689.357,4.034s.271,2.685.424,4.024a34.948,34.948,0,0,0,.49,4.014c.141.659.312,1.315.507,1.966q.079.26.163.52-1.256-1.149-2.506-2.3l-10.169-9.4-10.216-9.349-.092.1,9.846,9.738,5.343,5.233q-.207-.064-.415-.121a16.436,16.436,0,0,0-1.635-.372,11.374,11.374,0,0,0-1.656-.167c-.557-.013-1.114-.018-1.669-.047q-1.664-.091-3.332-.148c-1.113-.026-2.224-.072-3.34-.081l-.014.133c1.093.223,2.189.409,3.284.615s2.192.377,3.291.548c.549.086,1.1.2,1.642.3a11.326,11.326,0,0,0,1.655.181,16.54,16.54,0,0,0,1.676-.024,11.61,11.61,0,0,0,1.212-.132l3.851,3.772c2.8,2.729,5.537,5.516,8.381,8.195q-.363-.092-.727-.175c-.775-.18-1.554-.317-2.334-.445-1.56-.263-3.148-.255-4.724-.362s-3.153-.208-4.731-.3-3.157-.17-4.738-.229l-.014.134c1.559.271,3.122.507,4.682.762s3.125.475,4.689.7,3.116.561,4.7.629c.79.037,1.581.065,2.376.05.521-.006,1.044-.027,1.569-.069.271.251.541.5.813.752,1.7,1.557,3.413,3.108,5.153,4.628s3.5,3.02,5.294,4.479l.092-.1q-2.32-2.583-4.736-5.065c-.464-.481-.935-.954-1.4-1.43.025-.593.017-1.182,0-1.768-.025-.795-.092-1.583-.168-2.371-.146-1.575-.561-3.108-.862-4.659s-.608-3.1-.928-4.648-.645-3.1-.994-4.638Z" transform="translate(-2504.821 -501.352)" fill="#65a7ad"/>
    </g>
    <g id="Group_784" data-name="Group 784" transform="translate(2066.676 -983.663)">
      <path id="Path_1277" data-name="Path 1277" d="M2709.557,674.751c-88.562-14.975-86.37,44.391-86.37,44.391S2670.183,755.48,2709.557,674.751Z" transform="translate(-2623.143 -672.329)" fill="#284d43"/>
      <path id="Path_1278" data-name="Path 1278" d="M2659.909,734.139c-2.149-.546-4.307-1.041-6.46-1.564q-3.235-.759-6.477-1.471c-2.161-.478-4.293-1.117-6.494-1.379-1.1-.135-2.2-.259-3.313-.323q-.7-.045-1.406-.063,2.527-1.206,5.042-2.437c3.963-1.931,7.844-4.02,11.724-6.113.584.244,1.173.459,1.766.654.9.3,1.816.561,2.735.784a48.936,48.936,0,0,0,5.6.835q2.806.394,5.621.742c1.88.215,3.754.458,5.637.649l.034-.185c-1.83-.487-3.669-.924-5.5-1.389q-2.756-.671-5.52-1.3a48.875,48.875,0,0,0-5.536-1.2c-.938-.117-1.884-.194-2.835-.235-.254-.011-.508-.019-.763-.024q2.1-1.132,4.2-2.252l17.125-9.119,17.083-9.2-.086-.167-17.426,8.534-9.388,4.655q.18-.245.352-.492a23.2,23.2,0,0,0,1.247-1.991,15.888,15.888,0,0,0,.985-2.114c.274-.731.538-1.466.833-2.187q.888-2.16,1.734-4.34c.548-1.461,1.122-2.91,1.649-4.381l-.17-.08c-.8,1.343-1.551,2.707-2.329,4.06q-1.143,2.041-2.243,4.1c-.368.686-.766,1.358-1.156,2.035a15.9,15.9,0,0,0-1,2.106,23.033,23.033,0,0,0-.742,2.229,16.259,16.259,0,0,0-.384,1.664l-6.767,3.355c-4.9,2.441-9.853,4.781-14.709,7.308.193-.292.383-.585.567-.881.6-.942,1.136-1.91,1.667-2.882,1.067-1.943,1.79-4.048,2.658-6.083s1.73-4.075,2.574-6.123c.828-2.055,1.682-4.1,2.489-6.163l-.17-.08c-1.078,1.937-2.111,3.9-3.168,5.843q-1.563,2.931-3.083,5.883c-1.016,1.966-2.18,3.864-3,5.923-.413,1.028-.815,2.062-1.162,3.12-.232.693-.446,1.394-.633,2.107-.458.242-.916.483-1.371.729-2.846,1.536-5.686,3.082-8.5,4.682s-5.609,3.233-8.368,4.937l.086.167q4.489-1.877,8.886-3.93c.85-.392,1.694-.8,2.539-1.2.774.307,1.556.568,2.341.81,1.063.334,2.137.609,3.214.872,2.151.533,4.371.692,6.562,1.009s4.382.627,6.578.917c2.2.274,4.392.575,6.6.825Z" transform="translate(-2623.075 -688.122)" fill="#52999a"/>
    </g>
    <g id="Group_785" data-name="Group 785" transform="matrix(-0.259, 0.966, -0.966, -0.259, 2273.695, -1226.567)">
      <path id="Path_1279" data-name="Path 1279" d="M42.911,0C-30.625,51.574,12.648,92.274,12.648,92.274S71.621,85.106,42.911,0Z" transform="translate(0 0)" fill="#284d43"/>
      <path id="Path_1280" data-name="Path 1280" d="M28.219,47.345c-1.913,1.121-3.8,2.285-5.7,3.426s-3.77,2.323-5.642,3.5-3.839,2.222-5.59,3.581c-.877.677-1.748,1.362-2.585,2.1q-.53.461-1.044.943.95-2.635,1.876-5.277c1.462-4.158,2.756-8.372,4.046-12.587.587-.236,1.157-.5,1.716-.776q1.28-.636,2.5-1.364a48.914,48.914,0,0,0,4.574-3.344q2.273-1.691,4.521-3.421c1.489-1.167,2.992-2.312,4.468-3.5l-.106-.155c-1.644.939-3.26,1.92-4.891,2.878s-3.234,1.958-4.838,2.956a48.942,48.942,0,0,0-4.785,3.034q-1.125.863-2.183,1.824-.283.256-.56.52.7-2.28,1.409-4.557l5.778-18.521L26.871.059,26.693,0l-6.4,18.317-3.41,9.909q-.044-.3-.1-.6a23.042,23.042,0,0,0-.512-2.293,15.98,15.98,0,0,0-.784-2.2c-.318-.712-.647-1.421-.944-2.141q-.886-2.161-1.816-4.306c-.636-1.425-1.246-2.859-1.905-4.276l-.177.063c.375,1.517.8,3.016,1.2,4.525q.621,2.254,1.285,4.494c.221.747.409,1.505.607,2.26a15.919,15.919,0,0,0,.766,2.2,23.081,23.081,0,0,0,1.038,2.108,16.064,16.064,0,0,0,.9,1.453l-2.458,7.142c-1.771,5.18-3.651,10.325-5.33,15.535q-.1-.515-.216-1.025c-.238-1.089-.534-2.157-.84-3.222-.606-2.132-1.571-4.137-2.383-6.2s-1.633-4.115-2.471-6.165c-.855-2.044-1.683-4.1-2.56-6.134L0,29.517c.594,2.136,1.236,4.255,1.852,6.384q.948,3.184,1.94,6.352c.658,2.113,1.163,4.281,2.028,6.321.429,1.021.869,2.039,1.366,3.037.322.656.662,1.305,1.03,1.944-.155.494-.312.987-.463,1.482C6.807,58.13,5.873,61.226,5,64.341s-1.719,6.241-2.484,9.393l.179.059q1.875-4.489,3.561-9.04c.329-.877.645-1.757.966-2.637.766-.326,1.506-.689,2.234-1.068.992-.51,1.949-1.069,2.9-1.639,1.905-1.132,3.6-2.579,5.378-3.892s3.559-2.633,5.325-3.97,3.529-2.678,5.272-4.048Z" transform="translate(10.048 18.511)" fill="#65a7ad"/>
    </g>
    <g id="Group_786" data-name="Group 786" transform="translate(2201.84 -815.223)">
      <path id="Path_1281" data-name="Path 1281" d="M2386.774,839.556c21.634-87.174-37.728-89.482-37.728-89.482S2309.257,794.187,2386.774,839.556Z" transform="translate(-2338.836 -750.038)" fill="#284d43"/>
      <path id="Path_1282" data-name="Path 1282" d="M2361.384,786.756c.707-2.1,1.364-4.216,2.048-6.323q1-3.167,1.958-6.347c.64-2.119,1.438-4.2,1.867-6.371.217-1.086.425-2.175.572-3.28q.1-.695.169-1.4,1.012,2.611,2.048,5.212c1.625,4.1,3.415,8.126,5.208,12.152-.288.564-.546,1.135-.786,1.711q-.549,1.32-.988,2.668a48.778,48.778,0,0,0-1.256,5.525q-.6,2.768-1.165,5.548c-.357,1.858-.74,3.709-1.074,5.572l.182.048c.624-1.788,1.2-3.588,1.8-5.382q.878-2.7,1.71-5.405a48.79,48.79,0,0,0,1.619-5.429c.189-.926.336-1.863.45-2.809q.045-.378.081-.759.97,2.178,1.928,4.363l7.8,17.766,7.883,17.73.174-.073-7.191-18.022-3.931-9.714q.23.2.464.388a23.022,23.022,0,0,0,1.891,1.394,15.931,15.931,0,0,0,2.034,1.143c.708.328,1.421.647,2.117,1q2.087,1.049,4.2,2.057c1.415.658,2.817,1.339,4.244,1.976l.092-.163c-1.278-.9-2.582-1.752-3.872-2.629q-1.948-1.294-3.919-2.547c-.656-.418-1.3-.867-1.941-1.306a15.922,15.922,0,0,0-2.024-1.16,23.15,23.15,0,0,0-2.167-.908,16.2,16.2,0,0,0-1.63-.509l-2.833-7c-2.063-5.071-4.021-10.186-6.174-15.219q.415.322.836.632c.894.665,1.819,1.277,2.749,1.88,1.856,1.212,3.9,2.091,5.864,3.111s3.933,2.033,5.911,3.029,3.959,1.987,5.957,2.948l.093-.163c-1.85-1.222-3.725-2.4-5.586-3.6s-3.748-2.36-5.633-3.52-3.687-2.466-5.679-3.438c-.994-.489-1.994-.969-3.024-1.395-.673-.284-1.356-.551-2.053-.791-.207-.474-.413-.949-.624-1.422-1.316-2.954-2.643-5.9-4.025-8.83s-2.8-5.837-4.29-8.718l-.174.073q1.533,4.617,3.247,9.158c.327.877.666,1.749,1,2.623-.364.748-.684,1.508-.985,2.272-.413,1.035-.768,2.085-1.112,3.139-.694,2.1-1.02,4.306-1.5,6.466s-.957,4.323-1.413,6.49c-.439,2.171-.9,4.336-1.322,6.514Z" transform="translate(-2353.164 -749.973)" fill="#52999a"/>
    </g>
    <g id="Group_787" data-name="Group 787" transform="translate(2196.595 -986.538)">
      <path id="Path_1283" data-name="Path 1283" d="M2640.73,290.774c-24.069,59.7,17.827,67.273,17.827,67.273S2691.2,330.72,2640.73,290.774Z" transform="translate(-2633.273 -290.774)" fill="#284d43"/>
      <path id="Path_1284" data-name="Path 1284" d="M2674.693,356.231c-.712,1.421-1.389,2.855-2.085,4.283s-1.36,2.868-2.023,4.308-1.44,2.834-1.962,4.334c-.263.749-.519,1.5-.734,2.27q-.138.484-.259.975-.458-1.954-.933-3.9c-.744-3.07-1.611-6.108-2.481-9.145.26-.371.5-.751.728-1.136q.521-.882.969-1.794a35.1,35.1,0,0,0,1.444-3.795q.706-1.9,1.381-3.821c.439-1.283.9-2.558,1.32-3.847l-.125-.052c-.622,1.207-1.21,2.427-1.816,3.639s-1.18,2.439-1.754,3.665a35.186,35.186,0,0,0-1.692,3.691c-.226.639-.424,1.289-.6,1.949q-.07.264-.134.531-.47-1.643-.932-3.289l-3.757-13.387-3.822-13.37-.13.035,3.3,13.508,1.818,7.286q-.143-.163-.291-.322a16.357,16.357,0,0,0-1.2-1.178,11.38,11.38,0,0,0-1.329-1.015c-.469-.3-.944-.6-1.4-.918q-1.375-.953-2.772-1.88c-.939-.608-1.865-1.232-2.814-1.826l-.082.107c.817.765,1.657,1.5,2.485,2.253s1.677,1.475,2.527,2.2c.424.363.833.745,1.247,1.121a11.361,11.361,0,0,0,1.32,1.025,16.537,16.537,0,0,0,1.447.862,11.516,11.516,0,0,0,1.105.524l1.311,5.252c.957,3.8,1.835,7.631,2.859,11.418q-.262-.27-.53-.532c-.568-.561-1.162-1.088-1.762-1.609-1.2-1.045-2.559-1.874-3.851-2.794s-2.588-1.836-3.892-2.741-2.611-1.806-3.933-2.688l-.082.107c1.19,1.052,2.4,2.075,3.6,3.114s2.424,2.05,3.646,3.061,2.37,2.119,3.686,3.008c.656.446,1.318.887,2.006,1.292.449.269.907.526,1.378.766.1.358.2.715.3,1.071.639,2.228,1.285,4.454,1.974,6.669s1.4,4.422,2.173,6.615l.131-.035q-.626-3.43-1.388-6.824c-.144-.655-.3-1.308-.448-1.962.333-.495.636-1,.926-1.514.4-.693.754-1.4,1.1-2.116.7-1.424,1.155-2.954,1.713-4.439s1.111-2.972,1.651-4.464,1.076-2.987,1.589-4.49Z" transform="translate(-2644.323 -314.836)" fill="#52999a"/>
    </g>
    <g id="Group_788" data-name="Group 788" transform="translate(2126.574 -1029.731)">
      <path id="Path_1285" data-name="Path 1285" d="M2502.69,416.614c16.206,62.3,54.376,43.437,54.376,43.437S2567.027,418.658,2502.69,416.614Z" transform="translate(-2502.69 -416.614)" fill="#284d43"/>
      <path id="Path_1286" data-name="Path 1286" d="M2565.145,451.694c.273,1.565.583,3.121.874,4.682s.615,3.114.939,4.666.53,3.135,1,4.651c.234.758.477,1.515.761,2.261q.177.471.372.938-1.531-1.3-3.073-2.582c-2.426-2.024-4.931-3.948-7.438-5.87-.012-.454-.045-.9-.091-1.346-.071-.679-.167-1.352-.291-2.018a35.08,35.08,0,0,0-1.1-3.908q-.566-1.95-1.165-3.893c-.411-1.292-.8-2.588-1.23-3.876l-.131.032c.219,1.339.473,2.67.708,4.005s.5,2.662.772,3.989a34.98,34.98,0,0,0,.838,3.973q.3.971.678,1.922.1.254.209.506-1.356-1.04-2.707-2.088l-10.989-8.519-11.031-8.467-.084.1,10.695,8.888,5.8,4.772q-.212-.046-.425-.085a16.452,16.452,0,0,0-1.668-.23,11.42,11.42,0,0,0-1.671-.024c-.559.035-1.116.079-1.675.1q-1.673.053-3.346.141c-1.116.07-2.231.121-3.348.208l0,.134c1.112.128,2.226.219,3.338.331s2.226.187,3.339.263c.557.039,1.113.1,1.669.159a11.382,11.382,0,0,0,1.671.037,16.477,16.477,0,0,0,1.675-.169,11.584,11.584,0,0,0,1.2-.237l4.18,3.439c3.034,2.487,6.018,5.039,9.1,7.472-.248-.041-.5-.079-.743-.112-.791-.113-1.582-.182-2.374-.243-1.583-.128-3.171.018-4.757.047s-3.172.065-4.759.115-3.173.1-4.76.182l0,.134c1.583.137,3.167.237,4.75.356s3.167.2,4.751.289,3.166.291,4.752.222c.794-.032,1.587-.072,2.382-.156.521-.052,1.042-.117,1.563-.2.292.228.584.456.879.682,1.84,1.41,3.684,2.813,5.556,4.183s3.76,2.718,5.684,4.022l.084-.105q-2.545-2.383-5.177-4.656c-.506-.441-1.019-.873-1.529-1.309-.027-.6-.085-1.183-.157-1.768-.094-.793-.23-1.576-.374-2.357-.283-1.563-.831-3.061-1.266-4.586s-.877-3.049-1.332-4.57-.914-3.04-1.4-4.554Z" transform="translate(-2522.089 -432.077)" fill="#52999a"/>
    </g>
    <g id="Group_789" data-name="Group 789" transform="translate(2140.673 -1099.584)">
      <path id="Path_1287" data-name="Path 1287" d="M2144.77,468.732c40.138,65.468,77.149,30.684,77.149,30.684S2218.907,448.713,2144.77,468.732Z" transform="translate(-2144.77 -464.053)" fill="#284d43"/>
      <path id="Path_1288" data-name="Path 1288" d="M2228.3,491.4c.856,1.691,1.75,3.36,2.624,5.041s1.784,3.34,2.693,5,1.694,3.393,2.762,4.958c.531.785,1.071,1.564,1.655,2.316q.365.477.75.941-2.2-.95-4.4-1.879c-3.471-1.467-7-2.793-10.528-4.115-.171-.514-.364-1.014-.572-1.505q-.475-1.126-1.033-2.2a41.8,41.8,0,0,0-2.613-4.079q-1.323-2.029-2.682-4.038c-.917-1.332-1.815-2.675-2.75-4l-.138.082c.715,1.453,1.467,2.883,2.2,4.325s1.5,2.863,2.268,4.284a41.768,41.768,0,0,0,2.337,4.243c.451.67.934,1.322,1.442,1.959q.2.254.414.5-1.909-.715-3.815-1.442l-15.5-5.906-15.531-5.831-.06.149,15.294,6.428,8.276,3.431q-.259.022-.515.05a19.706,19.706,0,0,0-1.984.317,13.605,13.605,0,0,0-1.916.553c-.625.234-1.247.478-1.877.693q-1.891.643-3.771,1.323c-1.25.468-2.5.914-3.749,1.4l.044.154c1.314-.24,2.616-.523,3.925-.782s2.605-.56,3.9-.86c.649-.149,1.306-.27,1.96-.4a13.563,13.563,0,0,0,1.921-.538,19.722,19.722,0,0,0,1.853-.775,13.66,13.66,0,0,0,1.287-.688l5.966,2.473c4.327,1.784,8.618,3.66,12.976,5.367q-.445.06-.886.13c-.942.146-1.869.342-2.794.547-1.852.4-3.613,1.122-5.413,1.707s-3.6,1.176-5.391,1.784-3.585,1.221-5.369,1.861l.044.155c1.854-.394,3.7-.83,5.545-1.244s3.686-.868,5.523-1.321,3.714-.768,5.5-1.4c.895-.312,1.787-.634,2.664-1.006.576-.24,1.149-.5,1.713-.777.414.158.826.318,1.24.473,2.589.97,5.182,1.931,7.794,2.843s5.235,1.8,7.885,2.615l.059-.149q-3.732-1.836-7.527-3.515c-.73-.327-1.466-.643-2.2-.963-.238-.67-.508-1.321-.794-1.963-.383-.873-.809-1.719-1.245-2.56-.866-1.686-2.012-3.2-3.038-4.794s-2.06-3.176-3.107-4.753-2.1-3.152-3.176-4.712Z" transform="translate(-2172.347 -479.293)" fill="#52999a"/>
    </g>
    <g id="Group_790" data-name="Group 790" transform="matrix(0.309, -0.951, 0.951, 0.309, 2129.373, -896.708)">
      <path id="Path_1289" data-name="Path 1289" d="M0,1.875C33.618,72.7,74.973,41.419,74.973,41.419S77.435-10.376,0,1.875Z" transform="translate(0 0)" fill="#5a938e"/>
      <path id="Path_1290" data-name="Path 1290" d="M40.963,5.76c.685,1.81,1.411,3.6,2.115,5.4s1.447,3.585,2.189,5.368,1.35,3.629,2.264,5.334c.454.854.917,1.7,1.427,2.531q.319.523.659,1.037-2.128-1.2-4.266-2.386c-3.364-1.867-6.8-3.6-10.239-5.323-.118-.54-.26-1.068-.416-1.59-.24-.8-.508-1.58-.809-2.348A42.686,42.686,0,0,0,31.68,9.36q-1.123-2.2-2.283-4.391C28.611,3.517,27.845,2.056,27.04.613l-.149.068c.568,1.552,1.175,3.086,1.761,4.63s1.211,3.069,1.835,4.6a42.76,42.76,0,0,0,1.91,4.561q.579,1.094,1.251,2.145.178.28.365.557-1.861-.934-3.715-1.879L15.207,7.61.076,0,0,.145l14.824,8.19,8.027,4.384c-.177,0-.352-.006-.528-.005a20.069,20.069,0,0,0-2.048.105,13.888,13.888,0,0,0-2.005.353c-.66.17-1.317.349-1.981.5q-1.989.446-3.971.933c-1.319.339-2.642.654-3.958,1.014l.028.161c1.36-.1,2.712-.246,4.069-.367s2.706-.285,4.055-.448c.675-.081,1.355-.132,2.033-.192a13.849,13.849,0,0,0,2.008-.337,20.2,20.2,0,0,0,1.966-.585,14.034,14.034,0,0,0,1.381-.558l5.786,3.16c4.2,2.283,8.35,4.653,12.588,6.861-.305.008-.61.019-.914.035-.971.046-1.934.144-2.9.251-1.923.209-3.79.746-5.681,1.144s-3.78.8-5.667,1.224-3.772.849-5.653,1.3l.028.162c1.925-.2,3.842-.44,5.764-.659s3.836-.479,5.75-.74,3.854-.374,5.736-.82c.942-.22,1.882-.449,2.813-.731.611-.18,1.22-.378,1.824-.6.4.206.8.413,1.208.615,2.523,1.267,5.05,2.524,7.6,3.735s5.119,2.393,7.719,3.513l.077-.145q-3.589-2.27-7.258-4.387c-.706-.412-1.418-.812-2.127-1.217-.168-.707-.372-1.4-.592-2.079-.294-.928-.635-1.833-.986-2.734-.7-1.805-1.693-3.472-2.562-5.2s-1.745-3.448-2.637-5.163-1.788-3.429-2.711-5.129Z" transform="translate(15.026 9.748)" fill="#65a7ad"/>
    </g>
    <g id="Group_791" data-name="Group 791" transform="translate(2127.594 -974.612)">
      <path id="Path_1291" data-name="Path 1291" d="M2632.688,448.977c77.42-12.343,59.032-60.826,59.032-60.826S2642.708,371.222,2632.688,448.977Z" transform="translate(-2632.688 -386.593)" fill="#284d43"/>
      <path id="Path_1292" data-name="Path 1292" d="M2682.553,401.756c1.93-.148,3.853-.341,5.779-.51s3.847-.381,5.767-.592,3.863-.275,5.755-.673c.948-.2,1.893-.4,2.831-.658q.592-.159,1.18-.341-1.753,1.7-3.49,3.423c-2.738,2.7-5.365,5.514-7.988,8.328-.551-.039-1.1-.051-1.643-.047-.832.006-1.659.043-2.481.116a42.656,42.656,0,0,0-4.867.874q-2.431.458-4.855.956c-1.615.346-3.232.67-4.844,1.037l.024.162c1.649-.108,3.292-.26,4.938-.388s3.286-.3,4.926-.469a42.657,42.657,0,0,0,4.915-.55c.808-.165,1.612-.366,2.41-.6.213-.062.426-.126.638-.194q-1.42,1.522-2.848,3.037l-11.616,12.323-11.558,12.38.117.114,12.029-11.923,6.465-6.47q-.081.252-.154.505a20.176,20.176,0,0,0-.475,2,13.9,13.9,0,0,0-.225,2.023c-.023.681-.036,1.362-.078,2.041q-.131,2.034-.222,4.073c-.046,1.361-.115,2.72-.14,4.083l.163.019c.286-1.333.527-2.672.792-4.008q.375-2.007.71-4.017c.113-.67.255-1.337.387-2.005a13.766,13.766,0,0,0,.242-2.022,19.961,19.961,0,0,0-.009-2.051,14.005,14.005,0,0,0-.147-1.483l4.66-4.664c3.371-3.387,6.813-6.7,10.124-10.15-.078.3-.153.591-.223.887-.23.945-.406,1.9-.573,2.849-.34,1.9-.35,3.847-.5,5.773s-.293,3.853-.419,5.782-.246,3.859-.337,5.792l.163.019c.351-1.9.658-3.811.989-5.717q.474-2.86.907-5.726c.292-1.91.724-3.8.826-5.735.054-.965.1-1.932.09-2.905,0-.638-.02-1.277-.065-1.919.311-.328.622-.655.93-.986,1.925-2.065,3.842-4.136,5.722-6.245s3.736-4.24,5.542-6.42l-.118-.114q-3.187,2.805-6.251,5.731c-.594.562-1.178,1.132-1.766,1.7-.726-.037-1.445-.036-2.161-.016-.973.021-1.938.094-2.9.177-1.928.16-3.808.648-5.709,1s-3.8.705-5.7,1.078-3.793.752-5.685,1.159Z" transform="translate(-2653.725 -389.267)" fill="#65a7ad"/>
    </g>
    <g id="Group_792" data-name="Group 792" transform="translate(2129.373 -939.612)">
      <path id="Path_1293" data-name="Path 1293" d="M2368.251,294.626c-26.364,54.485,12.461,64.245,12.461,64.245S2413.074,335.3,2368.251,294.626Z" transform="translate(-2359.074 -294.626)" fill="#499393"/>
      <path id="Path_1294" data-name="Path 1294" d="M2397.09,357.9c-.758,1.288-1.485,2.591-2.229,3.885s-1.457,2.6-2.172,3.914-1.531,2.568-2.115,3.942c-.294.686-.582,1.376-.833,2.084q-.16.445-.305.9-.305-1.863-.627-3.722c-.5-2.928-1.124-5.832-1.748-8.737.268-.332.518-.673.756-1.02q.545-.794,1.022-1.622a32.911,32.911,0,0,0,1.595-3.469q.783-1.741,1.538-3.5c.493-1.176,1-2.343,1.482-3.526l-.113-.057c-.66,1.092-1.289,2.2-1.935,3.3s-1.261,2.214-1.878,3.327a33.037,33.037,0,0,0-1.822,3.356q-.378.877-.686,1.79-.083.243-.159.489c-.225-1.048-.449-2.1-.666-3.145l-2.676-12.8-2.738-12.786-.125.024,2.241,12.883,1.244,6.951q-.124-.162-.252-.32a15.542,15.542,0,0,0-1.054-1.182,10.733,10.733,0,0,0-1.182-1.036c-.421-.315-.847-.624-1.258-.951q-1.23-.981-2.482-1.939c-.842-.63-1.672-1.274-2.524-1.892l-.084.095c.719.77,1.46,1.513,2.189,2.271s1.48,1.49,2.231,2.224c.375.367.735.751,1.1,1.131a10.693,10.693,0,0,0,1.174,1.045,15.408,15.408,0,0,0,1.3.9,10.878,10.878,0,0,0,1,.562l.9,5.01c.657,3.63,1.238,7.275,1.959,10.893-.152-.18-.306-.358-.463-.533-.5-.563-1.022-1.095-1.551-1.621-1.056-1.057-2.282-1.92-3.436-2.866s-2.312-1.887-3.478-2.818-2.335-1.86-3.52-2.771l-.084.095c1.05,1.062,2.124,2.1,3.185,3.15s2.144,2.076,3.226,3.1,2.09,2.138,3.268,3.055c.588.461,1.18.915,1.8,1.339.4.281.818.551,1.244.806.071.341.14.683.214,1.024.458,2.131.923,4.26,1.429,6.381s1.036,4.238,1.619,6.344l.124-.024q-.369-3.258-.87-6.49c-.094-.624-.2-1.246-.3-1.869.344-.443.66-.9.964-1.362.417-.625.8-1.268,1.169-1.915.75-1.292,1.271-2.7,1.889-4.056s1.23-2.718,1.832-4.083,1.2-2.734,1.776-4.113Z" transform="translate(-2369.039 -317.613)" fill="#65a7ad"/>
    </g>
    <g id="Group_793" data-name="Group 793" transform="translate(2163.93 -1134.652) rotate(115)">
      <path id="Path_1295" data-name="Path 1295" d="M5.409,0C-15.155,64.751,29.541,69.376,29.541,69.376S61.719,38.011,5.409,0Z" transform="translate(0 0)" fill="#499393"/>
      <path id="Path_1296" data-name="Path 1296" d="M26.564,27.82c-.636,1.552-1.235,3.116-1.853,4.673s-1.2,3.127-1.786,4.7-1.29,3.1-1.718,4.718c-.217.809-.427,1.621-.592,2.448q-.107.52-.2,1.047-.637-2.02-1.293-4.034c-1.028-3.172-2.183-6.3-3.341-9.426.245-.412.467-.83.676-1.254q.478-.97.876-1.966a36.912,36.912,0,0,0,1.217-4.109q.591-2.06,1.149-4.132c.36-1.385.739-2.763,1.082-4.154l-.135-.045c-.558,1.319-1.08,2.65-1.621,3.975s-1.047,2.661-1.553,4a36.962,36.962,0,0,0-1.486,4.02q-.28,1.035-.475,2.1-.053.284-.1.569-.626-1.692-1.243-3.387L9.149,13.766,4.06,0,3.926.047,8.479,14l2.495,7.523q-.164-.161-.332-.316a17.325,17.325,0,0,0-1.36-1.144A12.011,12.011,0,0,0,7.8,19.1c-.518-.282-1.041-.557-1.55-.855q-1.524-.893-3.067-1.756c-1.037-.565-2.061-1.148-3.107-1.7L0,14.912c.921.74,1.864,1.448,2.795,2.173S4.678,18.5,5.63,19.2c.475.348.936.717,1.4,1.08a11.973,11.973,0,0,0,1.471.973,17.439,17.439,0,0,0,1.591.791,12.318,12.318,0,0,0,1.205.463l1.8,5.422c1.311,3.928,2.541,7.885,3.921,11.788-.2-.175-.4-.348-.6-.518-.642-.546-1.31-1.052-1.983-1.552-1.342-1-2.843-1.768-4.276-2.633s-2.87-1.726-4.315-2.574-2.892-1.692-4.353-2.515l-.078.119c1.337,1.012,2.7,1.992,4.042,2.99S8.17,35,9.537,35.963,12.2,38,13.657,38.834c.726.418,1.458.828,2.214,1.2.495.247,1,.481,1.512.7.133.368.265.736.4,1.1.85,2.294,1.708,4.584,2.61,6.861s1.829,4.542,2.815,6.789l.134-.047q-.932-3.56-2.005-7.07c-.2-.678-.418-1.353-.629-2.028.311-.547.59-1.1.854-1.667.363-.761.681-1.537.992-2.315.626-1.555.979-3.2,1.449-4.808s.932-3.216,1.381-4.83.894-3.23,1.314-4.853Z" transform="translate(6.265 13.916)" fill="#65a7ad"/>
    </g>
    <g id="Group_794" data-name="Group 794" transform="translate(2183.508 -1196.83)">
      <path id="Path_1297" data-name="Path 1297" d="M2483.178,681.269c70.566,37.057,85.091-13.619,85.091-13.619S2538.653,624.039,2483.178,681.269Z" transform="translate(-2483.178 -651.75)" fill="#499393"/>
      <path id="Path_1298" data-name="Path 1298" d="M2567.469,669.363c1.662,1.053,3.345,2.066,5.017,3.1s3.365,2.031,5.057,3.027,3.313,2.126,5.1,2.955c.89.417,1.785.825,2.706,1.186q.579.231,1.168.441-2.464.321-4.925.664c-3.875.536-7.725,1.227-11.574,1.922-.425-.367-.863-.71-1.309-1.038q-1.022-.752-2.091-1.415a43.354,43.354,0,0,0-4.5-2.25q-2.258-1.106-4.536-2.176c-1.526-.7-3.04-1.421-4.576-2.1l-.08.147c1.409.915,2.839,1.792,4.258,2.689s2.858,1.756,4.3,2.615a43.338,43.338,0,0,0,4.337,2.542c.759.358,1.535.683,2.326.981q.316.119.637.23-2.083.376-4.167.74l-16.959,2.968-16.946,3.05.027.165,17.051-2.392,9.2-1.336q-.219.157-.432.318a20.332,20.332,0,0,0-1.6,1.336,14.047,14.047,0,0,0-1.415,1.511c-.433.541-.858,1.088-1.306,1.614q-1.345,1.577-2.659,3.183c-.866,1.081-1.749,2.145-2.6,3.24l.121.114c1.044-.912,2.055-1.856,3.084-2.782s2.026-1.883,3.023-2.84c.5-.478,1.021-.934,1.536-1.4a14.117,14.117,0,0,0,1.427-1.5,20.4,20.4,0,0,0,1.241-1.676,14.454,14.454,0,0,0,.783-1.3l6.633-.963c4.807-.707,9.629-1.315,14.422-2.107q-.365.289-.721.587c-.762.63-1.485,1.3-2.2,1.972-1.436,1.344-2.626,2.92-3.92,4.4s-2.583,2.96-3.859,4.454-2.549,2.993-3.8,4.512l.121.114c1.444-1.336,2.855-2.7,4.284-4.054s2.826-2.731,4.223-4.112,2.9-2.657,4.163-4.168c.631-.754,1.256-1.514,1.841-2.311.387-.52.761-1.052,1.115-1.6.452-.078.905-.155,1.357-.237,2.824-.511,5.646-1.031,8.461-1.6s5.622-1.18,8.419-1.857l-.026-.165q-4.3.345-8.579.864c-.825.1-1.649.205-2.472.309-.568-.472-1.155-.908-1.75-1.328-.8-.575-1.635-1.1-2.47-1.621-1.667-1.043-3.5-1.789-5.256-2.661s-3.524-1.737-5.3-2.588-3.546-1.7-5.335-2.515Z" transform="translate(-2513.629 -662.939)" fill="#65a7ad"/>
    </g>
    <g id="Group_795" data-name="Group 795" transform="translate(2167.129 -932.01)">
      <path id="Path_1299" data-name="Path 1299" d="M2220.514,281.107c8.6,76.309,56.867,60.495,56.867,60.495S2296.147,294.4,2220.514,281.107Z" transform="translate(-2220.514 -281.107)" fill="#53bfab"/>
      <path id="Path_1300" data-name="Path 1300" d="M2288.3,333.124c.059,1.895.161,3.785.24,5.677s.2,3.781.32,5.67.1,3.792.4,5.662c.148.936.307,1.87.517,2.8q.129.586.28,1.17-1.588-1.792-3.193-3.568c-2.522-2.8-5.155-5.5-7.791-8.191.063-.537.1-1.072.121-1.605.031-.814.033-1.625,0-2.432a41.889,41.889,0,0,0-.637-4.8q-.339-2.4-.718-4.794c-.267-1.6-.51-3.193-.8-4.786l-.16.016c.031,1.618.106,3.233.157,4.849s.145,3.229.238,4.841a41.735,41.735,0,0,0,.318,4.834c.125.8.285,1.594.476,2.385q.075.317.161.633-1.426-1.458-2.844-2.923l-11.536-11.92-11.594-11.865-.117.11,11.126,12.305,6.041,6.616q-.243-.09-.488-.173a19.6,19.6,0,0,0-1.931-.554,13.6,13.6,0,0,0-1.97-.311c-.665-.052-1.332-.1-1.994-.168q-1.984-.22-3.976-.4c-1.33-.106-2.656-.235-3.989-.321l-.025.158c1.292.34,2.591.636,3.886.955s2.6.6,3.9.875c.651.14,1.3.309,1.945.469a13.542,13.542,0,0,0,1.967.327,19.7,19.7,0,0,0,2.007.084,13.769,13.769,0,0,0,1.458-.077l4.354,4.769c3.163,3.451,6.254,6.968,9.478,10.362-.285-.089-.571-.176-.858-.258-.914-.267-1.838-.483-2.762-.689-1.848-.418-3.748-.515-5.626-.749s-3.758-.46-5.639-.669-3.765-.414-5.652-.591l-.026.159c1.846.429,3.7.815,5.549,1.224s3.706.776,5.562,1.145,3.689.879,5.575,1.066c.942.1,1.886.183,2.838.218.624.027,1.25.038,1.881.023.307.319.613.638.923.954,1.934,1.976,3.875,3.945,5.854,5.879s3.98,3.846,6.033,5.711l.117-.11q-2.6-3.245-5.327-6.374c-.523-.606-1.055-1.2-1.583-1.8.069-.708.1-1.412.113-2.114.023-.953,0-1.9-.042-2.846-.07-1.894-.463-3.755-.719-5.63s-.52-3.749-.8-5.622-.565-3.745-.879-5.615Z" transform="translate(-2240.775 -302.674)" fill="#52999a"/>
    </g>
    <g id="Group_796" data-name="Group 796" transform="translate(2020.322 -875.067)">
      <path id="Path_1301" data-name="Path 1301" d="M2443.142,777.987c75.1-16.014,54.65-62.5,54.65-62.5S2448.987,701.417,2443.142,777.987Z" transform="translate(-2443.142 -714.467)" fill="#4d8d87"/>
      <path id="Path_1302" data-name="Path 1302" d="M2488.267,729.428c1.88-.243,3.751-.53,5.627-.793s3.744-.568,5.612-.872,3.764-.466,5.6-.951c.917-.239,1.832-.488,2.736-.788q.571-.185,1.137-.394-1.628,1.756-3.239,3.526c-2.541,2.784-4.967,5.667-7.391,8.553-.541-.01-1.076.006-1.609.037-.813.049-1.62.126-2.421.239a41.834,41.834,0,0,0-4.717,1.1q-2.354.571-4.7,1.182c-1.562.421-3.128.82-4.686,1.261l.031.158c1.608-.19,3.207-.422,4.811-.631s3.2-.46,4.8-.709a41.8,41.8,0,0,0,4.779-.789c.782-.2,1.558-.44,2.328-.706.205-.071.41-.145.614-.222q-1.311,1.562-2.631,3.116L2484.2,754.393l-10.676,12.7.121.106,11.159-12.275,5.994-6.659c-.044.167-.085.335-.124.5a19.646,19.646,0,0,0-.363,1.976,13.567,13.567,0,0,0-.117,1.991c.013.667.035,1.334.027,2q-.025,2-.01,4c.024,1.334.026,2.666.071,4l.16.01c.211-1.319.379-2.641.571-3.961q.265-1.982.49-3.966c.076-.661.181-1.321.277-1.981a13.5,13.5,0,0,0,.133-1.99,19.515,19.515,0,0,0-.113-2.006,13.7,13.7,0,0,0-.219-1.443l4.321-4.8c3.125-3.485,6.324-6.905,9.386-10.445q-.092.439-.173.879c-.176.936-.3,1.876-.416,2.816-.236,1.88-.146,3.781-.2,5.673s-.09,3.784-.115,5.677-.044,3.787-.035,5.683l.16.01c.247-1.879.45-3.762.676-5.643s.411-3.764.6-5.647.515-3.758.516-5.652c0-.947,0-1.9-.06-2.846-.034-.624-.084-1.248-.162-1.875.287-.336.576-.672.859-1.012,1.778-2.118,3.548-4.242,5.28-6.4s3.438-4.337,5.094-6.562l-.122-.106q-2.976,2.906-5.823,5.924c-.552.58-1.095,1.167-1.641,1.752-.711,0-1.415.039-2.115.094-.95.07-1.891.19-2.829.321-1.877.254-3.692.828-5.533,1.266s-3.681.883-5.518,1.345-3.672.928-5.5,1.423Z" transform="translate(-2462.606 -716.183)" fill="#65a7ad"/>
    </g>
    <g id="Group_797" data-name="Group 797" transform="translate(2120.337 -976.104)">
      <path id="Path_1303" data-name="Path 1303" d="M2459.042,430.686c-46.77,44.226-11.848,68.579-11.848,68.579S2488.262,488.041,2459.042,430.686Z" transform="translate(-2434.667 -430.686)" fill="#3b806c"/>
      <path id="Path_1304" data-name="Path 1304" d="M2473.437,502.405c-1.24.994-2.454,2.016-3.681,3.023s-2.432,2.04-3.636,3.072-2.491,1.976-3.59,3.122c-.552.571-1.1,1.148-1.614,1.757q-.328.382-.643.778.4-1.967.78-3.937c.6-3.1,1.083-6.223,1.558-9.346.392-.229.768-.474,1.136-.729q.842-.584,1.628-1.228a34.941,34.941,0,0,0,2.895-2.847q1.436-1.436,2.849-2.9c.934-.983,1.881-1.951,2.8-2.946l-.091-.1c-1.068.837-2.111,1.7-3.168,2.55s-2.09,1.725-3.123,2.6a35,35,0,0,0-3.077,2.649q-.708.729-1.358,1.521-.174.211-.343.427.257-1.69.524-3.378l2.168-13.734,2.1-13.746-.133-.023-2.632,13.654-1.385,7.381q-.063-.208-.13-.414a16.444,16.444,0,0,0-.6-1.572,11.416,11.416,0,0,0-.784-1.476c-.3-.472-.607-.94-.892-1.42q-.853-1.44-1.736-2.864c-.6-.944-1.181-1.9-1.8-2.833l-.119.063c.424,1.036.88,2.055,1.319,3.084s.909,2.04,1.379,3.052c.234.507.447,1.025.666,1.539a11.387,11.387,0,0,0,.773,1.483,16.39,16.39,0,0,0,.956,1.386,11.617,11.617,0,0,0,.786.937l-1,5.32c-.717,3.857-1.514,7.7-2.162,11.57-.084-.236-.17-.472-.26-.7-.282-.747-.6-1.474-.931-2.2-.651-1.449-1.544-2.77-2.335-4.146s-1.586-2.748-2.394-4.114-1.62-2.73-2.454-4.083l-.119.063c.644,1.453,1.319,2.889,1.978,4.333s1.348,2.873,2.037,4.3,1.271,2.914,2.1,4.271c.41.68.828,1.356,1.285,2.011.3.431.6.856.933,1.271-.059.366-.118.732-.174,1.1-.349,2.291-.689,4.584-.987,6.884s-.569,4.6-.783,6.919l.133.023q.862-3.378,1.584-6.781c.142-.656.274-1.313.41-1.97.509-.31,1-.645,1.473-.99.65-.464,1.27-.961,1.885-1.463,1.233-1,2.281-2.2,3.408-3.32s2.249-2.238,3.362-3.369,2.224-2.266,3.317-3.419Z" transform="translate(-2445.496 -455.226)" fill="#65a7ad"/>
    </g>
    <g id="Group_798" data-name="Group 798" transform="matrix(0.407, 0.914, -0.914, 0.407, 2237.565, -825.305)">
      <path id="Path_1305" data-name="Path 1305" d="M0,0C13.218,64.372,53.133,47.169,53.133,47.169S65.485,5.5,0,0Z" transform="translate(0)" fill="#468984"/>
      <path id="Path_1306" data-name="Path 1306" d="M32.225,12.858c.2,1.61.43,3.213.643,4.82s.462,3.207.71,4.808.374,3.224.777,4.794c.2.786.406,1.57.657,2.346q.155.49.329.975-1.492-1.4-3-2.795c-2.366-2.192-4.817-4.287-7.272-6.379.012-.463,0-.922-.021-1.378-.036-.7-.1-1.387-.189-2.073a35.773,35.773,0,0,0-.914-4.043q-.474-2.018-.981-4.03c-.35-1.339-.681-2.682-1.049-4.017l-.135.026c.152,1.377.34,2.747.509,4.121s.373,2.741.576,4.108a35.776,35.776,0,0,0,.644,4.1c.168.671.366,1.336.589,2q.09.264.186.527-1.328-1.132-2.649-2.272L10.888,9.218.091,0,0,.1,10.432,9.731,16.091,14.9c-.143-.039-.286-.075-.429-.11a16.782,16.782,0,0,0-1.688-.323,11.583,11.583,0,0,0-1.7-.113c-.571.006-1.142.021-1.712.01q-1.708-.035-3.419-.035c-1.142.013-2.282.005-3.425.035l-.01.137c1.127.19,2.257.342,3.386.514s2.26.308,3.391.445c.565.069,1.129.164,1.693.25a11.624,11.624,0,0,0,1.7.127,16.8,16.8,0,0,0,1.717-.083,11.849,11.849,0,0,0,1.236-.178l4.079,3.728c2.961,2.7,5.868,5.456,8.876,8.1-.25-.054-.5-.106-.751-.154-.8-.157-1.6-.27-2.407-.374-1.608-.214-3.235-.15-4.853-.2s-3.237-.1-4.858-.135-3.241-.063-4.862-.067l-.01.137c1.607.223,3.216.409,4.824.615s3.218.376,4.829.547,3.212.465,4.834.478c.811.009,1.622.01,2.436-.033.534-.025,1.068-.064,1.605-.126.286.248.571.5.86.742,1.8,1.535,3.607,3.064,5.443,4.559s3.689,2.971,5.582,4.4l.091-.1q-2.468-2.565-5.032-5.022c-.493-.476-.992-.945-1.489-1.416,0-.609-.024-1.211-.067-1.81-.054-.814-.151-1.619-.256-2.423-.206-1.608-.685-3.165-1.048-4.743s-.732-3.156-1.115-4.73-.771-3.148-1.182-4.717Z" transform="translate(10.63 9.426)" fill="#65a7ad"/>
    </g>
    <g id="Group_799" data-name="Group 799" transform="translate(2043.745 -1069.09)">
      <path id="Path_1307" data-name="Path 1307" d="M2611.881,561.636c-63.454-10.823-61.943,31.725-61.943,31.725S2583.582,619.451,2611.881,561.636Z" transform="translate(-2549.907 -559.873)" fill="#53bfab"/>
      <path id="Path_1308" data-name="Path 1308" d="M2576.255,604.126c-1.539-.393-3.085-.75-4.628-1.127s-3.092-.719-4.64-1.061-3.076-.8-4.653-1c-.788-.1-1.577-.188-2.375-.235q-.5-.033-1.008-.046,1.813-.863,3.616-1.741c2.842-1.38,5.625-2.873,8.408-4.369.418.176.84.33,1.265.47.648.214,1.3.4,1.959.564a35.017,35.017,0,0,0,4.015.6q2.01.285,4.027.537c1.347.156,2.69.332,4.04.471l.025-.132c-1.311-.351-2.628-.666-3.942-1s-2.634-.634-3.954-.934a35.014,35.014,0,0,0-3.966-.868c-.672-.085-1.35-.141-2.032-.172q-.273-.012-.547-.018,1.5-.809,3.015-1.61l12.282-6.517,12.252-6.577-.061-.12-12.5,6.1-6.733,3.326q.129-.175.252-.353a16.469,16.469,0,0,0,.9-1.426,11.414,11.414,0,0,0,.709-1.514c.2-.523.386-1.05.6-1.566q.639-1.547,1.247-3.108c.395-1.047.807-2.084,1.186-3.138l-.121-.057c-.574.961-1.115,1.939-1.673,2.908s-1.084,1.953-1.612,2.936c-.264.492-.551.973-.83,1.457a11.355,11.355,0,0,0-.721,1.508,16.469,16.469,0,0,0-.534,1.6,11.61,11.61,0,0,0-.277,1.192l-4.853,2.4c-3.514,1.745-7.066,3.416-10.548,5.222q.207-.314.407-.631c.428-.675.816-1.368,1.2-2.064.767-1.391,1.287-2.9,1.911-4.357s1.244-2.919,1.851-4.386,1.21-2.935,1.79-4.414l-.122-.057c-.775,1.387-1.516,2.79-2.276,4.184s-1.487,2.8-2.216,4.213-1.566,2.766-2.155,4.242c-.3.736-.586,1.476-.836,2.235-.167.5-.321,1-.456,1.509-.328.173-.657.345-.983.521-2.041,1.1-4.078,2.2-6.1,3.347s-4.023,2.311-6,3.53l.062.12q3.219-1.341,6.372-2.808c.609-.28,1.215-.569,1.822-.855.554.22,1.114.409,1.676.583.761.241,1.531.438,2.3.628,1.541.385,3.132.5,4.7.73s3.14.454,4.713.664,3.147.416,4.726.6Z" transform="translate(-2549.857 -571.171)" fill="#52999a"/>
    </g>
    <g id="Group_800" data-name="Group 800" transform="translate(2132.914 -1174.565)">
      <path id="Path_1309" data-name="Path 1309" d="M2626.866,791.263c-47.185-35.254-63.682.038-63.682.038S2579.723,826.573,2626.866,791.263Z" transform="translate(-2563.184 -775.605)" fill="#4d8d87"/>
      <path id="Path_1310" data-name="Path 1310" d="M2584.887,810.8c-1.09-.962-2.2-1.9-3.3-2.846s-2.219-1.874-3.338-2.8-2.171-1.937-3.376-2.749c-.6-.408-1.207-.81-1.837-1.181-.263-.157-.531-.309-.8-.457q1.835.053,3.672.088c2.89.06,5.78,0,8.67-.056.268.317.547.619.835.91q.658.667,1.361,1.276a32.138,32.138,0,0,0,3.02,2.165q1.519,1.07,3.057,2.116c1.032.688,2.053,1.391,3.095,2.067l.075-.1c-.922-.832-1.864-1.638-2.794-2.458s-1.882-1.614-2.832-2.409a32.1,32.1,0,0,0-2.87-2.36q-.768-.524-1.583-.986-.217-.124-.438-.242,1.563-.032,3.127-.055l12.722-.193,12.722-.254v-.123l-12.722-.239-6.871-.1q.178-.089.353-.182a15.09,15.09,0,0,0,1.323-.789,10.449,10.449,0,0,0,1.208-.938c.379-.344.753-.694,1.14-1.026q1.165-.995,2.311-2.013c.757-.688,1.526-1.362,2.274-2.063l-.075-.1c-.868.544-1.716,1.115-2.574,1.672s-1.7,1.139-2.537,1.721c-.42.29-.854.563-1.283.841a10.366,10.366,0,0,0-1.216.928,15.131,15.131,0,0,0-1.1,1.078,10.583,10.583,0,0,0-.722.856l-4.952-.069c-3.59-.043-7.18-.161-10.769-.141q.3-.169.594-.344c.63-.371,1.235-.774,1.835-1.183,1.2-.814,2.255-1.826,3.372-2.753s2.23-1.859,3.335-2.8,2.208-1.888,3.3-2.851l-.075-.1c-1.209.807-2.4,1.641-3.6,2.46s-2.38,1.665-3.56,2.509-2.429,1.6-3.523,2.558c-.549.477-1.093.959-1.612,1.473-.343.334-.678.679-1,1.04-.339,0-.679.008-1.018.015-2.12.044-4.24.1-6.361.187s-4.24.207-6.36.375v.123q3.181.248,6.361.368c.614.026,1.227.042,1.84.062.36.41.738.8,1.123,1.173.52.514,1.065,1,1.614,1.471,1.095.955,2.343,1.713,3.526,2.553s2.37,1.678,3.563,2.505,2.391,1.65,3.6,2.456Z" transform="translate(-2563.184 -784.55)" fill="#65a7ad"/>
    </g>
    <g id="Group_801" data-name="Group 801" transform="translate(2174.61 -1266.725) rotate(150)">
      <path id="Path_1311" data-name="Path 1311" d="M0,0C19.519,73.377,64.421,50.885,64.421,50.885S75.9,2,0,0Z" fill="#499393"/>
      <path id="Path_1312" data-name="Path 1312" d="M38.019,12.7c.333,1.844.708,3.678,1.061,5.517s.746,3.669,1.138,5.5.645,3.694,1.215,5.479c.282.893.573,1.784.913,2.662q.211.555.445,1.1-1.815-1.521-3.642-3.025c-2.874-2.372-5.842-4.625-8.811-6.876-.017-.535-.059-1.063-.116-1.588-.088-.8-.2-1.594-.356-2.378a41.409,41.409,0,0,0-1.322-4.6q-.68-2.3-1.4-4.584c-.493-1.522-.964-3.048-1.476-4.565l-.154.039c.267,1.578.575,3.146.86,4.72s.612,3.137.937,4.7a41.32,41.32,0,0,0,1.015,4.681c.238.763.511,1.517.812,2.263.08.2.163.4.249.6q-1.607-1.218-3.206-2.445L13.165,9.916.1,0,0,.125,12.672,10.539l6.871,5.591q-.251-.053-.5-.1a19.5,19.5,0,0,0-1.969-.261,13.474,13.474,0,0,0-1.972-.017c-.658.045-1.316.1-1.974.126q-1.973.074-3.947.187c-1.316.09-2.631.157-3.948.267l0,.159c1.313.144,2.627.244,3.939.368s2.627.206,3.941.289c.657.042,1.314.114,1.97.176a13.375,13.375,0,0,0,1.972.033,19.4,19.4,0,0,0,1.975-.21,13.663,13.663,0,0,0,1.414-.288l4.953,4.03c3.6,2.914,7.131,5.9,10.777,8.754-.292-.046-.584-.089-.877-.128-.933-.128-1.867-.2-2.8-.272-1.869-.14-3.741.042-5.612.087s-3.741.1-5.612.166-3.742.143-5.614.245l0,.159c1.868.151,3.737.258,5.605.389s3.737.22,5.606.31,3.736.323,5.607.231c.936-.043,1.871-.1,2.808-.2.614-.064,1.228-.145,1.843-.252.347.267.693.535,1.042.8,2.179,1.651,4.364,3.294,6.581,4.9s4.453,3.182,6.732,4.707l.1-.125q-3.017-2.8-6.137-5.459c-.6-.516-1.207-1.024-1.811-1.534-.035-.7-.108-1.4-.2-2.084-.116-.935-.281-1.857-.456-2.777-.344-1.842-1-3.605-1.523-5.4s-1.054-3.591-1.6-5.382-1.1-3.581-1.677-5.363Z" transform="translate(12.894 10.162)" fill="#65a7ad"/>
    </g>
    <g id="Group_802" data-name="Group 802" transform="translate(2238.478 -1161.065)">
      <path id="Path_1313" data-name="Path 1313" d="M2839.165,510.084c-49.564-29.876-62.259,6.235-62.259,6.235S2796.509,549.195,2839.165,510.084Z" transform="translate(-2776.9 -498.25)" fill="#53bfab"/>
      <path id="Path_1314" data-name="Path 1314" d="M2799.142,533.431c-1.159-.834-2.336-1.64-3.5-2.462s-2.352-1.616-3.536-2.41-2.311-1.683-3.568-2.359c-.627-.34-1.259-.675-1.911-.976q-.409-.192-.828-.37,1.8-.127,3.6-.271c2.832-.223,5.651-.559,8.471-.9.292.284.595.552.9.809q.708.588,1.455,1.115a31.432,31.432,0,0,0,3.163,1.823q1.59.9,3.195,1.771c1.077.572,2.143,1.16,3.227,1.72l.064-.1c-.982-.724-1.981-1.42-2.972-2.131s-2-1.395-3-2.079a31.4,31.4,0,0,0-3.035-2.028q-.8-.438-1.644-.81-.224-.1-.452-.194,1.526-.183,3.052-.358l12.419-1.426,12.414-1.486-.012-.12-12.462,1-6.727.575q.166-.1.327-.212a14.916,14.916,0,0,0,1.217-.9,10.209,10.209,0,0,0,1.089-1.035c.337-.373.669-.752,1.016-1.114q1.042-1.086,2.063-2.193c.674-.747,1.36-1.48,2.023-2.238l-.083-.088c-.8.617-1.569,1.257-2.354,1.885s-1.548,1.279-2.312,1.929c-.383.325-.781.634-1.173.947a10.236,10.236,0,0,0-1.1,1.026,14.735,14.735,0,0,0-.971,1.162,10.444,10.444,0,0,0-.623.907l-4.849.415c-3.514.307-7.036.541-10.543.911.185-.13.368-.261.548-.395.579-.424,1.132-.877,1.679-1.335,1.1-.913,2.028-2,3.029-3.02s2-2.035,2.988-3.064,1.976-2.06,2.946-3.108l-.083-.088c-1.1.907-2.185,1.838-3.278,2.756s-2.165,1.859-3.237,2.8-2.218,1.8-3.195,2.844c-.49.519-.976,1.044-1.434,1.6-.3.361-.6.73-.876,1.114-.332.037-.664.073-.995.114-2.069.249-4.136.506-6.2.8s-4.125.615-6.182.985l.012.121q3.133-.066,6.255-.26c.6-.035,1.2-.078,1.805-.119.391.366.8.708,1.212,1.038.559.451,1.138.869,1.722,1.281,1.164.827,2.457,1.446,3.7,2.154s2.48,1.41,3.728,2.1,2.5,1.381,3.76,2.051Z" transform="translate(-2776.889 -507.158)" fill="#52999a"/>
    </g>
    <g id="Group_803" data-name="Group 803" transform="translate(2196.721 -710.963) rotate(-98)">
      <path id="Path_1315" data-name="Path 1315" d="M0,46.878C60.066,39.415,47.169,1.516,47.169,1.516S9.8-12.851,0,46.878Z" transform="translate(0 0)" fill="#499393"/>
      <path id="Path_1316" data-name="Path 1316" d="M14.139,7.676c1.493-.063,2.981-.161,4.473-.24s2.978-.191,4.466-.3,2.987-.11,4.459-.366c.736-.125,1.471-.258,2.2-.432q.461-.107.92-.231-1.4,1.268-2.784,2.549c-2.185,2.013-4.286,4.112-6.385,6.214-.424-.045-.846-.069-1.266-.081-.642-.017-1.281-.011-1.917.023a32.9,32.9,0,0,0-3.779.545q-1.887.288-3.772.608c-1.255.225-2.512.431-3.765.671L7,16.759c1.275-.04,2.547-.113,3.821-.168s2.544-.143,3.814-.231a32.9,32.9,0,0,0,3.807-.294c.628-.106,1.253-.239,1.876-.4q.249-.063.5-.132-1.136,1.137-2.279,2.267L9.248,27,0,36.248l.088.091,9.6-8.88,5.16-4.821q-.069.192-.132.386a15.406,15.406,0,0,0-.419,1.526,10.708,10.708,0,0,0-.227,1.555c-.036.525-.064,1.051-.115,1.573q-.156,1.566-.28,3.137c-.072,1.049-.161,2.1-.217,3.147l.125.019c.256-1.021.478-2.048.718-3.071s.447-2.052.655-3.081c.1-.514.232-1.025.352-1.537a10.647,10.647,0,0,0,.24-1.554,15.654,15.654,0,0,0,.048-1.582,10.929,10.929,0,0,0-.074-1.148l3.72-3.475c2.691-2.524,5.436-4.992,8.081-7.562-.068.226-.134.452-.2.679-.2.723-.364,1.453-.518,2.183-.313,1.461-.372,2.959-.54,4.441s-.328,2.965-.477,4.45-.293,2.971-.414,4.46l.125.019c.322-1.459.609-2.923.915-4.385s.579-2.928.853-4.394.66-2.916.79-4.4c.068-.744.127-1.488.147-2.239.016-.492.019-.986,0-1.483.248-.245.5-.489.744-.736,1.54-1.542,3.075-3.089,4.581-4.666s3-3.172,4.447-4.806L37.692,0q-2.535,2.08-4.976,4.256c-.473.418-.939.842-1.408,1.264-.559-.048-1.114-.066-1.667-.07-.751-.01-1.5.021-2.243.059-1.492.072-2.956.4-4.431.617s-2.95.443-4.424.68-2.947.479-4.417.743Z" transform="translate(9.434 1.47)" fill="#65a7ad"/>
    </g>
    <g id="Group_804" data-name="Group 804" transform="matrix(0.017, 1, -1, 0.017, 2047.686, -777.667)">
      <path id="Path_1317" data-name="Path 1317" d="M8.586,64.011C54.129,24.143,22.194,0,22.194,0S-16.8,9.064,8.586,64.011Z" transform="translate(0 0.013)" fill="#284d43"/>
      <path id="Path_1318" data-name="Path 1318" d="M.9,19.565c1.2-.89,2.378-1.806,3.568-2.707S6.822,15.029,7.991,14.1s2.412-1.766,3.486-2.8c.539-.517,1.073-1.039,1.58-1.593q.322-.347.632-.708-.446,1.834-.875,3.671c-.68,2.892-1.242,5.809-1.8,8.726-.376.2-.739.417-1.094.644q-.812.519-1.574,1.094A32.9,32.9,0,0,0,5.522,25.7Q4.121,27,2.74,28.323C1.827,29.213.9,30.089,0,30.991l.082.1c1.034-.748,2.045-1.522,3.069-2.282s2.026-1.545,3.028-2.33A32.953,32.953,0,0,0,9.166,24.1q.691-.66,1.331-1.38.171-.192.337-.389-.3,1.578-.615,3.155L7.686,38.31,5.215,51.15l.124.026L8.305,38.441l1.568-6.885q.051.2.108.393a15.5,15.5,0,0,0,.509,1.5,10.65,10.65,0,0,0,.684,1.415c.264.454.536.905.787,1.366q.749,1.384,1.528,2.754c.529.909,1.042,1.825,1.586,2.727l.114-.055c-.361-.989-.753-1.963-1.129-2.946s-.781-1.95-1.186-2.918c-.2-.484-.383-.979-.57-1.47a10.682,10.682,0,0,0-.673-1.421,15.576,15.576,0,0,0-.848-1.337,10.889,10.889,0,0,0-.705-.909l1.131-4.963c.813-3.6,1.7-7.182,2.449-10.794.071.225.143.449.219.672.238.712.513,1.407.8,2.1.56,1.385,1.352,2.658,2.044,3.98s1.391,2.639,2.1,3.952,1.424,2.624,2.158,3.925l.114-.055c-.552-1.388-1.135-2.762-1.7-4.144s-1.163-2.748-1.758-4.116-1.089-2.784-1.816-4.089c-.361-.654-.729-1.3-1.134-1.936-.263-.416-.538-.827-.831-1.228.068-.342.138-.684.2-1.026.41-2.141.813-4.283,1.176-6.433s.7-4.306.986-6.473L16.09,0q-.932,3.143-1.733,6.314c-.157.611-.306,1.224-.457,1.837-.49.273-.959.57-1.42.877-.628.413-1.228.857-1.824,1.307-1.195.9-2.223,1.988-3.322,3s-2.194,2.022-3.281,3.044S1.883,18.425.813,19.469Z" transform="translate(6.043 0)" fill="#62a2a7"/>
    </g>
    <g id="Group_805" data-name="Group 805" transform="translate(2081.904 -1070.114) rotate(-77)">
      <path id="Path_1319" data-name="Path 1319" d="M0,1.875C33.618,72.7,74.973,41.419,74.973,41.419S77.435-10.376,0,1.875Z" transform="translate(0 0)" fill="#284d43"/>
      <path id="Path_1320" data-name="Path 1320" d="M40.964,5.76c.685,1.81,1.411,3.6,2.115,5.4s1.447,3.585,2.189,5.368,1.35,3.629,2.264,5.334c.454.854.917,1.7,1.428,2.531q.319.523.659,1.037-2.128-1.2-4.266-2.386c-3.364-1.867-6.8-3.6-10.239-5.323-.118-.54-.26-1.068-.416-1.59q-.36-1.194-.809-2.348A42.667,42.667,0,0,0,31.68,9.36q-1.122-2.2-2.283-4.391C28.611,3.517,27.846,2.056,27.04.613l-.149.068c.567,1.552,1.175,3.086,1.761,4.63s1.211,3.069,1.835,4.6A42.686,42.686,0,0,0,32.4,14.468c.385.73.8,1.444,1.25,2.146q.178.28.365.557-1.861-.934-3.715-1.879L15.207,7.61.077,0,0,.145l14.824,8.19,8.027,4.384c-.177,0-.352-.006-.528-.005a20.067,20.067,0,0,0-2.048.105,13.891,13.891,0,0,0-2.005.353c-.66.17-1.318.349-1.981.5q-1.989.446-3.971.933c-1.319.339-2.642.654-3.958,1.014l.028.162c1.36-.1,2.712-.246,4.069-.367s2.706-.285,4.055-.448c.675-.081,1.355-.132,2.033-.192a13.851,13.851,0,0,0,2.008-.337,20.179,20.179,0,0,0,1.966-.585,14.07,14.07,0,0,0,1.382-.558l5.786,3.16c4.2,2.283,8.35,4.653,12.588,6.861-.305.008-.61.019-.914.035-.971.046-1.934.143-2.9.251-1.923.209-3.79.746-5.681,1.144s-3.78.8-5.667,1.224-3.772.849-5.653,1.3l.028.162c1.925-.2,3.842-.44,5.764-.659s3.836-.479,5.75-.74,3.854-.374,5.736-.82c.942-.22,1.882-.449,2.813-.731.611-.18,1.22-.378,1.824-.6.4.206.8.413,1.207.615,2.523,1.267,5.05,2.524,7.6,3.734s5.119,2.393,7.719,3.513l.077-.145q-3.589-2.27-7.258-4.387c-.706-.412-1.418-.813-2.127-1.217-.168-.707-.372-1.4-.592-2.079-.294-.928-.635-1.833-.986-2.734-.7-1.805-1.693-3.472-2.562-5.2s-1.745-3.448-2.637-5.163-1.788-3.429-2.711-5.129Z" transform="translate(15.026 9.748)" fill="#52999a"/>
    </g>
  </g>
</svg>
