<svg id="Desktop" xmlns="http://www.w3.org/2000/svg" width="107" height="107" viewBox="0 0 107 107">
  <g id="Wise-Stone---Open">
    <g id="Scroll">
      <path id="Scroll-Down-_-Scroll" data-name="Scroll-Down-—-Scroll" d="M55.553,1.857C55.69.4,57.328-.068,58.636.055a2.784,2.784,0,0,1,2.784,2.27l-1.676.085a1.35,1.35,0,0,0-1.337-.939c-.617-.058-1.1.087-1.131.464-.033.356.259.616.741.767l.943.3c1.066.333,2.476.835,2.341,2.27-.145,1.54-1.751,2.128-3.122,2-1.852-.174-2.9-1.119-3.084-2.562l1.676-.085a1.514,1.514,0,0,0,1.553,1.224c.575.054,1.187-.057,1.234-.55.042-.45-.534-.716-1.211-.928l-.84-.269C56.43,3.757,55.433,3.145,55.553,1.857ZM67.607,6.286l1.523.654a3.163,3.163,0,0,1-3.914,1.608,3.3,3.3,0,0,1-2.5-4.405,3.336,3.336,0,0,1,4.4-2.569,3.082,3.082,0,0,1,2.507,3.308L67.973,4.7A1.612,1.612,0,0,0,66.692,2.92c-.955-.253-1.9.27-2.268,1.674-.381,1.444.188,2.335,1.143,2.588A1.636,1.636,0,0,0,67.607,6.286Zm5.787,5.084-.349-2.96-.961-.425-1.035,2.348-1.528-.675,2.817-6.391,2.394,1.058c1.682.743,2.768,1.695,2.059,3.3A1.934,1.934,0,0,1,74.747,8.85l.436,3.309Zm.791-5.676-.913-.4-.594,1.347.913.4c.721.319,1.308.5,1.576-.109S74.907,6.012,74.186,5.693Zm8.031,6.756a1.924,1.924,0,1,0-3.21-2.063,1.931,1.931,0,1,0,3.21,2.063ZM83.7,13.4a3.439,3.439,0,0,1-5.059,1.074,3.44,3.44,0,0,1-1.122-5.047A3.385,3.385,0,0,1,82.543,8.4,3.4,3.4,0,0,1,83.7,13.4Zm4.818-.562-3.6,4.175L87.5,19.236l-.961,1.116L82.7,17.041l4.556-5.291Zm4.938,4.7-4.073,3.71,2.284,2.514-1.088.991-3.408-3.751,5.161-4.7Zm5.658,14.225c1.645-.891,1.145-2.127.56-3.21l-.18-.333-3.549,1.921.18.333C96.712,31.562,97.472,32.658,99.117,31.767Zm.88-5.715.96,1.777c1.1,2.036,1.376,4.207-1,5.493s-4.038-.134-5.138-2.17l-.96-1.777Zm2.369,13.884a1.926,1.926,0,1,0-1.214-3.62,1.932,1.932,0,1,0,1.214,3.62Zm.562,1.676A3.441,3.441,0,0,1,98.31,39.28a3.438,3.438,0,0,1,2.28-4.639,3.387,3.387,0,0,1,4.564,2.339A3.4,3.4,0,0,1,102.927,41.612Zm4.458,6.611-4.647,1.635,4.873.192.216,1.754-7.12-.73-.22-1.785,4.718-1.665-4.981-.465-.219-1.775,6.726-2.465.219,1.775L102.3,46.149l4.873.362Zm-7,11.806.162-2.087,4.978-2.345-4.767-.372.13-1.668,6.956.542-.162,2.087L102.7,58.532l4.767.372-.13,1.668ZM99.372,72.241l1.852-4.934a.673.673,0,1,1,1.259.474l-1.852,4.934a.673.673,0,1,1-1.259-.474Zm-1.032,7.564c1.192.845.782,2.5.023,3.574a2.781,2.781,0,0,1-3.353,1.284l.762-1.5a1.349,1.349,0,0,0,1.48-.691c.358-.507.471-.994.162-1.213-.292-.207-.662-.083-1.033.26l-.73.669c-.82.759-1.958,1.732-3.133.9-1.261-.893-.969-2.581-.174-3.706,1.074-1.52,2.416-1.961,3.756-1.4l-.762,1.5a1.513,1.513,0,0,0-1.834.737c-.334.472-.543,1.059-.139,1.345.369.261.886-.107,1.407-.588l.652-.595C96.257,79.619,97.284,79.058,98.339,79.805Zm-9.747,8.28L87.284,89.1a3.171,3.171,0,0,1,.489-4.207,3.292,3.292,0,0,1,5.06-.057,3.343,3.343,0,0,1,.117,5.095,3.076,3.076,0,0,1-4.1.595l.959-1.353a1.609,1.609,0,0,0,2.172-.263c.683-.714.682-1.793-.365-2.8-1.078-1.033-2.131-.966-2.815-.252A1.64,1.64,0,0,0,88.593,88.085Zm-7.211,2.648,2.768,1.1.83-.645-1.573-2.027,1.319-1.026,4.28,5.517L86.94,95.255c-1.452,1.13-2.8,1.634-3.88.247a1.939,1.939,0,0,1-.106-2.383l-3.116-1.187ZM86,94.124l.788-.613-.9-1.163-.788.613c-.622.484-1.058.917-.652,1.44S85.374,94.608,86,94.124ZM76.258,98.01a1.924,1.924,0,1,0,3.331-1.861,1.931,1.931,0,1,0-3.331,1.861Zm-1.541.861a3.674,3.674,0,0,1,6.413-3.584,3.675,3.675,0,0,1-6.413,3.584Zm-1.8,4.517-1.964-5.15L67.779,99.45l-.525-1.376,4.732-1.809,2.489,6.526ZM66.377,105.5l-1.28-5.362-3.3.79L61.454,99.5l4.926-1.179L68,105.112Zm-15.313-2.154c-.081,1.871,1.235,2.075,2.464,2.129l.378.016.175-4.036-.378-.016C52.474,101.386,51.145,101.476,51.064,103.347Zm4.447,3.689-2.016-.087c-2.31-.1-4.312-.977-4.2-3.678s2.187-3.4,4.5-3.3l2.016.087Zm-13.138-5.178a1.924,1.924,0,1,0,3.714.87,1.931,1.931,0,1,0-3.714-.87Zm-1.719-.4a3.441,3.441,0,0,1,4.409-2.705,3.438,3.438,0,0,1,2.742,4.381,3.387,3.387,0,0,1-4.387,2.656A3.4,3.4,0,0,1,40.654,101.455Zm-7.929.4,1.017-4.826-2.694,4.07-1.61-.725,4.32-5.714L35.4,95.4l-1.028,4.9,2.983-4.021,1.629.734-1.388,7.035-1.629-.734,1.171-4.733L34.3,102.56Zm-6.533-12,1.722,1.188-.473,5.488,2.714-3.941,1.375.949-3.96,5.751L25.849,98.1l.473-5.488L23.608,96.55l-1.375-.95ZM15.969,83.122l3.476,3.958a.673.673,0,1,1-1.01.889l-3.476-3.958a.673.673,0,1,1,1.01-.889Zm-6.192-4.4c-1.3.669-2.576-.459-3.177-1.629a2.789,2.789,0,0,1,.409-3.571l.975,1.367a1.353,1.353,0,0,0-.07,1.634c.284.552.663.877,1,.7.318-.164.379-.55.246-1.038L8.9,75.234c-.295-1.079-.631-2.538.649-3.2,1.373-.708,2.734.33,3.364,1.556.851,1.656.623,3.051-.494,3.982l-.975-1.367a1.517,1.517,0,0,0,.193-1.969c-.264-.514-.688-.971-1.127-.744-.4.207-.315.837-.128,1.521l.226.854C10.9,76.961,10.926,78.132,9.777,78.724ZM6.991,66.194l-.28-1.635a3.164,3.164,0,0,1,3.475,2.416,3.3,3.3,0,0,1-2.336,4.494,3.336,3.336,0,0,1-4.542-2.3,3.084,3.084,0,0,1,1.412-3.9l.739,1.485a1.613,1.613,0,0,0-.793,2.041c.307.94,1.258,1.448,2.636,1,1.418-.464,1.856-1.426,1.549-2.366A1.637,1.637,0,0,0,6.991,66.194Zm1.172-7.642L5.85,60.429l.155,1.041,2.536-.379.246,1.654-6.9,1.031L1.5,61.185c-.271-1.821-.048-3.248,1.687-3.507a1.934,1.934,0,0,1,2.126,1.076l2.561-2.138ZM2.948,60.916,3.1,61.9l1.455-.217L4.4,60.7c-.116-.78-.279-1.373-.934-1.275S2.832,60.136,2.948,60.916ZM4.476,50.448a1.9,1.9,0,0,0-2.224,1.857c-.027,1.031.633,1.922,2.125,1.961s2.25-.815,2.277-1.845S5.968,50.487,4.476,50.448Zm.046-1.767a3.677,3.677,0,0,1-.192,7.351A3.39,3.39,0,0,1,.844,52.268,3.4,3.4,0,0,1,4.523,48.681ZM1.614,44.729,7.025,45.75l.628-3.339,1.446.273-.938,4.983L1.305,46.373Zm1.646-6.718,5.223,1.743,1.073-3.224,1.4.466-1.6,4.811L2.732,39.6Zm9.716-11.894c-1.572-1.015-2.413.019-3.079,1.053l-.205.318,3.391,2.19.205-.318C13.955,28.327,14.549,27.133,12.977,26.118ZM7.551,28.1l1.094-1.7c1.253-1.945,3.02-3.232,5.29-1.767s1.826,3.609.573,5.554l-1.094,1.7Zm10.935-8.776a1.925,1.925,0,1,0-2.554,2.837,1.931,1.931,0,1,0,2.554-2.837Zm1.182-1.313a3.449,3.449,0,0,1,.238,5.172,3.431,3.431,0,0,1-5.156.29,3.394,3.394,0,0,1-.206-5.129A3.393,3.393,0,0,1,19.667,18.008Zm3.349-7.15,3.778,3.165L24.47,9.73l1.4-1.082,3.01,6.5-1.421,1.1-3.839-3.211,2.144,4.525-1.412,1.1L18.8,14.13l1.412-1.1,3.623,3.258-2.178-4.379Zm13.654-.136-1.856.965L30.2,8.693l2.2,4.248-1.483.771L27.7,7.513l1.856-.965,4.618,2.993-2.2-4.248,1.483-.771ZM47.478,4.978,42.335,6.1a.673.673,0,0,1-.287-1.316l5.143-1.124a.673.673,0,0,1,.287,1.316Z" transform="translate(-0.843 -0.036)" fill-rule="evenodd"/>
    </g>
  </g>
</svg>
